G04 #@! TF.GenerationSoftware,KiCad,Pcbnew,7.0.8-7.0.8~ubuntu22.04.1*
G04 #@! TF.CreationDate,2023-10-08T19:27:18+02:00*
G04 #@! TF.ProjectId,nrw65-pcb,6e727736-352d-4706-9362-2e6b69636164,rev?*
G04 #@! TF.SameCoordinates,Original*
G04 #@! TF.FileFunction,Copper,L2,Bot*
G04 #@! TF.FilePolarity,Positive*
%FSLAX46Y46*%
G04 Gerber Fmt 4.6, Leading zero omitted, Abs format (unit mm)*
G04 Created by KiCad (PCBNEW 7.0.8-7.0.8~ubuntu22.04.1) date 2023-10-08 19:27:18*
%MOMM*%
%LPD*%
G01*
G04 APERTURE LIST*
G04 Aperture macros list*
%AMRoundRect*
0 Rectangle with rounded corners*
0 $1 Rounding radius*
0 $2 $3 $4 $5 $6 $7 $8 $9 X,Y pos of 4 corners*
0 Add a 4 corners polygon primitive as box body*
4,1,4,$2,$3,$4,$5,$6,$7,$8,$9,$2,$3,0*
0 Add four circle primitives for the rounded corners*
1,1,$1+$1,$2,$3*
1,1,$1+$1,$4,$5*
1,1,$1+$1,$6,$7*
1,1,$1+$1,$8,$9*
0 Add four rect primitives between the rounded corners*
20,1,$1+$1,$2,$3,$4,$5,0*
20,1,$1+$1,$4,$5,$6,$7,0*
20,1,$1+$1,$6,$7,$8,$9,0*
20,1,$1+$1,$8,$9,$2,$3,0*%
G04 Aperture macros list end*
G04 #@! TA.AperFunction,SMDPad,CuDef*
%ADD10RoundRect,0.260000X-1.040000X-1.040000X1.040000X-1.040000X1.040000X1.040000X-1.040000X1.040000X0*%
G04 #@! TD*
G04 #@! TA.AperFunction,SMDPad,CuDef*
%ADD11RoundRect,0.250000X-1.025000X-1.000000X1.025000X-1.000000X1.025000X1.000000X-1.025000X1.000000X0*%
G04 #@! TD*
G04 #@! TA.AperFunction,SMDPad,CuDef*
%ADD12R,2.060000X2.600000*%
G04 #@! TD*
G04 #@! TA.AperFunction,SMDPad,CuDef*
%ADD13R,1.650000X2.500000*%
G04 #@! TD*
G04 #@! TA.AperFunction,ComponentPad*
%ADD14C,3.300000*%
G04 #@! TD*
G04 #@! TA.AperFunction,SMDPad,CuDef*
%ADD15R,2.050000X2.600000*%
G04 #@! TD*
G04 #@! TA.AperFunction,ComponentPad*
%ADD16C,2.000000*%
G04 #@! TD*
G04 #@! TA.AperFunction,ComponentPad*
%ADD17RoundRect,0.500000X0.500000X0.500000X-0.500000X0.500000X-0.500000X-0.500000X0.500000X-0.500000X0*%
G04 #@! TD*
G04 #@! TA.AperFunction,ComponentPad*
%ADD18C,2.500000*%
G04 #@! TD*
G04 #@! TA.AperFunction,ComponentPad*
%ADD19C,2.300000*%
G04 #@! TD*
G04 #@! TA.AperFunction,SMDPad,CuDef*
%ADD20RoundRect,0.225000X0.375000X-0.225000X0.375000X0.225000X-0.375000X0.225000X-0.375000X-0.225000X0*%
G04 #@! TD*
G04 #@! TA.AperFunction,SMDPad,CuDef*
%ADD21RoundRect,0.200000X-0.200000X0.300000X-0.200000X-0.300000X0.200000X-0.300000X0.200000X0.300000X0*%
G04 #@! TD*
G04 #@! TA.AperFunction,SMDPad,CuDef*
%ADD22RoundRect,0.175000X-0.575000X0.175000X-0.575000X-0.175000X0.575000X-0.175000X0.575000X0.175000X0*%
G04 #@! TD*
G04 #@! TA.AperFunction,ComponentPad*
%ADD23O,1.750000X1.200000*%
G04 #@! TD*
G04 #@! TA.AperFunction,ComponentPad*
%ADD24RoundRect,0.250000X0.625000X-0.350000X0.625000X0.350000X-0.625000X0.350000X-0.625000X-0.350000X0*%
G04 #@! TD*
G04 #@! TA.AperFunction,ComponentPad*
%ADD25C,1.800000*%
G04 #@! TD*
G04 #@! TA.AperFunction,ComponentPad*
%ADD26RoundRect,0.450000X0.450000X-0.450000X0.450000X0.450000X-0.450000X0.450000X-0.450000X-0.450000X0*%
G04 #@! TD*
G04 #@! TA.AperFunction,ViaPad*
%ADD27C,0.800000*%
G04 #@! TD*
G04 #@! TA.AperFunction,Conductor*
%ADD28C,0.250000*%
G04 #@! TD*
G04 APERTURE END LIST*
D10*
X45900000Y-63037500D03*
D11*
X46215000Y-55797500D03*
D12*
X47255000Y-63037500D03*
D13*
X47940000Y-55797500D03*
D14*
X49175000Y-63037500D03*
X49765000Y-55797500D03*
X56115000Y-53257500D03*
X56175000Y-64087500D03*
D13*
X57915000Y-53257500D03*
D15*
X58100000Y-64087500D03*
D10*
X59450000Y-64087500D03*
D11*
X59665000Y-53257500D03*
D10*
X164962500Y-82087500D03*
D11*
X165277500Y-74847500D03*
D12*
X166317500Y-82087500D03*
D13*
X167002500Y-74847500D03*
D14*
X168237500Y-82087500D03*
X168827500Y-74847500D03*
X175177500Y-72307500D03*
X175237500Y-83137500D03*
D13*
X176977500Y-72307500D03*
D15*
X177162500Y-83137500D03*
D10*
X178512500Y-83137500D03*
D11*
X178727500Y-72307500D03*
D10*
X88762500Y-82087500D03*
D11*
X89077500Y-74847500D03*
D12*
X90117500Y-82087500D03*
D13*
X90802500Y-74847500D03*
D14*
X92037500Y-82087500D03*
X92627500Y-74847500D03*
X98977500Y-72307500D03*
X99037500Y-83137500D03*
D13*
X100777500Y-72307500D03*
D15*
X100962500Y-83137500D03*
D10*
X102312500Y-83137500D03*
D11*
X102527500Y-72307500D03*
D10*
X69712500Y-82087500D03*
D11*
X70027500Y-74847500D03*
D12*
X71067500Y-82087500D03*
D13*
X71752500Y-74847500D03*
D14*
X72987500Y-82087500D03*
X73577500Y-74847500D03*
X79927500Y-72307500D03*
X79987500Y-83137500D03*
D13*
X81727500Y-72307500D03*
D15*
X81912500Y-83137500D03*
D10*
X83262500Y-83137500D03*
D11*
X83477500Y-72307500D03*
D10*
X29231250Y-82087500D03*
D11*
X29546250Y-74847500D03*
D12*
X30586250Y-82087500D03*
D13*
X31271250Y-74847500D03*
D14*
X32506250Y-82087500D03*
X33096250Y-74847500D03*
X39446250Y-72307500D03*
X39506250Y-83137500D03*
D13*
X41246250Y-72307500D03*
D15*
X41431250Y-83137500D03*
D10*
X42781250Y-83137500D03*
D11*
X42996250Y-72307500D03*
D10*
X198300000Y-63037500D03*
D11*
X198615000Y-55797500D03*
D12*
X199655000Y-63037500D03*
D13*
X200340000Y-55797500D03*
D14*
X201575000Y-63037500D03*
X202165000Y-55797500D03*
X208515000Y-53257500D03*
X208575000Y-64087500D03*
D13*
X210315000Y-53257500D03*
D15*
X210500000Y-64087500D03*
D10*
X211850000Y-64087500D03*
D11*
X212065000Y-53257500D03*
D10*
X64950000Y-39225000D03*
D11*
X65265000Y-31985000D03*
D12*
X66305000Y-39225000D03*
D13*
X66990000Y-31985000D03*
D14*
X68225000Y-39225000D03*
X68815000Y-31985000D03*
X75165000Y-29445000D03*
X75225000Y-40275000D03*
D13*
X76965000Y-29445000D03*
D15*
X77150000Y-40275000D03*
D10*
X78500000Y-40275000D03*
D11*
X78715000Y-29445000D03*
D10*
X76856250Y-120187500D03*
D11*
X77171250Y-112947500D03*
D12*
X78211250Y-120187500D03*
D13*
X78896250Y-112947500D03*
D14*
X80131250Y-120187500D03*
X80721250Y-112947500D03*
X87071250Y-110407500D03*
X87131250Y-121237500D03*
D13*
X88871250Y-110407500D03*
D15*
X89056250Y-121237500D03*
D10*
X90406250Y-121237500D03*
D11*
X90621250Y-110407500D03*
D10*
X45900000Y-39225000D03*
D11*
X46215000Y-31985000D03*
D12*
X47255000Y-39225000D03*
D13*
X47940000Y-31985000D03*
D14*
X49175000Y-39225000D03*
X49765000Y-31985000D03*
X56115000Y-29445000D03*
X56175000Y-40275000D03*
D13*
X57915000Y-29445000D03*
D15*
X58100000Y-40275000D03*
D10*
X59450000Y-40275000D03*
D11*
X59665000Y-29445000D03*
D10*
X103050000Y-63037500D03*
D11*
X103365000Y-55797500D03*
D12*
X104405000Y-63037500D03*
D13*
X105090000Y-55797500D03*
D14*
X106325000Y-63037500D03*
X106915000Y-55797500D03*
X113265000Y-53257500D03*
X113325000Y-64087500D03*
D13*
X115065000Y-53257500D03*
D15*
X115250000Y-64087500D03*
D10*
X116600000Y-64087500D03*
D11*
X116815000Y-53257500D03*
D10*
X179250000Y-63037500D03*
D11*
X179565000Y-55797500D03*
D12*
X180605000Y-63037500D03*
D13*
X181290000Y-55797500D03*
D14*
X182525000Y-63037500D03*
X183115000Y-55797500D03*
X189465000Y-53257500D03*
X189525000Y-64087500D03*
D13*
X191265000Y-53257500D03*
D15*
X191450000Y-64087500D03*
D10*
X192800000Y-64087500D03*
D11*
X193015000Y-53257500D03*
D10*
X126862500Y-82087500D03*
D11*
X127177500Y-74847500D03*
D12*
X128217500Y-82087500D03*
D13*
X128902500Y-74847500D03*
D14*
X130137500Y-82087500D03*
X130727500Y-74847500D03*
X137077500Y-72307500D03*
X137137500Y-83137500D03*
D13*
X138877500Y-72307500D03*
D15*
X139062500Y-83137500D03*
D10*
X140412500Y-83137500D03*
D11*
X140627500Y-72307500D03*
D10*
X107812500Y-82087500D03*
D11*
X108127500Y-74847500D03*
D12*
X109167500Y-82087500D03*
D13*
X109852500Y-74847500D03*
D14*
X111087500Y-82087500D03*
X111677500Y-74847500D03*
X118027500Y-72307500D03*
X118087500Y-83137500D03*
D13*
X119827500Y-72307500D03*
D15*
X120012500Y-83137500D03*
D10*
X121362500Y-83137500D03*
D11*
X121577500Y-72307500D03*
D10*
X269737500Y-124950000D03*
D11*
X270052500Y-117710000D03*
D12*
X271092500Y-124950000D03*
D13*
X271777500Y-117710000D03*
D14*
X273012500Y-124950000D03*
X273602500Y-117710000D03*
X279952500Y-115170000D03*
X280012500Y-126000000D03*
D13*
X281752500Y-115170000D03*
D15*
X281937500Y-126000000D03*
D10*
X283287500Y-126000000D03*
D11*
X283502500Y-115170000D03*
D10*
X131625000Y-101137500D03*
D11*
X131940000Y-93897500D03*
D12*
X132980000Y-101137500D03*
D13*
X133665000Y-93897500D03*
D14*
X134900000Y-101137500D03*
X135490000Y-93897500D03*
X141840000Y-91357500D03*
X141900000Y-102187500D03*
D13*
X143640000Y-91357500D03*
D15*
X143825000Y-102187500D03*
D10*
X145175000Y-102187500D03*
D11*
X145390000Y-91357500D03*
D10*
X29231250Y-120187500D03*
D11*
X29546250Y-112947500D03*
D12*
X30586250Y-120187500D03*
D13*
X31271250Y-112947500D03*
D14*
X32506250Y-120187500D03*
X33096250Y-112947500D03*
X39446250Y-110407500D03*
X39506250Y-121237500D03*
D13*
X41246250Y-110407500D03*
D15*
X41431250Y-121237500D03*
D10*
X42781250Y-121237500D03*
D11*
X42996250Y-110407500D03*
D10*
X188775000Y-101137500D03*
D11*
X189090000Y-93897500D03*
D12*
X190130000Y-101137500D03*
D13*
X190815000Y-93897500D03*
D14*
X192050000Y-101137500D03*
X192640000Y-93897500D03*
X198990000Y-91357500D03*
X199050000Y-102187500D03*
D13*
X200790000Y-91357500D03*
D15*
X200975000Y-102187500D03*
D10*
X202325000Y-102187500D03*
D11*
X202540000Y-91357500D03*
D10*
X167343750Y-124950000D03*
D11*
X167658750Y-117710000D03*
D12*
X168698750Y-124950000D03*
D13*
X169383750Y-117710000D03*
D14*
X170618750Y-124950000D03*
X171208750Y-117710000D03*
X177558750Y-115170000D03*
X177618750Y-126000000D03*
D13*
X179358750Y-115170000D03*
D15*
X179543750Y-126000000D03*
D10*
X180893750Y-126000000D03*
D11*
X181108750Y-115170000D03*
D10*
X269737500Y-63037500D03*
D11*
X270052500Y-55797500D03*
D12*
X271092500Y-63037500D03*
D13*
X271777500Y-55797500D03*
D14*
X273012500Y-63037500D03*
X273602500Y-55797500D03*
X279952500Y-53257500D03*
X280012500Y-64087500D03*
D13*
X281752500Y-53257500D03*
D15*
X281937500Y-64087500D03*
D10*
X283287500Y-64087500D03*
D11*
X283502500Y-53257500D03*
D10*
X74475000Y-101137500D03*
D11*
X74790000Y-93897500D03*
D12*
X75830000Y-101137500D03*
D13*
X76515000Y-93897500D03*
D14*
X77750000Y-101137500D03*
X78340000Y-93897500D03*
X84690000Y-91357500D03*
X84750000Y-102187500D03*
D13*
X86490000Y-91357500D03*
D15*
X86675000Y-102187500D03*
D10*
X88025000Y-102187500D03*
D11*
X88240000Y-91357500D03*
D10*
X84000000Y-39225000D03*
D11*
X84315000Y-31985000D03*
D12*
X85355000Y-39225000D03*
D13*
X86040000Y-31985000D03*
D14*
X87275000Y-39225000D03*
X87865000Y-31985000D03*
X94215000Y-29445000D03*
X94275000Y-40275000D03*
D13*
X96015000Y-29445000D03*
D15*
X96200000Y-40275000D03*
D10*
X97550000Y-40275000D03*
D11*
X97765000Y-29445000D03*
D10*
X141150000Y-63037500D03*
D11*
X141465000Y-55797500D03*
D12*
X142505000Y-63037500D03*
D13*
X143190000Y-55797500D03*
D14*
X144425000Y-63037500D03*
X145015000Y-55797500D03*
X151365000Y-53257500D03*
X151425000Y-64087500D03*
D13*
X153165000Y-53257500D03*
D15*
X153350000Y-64087500D03*
D10*
X154700000Y-64087500D03*
D11*
X154915000Y-53257500D03*
D10*
X64950000Y-63037500D03*
D11*
X65265000Y-55797500D03*
D12*
X66305000Y-63037500D03*
D13*
X66990000Y-55797500D03*
D14*
X68225000Y-63037500D03*
X68815000Y-55797500D03*
X75165000Y-53257500D03*
X75225000Y-64087500D03*
D13*
X76965000Y-53257500D03*
D15*
X77150000Y-64087500D03*
D10*
X78500000Y-64087500D03*
D11*
X78715000Y-53257500D03*
D10*
X55425000Y-101137500D03*
D11*
X55740000Y-93897500D03*
D12*
X56780000Y-101137500D03*
D13*
X57465000Y-93897500D03*
D14*
X58700000Y-101137500D03*
X59290000Y-93897500D03*
X65640000Y-91357500D03*
X65700000Y-102187500D03*
D13*
X67440000Y-91357500D03*
D15*
X67625000Y-102187500D03*
D10*
X68975000Y-102187500D03*
D11*
X69190000Y-91357500D03*
D10*
X217350000Y-63037500D03*
D11*
X217665000Y-55797500D03*
D12*
X218705000Y-63037500D03*
D13*
X219390000Y-55797500D03*
D14*
X220625000Y-63037500D03*
X221215000Y-55797500D03*
X227565000Y-53257500D03*
X227625000Y-64087500D03*
D13*
X229365000Y-53257500D03*
D15*
X229550000Y-64087500D03*
D10*
X230900000Y-64087500D03*
D11*
X231115000Y-53257500D03*
D10*
X122100000Y-63037500D03*
D11*
X122415000Y-55797500D03*
D12*
X123455000Y-63037500D03*
D13*
X124140000Y-55797500D03*
D14*
X125375000Y-63037500D03*
X125965000Y-55797500D03*
X132315000Y-53257500D03*
X132375000Y-64087500D03*
D13*
X134115000Y-53257500D03*
D15*
X134300000Y-64087500D03*
D10*
X135650000Y-64087500D03*
D11*
X135865000Y-53257500D03*
D10*
X160200000Y-63037500D03*
D11*
X160515000Y-55797500D03*
D12*
X161555000Y-63037500D03*
D13*
X162240000Y-55797500D03*
D14*
X163475000Y-63037500D03*
X164065000Y-55797500D03*
X170415000Y-53257500D03*
X170475000Y-64087500D03*
D13*
X172215000Y-53257500D03*
D15*
X172400000Y-64087500D03*
D10*
X173750000Y-64087500D03*
D11*
X173965000Y-53257500D03*
D10*
X53043750Y-120187500D03*
D11*
X53358750Y-112947500D03*
D12*
X54398750Y-120187500D03*
D13*
X55083750Y-112947500D03*
D14*
X56318750Y-120187500D03*
X56908750Y-112947500D03*
X63258750Y-110407500D03*
X63318750Y-121237500D03*
D13*
X65058750Y-110407500D03*
D15*
X65243750Y-121237500D03*
D10*
X66593750Y-121237500D03*
D11*
X66808750Y-110407500D03*
D10*
X84000000Y-63037500D03*
D11*
X84315000Y-55797500D03*
D12*
X85355000Y-63037500D03*
D13*
X86040000Y-55797500D03*
D14*
X87275000Y-63037500D03*
X87865000Y-55797500D03*
X94215000Y-53257500D03*
X94275000Y-64087500D03*
D13*
X96015000Y-53257500D03*
D15*
X96200000Y-64087500D03*
D10*
X97550000Y-64087500D03*
D11*
X97765000Y-53257500D03*
D10*
X184012500Y-82087500D03*
D11*
X184327500Y-74847500D03*
D12*
X185367500Y-82087500D03*
D13*
X186052500Y-74847500D03*
D14*
X187287500Y-82087500D03*
X187877500Y-74847500D03*
X194227500Y-72307500D03*
X194287500Y-83137500D03*
D13*
X196027500Y-72307500D03*
D15*
X196212500Y-83137500D03*
D10*
X197562500Y-83137500D03*
D11*
X197777500Y-72307500D03*
D10*
X126862500Y-39225000D03*
D11*
X127177500Y-31985000D03*
D12*
X128217500Y-39225000D03*
D13*
X128902500Y-31985000D03*
D14*
X130137500Y-39225000D03*
X130727500Y-31985000D03*
X137077500Y-29445000D03*
X137137500Y-40275000D03*
D13*
X138877500Y-29445000D03*
D15*
X139062500Y-40275000D03*
D10*
X140412500Y-40275000D03*
D11*
X140627500Y-29445000D03*
D10*
X145912500Y-82087500D03*
D11*
X146227500Y-74847500D03*
D12*
X147267500Y-82087500D03*
D13*
X147952500Y-74847500D03*
D14*
X149187500Y-82087500D03*
X149777500Y-74847500D03*
X156127500Y-72307500D03*
X156187500Y-83137500D03*
D13*
X157927500Y-72307500D03*
D15*
X158112500Y-83137500D03*
D10*
X159462500Y-83137500D03*
D11*
X159677500Y-72307500D03*
D10*
X203062500Y-82087500D03*
D11*
X203377500Y-74847500D03*
D12*
X204417500Y-82087500D03*
D13*
X205102500Y-74847500D03*
D14*
X206337500Y-82087500D03*
X206927500Y-74847500D03*
X213277500Y-72307500D03*
X213337500Y-83137500D03*
D13*
X215077500Y-72307500D03*
D15*
X215262500Y-83137500D03*
D10*
X216612500Y-83137500D03*
D11*
X216827500Y-72307500D03*
D10*
X145912500Y-39225000D03*
D11*
X146227500Y-31985000D03*
D12*
X147267500Y-39225000D03*
D13*
X147952500Y-31985000D03*
D14*
X149187500Y-39225000D03*
X149777500Y-31985000D03*
X156127500Y-29445000D03*
X156187500Y-40275000D03*
D13*
X157927500Y-29445000D03*
D15*
X158112500Y-40275000D03*
D10*
X159462500Y-40275000D03*
D11*
X159677500Y-29445000D03*
D10*
X112575000Y-101137500D03*
D11*
X112890000Y-93897500D03*
D12*
X113930000Y-101137500D03*
D13*
X114615000Y-93897500D03*
D14*
X115850000Y-101137500D03*
X116440000Y-93897500D03*
X122790000Y-91357500D03*
X122850000Y-102187500D03*
D13*
X124590000Y-91357500D03*
D15*
X124775000Y-102187500D03*
D10*
X126125000Y-102187500D03*
D11*
X126340000Y-91357500D03*
D10*
X93525000Y-101137500D03*
D11*
X93840000Y-93897500D03*
D12*
X94880000Y-101137500D03*
D13*
X95565000Y-93897500D03*
D14*
X96800000Y-101137500D03*
X97390000Y-93897500D03*
X103740000Y-91357500D03*
X103800000Y-102187500D03*
D13*
X105540000Y-91357500D03*
D15*
X105725000Y-102187500D03*
D10*
X107075000Y-102187500D03*
D11*
X107290000Y-91357500D03*
D10*
X207825000Y-101137500D03*
D11*
X208140000Y-93897500D03*
D12*
X209180000Y-101137500D03*
D13*
X209865000Y-93897500D03*
D14*
X211100000Y-101137500D03*
X211690000Y-93897500D03*
X218040000Y-91357500D03*
X218100000Y-102187500D03*
D13*
X219840000Y-91357500D03*
D15*
X220025000Y-102187500D03*
D10*
X221375000Y-102187500D03*
D11*
X221590000Y-91357500D03*
D10*
X107812500Y-39225000D03*
D11*
X108127500Y-31985000D03*
D12*
X109167500Y-39225000D03*
D13*
X109852500Y-31985000D03*
D14*
X111087500Y-39225000D03*
X111677500Y-31985000D03*
X118027500Y-29445000D03*
X118087500Y-40275000D03*
D13*
X119827500Y-29445000D03*
D15*
X120012500Y-40275000D03*
D10*
X121362500Y-40275000D03*
D11*
X121577500Y-29445000D03*
D10*
X205443750Y-120187500D03*
D11*
X205758750Y-112947500D03*
D12*
X206798750Y-120187500D03*
D13*
X207483750Y-112947500D03*
D14*
X208718750Y-120187500D03*
X209308750Y-112947500D03*
X215658750Y-110407500D03*
X215718750Y-121237500D03*
D13*
X217458750Y-110407500D03*
D15*
X217643750Y-121237500D03*
D10*
X218993750Y-121237500D03*
D11*
X219208750Y-110407500D03*
D10*
X269737500Y-82087500D03*
D11*
X270052500Y-74847500D03*
D12*
X271092500Y-82087500D03*
D13*
X271777500Y-74847500D03*
D14*
X273012500Y-82087500D03*
X273602500Y-74847500D03*
X279952500Y-72307500D03*
X280012500Y-83137500D03*
D13*
X281752500Y-72307500D03*
D15*
X281937500Y-83137500D03*
D10*
X283287500Y-83137500D03*
D11*
X283502500Y-72307500D03*
D10*
X226875000Y-101137500D03*
D11*
X227190000Y-93897500D03*
D12*
X228230000Y-101137500D03*
D13*
X228915000Y-93897500D03*
D14*
X230150000Y-101137500D03*
X230740000Y-93897500D03*
X237090000Y-91357500D03*
X237150000Y-102187500D03*
D13*
X238890000Y-91357500D03*
D15*
X239075000Y-102187500D03*
D10*
X240425000Y-102187500D03*
D11*
X240640000Y-91357500D03*
D10*
X26850000Y-63037500D03*
D11*
X27165000Y-55797500D03*
D12*
X28205000Y-63037500D03*
D13*
X28890000Y-55797500D03*
D14*
X30125000Y-63037500D03*
X30715000Y-55797500D03*
X37065000Y-53257500D03*
X37125000Y-64087500D03*
D13*
X38865000Y-53257500D03*
D15*
X39050000Y-64087500D03*
D10*
X40400000Y-64087500D03*
D11*
X40615000Y-53257500D03*
D10*
X250687500Y-124950000D03*
D11*
X251002500Y-117710000D03*
D12*
X252042500Y-124950000D03*
D13*
X252727500Y-117710000D03*
D14*
X253962500Y-124950000D03*
X254552500Y-117710000D03*
X260902500Y-115170000D03*
X260962500Y-126000000D03*
D13*
X262702500Y-115170000D03*
D15*
X262887500Y-126000000D03*
D10*
X264237500Y-126000000D03*
D11*
X264452500Y-115170000D03*
D10*
X119718750Y-124950000D03*
D11*
X120033750Y-117710000D03*
D12*
X121073750Y-124950000D03*
D13*
X121758750Y-117710000D03*
D14*
X122993750Y-124950000D03*
X123583750Y-117710000D03*
X129933750Y-115170000D03*
X129993750Y-126000000D03*
D13*
X131733750Y-115170000D03*
D15*
X131918750Y-126000000D03*
D10*
X133268750Y-126000000D03*
D11*
X133483750Y-115170000D03*
D16*
X284912500Y-37025000D03*
X284912500Y-32025000D03*
D17*
X284912500Y-34525000D03*
D16*
X270412500Y-32025000D03*
X270412500Y-37025000D03*
D10*
X26850000Y-39225000D03*
D11*
X27165000Y-31985000D03*
D12*
X28205000Y-39225000D03*
D13*
X28890000Y-31985000D03*
D14*
X30125000Y-39225000D03*
X30715000Y-31985000D03*
X37065000Y-29445000D03*
X37125000Y-40275000D03*
D13*
X38865000Y-29445000D03*
D15*
X39050000Y-40275000D03*
D10*
X40400000Y-40275000D03*
D11*
X40615000Y-29445000D03*
D10*
X150675000Y-101137500D03*
D11*
X150990000Y-93897500D03*
D12*
X152030000Y-101137500D03*
D13*
X152715000Y-93897500D03*
D14*
X153950000Y-101137500D03*
X154540000Y-93897500D03*
X160890000Y-91357500D03*
X160950000Y-102187500D03*
D13*
X162690000Y-91357500D03*
D15*
X162875000Y-102187500D03*
D10*
X164225000Y-102187500D03*
D11*
X164440000Y-91357500D03*
D10*
X164962500Y-39225000D03*
D11*
X165277500Y-31985000D03*
D12*
X166317500Y-39225000D03*
D13*
X167002500Y-31985000D03*
D14*
X168237500Y-39225000D03*
X168827500Y-31985000D03*
X175177500Y-29445000D03*
X175237500Y-40275000D03*
D13*
X176977500Y-29445000D03*
D15*
X177162500Y-40275000D03*
D10*
X178512500Y-40275000D03*
D11*
X178727500Y-29445000D03*
D10*
X243543750Y-72562500D03*
D11*
X243858750Y-65322500D03*
D12*
X244898750Y-72562500D03*
D13*
X245583750Y-65322500D03*
D14*
X246818750Y-72562500D03*
X247408750Y-65322500D03*
X253758750Y-62782500D03*
X253818750Y-73612500D03*
D13*
X255558750Y-62782500D03*
D15*
X255743750Y-73612500D03*
D10*
X257093750Y-73612500D03*
D11*
X257308750Y-62782500D03*
D10*
X188775000Y-39225000D03*
D11*
X189090000Y-31985000D03*
D12*
X190130000Y-39225000D03*
D13*
X190815000Y-31985000D03*
D14*
X192050000Y-39225000D03*
X192640000Y-31985000D03*
X198990000Y-29445000D03*
X199050000Y-40275000D03*
D13*
X200790000Y-29445000D03*
D15*
X200975000Y-40275000D03*
D10*
X202325000Y-40275000D03*
D11*
X202540000Y-29445000D03*
D10*
X226875000Y-39225000D03*
D11*
X227190000Y-31985000D03*
D12*
X228230000Y-39225000D03*
D13*
X228915000Y-31985000D03*
D14*
X230150000Y-39225000D03*
X230740000Y-31985000D03*
X237090000Y-29445000D03*
X237150000Y-40275000D03*
D13*
X238890000Y-29445000D03*
D15*
X239075000Y-40275000D03*
D10*
X240425000Y-40275000D03*
D11*
X240640000Y-29445000D03*
D18*
X258300000Y-38925000D03*
D19*
X251060000Y-38335000D03*
X248520000Y-31985000D03*
D18*
X259350000Y-31925000D03*
D10*
X31612500Y-101137500D03*
D11*
X31927500Y-93897500D03*
D12*
X32967500Y-101137500D03*
D13*
X33652500Y-93897500D03*
D14*
X34887500Y-101137500D03*
X35477500Y-93897500D03*
X41827500Y-91357500D03*
X41887500Y-102187500D03*
D13*
X43627500Y-91357500D03*
D15*
X43812500Y-102187500D03*
D10*
X45162500Y-102187500D03*
D11*
X45377500Y-91357500D03*
D10*
X169725000Y-101137500D03*
D11*
X170040000Y-93897500D03*
D12*
X171080000Y-101137500D03*
D13*
X171765000Y-93897500D03*
D14*
X173000000Y-101137500D03*
X173590000Y-93897500D03*
X179940000Y-91357500D03*
X180000000Y-102187500D03*
D13*
X181740000Y-91357500D03*
D15*
X181925000Y-102187500D03*
D10*
X183275000Y-102187500D03*
D11*
X183490000Y-91357500D03*
D10*
X231637500Y-124950000D03*
D11*
X231952500Y-117710000D03*
D12*
X232992500Y-124950000D03*
D13*
X233677500Y-117710000D03*
D14*
X234912500Y-124950000D03*
X235502500Y-117710000D03*
X241852500Y-115170000D03*
X241912500Y-126000000D03*
D13*
X243652500Y-115170000D03*
D15*
X243837500Y-126000000D03*
D10*
X245187500Y-126000000D03*
D11*
X245402500Y-115170000D03*
D10*
X207825000Y-39225000D03*
D11*
X208140000Y-31985000D03*
D12*
X209180000Y-39225000D03*
D13*
X209865000Y-31985000D03*
D14*
X211100000Y-39225000D03*
X211690000Y-31985000D03*
X218040000Y-29445000D03*
X218100000Y-40275000D03*
D13*
X219840000Y-29445000D03*
D15*
X220025000Y-40275000D03*
D10*
X221375000Y-40275000D03*
D11*
X221590000Y-29445000D03*
D10*
X250687500Y-105900000D03*
D11*
X251002500Y-98660000D03*
D12*
X252042500Y-105900000D03*
D13*
X252727500Y-98660000D03*
D14*
X253962500Y-105900000D03*
X254552500Y-98660000D03*
X260902500Y-96120000D03*
X260962500Y-106950000D03*
D13*
X262702500Y-96120000D03*
D15*
X262887500Y-106950000D03*
D10*
X264237500Y-106950000D03*
D11*
X264452500Y-96120000D03*
D10*
X50662500Y-82087500D03*
D11*
X50977500Y-74847500D03*
D12*
X52017500Y-82087500D03*
D13*
X52702500Y-74847500D03*
D14*
X53937500Y-82087500D03*
X54527500Y-74847500D03*
X60877500Y-72307500D03*
X60937500Y-83137500D03*
D13*
X62677500Y-72307500D03*
D15*
X62862500Y-83137500D03*
D10*
X64212500Y-83137500D03*
D11*
X64427500Y-72307500D03*
D10*
X222112500Y-82087500D03*
D11*
X222427500Y-74847500D03*
D12*
X223467500Y-82087500D03*
D13*
X224152500Y-74847500D03*
D14*
X225387500Y-82087500D03*
X225977500Y-74847500D03*
X232327500Y-72307500D03*
X232387500Y-83137500D03*
D13*
X234127500Y-72307500D03*
D15*
X234312500Y-83137500D03*
D10*
X235662500Y-83137500D03*
D11*
X235877500Y-72307500D03*
D20*
X285887500Y-79512500D03*
X285887500Y-76212500D03*
X181112500Y-36650000D03*
X181112500Y-33350000D03*
X219212500Y-79512500D03*
X219212500Y-76212500D03*
X285887500Y-60462500D03*
X285887500Y-57162500D03*
X66812500Y-79512500D03*
X66812500Y-76212500D03*
X162062500Y-79512500D03*
X162062500Y-76212500D03*
X93006250Y-117612500D03*
X93006250Y-114312500D03*
X45381250Y-79512500D03*
X45381250Y-76212500D03*
X45381250Y-117612500D03*
X45381250Y-114312500D03*
X123962500Y-79512500D03*
X123962500Y-76212500D03*
X204925000Y-98562500D03*
X204925000Y-95262500D03*
X104912500Y-79512500D03*
X104912500Y-76212500D03*
X214450000Y-60462500D03*
X214450000Y-57162500D03*
X162062500Y-36650000D03*
X162062500Y-33350000D03*
X204925000Y-36650000D03*
X204925000Y-33350000D03*
X128725000Y-98562500D03*
X128725000Y-95262500D03*
X266837500Y-103325000D03*
X266837500Y-100025000D03*
X242890000Y-36650000D03*
X242890000Y-33350000D03*
X223975000Y-36650000D03*
X223975000Y-33350000D03*
X176350000Y-60462500D03*
X176350000Y-57162500D03*
X262075000Y-36650000D03*
X262075000Y-33350000D03*
X247787500Y-122375000D03*
X247787500Y-119075000D03*
X109675000Y-98562500D03*
X109675000Y-95262500D03*
X81100000Y-36650000D03*
X81100000Y-33350000D03*
X71575000Y-98562500D03*
X71575000Y-95262500D03*
D21*
X264210000Y-52150000D03*
X266420000Y-52150000D03*
D22*
X263560000Y-46250000D03*
D21*
X264210000Y-44850000D03*
X266420000Y-44850000D03*
D22*
X263560000Y-49250000D03*
X263560000Y-50750000D03*
D20*
X266837500Y-122375000D03*
X266837500Y-119075000D03*
X166825000Y-98562500D03*
X166825000Y-95262500D03*
X233500000Y-60462500D03*
X233500000Y-57162500D03*
X143012500Y-79512500D03*
X143012500Y-76212500D03*
X195400000Y-60462500D03*
X195400000Y-57162500D03*
X85862500Y-79512500D03*
X85862500Y-76212500D03*
X238262500Y-79512500D03*
X238262500Y-76212500D03*
X285887500Y-122375000D03*
X285887500Y-119075000D03*
X259693750Y-69987500D03*
X259693750Y-66687500D03*
D23*
X257170000Y-47210000D03*
D24*
X257170000Y-49210000D03*
D20*
X100150000Y-36650000D03*
X100150000Y-33350000D03*
X62050000Y-60462500D03*
X62050000Y-57162500D03*
X243025000Y-98562500D03*
X243025000Y-95262500D03*
X147775000Y-98562500D03*
X147775000Y-95262500D03*
X185875000Y-98562500D03*
X185875000Y-95262500D03*
X138250000Y-60462500D03*
X138250000Y-57162500D03*
X123962500Y-36650000D03*
X123962500Y-33350000D03*
X135868750Y-122375000D03*
X135868750Y-119075000D03*
X43000000Y-36650000D03*
X43000000Y-33350000D03*
X181112500Y-79512500D03*
X181112500Y-76212500D03*
X100150000Y-60462500D03*
X100150000Y-57162500D03*
X119200000Y-60462500D03*
X119200000Y-57162500D03*
X266700000Y-36650000D03*
X266700000Y-33350000D03*
X90625000Y-98562500D03*
X90625000Y-95262500D03*
X81100000Y-60462500D03*
X81100000Y-57162500D03*
X43000000Y-60462500D03*
X43000000Y-57162500D03*
X47762500Y-98562500D03*
X47762500Y-95262500D03*
X223975000Y-98562500D03*
X223975000Y-95262500D03*
X157300000Y-60462500D03*
X157300000Y-57162500D03*
D25*
X281900000Y-42210000D03*
X279360000Y-42210000D03*
D26*
X276820000Y-42210000D03*
X274280000Y-42210000D03*
D25*
X271740000Y-42210000D03*
X269200000Y-42210000D03*
X266660000Y-42210000D03*
X264120000Y-42210000D03*
X261580000Y-42210000D03*
X259040000Y-42210000D03*
X256500000Y-42210000D03*
X253960000Y-42210000D03*
X281900000Y-26970000D03*
D26*
X279360000Y-26970000D03*
D25*
X276820000Y-26970000D03*
X274280000Y-26970000D03*
X271740000Y-26970000D03*
X269200000Y-26970000D03*
X266660000Y-26970000D03*
X264120000Y-26970000D03*
X261580000Y-26970000D03*
X259040000Y-26970000D03*
X256500000Y-26970000D03*
X253960000Y-26970000D03*
D20*
X200162500Y-79512500D03*
X200162500Y-76212500D03*
X221593750Y-117612500D03*
X221593750Y-114312500D03*
X62050000Y-36650000D03*
X62050000Y-33350000D03*
X69193750Y-117612500D03*
X69193750Y-114312500D03*
X183493750Y-122375000D03*
X183493750Y-119075000D03*
X143012500Y-36650000D03*
X143012500Y-33350000D03*
D27*
X242000000Y-43000000D03*
X244500000Y-35925500D03*
X245261184Y-35040000D03*
X241000000Y-43724500D03*
X246021773Y-35925500D03*
X242000000Y-44500000D03*
X241000000Y-45224500D03*
X246768493Y-35040000D03*
X242000000Y-53600000D03*
X239480000Y-108730000D03*
X245990000Y-86330000D03*
X254540000Y-92570000D03*
D28*
X183493750Y-126307316D02*
X185741066Y-124060000D01*
X185741066Y-124060000D02*
X219078566Y-124060000D01*
X219078566Y-124060000D02*
X221593750Y-121544816D01*
X135868750Y-126307316D02*
X138506066Y-123670000D01*
X138506066Y-123670000D02*
X163156434Y-123670000D01*
X163156434Y-123670000D02*
X167506434Y-128020000D01*
X167506434Y-128020000D02*
X181781066Y-128020000D01*
X181781066Y-128020000D02*
X183493750Y-126307316D01*
X259430000Y-24820000D02*
X261580000Y-26970000D01*
X100150000Y-36650000D02*
X100150000Y-42640000D01*
X226174500Y-43274500D02*
X240424695Y-43274500D01*
X81260000Y-42640000D02*
X100150000Y-42640000D01*
X204925000Y-36650000D02*
X204925000Y-42565000D01*
X143012500Y-36650000D02*
X143012500Y-42507500D01*
X43000000Y-41040000D02*
X44600000Y-42640000D01*
X142880000Y-42640000D02*
X161930000Y-42640000D01*
X245121773Y-34018227D02*
X245121773Y-30878227D01*
X162062500Y-36650000D02*
X162062500Y-42507500D01*
X181112500Y-36650000D02*
X181112500Y-42507500D01*
X241999500Y-42999500D02*
X242000000Y-43000000D01*
X240424695Y-43274500D02*
X240699695Y-42999500D01*
X123962500Y-42507500D02*
X123830000Y-42640000D01*
X181112500Y-42507500D02*
X180980000Y-42640000D01*
X81100000Y-36650000D02*
X81100000Y-42480000D01*
X245121773Y-30878227D02*
X251180000Y-24820000D01*
X251180000Y-24820000D02*
X259430000Y-24820000D01*
X240699695Y-42999500D02*
X241999500Y-42999500D01*
X123830000Y-42640000D02*
X142880000Y-42640000D01*
X223975000Y-41075000D02*
X223975000Y-36650000D01*
X222410000Y-42640000D02*
X223975000Y-41075000D01*
X62050000Y-42590000D02*
X62000000Y-42640000D01*
X244500000Y-35925500D02*
X244500000Y-34640000D01*
X143012500Y-42507500D02*
X142880000Y-42640000D01*
X62000000Y-42640000D02*
X81260000Y-42640000D01*
X81100000Y-42480000D02*
X81260000Y-42640000D01*
X44600000Y-42640000D02*
X62000000Y-42640000D01*
X223975000Y-41075000D02*
X226174500Y-43274500D01*
X43000000Y-36650000D02*
X43000000Y-41040000D01*
X100150000Y-42640000D02*
X123830000Y-42640000D01*
X62050000Y-36650000D02*
X62050000Y-42590000D01*
X123962500Y-36650000D02*
X123962500Y-42507500D01*
X204925000Y-42565000D02*
X205000000Y-42640000D01*
X244500000Y-34640000D02*
X245121773Y-34018227D01*
X161930000Y-42640000D02*
X180980000Y-42640000D01*
X162062500Y-42507500D02*
X161930000Y-42640000D01*
X205000000Y-42640000D02*
X222410000Y-42640000D01*
X180980000Y-42640000D02*
X205000000Y-42640000D01*
X38231726Y-39168274D02*
X37125000Y-40275000D01*
X38231726Y-30611726D02*
X38231726Y-39168274D01*
X40615000Y-29445000D02*
X40615000Y-30965000D01*
X40615000Y-30965000D02*
X43000000Y-33350000D01*
X37065000Y-29445000D02*
X38231726Y-30611726D01*
X59665000Y-30965000D02*
X62050000Y-33350000D01*
X57281726Y-30611726D02*
X57281726Y-39168274D01*
X57281726Y-39168274D02*
X56175000Y-40275000D01*
X59665000Y-29445000D02*
X59665000Y-30965000D01*
X56115000Y-29445000D02*
X57281726Y-30611726D01*
X78715000Y-30965000D02*
X81100000Y-33350000D01*
X76331726Y-39168274D02*
X75225000Y-40275000D01*
X76331726Y-30611726D02*
X76331726Y-39168274D01*
X78715000Y-29445000D02*
X78715000Y-30965000D01*
X75165000Y-29445000D02*
X76331726Y-30611726D01*
X97765000Y-29445000D02*
X97765000Y-30965000D01*
X95381726Y-30611726D02*
X95381726Y-39168274D01*
X95381726Y-39168274D02*
X94275000Y-40275000D01*
X97765000Y-30965000D02*
X100150000Y-33350000D01*
X94215000Y-29445000D02*
X95381726Y-30611726D01*
X121577500Y-30965000D02*
X123962500Y-33350000D01*
X118027500Y-29445000D02*
X119194226Y-30611726D01*
X119194226Y-30611726D02*
X119194226Y-39168274D01*
X119194226Y-39168274D02*
X118087500Y-40275000D01*
X121577500Y-29445000D02*
X121577500Y-30965000D01*
X137077500Y-29445000D02*
X138244226Y-30611726D01*
X138244226Y-39168274D02*
X137137500Y-40275000D01*
X138244226Y-30611726D02*
X138244226Y-39168274D01*
X140627500Y-29445000D02*
X140627500Y-30965000D01*
X140627500Y-30965000D02*
X143012500Y-33350000D01*
X157417500Y-30735000D02*
X157417500Y-39045000D01*
X159677500Y-30965000D02*
X162062500Y-33350000D01*
X156127500Y-29445000D02*
X157417500Y-30735000D01*
X157417500Y-39045000D02*
X156187500Y-40275000D01*
X159677500Y-29445000D02*
X159677500Y-30965000D01*
X175177500Y-29445000D02*
X176344226Y-30611726D01*
X178727500Y-29445000D02*
X178727500Y-30965000D01*
X176344226Y-30611726D02*
X176344226Y-39168274D01*
X176344226Y-39168274D02*
X175237500Y-40275000D01*
X178727500Y-30965000D02*
X181112500Y-33350000D01*
X200156726Y-39168274D02*
X199050000Y-40275000D01*
X198990000Y-29445000D02*
X200156726Y-30611726D01*
X202540000Y-29445000D02*
X202540000Y-30965000D01*
X200156726Y-30611726D02*
X200156726Y-39168274D01*
X202540000Y-30965000D02*
X204925000Y-33350000D01*
X219206726Y-39168274D02*
X218100000Y-40275000D01*
X219206726Y-30611726D02*
X219206726Y-39168274D01*
X218040000Y-29445000D02*
X219206726Y-30611726D01*
X221590000Y-30965000D02*
X223975000Y-33350000D01*
X221590000Y-29445000D02*
X221590000Y-30965000D01*
X240640000Y-29445000D02*
X240640000Y-31100000D01*
X240640000Y-31100000D02*
X242890000Y-33350000D01*
X238256726Y-30611726D02*
X238256726Y-39168274D01*
X238256726Y-39168274D02*
X237150000Y-40275000D01*
X237090000Y-29445000D02*
X238256726Y-30611726D01*
X248520000Y-31985000D02*
X249330569Y-31174431D01*
X258599431Y-31174431D02*
X259350000Y-31925000D01*
X249330569Y-31174431D02*
X258599431Y-31174431D01*
X260650000Y-31925000D02*
X262075000Y-33350000D01*
X259350000Y-31925000D02*
X260650000Y-31925000D01*
X270412500Y-32025000D02*
X268025000Y-32025000D01*
X268025000Y-32025000D02*
X266700000Y-33350000D01*
X138380000Y-66520000D02*
X157350000Y-66520000D01*
X43000000Y-64110000D02*
X45410000Y-66520000D01*
X215500000Y-53500000D02*
X225275500Y-43724500D01*
X119200000Y-66390000D02*
X119330000Y-66520000D01*
X176410000Y-66520000D02*
X195470000Y-66520000D01*
X245261184Y-34658816D02*
X245571773Y-34348227D01*
X245571773Y-31064623D02*
X251366396Y-25270000D01*
X138250000Y-60462500D02*
X138250000Y-66390000D01*
X119200000Y-60462500D02*
X119200000Y-66390000D01*
X251366396Y-25270000D02*
X257340000Y-25270000D01*
X43000000Y-60462500D02*
X43000000Y-64110000D01*
X81280000Y-66520000D02*
X100220000Y-66520000D01*
X62090000Y-66520000D02*
X81280000Y-66520000D01*
X138250000Y-66390000D02*
X138380000Y-66520000D01*
X257340000Y-25270000D02*
X259040000Y-26970000D01*
X157300000Y-66470000D02*
X157350000Y-66520000D01*
X62050000Y-66480000D02*
X62090000Y-66520000D01*
X157350000Y-66520000D02*
X176410000Y-66520000D01*
X215500000Y-59412500D02*
X215500000Y-53500000D01*
X176350000Y-60462500D02*
X176350000Y-66460000D01*
X225275500Y-43724500D02*
X241000000Y-43724500D01*
X100150000Y-60462500D02*
X100150000Y-66450000D01*
X214450000Y-60462500D02*
X215500000Y-59412500D01*
X245571773Y-34348227D02*
X245571773Y-31064623D01*
X157300000Y-60462500D02*
X157300000Y-66470000D01*
X176350000Y-66460000D02*
X176410000Y-66520000D01*
X214450000Y-65340000D02*
X214450000Y-60462500D01*
X81100000Y-66340000D02*
X81280000Y-66520000D01*
X195470000Y-66520000D02*
X213270000Y-66520000D01*
X245261184Y-35040000D02*
X245261184Y-34658816D01*
X100150000Y-66450000D02*
X100220000Y-66520000D01*
X45410000Y-66520000D02*
X62090000Y-66520000D01*
X81100000Y-60462500D02*
X81100000Y-66340000D01*
X62050000Y-60462500D02*
X62050000Y-66480000D01*
X213270000Y-66520000D02*
X214450000Y-65340000D01*
X119330000Y-66520000D02*
X138380000Y-66520000D01*
X195400000Y-60462500D02*
X195400000Y-66450000D01*
X195400000Y-66450000D02*
X195470000Y-66520000D01*
X100220000Y-66520000D02*
X119330000Y-66520000D01*
X40615000Y-54777500D02*
X43000000Y-57162500D01*
X40615000Y-53257500D02*
X40615000Y-54777500D01*
X38355000Y-62857500D02*
X37125000Y-64087500D01*
X37065000Y-53257500D02*
X38355000Y-54547500D01*
X38355000Y-54547500D02*
X38355000Y-62857500D01*
X59665000Y-54777500D02*
X62050000Y-57162500D01*
X56115000Y-53257500D02*
X57281726Y-54424226D01*
X57281726Y-62980774D02*
X56175000Y-64087500D01*
X59665000Y-53257500D02*
X59665000Y-54777500D01*
X57281726Y-54424226D02*
X57281726Y-62980774D01*
X78715000Y-53257500D02*
X78715000Y-54777500D01*
X76331726Y-54424226D02*
X76331726Y-62980774D01*
X76331726Y-62980774D02*
X75225000Y-64087500D01*
X75165000Y-53257500D02*
X76331726Y-54424226D01*
X78715000Y-54777500D02*
X81100000Y-57162500D01*
X95381726Y-54424226D02*
X95381726Y-62980774D01*
X94215000Y-53257500D02*
X95381726Y-54424226D01*
X97765000Y-54777500D02*
X100150000Y-57162500D01*
X95381726Y-62980774D02*
X94275000Y-64087500D01*
X97765000Y-53257500D02*
X97765000Y-54777500D01*
X116815000Y-54777500D02*
X119200000Y-57162500D01*
X114431726Y-62980774D02*
X113325000Y-64087500D01*
X116815000Y-53257500D02*
X116815000Y-54777500D01*
X114431726Y-54424226D02*
X114431726Y-62980774D01*
X113265000Y-53257500D02*
X114431726Y-54424226D01*
X135865000Y-54777500D02*
X138250000Y-57162500D01*
X133605000Y-62857500D02*
X132375000Y-64087500D01*
X133605000Y-54547500D02*
X133605000Y-62857500D01*
X135865000Y-53257500D02*
X135865000Y-54777500D01*
X132315000Y-53257500D02*
X133605000Y-54547500D01*
X151365000Y-53257500D02*
X152531726Y-54424226D01*
X154915000Y-53257500D02*
X154915000Y-54777500D01*
X152531726Y-54424226D02*
X152531726Y-62980774D01*
X152531726Y-62980774D02*
X151425000Y-64087500D01*
X154915000Y-54777500D02*
X157300000Y-57162500D01*
X173965000Y-54777500D02*
X176350000Y-57162500D01*
X173965000Y-53257500D02*
X173965000Y-54777500D01*
X170415000Y-53257500D02*
X171705000Y-54547500D01*
X171705000Y-54547500D02*
X171705000Y-62857500D01*
X171705000Y-62857500D02*
X170475000Y-64087500D01*
X190631726Y-54424226D02*
X190631726Y-62980774D01*
X189465000Y-53257500D02*
X190631726Y-54424226D01*
X193015000Y-54777500D02*
X195400000Y-57162500D01*
X190631726Y-62980774D02*
X189525000Y-64087500D01*
X193015000Y-53257500D02*
X193015000Y-54777500D01*
X209681726Y-54424226D02*
X209681726Y-62980774D01*
X212065000Y-53257500D02*
X212065000Y-54777500D01*
X209681726Y-62980774D02*
X208575000Y-64087500D01*
X208515000Y-53257500D02*
X209681726Y-54424226D01*
X212065000Y-54777500D02*
X214450000Y-57162500D01*
X231115000Y-53257500D02*
X231115000Y-54777500D01*
X228731726Y-54424226D02*
X228731726Y-62980774D01*
X231115000Y-54777500D02*
X233500000Y-57162500D01*
X228731726Y-62980774D02*
X227625000Y-64087500D01*
X227565000Y-53257500D02*
X228731726Y-54424226D01*
X253758750Y-62782500D02*
X255048750Y-64072500D01*
X257308750Y-62782500D02*
X257308750Y-64302500D01*
X255048750Y-72382500D02*
X253818750Y-73612500D01*
X257308750Y-64302500D02*
X259693750Y-66687500D01*
X255048750Y-64072500D02*
X255048750Y-72382500D01*
X281119226Y-62980774D02*
X280012500Y-64087500D01*
X283502500Y-53257500D02*
X283502500Y-54777500D01*
X283502500Y-54777500D02*
X285887500Y-57162500D01*
X281119226Y-54424226D02*
X281119226Y-62980774D01*
X279952500Y-53257500D02*
X281119226Y-54424226D01*
X219212500Y-79512500D02*
X220300000Y-78425000D01*
X123962500Y-85577500D02*
X123890000Y-85650000D01*
X85900000Y-85650000D02*
X104950000Y-85650000D01*
X220300000Y-69097408D02*
X215500000Y-64297408D01*
X143012500Y-85622500D02*
X143040000Y-85650000D01*
X104950000Y-85650000D02*
X123890000Y-85650000D01*
X181200000Y-85650000D02*
X200240000Y-85650000D01*
X240750195Y-44500000D02*
X242000000Y-44500000D01*
X181112500Y-85562500D02*
X181200000Y-85650000D01*
X181112500Y-79512500D02*
X181112500Y-85562500D01*
X200162500Y-79512500D02*
X200162500Y-85572500D01*
X162040000Y-85650000D02*
X181200000Y-85650000D01*
X200162500Y-85572500D02*
X200240000Y-85650000D01*
X85862500Y-79512500D02*
X85862500Y-85612500D01*
X45381250Y-81211250D02*
X49820000Y-85650000D01*
X66812500Y-85612500D02*
X66850000Y-85650000D01*
X85862500Y-85612500D02*
X85900000Y-85650000D01*
X200240000Y-85650000D02*
X217770000Y-85650000D01*
X215500000Y-60500000D02*
X215950000Y-60050000D01*
X104912500Y-85612500D02*
X104950000Y-85650000D01*
X217770000Y-85650000D02*
X219212500Y-84207500D01*
X255250000Y-25720000D02*
X256500000Y-26970000D01*
X123890000Y-85650000D02*
X143040000Y-85650000D01*
X225461896Y-44174500D02*
X240424695Y-44174500D01*
X251552792Y-25720000D02*
X255250000Y-25720000D01*
X215950000Y-60050000D02*
X215950000Y-53686396D01*
X66850000Y-85650000D02*
X85900000Y-85650000D01*
X143012500Y-79512500D02*
X143012500Y-85622500D01*
X246021773Y-31251019D02*
X251552792Y-25720000D01*
X240424695Y-44174500D02*
X240750195Y-44500000D01*
X49820000Y-85650000D02*
X66850000Y-85650000D01*
X143040000Y-85650000D02*
X162040000Y-85650000D01*
X162062500Y-79512500D02*
X162062500Y-85627500D01*
X45381250Y-79512500D02*
X45381250Y-81211250D01*
X66812500Y-79512500D02*
X66812500Y-85612500D01*
X123962500Y-79512500D02*
X123962500Y-85577500D01*
X162062500Y-85627500D02*
X162040000Y-85650000D01*
X220300000Y-78425000D02*
X220300000Y-69097408D01*
X215950000Y-53686396D02*
X225461896Y-44174500D01*
X219212500Y-84207500D02*
X219212500Y-79512500D01*
X215500000Y-64297408D02*
X215500000Y-60500000D01*
X104912500Y-79512500D02*
X104912500Y-85612500D01*
X246021773Y-35925500D02*
X246021773Y-31251019D01*
X39446250Y-72307500D02*
X40612976Y-73474226D01*
X40612976Y-73474226D02*
X40612976Y-82030774D01*
X40612976Y-82030774D02*
X39506250Y-83137500D01*
X42996250Y-72307500D02*
X42996250Y-73827500D01*
X42996250Y-73827500D02*
X45381250Y-76212500D01*
X62044226Y-82030774D02*
X60937500Y-83137500D01*
X64427500Y-73827500D02*
X66812500Y-76212500D01*
X62044226Y-73474226D02*
X62044226Y-82030774D01*
X60877500Y-72307500D02*
X62044226Y-73474226D01*
X64427500Y-72307500D02*
X64427500Y-73827500D01*
X81094226Y-82030774D02*
X79987500Y-83137500D01*
X81094226Y-73474226D02*
X81094226Y-82030774D01*
X83477500Y-72307500D02*
X83477500Y-73827500D01*
X79927500Y-72307500D02*
X81094226Y-73474226D01*
X83477500Y-73827500D02*
X85862500Y-76212500D01*
X98977500Y-72307500D02*
X100144226Y-73474226D01*
X100144226Y-73474226D02*
X100144226Y-82030774D01*
X102527500Y-73827500D02*
X104912500Y-76212500D01*
X102527500Y-72307500D02*
X102527500Y-73827500D01*
X100144226Y-82030774D02*
X99037500Y-83137500D01*
X119194226Y-73474226D02*
X119194226Y-82030774D01*
X121577500Y-72307500D02*
X121577500Y-73827500D01*
X118027500Y-72307500D02*
X119194226Y-73474226D01*
X119194226Y-82030774D02*
X118087500Y-83137500D01*
X121577500Y-73827500D02*
X123962500Y-76212500D01*
X138244226Y-73474226D02*
X138244226Y-82030774D01*
X140627500Y-72307500D02*
X140627500Y-73827500D01*
X138244226Y-82030774D02*
X137137500Y-83137500D01*
X137077500Y-72307500D02*
X138244226Y-73474226D01*
X140627500Y-73827500D02*
X143012500Y-76212500D01*
X157417500Y-81907500D02*
X156187500Y-83137500D01*
X159677500Y-73827500D02*
X162062500Y-76212500D01*
X159677500Y-72307500D02*
X159677500Y-73827500D01*
X156127500Y-72307500D02*
X157417500Y-73597500D01*
X157417500Y-73597500D02*
X157417500Y-81907500D01*
X178727500Y-73827500D02*
X181112500Y-76212500D01*
X175177500Y-72307500D02*
X176344226Y-73474226D01*
X176344226Y-73474226D02*
X176344226Y-82030774D01*
X176344226Y-82030774D02*
X175237500Y-83137500D01*
X178727500Y-72307500D02*
X178727500Y-73827500D01*
X194227500Y-72307500D02*
X195394226Y-73474226D01*
X195394226Y-82030774D02*
X194287500Y-83137500D01*
X195394226Y-73474226D02*
X195394226Y-82030774D01*
X197777500Y-73827500D02*
X200162500Y-76212500D01*
X197777500Y-72307500D02*
X197777500Y-73827500D01*
X213277500Y-72307500D02*
X214444226Y-73474226D01*
X216827500Y-73827500D02*
X219212500Y-76212500D01*
X214444226Y-73474226D02*
X214444226Y-82030774D01*
X216827500Y-72307500D02*
X216827500Y-73827500D01*
X214444226Y-82030774D02*
X213337500Y-83137500D01*
X232327500Y-72307500D02*
X233494226Y-73474226D01*
X233494226Y-82030774D02*
X232387500Y-83137500D01*
X235877500Y-73827500D02*
X238262500Y-76212500D01*
X233494226Y-73474226D02*
X233494226Y-82030774D01*
X235877500Y-72307500D02*
X235877500Y-73827500D01*
X281119226Y-73474226D02*
X281119226Y-82030774D01*
X279952500Y-72307500D02*
X281119226Y-73474226D01*
X281119226Y-82030774D02*
X280012500Y-83137500D01*
X283502500Y-73827500D02*
X285887500Y-76212500D01*
X283502500Y-72307500D02*
X283502500Y-73827500D01*
X166880000Y-104470000D02*
X185980000Y-104470000D01*
X246471773Y-34251773D02*
X246471773Y-31437415D01*
X223975000Y-102694908D02*
X223975000Y-98562500D01*
X246768493Y-34548493D02*
X246471773Y-34251773D01*
X227900000Y-57146636D02*
X223500000Y-52746636D01*
X90580000Y-104470000D02*
X109790000Y-104470000D01*
X222199908Y-104470000D02*
X223975000Y-102694908D01*
X147830000Y-104470000D02*
X166880000Y-104470000D01*
X147775000Y-98562500D02*
X147775000Y-104415000D01*
X53670000Y-104470000D02*
X71640000Y-104470000D01*
X71575000Y-104405000D02*
X71640000Y-104470000D01*
X225875500Y-44624500D02*
X240238299Y-44624500D01*
X240838299Y-45224500D02*
X241000000Y-45224500D01*
X223975000Y-98562500D02*
X224657316Y-98562500D01*
X220000000Y-81000000D02*
X220827500Y-80172500D01*
X220000000Y-83191158D02*
X220000000Y-81000000D01*
X220827500Y-66600864D02*
X227900000Y-59528364D01*
X90625000Y-98562500D02*
X90625000Y-104425000D01*
X224657316Y-98562500D02*
X225000000Y-98219816D01*
X227900000Y-59528364D02*
X227900000Y-57146636D01*
X109675000Y-104355000D02*
X109790000Y-104470000D01*
X204925000Y-98562500D02*
X204925000Y-104305000D01*
X128725000Y-104305000D02*
X128890000Y-104470000D01*
X166825000Y-104415000D02*
X166880000Y-104470000D01*
X185980000Y-104470000D02*
X205090000Y-104470000D01*
X109790000Y-104470000D02*
X128890000Y-104470000D01*
X185875000Y-98562500D02*
X185875000Y-104365000D01*
X204925000Y-104305000D02*
X205090000Y-104470000D01*
X246768493Y-35040000D02*
X246768493Y-34548493D01*
X71575000Y-98562500D02*
X71575000Y-104405000D01*
X90625000Y-104425000D02*
X90580000Y-104470000D01*
X223500000Y-47000000D02*
X225875500Y-44624500D01*
X47762500Y-98562500D02*
X53670000Y-104470000D01*
X225000000Y-98219816D02*
X225000000Y-88191158D01*
X250939188Y-26970000D02*
X253960000Y-26970000D01*
X240238299Y-44624500D02*
X240838299Y-45224500D01*
X109675000Y-98562500D02*
X109675000Y-104355000D01*
X185875000Y-104365000D02*
X185980000Y-104470000D01*
X166825000Y-98562500D02*
X166825000Y-104415000D01*
X246471773Y-31437415D02*
X250939188Y-26970000D01*
X147775000Y-104415000D02*
X147830000Y-104470000D01*
X128890000Y-104470000D02*
X147830000Y-104470000D01*
X225000000Y-88191158D02*
X220000000Y-83191158D01*
X223500000Y-52746636D02*
X223500000Y-47000000D01*
X128725000Y-98562500D02*
X128725000Y-104305000D01*
X220827500Y-80172500D02*
X220827500Y-66600864D01*
X71640000Y-104470000D02*
X90580000Y-104470000D01*
X205090000Y-104470000D02*
X222199908Y-104470000D01*
X45377500Y-91357500D02*
X45377500Y-92877500D01*
X41827500Y-91357500D02*
X43117500Y-92647500D01*
X45377500Y-92877500D02*
X47762500Y-95262500D01*
X43117500Y-100957500D02*
X41887500Y-102187500D01*
X43117500Y-92647500D02*
X43117500Y-100957500D01*
X65640000Y-91357500D02*
X66806726Y-92524226D01*
X69190000Y-92877500D02*
X71575000Y-95262500D01*
X66806726Y-101080774D02*
X65700000Y-102187500D01*
X69190000Y-91357500D02*
X69190000Y-92877500D01*
X66806726Y-92524226D02*
X66806726Y-101080774D01*
X88240000Y-92877500D02*
X90625000Y-95262500D01*
X84690000Y-91357500D02*
X85856726Y-92524226D01*
X85856726Y-92524226D02*
X85856726Y-101080774D01*
X85856726Y-101080774D02*
X84750000Y-102187500D01*
X88240000Y-91357500D02*
X88240000Y-92877500D01*
X104906726Y-101080774D02*
X103800000Y-102187500D01*
X107290000Y-91357500D02*
X107290000Y-92877500D01*
X107290000Y-92877500D02*
X109675000Y-95262500D01*
X103740000Y-91357500D02*
X104906726Y-92524226D01*
X104906726Y-92524226D02*
X104906726Y-101080774D01*
X126340000Y-91357500D02*
X126340000Y-92877500D01*
X126340000Y-92877500D02*
X128725000Y-95262500D01*
X123956726Y-92524226D02*
X123956726Y-101080774D01*
X123956726Y-101080774D02*
X122850000Y-102187500D01*
X122790000Y-91357500D02*
X123956726Y-92524226D01*
X143006726Y-101080774D02*
X141900000Y-102187500D01*
X141840000Y-91357500D02*
X143006726Y-92524226D01*
X143006726Y-92524226D02*
X143006726Y-101080774D01*
X145390000Y-91357500D02*
X145390000Y-92877500D01*
X145390000Y-92877500D02*
X147775000Y-95262500D01*
X164440000Y-91357500D02*
X164440000Y-92877500D01*
X162056726Y-92524226D02*
X162056726Y-101080774D01*
X162056726Y-101080774D02*
X160950000Y-102187500D01*
X160890000Y-91357500D02*
X162056726Y-92524226D01*
X164440000Y-92877500D02*
X166825000Y-95262500D01*
X183490000Y-91357500D02*
X183490000Y-92877500D01*
X183490000Y-92877500D02*
X185875000Y-95262500D01*
X181106726Y-92524226D02*
X181106726Y-101080774D01*
X181106726Y-101080774D02*
X180000000Y-102187500D01*
X179940000Y-91357500D02*
X181106726Y-92524226D01*
X198990000Y-91357500D02*
X200280000Y-92647500D01*
X202540000Y-92877500D02*
X204925000Y-95262500D01*
X202540000Y-91357500D02*
X202540000Y-92877500D01*
X200280000Y-100957500D02*
X199050000Y-102187500D01*
X200280000Y-92647500D02*
X200280000Y-100957500D01*
X218040000Y-91357500D02*
X219206726Y-92524226D01*
X219206726Y-92524226D02*
X219206726Y-101080774D01*
X221590000Y-92877500D02*
X223975000Y-95262500D01*
X221590000Y-91357500D02*
X221590000Y-92877500D01*
X219206726Y-101080774D02*
X218100000Y-102187500D01*
X238256726Y-92524226D02*
X238256726Y-101080774D01*
X240640000Y-91357500D02*
X240640000Y-92877500D01*
X237090000Y-91357500D02*
X238256726Y-92524226D01*
X238256726Y-101080774D02*
X237150000Y-102187500D01*
X240640000Y-92877500D02*
X243025000Y-95262500D01*
X264452500Y-97640000D02*
X266837500Y-100025000D01*
X264452500Y-96120000D02*
X264452500Y-97640000D01*
X262069226Y-105843274D02*
X260962500Y-106950000D01*
X262069226Y-97286726D02*
X262069226Y-105843274D01*
X260902500Y-96120000D02*
X262069226Y-97286726D01*
X42996250Y-110407500D02*
X42996250Y-111927500D01*
X39446250Y-110407500D02*
X40612976Y-111574226D01*
X40612976Y-120130774D02*
X39506250Y-121237500D01*
X40612976Y-111574226D02*
X40612976Y-120130774D01*
X42996250Y-111927500D02*
X45381250Y-114312500D01*
X66808750Y-111927500D02*
X69193750Y-114312500D01*
X64425476Y-111574226D02*
X64425476Y-120130774D01*
X66808750Y-110407500D02*
X66808750Y-111927500D01*
X63258750Y-110407500D02*
X64425476Y-111574226D01*
X64425476Y-120130774D02*
X63318750Y-121237500D01*
X88237976Y-120130774D02*
X87131250Y-121237500D01*
X90621250Y-110407500D02*
X90621250Y-111927500D01*
X87071250Y-110407500D02*
X88237976Y-111574226D01*
X88237976Y-111574226D02*
X88237976Y-120130774D01*
X90621250Y-111927500D02*
X93006250Y-114312500D01*
X215658750Y-110407500D02*
X216825476Y-111574226D01*
X216825476Y-111574226D02*
X216825476Y-120130774D01*
X219208750Y-111927500D02*
X221593750Y-114312500D01*
X216825476Y-120130774D02*
X215718750Y-121237500D01*
X219208750Y-110407500D02*
X219208750Y-111927500D01*
X133483750Y-115170000D02*
X133483750Y-116690000D01*
X129933750Y-115170000D02*
X131100476Y-116336726D01*
X131100476Y-116336726D02*
X131100476Y-124893274D01*
X133483750Y-116690000D02*
X135868750Y-119075000D01*
X131100476Y-124893274D02*
X129993750Y-126000000D01*
X178725476Y-124893274D02*
X177618750Y-126000000D01*
X177558750Y-115170000D02*
X178725476Y-116336726D01*
X181108750Y-116690000D02*
X183493750Y-119075000D01*
X178725476Y-116336726D02*
X178725476Y-124893274D01*
X181108750Y-115170000D02*
X181108750Y-116690000D01*
X243019226Y-124893274D02*
X241912500Y-126000000D01*
X243019226Y-116336726D02*
X243019226Y-124893274D01*
X241852500Y-115170000D02*
X243019226Y-116336726D01*
X245402500Y-116690000D02*
X247787500Y-119075000D01*
X245402500Y-115170000D02*
X245402500Y-116690000D01*
X262069226Y-116336726D02*
X262069226Y-124893274D01*
X264452500Y-116690000D02*
X266837500Y-119075000D01*
X260902500Y-115170000D02*
X262069226Y-116336726D01*
X264452500Y-115170000D02*
X264452500Y-116690000D01*
X262069226Y-124893274D02*
X260962500Y-126000000D01*
X283502500Y-116690000D02*
X285887500Y-119075000D01*
X281119226Y-116336726D02*
X281119226Y-124893274D01*
X283502500Y-115170000D02*
X283502500Y-116690000D01*
X281119226Y-124893274D02*
X280012500Y-126000000D01*
X279952500Y-115170000D02*
X281119226Y-116336726D01*
X251060000Y-38335000D02*
X251060000Y-39310000D01*
X251060000Y-39310000D02*
X253960000Y-42210000D01*
X270052500Y-55797500D02*
X267842350Y-53587350D01*
X273602500Y-55797500D02*
X279390000Y-50010000D01*
X279390000Y-50010000D02*
X279390000Y-42240000D01*
X242012650Y-53587350D02*
X242000000Y-53600000D01*
X267842350Y-53587350D02*
X242012650Y-53587350D01*
X279390000Y-42240000D02*
X279360000Y-42210000D01*
X247408750Y-65322500D02*
X247408750Y-71972500D01*
X247408750Y-71972500D02*
X246818750Y-72562500D01*
X230740000Y-100547500D02*
X230150000Y-101137500D01*
X230740000Y-93897500D02*
X230740000Y-100547500D01*
X245990000Y-102220000D02*
X245990000Y-86330000D01*
X239480000Y-108730000D02*
X245990000Y-102220000D01*
X254552500Y-98660000D02*
X254552500Y-92582500D01*
X254552500Y-92582500D02*
X254540000Y-92570000D01*
X256000000Y-50230000D02*
X261990000Y-50230000D01*
X262970000Y-49250000D02*
X263560000Y-49250000D01*
X255610000Y-48770000D02*
X255610000Y-49840000D01*
X257170000Y-47210000D02*
X255610000Y-48770000D01*
X255610000Y-49840000D02*
X256000000Y-50230000D01*
X261990000Y-50230000D02*
X262970000Y-49250000D01*
X268340000Y-48150000D02*
X274280000Y-42210000D01*
X257170000Y-49210000D02*
X258230000Y-48150000D01*
X258230000Y-48150000D02*
X268340000Y-48150000D01*
X134201066Y-127975000D02*
X135868750Y-126307316D01*
X286812500Y-47122500D02*
X281900000Y-42210000D01*
X228258934Y-128210000D02*
X247840000Y-128210000D01*
X45381250Y-117612500D02*
X50981250Y-123212500D01*
X247840000Y-128210000D02*
X266870000Y-128210000D01*
X221593750Y-121544816D02*
X221593750Y-117612500D01*
X221593750Y-121544816D02*
X228258934Y-128210000D01*
X275955000Y-103325000D02*
X286812500Y-92467500D01*
X69193750Y-117612500D02*
X69193750Y-123188750D01*
X135868750Y-126307316D02*
X135868750Y-122375000D01*
X266837500Y-103325000D02*
X266837500Y-117333174D01*
X183493750Y-126307316D02*
X183493750Y-122375000D01*
X119836434Y-127975000D02*
X134201066Y-127975000D01*
X69170000Y-123212500D02*
X91338566Y-123212500D01*
X247787500Y-122375000D02*
X247787500Y-128157500D01*
X93006250Y-121544816D02*
X113406250Y-121544816D01*
X285887500Y-126307316D02*
X285887500Y-122375000D01*
X266837500Y-103325000D02*
X275955000Y-103325000D01*
X266837500Y-117333174D02*
X267762500Y-118258174D01*
X267762500Y-121450000D02*
X266837500Y-122375000D01*
X266870000Y-128210000D02*
X283984816Y-128210000D01*
X283984816Y-128210000D02*
X285887500Y-126307316D01*
X50981250Y-123212500D02*
X69170000Y-123212500D01*
X91338566Y-123212500D02*
X93006250Y-121544816D01*
X93006250Y-121544816D02*
X93006250Y-117612500D01*
X267762500Y-118258174D02*
X267762500Y-121450000D01*
X113406250Y-121544816D02*
X119836434Y-127975000D01*
X266837500Y-128177500D02*
X266870000Y-128210000D01*
X286812500Y-92467500D02*
X286812500Y-47122500D01*
X266837500Y-122375000D02*
X266837500Y-128177500D01*
X247787500Y-128157500D02*
X247840000Y-128210000D01*
X69193750Y-123188750D02*
X69170000Y-123212500D01*
X239187500Y-78587500D02*
X239187500Y-54775000D01*
X284132316Y-85200000D02*
X248413566Y-85200000D01*
X248413566Y-85200000D02*
X243950000Y-85200000D01*
X252489136Y-37480000D02*
X257524340Y-37480000D01*
X285887500Y-79512500D02*
X285887500Y-83444816D01*
X259693750Y-69987500D02*
X259693750Y-73919816D01*
X243950000Y-85200000D02*
X238262500Y-79512500D01*
X285887500Y-60462500D02*
X285887500Y-64394816D01*
X263281066Y-70332500D02*
X259693750Y-73919816D01*
X242890000Y-51072500D02*
X239196250Y-54766250D01*
X238262500Y-79512500D02*
X239187500Y-78587500D01*
X258354340Y-36650000D02*
X262075000Y-36650000D01*
X285887500Y-83444816D02*
X284132316Y-85200000D01*
X239196250Y-54766250D02*
X233500000Y-60462500D01*
X239187500Y-54775000D02*
X239196250Y-54766250D01*
X243025000Y-98562500D02*
X243950000Y-97637500D01*
X242890000Y-36650000D02*
X242890000Y-51072500D01*
X257524340Y-37480000D02*
X258354340Y-36650000D01*
X266700000Y-36650000D02*
X264120000Y-34070000D01*
X264120000Y-34070000D02*
X264120000Y-26970000D01*
X243950000Y-97637500D02*
X243950000Y-85200000D01*
X279949816Y-70332500D02*
X263281066Y-70332500D01*
X285887500Y-64394816D02*
X279949816Y-70332500D01*
X259693750Y-73919816D02*
X248413566Y-85200000D01*
X262075000Y-36650000D02*
X266700000Y-36650000D01*
X242890000Y-36650000D02*
X251659136Y-36650000D01*
X251659136Y-36650000D02*
X252489136Y-37480000D01*
X263680000Y-50870000D02*
X267616016Y-50870000D01*
X267616016Y-50870000D02*
X275505000Y-42981016D01*
X275505000Y-33365000D02*
X281900000Y-26970000D01*
X263560000Y-50750000D02*
X263680000Y-50870000D01*
X275505000Y-42981016D02*
X275505000Y-33365000D01*
M02*
