M48
; DRILL file {KiCad 7.0.8-7.0.8~ubuntu22.04.1} date Sun Oct  8 19:28:25 2023
; FORMAT={-:-/ absolute / metric / decimal}
; #@! TF.CreationDate,2023-10-08T19:28:25+02:00
; #@! TF.GenerationSoftware,Kicad,Pcbnew,7.0.8-7.0.8~ubuntu22.04.1
; #@! TF.FileFunction,NonPlated,1,2,NPTH
FMAT,2
METRIC
; #@! TA.AperFunction,NonPlated,NPTH,ComponentDrill
T1C0.900
; #@! TA.AperFunction,NonPlated,NPTH,ComponentDrill
T2C1.750
; #@! TA.AperFunction,NonPlated,NPTH,ComponentDrill
T3C3.048
; #@! TA.AperFunction,NonPlated,NPTH,ComponentDrill
T4C3.988
; #@! TA.AperFunction,NonPlated,NPTH,ComponentDrill
T5C5.000
%
G90
G05
T1
X265.32Y-47.0
X265.32Y-50.0
T2
X29.445Y-34.525
X29.445Y-58.337
X31.826Y-77.388
X31.826Y-115.487
X34.207Y-96.438
X39.605Y-34.525
X39.605Y-58.337
X41.986Y-77.388
X41.986Y-115.487
X44.367Y-96.438
X48.495Y-34.525
X48.495Y-58.337
X53.258Y-77.388
X55.639Y-115.487
X58.02Y-96.438
X58.655Y-34.525
X58.655Y-58.337
X63.417Y-77.388
X65.799Y-115.487
X67.545Y-34.525
X67.545Y-58.337
X68.18Y-96.438
X72.307Y-77.388
X77.07Y-96.438
X77.705Y-34.525
X77.705Y-58.337
X79.451Y-115.487
X82.468Y-77.388
X86.595Y-34.525
X86.595Y-58.337
X87.23Y-96.438
X89.611Y-115.487
X91.358Y-77.388
X96.12Y-96.438
X96.755Y-34.525
X96.755Y-58.337
X101.517Y-77.388
X105.645Y-58.337
X106.28Y-96.438
X110.407Y-34.525
X110.407Y-77.388
X115.17Y-96.438
X115.805Y-58.337
X120.567Y-34.525
X120.567Y-77.388
X122.314Y-120.25
X124.695Y-58.337
X125.33Y-96.438
X129.457Y-34.525
X129.457Y-77.388
X132.474Y-120.25
X134.22Y-96.438
X134.855Y-58.337
X139.618Y-34.525
X139.618Y-77.388
X143.745Y-58.337
X144.38Y-96.438
X148.507Y-34.525
X148.507Y-77.388
X153.27Y-96.438
X153.905Y-58.337
X158.667Y-34.525
X158.667Y-77.388
X162.795Y-58.337
X163.43Y-96.438
X167.558Y-34.525
X167.558Y-77.388
X169.939Y-120.25
X172.32Y-96.438
X172.955Y-58.337
X177.718Y-34.525
X177.718Y-77.388
X180.099Y-120.25
X181.845Y-58.337
X182.48Y-96.438
X186.607Y-77.388
X191.37Y-34.525
X191.37Y-96.438
X192.005Y-58.337
X196.767Y-77.388
X200.895Y-58.337
X201.53Y-34.525
X201.53Y-96.438
X205.657Y-77.388
X208.039Y-115.487
X210.42Y-34.525
X210.42Y-96.438
X211.055Y-58.337
X215.817Y-77.388
X218.199Y-115.487
X219.945Y-58.337
X220.58Y-34.525
X220.58Y-96.438
X224.707Y-77.388
X229.47Y-34.525
X229.47Y-96.438
X230.105Y-58.337
X234.232Y-120.25
X234.867Y-77.388
X239.63Y-34.525
X239.63Y-96.438
X244.392Y-120.25
X246.139Y-67.862
X253.282Y-101.2
X253.282Y-120.25
X253.6Y-29.445
X253.6Y-39.605
X256.299Y-67.862
X263.442Y-101.2
X263.442Y-120.25
X272.332Y-58.337
X272.332Y-77.388
X272.332Y-120.25
X282.493Y-58.337
X282.493Y-77.388
X282.493Y-120.25
T3
X115.487Y-127.235
X139.3Y-127.235
X163.112Y-127.235
X186.925Y-127.235
X244.234Y-55.956
X244.234Y-79.769
T4
X115.487Y-111.995
X139.3Y-111.995
X163.112Y-111.995
X186.925Y-111.995
X259.474Y-55.956
X259.474Y-79.769
T5
X34.525Y-34.525
X34.525Y-58.337
X36.906Y-77.388
X36.906Y-115.487
X39.288Y-96.438
X53.575Y-34.525
X53.575Y-58.337
X58.337Y-77.388
X60.719Y-115.487
X63.1Y-96.438
X72.625Y-34.525
X72.625Y-58.337
X77.388Y-77.388
X82.15Y-96.438
X84.531Y-115.487
X91.675Y-34.525
X91.675Y-58.337
X96.438Y-77.388
X101.2Y-96.438
X110.725Y-58.337
X115.487Y-34.525
X115.487Y-77.388
X120.25Y-96.438
X127.394Y-120.25
X129.775Y-58.337
X134.537Y-34.525
X134.537Y-77.388
X139.3Y-96.438
X148.825Y-58.337
X153.588Y-34.525
X153.588Y-77.388
X158.35Y-96.438
X167.875Y-58.337
X172.637Y-34.525
X172.637Y-77.388
X175.019Y-120.25
X177.4Y-96.438
X186.925Y-58.337
X191.688Y-77.388
X196.45Y-34.525
X196.45Y-96.438
X205.975Y-58.337
X210.737Y-77.388
X213.119Y-115.487
X215.5Y-34.525
X215.5Y-96.438
X225.025Y-58.337
X229.787Y-77.388
X234.55Y-34.525
X234.55Y-96.438
X239.312Y-120.25
X251.219Y-67.862
X253.6Y-34.525
X258.363Y-101.2
X258.363Y-120.25
X277.412Y-58.337
X277.412Y-77.388
X277.412Y-120.25
T0
M30
