%TF.GenerationSoftware,KiCad,Pcbnew,7.0.8-7.0.8~ubuntu22.04.1*%
%TF.CreationDate,2023-10-08T19:29:13+02:00*%
%TF.ProjectId,nrw65-pcb,6e727736-352d-4706-9362-2e6b69636164,rev?*%
%TF.SameCoordinates,Original*%
%TF.FileFunction,Drillmap*%
%TF.FilePolarity,Positive*%
%FSLAX45Y45*%
G04 Gerber Fmt 4.5, Leading zero omitted, Abs format (unit mm)*
G04 Created by KiCad (PCBNEW 7.0.8-7.0.8~ubuntu22.04.1) date 2023-10-08 19:29:13*
%MOMM*%
%LPD*%
G01*
G04 APERTURE LIST*
%ADD10C,0.100000*%
%ADD11C,0.200000*%
%ADD12C,0.090000*%
%ADD13C,0.175000*%
%ADD14C,0.304800*%
%ADD15C,0.398780*%
%ADD16C,0.500000*%
G04 APERTURE END LIST*
D10*
X25643750Y-1900000D02*
X25643750Y-2300000D01*
X12096875Y-1900000D02*
X12096875Y-2300000D01*
X2400000Y-10477500D02*
G75*
G03*
X2300000Y-10477500I-50000J0D01*
G01*
X29253750Y-13427500D02*
G75*
G03*
X29253750Y-13427500I-110000J0D01*
G01*
X5550000Y-2300000D02*
G75*
G03*
X5650000Y-2400000I100000J0D01*
G01*
X2400000Y-5650000D02*
G75*
G03*
X2300000Y-5550000I-100000J0D01*
G01*
X25543750Y-2400000D02*
X19196875Y-2400000D01*
X18546875Y-2400000D02*
G75*
G03*
X18546875Y-2300000I5J50000D01*
G01*
X12646875Y-13077500D02*
X18546875Y-13077500D01*
X2300000Y-5000000D02*
G75*
G03*
X2400000Y-5000000I50000J0D01*
G01*
X2400000Y-12977500D02*
G75*
G03*
X2500000Y-13077500I100000J0D01*
G01*
X25743750Y-13677500D02*
X29293750Y-13677500D01*
X28693750Y-2400000D02*
X26193750Y-2400000D01*
X15706875Y-13427500D02*
G75*
G03*
X15706875Y-13427500I-110000J0D01*
G01*
X28793750Y-9827500D02*
X28793750Y-5650000D01*
X1800000Y-10027500D02*
X1800000Y-13577500D01*
X19096880Y-1900000D02*
G75*
G03*
X18996875Y-1800000I-100000J0D01*
G01*
X2400000Y-2300000D02*
G75*
G03*
X2300000Y-2400000I0J-100000D01*
G01*
X5000000Y-2400000D02*
X2500000Y-2400000D01*
X28893750Y-5550000D02*
G75*
G03*
X28793750Y-5650000I0J-100000D01*
G01*
X18996875Y-13677495D02*
G75*
G03*
X19096875Y-13577500I5J99995D01*
G01*
X12096875Y-13177500D02*
X12096875Y-13577500D01*
X5000000Y-13177500D02*
X2400000Y-13177500D01*
X29293750Y-9927500D02*
X28893750Y-9927500D01*
X28793750Y-9827500D02*
G75*
G03*
X28893750Y-9927500I99990J-10D01*
G01*
X5450000Y-13677500D02*
G75*
G03*
X5550000Y-13577500I0J100000D01*
G01*
X18996875Y-1800000D02*
X12196875Y-1800000D01*
X2300000Y-9927500D02*
G75*
G03*
X2400000Y-9827500I0J100000D01*
G01*
X28893750Y-2400000D02*
X28893750Y-5000000D01*
X11996875Y-2400000D02*
X5650000Y-2400000D01*
X2400000Y-2300000D02*
X5000000Y-2300000D01*
X29393750Y-1900000D02*
G75*
G03*
X29293750Y-1800000I-100010J-10D01*
G01*
X28793750Y-2500000D02*
G75*
G03*
X28693750Y-2400000I-100010J-10D01*
G01*
X2500000Y-13077500D02*
X5000000Y-13077500D01*
X28793750Y-12977500D02*
X28793750Y-10477500D01*
X19196875Y-13077500D02*
X25543750Y-13077500D01*
X28793750Y-5000000D02*
X28793750Y-2500000D01*
X29293750Y-5550000D02*
G75*
G03*
X29393750Y-5450000I0J100000D01*
G01*
X1900000Y-1800000D02*
G75*
G03*
X1800000Y-1900000I0J-100000D01*
G01*
X1800000Y-1900000D02*
X1800000Y-5450000D01*
X1900000Y-13677500D02*
X5450000Y-13677500D01*
X18546875Y-13177500D02*
X12646875Y-13177500D01*
X1800000Y-5450000D02*
G75*
G03*
X1900000Y-5550000I100000J0D01*
G01*
X12196875Y-1799995D02*
G75*
G03*
X12096875Y-1900000I5J-100005D01*
G01*
X12646875Y-2300000D02*
G75*
G03*
X12646875Y-2400000I5J-50000D01*
G01*
X29393750Y-5450000D02*
X29393750Y-1900000D01*
X25643750Y-13577500D02*
G75*
G03*
X25743750Y-13677500I99990J-10D01*
G01*
X5550000Y-2300000D02*
X5550000Y-1900000D01*
X26193750Y-2300000D02*
X28793750Y-2300000D01*
X19096875Y-13577500D02*
X19096875Y-13177500D01*
X29293750Y-1800000D02*
X25743750Y-1800000D01*
X5650000Y-13077500D02*
G75*
G03*
X5550000Y-13177500I0J-100000D01*
G01*
X29253750Y-2050000D02*
G75*
G03*
X29253750Y-2050000I-110000J0D01*
G01*
X12646875Y-2400000D02*
X18546875Y-2400000D01*
X2300000Y-13077500D02*
G75*
G03*
X2400000Y-13177500I100000J0D01*
G01*
X2300000Y-13077500D02*
X2300000Y-10477500D01*
X1800000Y-13577500D02*
G75*
G03*
X1900000Y-13677500I100000J0D01*
G01*
X19096875Y-2300000D02*
X19096875Y-1900000D01*
X12096870Y-13177500D02*
G75*
G03*
X11996875Y-13077500I-100000J0D01*
G01*
X25543750Y-2400000D02*
G75*
G03*
X25643750Y-2300000I0J100000D01*
G01*
X28793750Y-13177500D02*
X26193750Y-13177500D01*
X2400000Y-2500000D02*
X2400000Y-5000000D01*
X2400000Y-10477500D02*
X2400000Y-12977500D01*
X5550000Y-1900000D02*
G75*
G03*
X5450000Y-1800000I-100000J0D01*
G01*
X19096880Y-2300000D02*
G75*
G03*
X19196875Y-2400000I100000J0D01*
G01*
X2160000Y-13427500D02*
G75*
G03*
X2160000Y-13427500I-110000J0D01*
G01*
X26193750Y-13077500D02*
X28693750Y-13077500D01*
X28793750Y-13177500D02*
G75*
G03*
X28893750Y-13077500I0J100000D01*
G01*
X28893750Y-10477500D02*
X28893750Y-13077500D01*
X1900000Y-9927500D02*
G75*
G03*
X1800000Y-10027500I0J-100000D01*
G01*
X11996875Y-2399995D02*
G75*
G03*
X12096875Y-2300000I5J99995D01*
G01*
X2160000Y-2050000D02*
G75*
G03*
X2160000Y-2050000I-110000J0D01*
G01*
X5650000Y-13077500D02*
X11996875Y-13077500D01*
X18546875Y-2300000D02*
X12646875Y-2300000D01*
X2400000Y-5650000D02*
X2400000Y-9827500D01*
X28893750Y-10477500D02*
G75*
G03*
X28793750Y-10477500I-50000J0D01*
G01*
X1900000Y-5550000D02*
X2300000Y-5550000D01*
X28893750Y-2400000D02*
G75*
G03*
X28793750Y-2300000I-100010J-10D01*
G01*
X2300000Y-9927500D02*
X1900000Y-9927500D01*
X25743750Y-1800000D02*
G75*
G03*
X25643750Y-1900000I0J-100000D01*
G01*
X12196875Y-13677500D02*
X18996875Y-13677500D01*
X18546875Y-13177500D02*
G75*
G03*
X18546875Y-13077500I5J50000D01*
G01*
X29393750Y-13577500D02*
X29393750Y-10027500D01*
X5450000Y-1800000D02*
X1900000Y-1800000D01*
X28893750Y-5550000D02*
X29293750Y-5550000D01*
X5550000Y-13577500D02*
X5550000Y-13177500D01*
X2500000Y-2400000D02*
G75*
G03*
X2400000Y-2500000I0J-100000D01*
G01*
X29393750Y-10027500D02*
G75*
G03*
X29293750Y-9927500I-100010J-10D01*
G01*
X5000000Y-2400000D02*
G75*
G03*
X5000000Y-2300000I0J50000D01*
G01*
X25643750Y-13177500D02*
G75*
G03*
X25543750Y-13077500I-100010J-10D01*
G01*
X28693750Y-13077500D02*
G75*
G03*
X28793750Y-12977500I0J100000D01*
G01*
X12096870Y-13577500D02*
G75*
G03*
X12196875Y-13677500I100000J0D01*
G01*
X2300000Y-5000000D02*
X2300000Y-2400000D01*
X26193750Y-13077500D02*
G75*
G03*
X26193750Y-13177500I10J-50000D01*
G01*
X26193750Y-2300000D02*
G75*
G03*
X26193750Y-2400000I10J-50000D01*
G01*
X12646875Y-13077500D02*
G75*
G03*
X12646875Y-13177500I5J-50000D01*
G01*
X19196875Y-13077495D02*
G75*
G03*
X19096875Y-13177500I5J-100005D01*
G01*
X28793750Y-5000000D02*
G75*
G03*
X28893750Y-5000000I50000J0D01*
G01*
X5000000Y-13177500D02*
G75*
G03*
X5000000Y-13077500I0J50000D01*
G01*
X25643750Y-13177500D02*
X25643750Y-13577500D01*
X29293750Y-13677500D02*
G75*
G03*
X29393750Y-13577500I0J100000D01*
G01*
X15706875Y-2050000D02*
G75*
G03*
X15706875Y-2050000I-110000J0D01*
G01*
D11*
D12*
X26487000Y-4655000D02*
X26577000Y-4745000D01*
X26577000Y-4655000D02*
X26487000Y-4745000D01*
X26487000Y-4955000D02*
X26577000Y-5045000D01*
X26577000Y-4955000D02*
X26487000Y-5045000D01*
D13*
X3032000Y-3452500D02*
G75*
G03*
X3032000Y-3452500I-87500J0D01*
G01*
X3032000Y-5833750D02*
G75*
G03*
X3032000Y-5833750I-87500J0D01*
G01*
X3270125Y-7738750D02*
G75*
G03*
X3270125Y-7738750I-87500J0D01*
G01*
X3270125Y-11548750D02*
G75*
G03*
X3270125Y-11548750I-87500J0D01*
G01*
X3508250Y-9643750D02*
G75*
G03*
X3508250Y-9643750I-87500J0D01*
G01*
X4048000Y-3452500D02*
G75*
G03*
X4048000Y-3452500I-87500J0D01*
G01*
X4048000Y-5833750D02*
G75*
G03*
X4048000Y-5833750I-87500J0D01*
G01*
X4286125Y-7738750D02*
G75*
G03*
X4286125Y-7738750I-87500J0D01*
G01*
X4286125Y-11548750D02*
G75*
G03*
X4286125Y-11548750I-87500J0D01*
G01*
X4524250Y-9643750D02*
G75*
G03*
X4524250Y-9643750I-87500J0D01*
G01*
X4937000Y-3452500D02*
G75*
G03*
X4937000Y-3452500I-87500J0D01*
G01*
X4937000Y-5833750D02*
G75*
G03*
X4937000Y-5833750I-87500J0D01*
G01*
X5413250Y-7738750D02*
G75*
G03*
X5413250Y-7738750I-87500J0D01*
G01*
X5651375Y-11548750D02*
G75*
G03*
X5651375Y-11548750I-87500J0D01*
G01*
X5889500Y-9643750D02*
G75*
G03*
X5889500Y-9643750I-87500J0D01*
G01*
X5953000Y-3452500D02*
G75*
G03*
X5953000Y-3452500I-87500J0D01*
G01*
X5953000Y-5833750D02*
G75*
G03*
X5953000Y-5833750I-87500J0D01*
G01*
X6429250Y-7738750D02*
G75*
G03*
X6429250Y-7738750I-87500J0D01*
G01*
X6667375Y-11548750D02*
G75*
G03*
X6667375Y-11548750I-87500J0D01*
G01*
X6842000Y-3452500D02*
G75*
G03*
X6842000Y-3452500I-87500J0D01*
G01*
X6842000Y-5833750D02*
G75*
G03*
X6842000Y-5833750I-87500J0D01*
G01*
X6905500Y-9643750D02*
G75*
G03*
X6905500Y-9643750I-87500J0D01*
G01*
X7318250Y-7738750D02*
G75*
G03*
X7318250Y-7738750I-87500J0D01*
G01*
X7794500Y-9643750D02*
G75*
G03*
X7794500Y-9643750I-87500J0D01*
G01*
X7858000Y-3452500D02*
G75*
G03*
X7858000Y-3452500I-87500J0D01*
G01*
X7858000Y-5833750D02*
G75*
G03*
X7858000Y-5833750I-87500J0D01*
G01*
X8032625Y-11548750D02*
G75*
G03*
X8032625Y-11548750I-87500J0D01*
G01*
X8334250Y-7738750D02*
G75*
G03*
X8334250Y-7738750I-87500J0D01*
G01*
X8747000Y-3452500D02*
G75*
G03*
X8747000Y-3452500I-87500J0D01*
G01*
X8747000Y-5833750D02*
G75*
G03*
X8747000Y-5833750I-87500J0D01*
G01*
X8810500Y-9643750D02*
G75*
G03*
X8810500Y-9643750I-87500J0D01*
G01*
X9048625Y-11548750D02*
G75*
G03*
X9048625Y-11548750I-87500J0D01*
G01*
X9223250Y-7738750D02*
G75*
G03*
X9223250Y-7738750I-87500J0D01*
G01*
X9699500Y-9643750D02*
G75*
G03*
X9699500Y-9643750I-87500J0D01*
G01*
X9763000Y-3452500D02*
G75*
G03*
X9763000Y-3452500I-87500J0D01*
G01*
X9763000Y-5833750D02*
G75*
G03*
X9763000Y-5833750I-87500J0D01*
G01*
X10239250Y-7738750D02*
G75*
G03*
X10239250Y-7738750I-87500J0D01*
G01*
X10652000Y-5833750D02*
G75*
G03*
X10652000Y-5833750I-87500J0D01*
G01*
X10715500Y-9643750D02*
G75*
G03*
X10715500Y-9643750I-87500J0D01*
G01*
X11128250Y-3452500D02*
G75*
G03*
X11128250Y-3452500I-87500J0D01*
G01*
X11128250Y-7738750D02*
G75*
G03*
X11128250Y-7738750I-87500J0D01*
G01*
X11604500Y-9643750D02*
G75*
G03*
X11604500Y-9643750I-87500J0D01*
G01*
X11668000Y-5833750D02*
G75*
G03*
X11668000Y-5833750I-87500J0D01*
G01*
X12144250Y-3452500D02*
G75*
G03*
X12144250Y-3452500I-87500J0D01*
G01*
X12144250Y-7738750D02*
G75*
G03*
X12144250Y-7738750I-87500J0D01*
G01*
X12318875Y-12025000D02*
G75*
G03*
X12318875Y-12025000I-87500J0D01*
G01*
X12557000Y-5833750D02*
G75*
G03*
X12557000Y-5833750I-87500J0D01*
G01*
X12620500Y-9643750D02*
G75*
G03*
X12620500Y-9643750I-87500J0D01*
G01*
X13033250Y-3452500D02*
G75*
G03*
X13033250Y-3452500I-87500J0D01*
G01*
X13033250Y-7738750D02*
G75*
G03*
X13033250Y-7738750I-87500J0D01*
G01*
X13334875Y-12025000D02*
G75*
G03*
X13334875Y-12025000I-87500J0D01*
G01*
X13509500Y-9643750D02*
G75*
G03*
X13509500Y-9643750I-87500J0D01*
G01*
X13573000Y-5833750D02*
G75*
G03*
X13573000Y-5833750I-87500J0D01*
G01*
X14049250Y-3452500D02*
G75*
G03*
X14049250Y-3452500I-87500J0D01*
G01*
X14049250Y-7738750D02*
G75*
G03*
X14049250Y-7738750I-87500J0D01*
G01*
X14462000Y-5833750D02*
G75*
G03*
X14462000Y-5833750I-87500J0D01*
G01*
X14525500Y-9643750D02*
G75*
G03*
X14525500Y-9643750I-87500J0D01*
G01*
X14938250Y-3452500D02*
G75*
G03*
X14938250Y-3452500I-87500J0D01*
G01*
X14938250Y-7738750D02*
G75*
G03*
X14938250Y-7738750I-87500J0D01*
G01*
X15414500Y-9643750D02*
G75*
G03*
X15414500Y-9643750I-87500J0D01*
G01*
X15478000Y-5833750D02*
G75*
G03*
X15478000Y-5833750I-87500J0D01*
G01*
X15954250Y-3452500D02*
G75*
G03*
X15954250Y-3452500I-87500J0D01*
G01*
X15954250Y-7738750D02*
G75*
G03*
X15954250Y-7738750I-87500J0D01*
G01*
X16367000Y-5833750D02*
G75*
G03*
X16367000Y-5833750I-87500J0D01*
G01*
X16430500Y-9643750D02*
G75*
G03*
X16430500Y-9643750I-87500J0D01*
G01*
X16843250Y-3452500D02*
G75*
G03*
X16843250Y-3452500I-87500J0D01*
G01*
X16843250Y-7738750D02*
G75*
G03*
X16843250Y-7738750I-87500J0D01*
G01*
X17081375Y-12025000D02*
G75*
G03*
X17081375Y-12025000I-87500J0D01*
G01*
X17319500Y-9643750D02*
G75*
G03*
X17319500Y-9643750I-87500J0D01*
G01*
X17383000Y-5833750D02*
G75*
G03*
X17383000Y-5833750I-87500J0D01*
G01*
X17859250Y-3452500D02*
G75*
G03*
X17859250Y-3452500I-87500J0D01*
G01*
X17859250Y-7738750D02*
G75*
G03*
X17859250Y-7738750I-87500J0D01*
G01*
X18097375Y-12025000D02*
G75*
G03*
X18097375Y-12025000I-87500J0D01*
G01*
X18272000Y-5833750D02*
G75*
G03*
X18272000Y-5833750I-87500J0D01*
G01*
X18335500Y-9643750D02*
G75*
G03*
X18335500Y-9643750I-87500J0D01*
G01*
X18748250Y-7738750D02*
G75*
G03*
X18748250Y-7738750I-87500J0D01*
G01*
X19224500Y-3452500D02*
G75*
G03*
X19224500Y-3452500I-87500J0D01*
G01*
X19224500Y-9643750D02*
G75*
G03*
X19224500Y-9643750I-87500J0D01*
G01*
X19288000Y-5833750D02*
G75*
G03*
X19288000Y-5833750I-87500J0D01*
G01*
X19764250Y-7738750D02*
G75*
G03*
X19764250Y-7738750I-87500J0D01*
G01*
X20177000Y-5833750D02*
G75*
G03*
X20177000Y-5833750I-87500J0D01*
G01*
X20240500Y-3452500D02*
G75*
G03*
X20240500Y-3452500I-87500J0D01*
G01*
X20240500Y-9643750D02*
G75*
G03*
X20240500Y-9643750I-87500J0D01*
G01*
X20653250Y-7738750D02*
G75*
G03*
X20653250Y-7738750I-87500J0D01*
G01*
X20891375Y-11548750D02*
G75*
G03*
X20891375Y-11548750I-87500J0D01*
G01*
X21129500Y-3452500D02*
G75*
G03*
X21129500Y-3452500I-87500J0D01*
G01*
X21129500Y-9643750D02*
G75*
G03*
X21129500Y-9643750I-87500J0D01*
G01*
X21193000Y-5833750D02*
G75*
G03*
X21193000Y-5833750I-87500J0D01*
G01*
X21669250Y-7738750D02*
G75*
G03*
X21669250Y-7738750I-87500J0D01*
G01*
X21907375Y-11548750D02*
G75*
G03*
X21907375Y-11548750I-87500J0D01*
G01*
X22082000Y-5833750D02*
G75*
G03*
X22082000Y-5833750I-87500J0D01*
G01*
X22145500Y-3452500D02*
G75*
G03*
X22145500Y-3452500I-87500J0D01*
G01*
X22145500Y-9643750D02*
G75*
G03*
X22145500Y-9643750I-87500J0D01*
G01*
X22558250Y-7738750D02*
G75*
G03*
X22558250Y-7738750I-87500J0D01*
G01*
X23034500Y-3452500D02*
G75*
G03*
X23034500Y-3452500I-87500J0D01*
G01*
X23034500Y-9643750D02*
G75*
G03*
X23034500Y-9643750I-87500J0D01*
G01*
X23098000Y-5833750D02*
G75*
G03*
X23098000Y-5833750I-87500J0D01*
G01*
X23510750Y-12025000D02*
G75*
G03*
X23510750Y-12025000I-87500J0D01*
G01*
X23574250Y-7738750D02*
G75*
G03*
X23574250Y-7738750I-87500J0D01*
G01*
X24050500Y-3452500D02*
G75*
G03*
X24050500Y-3452500I-87500J0D01*
G01*
X24050500Y-9643750D02*
G75*
G03*
X24050500Y-9643750I-87500J0D01*
G01*
X24526750Y-12025000D02*
G75*
G03*
X24526750Y-12025000I-87500J0D01*
G01*
X24701375Y-6786250D02*
G75*
G03*
X24701375Y-6786250I-87500J0D01*
G01*
X25415750Y-10120000D02*
G75*
G03*
X25415750Y-10120000I-87500J0D01*
G01*
X25415750Y-12025000D02*
G75*
G03*
X25415750Y-12025000I-87500J0D01*
G01*
X25447500Y-2944500D02*
G75*
G03*
X25447500Y-2944500I-87500J0D01*
G01*
X25447500Y-3960500D02*
G75*
G03*
X25447500Y-3960500I-87500J0D01*
G01*
X25717375Y-6786250D02*
G75*
G03*
X25717375Y-6786250I-87500J0D01*
G01*
X26431750Y-10120000D02*
G75*
G03*
X26431750Y-10120000I-87500J0D01*
G01*
X26431750Y-12025000D02*
G75*
G03*
X26431750Y-12025000I-87500J0D01*
G01*
X27320750Y-5833750D02*
G75*
G03*
X27320750Y-5833750I-87500J0D01*
G01*
X27320750Y-7738750D02*
G75*
G03*
X27320750Y-7738750I-87500J0D01*
G01*
X27320750Y-12025000D02*
G75*
G03*
X27320750Y-12025000I-87500J0D01*
G01*
X28336750Y-5833750D02*
G75*
G03*
X28336750Y-5833750I-87500J0D01*
G01*
X28336750Y-7738750D02*
G75*
G03*
X28336750Y-7738750I-87500J0D01*
G01*
X28336750Y-12025000D02*
G75*
G03*
X28336750Y-12025000I-87500J0D01*
G01*
D14*
X11548750Y-12571100D02*
X11548750Y-12875900D01*
X11396350Y-12723500D02*
X11701150Y-12723500D01*
X13930000Y-12571100D02*
X13930000Y-12875900D01*
X13777600Y-12723500D02*
X14082400Y-12723500D01*
X16311250Y-12571100D02*
X16311250Y-12875900D01*
X16158850Y-12723500D02*
X16463650Y-12723500D01*
X18692500Y-12571100D02*
X18692500Y-12875900D01*
X18540100Y-12723500D02*
X18844900Y-12723500D01*
X24423375Y-5443225D02*
X24423375Y-5748025D01*
X24270975Y-5595625D02*
X24575775Y-5595625D01*
X24423375Y-7824475D02*
X24423375Y-8129275D01*
X24270975Y-7976875D02*
X24575775Y-7976875D01*
D15*
X11689741Y-11340491D02*
X11689741Y-11058509D01*
X11407759Y-11058509D01*
X11407759Y-11340491D01*
X11689741Y-11340491D01*
X14070991Y-11340491D02*
X14070991Y-11058509D01*
X13789009Y-11058509D01*
X13789009Y-11340491D01*
X14070991Y-11340491D01*
X16452241Y-11340491D02*
X16452241Y-11058509D01*
X16170259Y-11058509D01*
X16170259Y-11340491D01*
X16452241Y-11340491D01*
X18833491Y-11340491D02*
X18833491Y-11058509D01*
X18551509Y-11058509D01*
X18551509Y-11340491D01*
X18833491Y-11340491D01*
X26088366Y-5736616D02*
X26088366Y-5454634D01*
X25806384Y-5454634D01*
X25806384Y-5736616D01*
X26088366Y-5736616D01*
X26088366Y-8117866D02*
X26088366Y-7835884D01*
X25806384Y-7835884D01*
X25806384Y-8117866D01*
X26088366Y-8117866D01*
D16*
X3452500Y-3702500D02*
X3702500Y-3452500D01*
X3452500Y-3202500D01*
X3202500Y-3452500D01*
X3452500Y-3702500D01*
X3452500Y-6083750D02*
X3702500Y-5833750D01*
X3452500Y-5583750D01*
X3202500Y-5833750D01*
X3452500Y-6083750D01*
X3690625Y-7988750D02*
X3940625Y-7738750D01*
X3690625Y-7488750D01*
X3440625Y-7738750D01*
X3690625Y-7988750D01*
X3690625Y-11798750D02*
X3940625Y-11548750D01*
X3690625Y-11298750D01*
X3440625Y-11548750D01*
X3690625Y-11798750D01*
X3928750Y-9893750D02*
X4178750Y-9643750D01*
X3928750Y-9393750D01*
X3678750Y-9643750D01*
X3928750Y-9893750D01*
X5357500Y-3702500D02*
X5607500Y-3452500D01*
X5357500Y-3202500D01*
X5107500Y-3452500D01*
X5357500Y-3702500D01*
X5357500Y-6083750D02*
X5607500Y-5833750D01*
X5357500Y-5583750D01*
X5107500Y-5833750D01*
X5357500Y-6083750D01*
X5833750Y-7988750D02*
X6083750Y-7738750D01*
X5833750Y-7488750D01*
X5583750Y-7738750D01*
X5833750Y-7988750D01*
X6071875Y-11798750D02*
X6321875Y-11548750D01*
X6071875Y-11298750D01*
X5821875Y-11548750D01*
X6071875Y-11798750D01*
X6310000Y-9893750D02*
X6560000Y-9643750D01*
X6310000Y-9393750D01*
X6060000Y-9643750D01*
X6310000Y-9893750D01*
X7262500Y-3702500D02*
X7512500Y-3452500D01*
X7262500Y-3202500D01*
X7012500Y-3452500D01*
X7262500Y-3702500D01*
X7262500Y-6083750D02*
X7512500Y-5833750D01*
X7262500Y-5583750D01*
X7012500Y-5833750D01*
X7262500Y-6083750D01*
X7738750Y-7988750D02*
X7988750Y-7738750D01*
X7738750Y-7488750D01*
X7488750Y-7738750D01*
X7738750Y-7988750D01*
X8215000Y-9893750D02*
X8465000Y-9643750D01*
X8215000Y-9393750D01*
X7965000Y-9643750D01*
X8215000Y-9893750D01*
X8453125Y-11798750D02*
X8703125Y-11548750D01*
X8453125Y-11298750D01*
X8203125Y-11548750D01*
X8453125Y-11798750D01*
X9167500Y-3702500D02*
X9417500Y-3452500D01*
X9167500Y-3202500D01*
X8917500Y-3452500D01*
X9167500Y-3702500D01*
X9167500Y-6083750D02*
X9417500Y-5833750D01*
X9167500Y-5583750D01*
X8917500Y-5833750D01*
X9167500Y-6083750D01*
X9643750Y-7988750D02*
X9893750Y-7738750D01*
X9643750Y-7488750D01*
X9393750Y-7738750D01*
X9643750Y-7988750D01*
X10120000Y-9893750D02*
X10370000Y-9643750D01*
X10120000Y-9393750D01*
X9870000Y-9643750D01*
X10120000Y-9893750D01*
X11072500Y-6083750D02*
X11322500Y-5833750D01*
X11072500Y-5583750D01*
X10822500Y-5833750D01*
X11072500Y-6083750D01*
X11548750Y-3702500D02*
X11798750Y-3452500D01*
X11548750Y-3202500D01*
X11298750Y-3452500D01*
X11548750Y-3702500D01*
X11548750Y-7988750D02*
X11798750Y-7738750D01*
X11548750Y-7488750D01*
X11298750Y-7738750D01*
X11548750Y-7988750D01*
X12025000Y-9893750D02*
X12275000Y-9643750D01*
X12025000Y-9393750D01*
X11775000Y-9643750D01*
X12025000Y-9893750D01*
X12739375Y-12275000D02*
X12989375Y-12025000D01*
X12739375Y-11775000D01*
X12489375Y-12025000D01*
X12739375Y-12275000D01*
X12977500Y-6083750D02*
X13227500Y-5833750D01*
X12977500Y-5583750D01*
X12727500Y-5833750D01*
X12977500Y-6083750D01*
X13453750Y-3702500D02*
X13703750Y-3452500D01*
X13453750Y-3202500D01*
X13203750Y-3452500D01*
X13453750Y-3702500D01*
X13453750Y-7988750D02*
X13703750Y-7738750D01*
X13453750Y-7488750D01*
X13203750Y-7738750D01*
X13453750Y-7988750D01*
X13930000Y-9893750D02*
X14180000Y-9643750D01*
X13930000Y-9393750D01*
X13680000Y-9643750D01*
X13930000Y-9893750D01*
X14882500Y-6083750D02*
X15132500Y-5833750D01*
X14882500Y-5583750D01*
X14632500Y-5833750D01*
X14882500Y-6083750D01*
X15358750Y-3702500D02*
X15608750Y-3452500D01*
X15358750Y-3202500D01*
X15108750Y-3452500D01*
X15358750Y-3702500D01*
X15358750Y-7988750D02*
X15608750Y-7738750D01*
X15358750Y-7488750D01*
X15108750Y-7738750D01*
X15358750Y-7988750D01*
X15835000Y-9893750D02*
X16085000Y-9643750D01*
X15835000Y-9393750D01*
X15585000Y-9643750D01*
X15835000Y-9893750D01*
X16787500Y-6083750D02*
X17037500Y-5833750D01*
X16787500Y-5583750D01*
X16537500Y-5833750D01*
X16787500Y-6083750D01*
X17263750Y-3702500D02*
X17513750Y-3452500D01*
X17263750Y-3202500D01*
X17013750Y-3452500D01*
X17263750Y-3702500D01*
X17263750Y-7988750D02*
X17513750Y-7738750D01*
X17263750Y-7488750D01*
X17013750Y-7738750D01*
X17263750Y-7988750D01*
X17501875Y-12275000D02*
X17751875Y-12025000D01*
X17501875Y-11775000D01*
X17251875Y-12025000D01*
X17501875Y-12275000D01*
X17740000Y-9893750D02*
X17990000Y-9643750D01*
X17740000Y-9393750D01*
X17490000Y-9643750D01*
X17740000Y-9893750D01*
X18692500Y-6083750D02*
X18942500Y-5833750D01*
X18692500Y-5583750D01*
X18442500Y-5833750D01*
X18692500Y-6083750D01*
X19168750Y-7988750D02*
X19418750Y-7738750D01*
X19168750Y-7488750D01*
X18918750Y-7738750D01*
X19168750Y-7988750D01*
X19645000Y-3702500D02*
X19895000Y-3452500D01*
X19645000Y-3202500D01*
X19395000Y-3452500D01*
X19645000Y-3702500D01*
X19645000Y-9893750D02*
X19895000Y-9643750D01*
X19645000Y-9393750D01*
X19395000Y-9643750D01*
X19645000Y-9893750D01*
X20597500Y-6083750D02*
X20847500Y-5833750D01*
X20597500Y-5583750D01*
X20347500Y-5833750D01*
X20597500Y-6083750D01*
X21073750Y-7988750D02*
X21323750Y-7738750D01*
X21073750Y-7488750D01*
X20823750Y-7738750D01*
X21073750Y-7988750D01*
X21311875Y-11798750D02*
X21561875Y-11548750D01*
X21311875Y-11298750D01*
X21061875Y-11548750D01*
X21311875Y-11798750D01*
X21550000Y-3702500D02*
X21800000Y-3452500D01*
X21550000Y-3202500D01*
X21300000Y-3452500D01*
X21550000Y-3702500D01*
X21550000Y-9893750D02*
X21800000Y-9643750D01*
X21550000Y-9393750D01*
X21300000Y-9643750D01*
X21550000Y-9893750D01*
X22502500Y-6083750D02*
X22752500Y-5833750D01*
X22502500Y-5583750D01*
X22252500Y-5833750D01*
X22502500Y-6083750D01*
X22978750Y-7988750D02*
X23228750Y-7738750D01*
X22978750Y-7488750D01*
X22728750Y-7738750D01*
X22978750Y-7988750D01*
X23455000Y-3702500D02*
X23705000Y-3452500D01*
X23455000Y-3202500D01*
X23205000Y-3452500D01*
X23455000Y-3702500D01*
X23455000Y-9893750D02*
X23705000Y-9643750D01*
X23455000Y-9393750D01*
X23205000Y-9643750D01*
X23455000Y-9893750D01*
X23931250Y-12275000D02*
X24181250Y-12025000D01*
X23931250Y-11775000D01*
X23681250Y-12025000D01*
X23931250Y-12275000D01*
X25121875Y-7036250D02*
X25371875Y-6786250D01*
X25121875Y-6536250D01*
X24871875Y-6786250D01*
X25121875Y-7036250D01*
X25360000Y-3702500D02*
X25610000Y-3452500D01*
X25360000Y-3202500D01*
X25110000Y-3452500D01*
X25360000Y-3702500D01*
X25836250Y-10370000D02*
X26086250Y-10120000D01*
X25836250Y-9870000D01*
X25586250Y-10120000D01*
X25836250Y-10370000D01*
X25836250Y-12275000D02*
X26086250Y-12025000D01*
X25836250Y-11775000D01*
X25586250Y-12025000D01*
X25836250Y-12275000D01*
X27741250Y-6083750D02*
X27991250Y-5833750D01*
X27741250Y-5583750D01*
X27491250Y-5833750D01*
X27741250Y-6083750D01*
X27741250Y-7988750D02*
X27991250Y-7738750D01*
X27741250Y-7488750D01*
X27491250Y-7738750D01*
X27741250Y-7988750D01*
X27741250Y-12275000D02*
X27991250Y-12025000D01*
X27741250Y-11775000D01*
X27491250Y-12025000D01*
X27741250Y-12275000D01*
D11*
X2055777Y-13993984D02*
X2055777Y-13793984D01*
X2055777Y-13793984D02*
X2103396Y-13793984D01*
X2103396Y-13793984D02*
X2131967Y-13803508D01*
X2131967Y-13803508D02*
X2151015Y-13822555D01*
X2151015Y-13822555D02*
X2160539Y-13841603D01*
X2160539Y-13841603D02*
X2170063Y-13879698D01*
X2170063Y-13879698D02*
X2170063Y-13908269D01*
X2170063Y-13908269D02*
X2160539Y-13946365D01*
X2160539Y-13946365D02*
X2151015Y-13965412D01*
X2151015Y-13965412D02*
X2131967Y-13984460D01*
X2131967Y-13984460D02*
X2103396Y-13993984D01*
X2103396Y-13993984D02*
X2055777Y-13993984D01*
X2255777Y-13993984D02*
X2255777Y-13860650D01*
X2255777Y-13898746D02*
X2265301Y-13879698D01*
X2265301Y-13879698D02*
X2274824Y-13870174D01*
X2274824Y-13870174D02*
X2293872Y-13860650D01*
X2293872Y-13860650D02*
X2312920Y-13860650D01*
X2379586Y-13993984D02*
X2379586Y-13860650D01*
X2379586Y-13793984D02*
X2370063Y-13803508D01*
X2370063Y-13803508D02*
X2379586Y-13813031D01*
X2379586Y-13813031D02*
X2389110Y-13803508D01*
X2389110Y-13803508D02*
X2379586Y-13793984D01*
X2379586Y-13793984D02*
X2379586Y-13813031D01*
X2503396Y-13993984D02*
X2484348Y-13984460D01*
X2484348Y-13984460D02*
X2474824Y-13965412D01*
X2474824Y-13965412D02*
X2474824Y-13793984D01*
X2608158Y-13993984D02*
X2589110Y-13984460D01*
X2589110Y-13984460D02*
X2579586Y-13965412D01*
X2579586Y-13965412D02*
X2579586Y-13793984D01*
X2836729Y-13993984D02*
X2836729Y-13793984D01*
X2836729Y-13793984D02*
X2903396Y-13936841D01*
X2903396Y-13936841D02*
X2970062Y-13793984D01*
X2970062Y-13793984D02*
X2970062Y-13993984D01*
X3151015Y-13993984D02*
X3151015Y-13889222D01*
X3151015Y-13889222D02*
X3141491Y-13870174D01*
X3141491Y-13870174D02*
X3122443Y-13860650D01*
X3122443Y-13860650D02*
X3084348Y-13860650D01*
X3084348Y-13860650D02*
X3065301Y-13870174D01*
X3151015Y-13984460D02*
X3131967Y-13993984D01*
X3131967Y-13993984D02*
X3084348Y-13993984D01*
X3084348Y-13993984D02*
X3065301Y-13984460D01*
X3065301Y-13984460D02*
X3055777Y-13965412D01*
X3055777Y-13965412D02*
X3055777Y-13946365D01*
X3055777Y-13946365D02*
X3065301Y-13927317D01*
X3065301Y-13927317D02*
X3084348Y-13917793D01*
X3084348Y-13917793D02*
X3131967Y-13917793D01*
X3131967Y-13917793D02*
X3151015Y-13908269D01*
X3246253Y-13860650D02*
X3246253Y-14060650D01*
X3246253Y-13870174D02*
X3265301Y-13860650D01*
X3265301Y-13860650D02*
X3303396Y-13860650D01*
X3303396Y-13860650D02*
X3322443Y-13870174D01*
X3322443Y-13870174D02*
X3331967Y-13879698D01*
X3331967Y-13879698D02*
X3341491Y-13898746D01*
X3341491Y-13898746D02*
X3341491Y-13955888D01*
X3341491Y-13955888D02*
X3331967Y-13974936D01*
X3331967Y-13974936D02*
X3322443Y-13984460D01*
X3322443Y-13984460D02*
X3303396Y-13993984D01*
X3303396Y-13993984D02*
X3265301Y-13993984D01*
X3265301Y-13993984D02*
X3246253Y-13984460D01*
X3427205Y-13974936D02*
X3436729Y-13984460D01*
X3436729Y-13984460D02*
X3427205Y-13993984D01*
X3427205Y-13993984D02*
X3417682Y-13984460D01*
X3417682Y-13984460D02*
X3427205Y-13974936D01*
X3427205Y-13974936D02*
X3427205Y-13993984D01*
X3427205Y-13870174D02*
X3436729Y-13879698D01*
X3436729Y-13879698D02*
X3427205Y-13889222D01*
X3427205Y-13889222D02*
X3417682Y-13879698D01*
X3417682Y-13879698D02*
X3427205Y-13870174D01*
X3427205Y-13870174D02*
X3427205Y-13889222D01*
D12*
X1705000Y-14277500D02*
X1795000Y-14367500D01*
X1795000Y-14277500D02*
X1705000Y-14367500D01*
D11*
X2093872Y-14213984D02*
X2112920Y-14213984D01*
X2112920Y-14213984D02*
X2131967Y-14223508D01*
X2131967Y-14223508D02*
X2141491Y-14233031D01*
X2141491Y-14233031D02*
X2151015Y-14252079D01*
X2151015Y-14252079D02*
X2160539Y-14290174D01*
X2160539Y-14290174D02*
X2160539Y-14337793D01*
X2160539Y-14337793D02*
X2151015Y-14375888D01*
X2151015Y-14375888D02*
X2141491Y-14394936D01*
X2141491Y-14394936D02*
X2131967Y-14404460D01*
X2131967Y-14404460D02*
X2112920Y-14413984D01*
X2112920Y-14413984D02*
X2093872Y-14413984D01*
X2093872Y-14413984D02*
X2074824Y-14404460D01*
X2074824Y-14404460D02*
X2065301Y-14394936D01*
X2065301Y-14394936D02*
X2055777Y-14375888D01*
X2055777Y-14375888D02*
X2046253Y-14337793D01*
X2046253Y-14337793D02*
X2046253Y-14290174D01*
X2046253Y-14290174D02*
X2055777Y-14252079D01*
X2055777Y-14252079D02*
X2065301Y-14233031D01*
X2065301Y-14233031D02*
X2074824Y-14223508D01*
X2074824Y-14223508D02*
X2093872Y-14213984D01*
X2246253Y-14394936D02*
X2255777Y-14404460D01*
X2255777Y-14404460D02*
X2246253Y-14413984D01*
X2246253Y-14413984D02*
X2236729Y-14404460D01*
X2236729Y-14404460D02*
X2246253Y-14394936D01*
X2246253Y-14394936D02*
X2246253Y-14413984D01*
X2351015Y-14413984D02*
X2389110Y-14413984D01*
X2389110Y-14413984D02*
X2408158Y-14404460D01*
X2408158Y-14404460D02*
X2417682Y-14394936D01*
X2417682Y-14394936D02*
X2436729Y-14366365D01*
X2436729Y-14366365D02*
X2446253Y-14328269D01*
X2446253Y-14328269D02*
X2446253Y-14252079D01*
X2446253Y-14252079D02*
X2436729Y-14233031D01*
X2436729Y-14233031D02*
X2427205Y-14223508D01*
X2427205Y-14223508D02*
X2408158Y-14213984D01*
X2408158Y-14213984D02*
X2370063Y-14213984D01*
X2370063Y-14213984D02*
X2351015Y-14223508D01*
X2351015Y-14223508D02*
X2341491Y-14233031D01*
X2341491Y-14233031D02*
X2331967Y-14252079D01*
X2331967Y-14252079D02*
X2331967Y-14299698D01*
X2331967Y-14299698D02*
X2341491Y-14318746D01*
X2341491Y-14318746D02*
X2351015Y-14328269D01*
X2351015Y-14328269D02*
X2370063Y-14337793D01*
X2370063Y-14337793D02*
X2408158Y-14337793D01*
X2408158Y-14337793D02*
X2427205Y-14328269D01*
X2427205Y-14328269D02*
X2436729Y-14318746D01*
X2436729Y-14318746D02*
X2446253Y-14299698D01*
X2570063Y-14213984D02*
X2589110Y-14213984D01*
X2589110Y-14213984D02*
X2608158Y-14223508D01*
X2608158Y-14223508D02*
X2617682Y-14233031D01*
X2617682Y-14233031D02*
X2627205Y-14252079D01*
X2627205Y-14252079D02*
X2636729Y-14290174D01*
X2636729Y-14290174D02*
X2636729Y-14337793D01*
X2636729Y-14337793D02*
X2627205Y-14375888D01*
X2627205Y-14375888D02*
X2617682Y-14394936D01*
X2617682Y-14394936D02*
X2608158Y-14404460D01*
X2608158Y-14404460D02*
X2589110Y-14413984D01*
X2589110Y-14413984D02*
X2570063Y-14413984D01*
X2570063Y-14413984D02*
X2551015Y-14404460D01*
X2551015Y-14404460D02*
X2541491Y-14394936D01*
X2541491Y-14394936D02*
X2531967Y-14375888D01*
X2531967Y-14375888D02*
X2522444Y-14337793D01*
X2522444Y-14337793D02*
X2522444Y-14290174D01*
X2522444Y-14290174D02*
X2531967Y-14252079D01*
X2531967Y-14252079D02*
X2541491Y-14233031D01*
X2541491Y-14233031D02*
X2551015Y-14223508D01*
X2551015Y-14223508D02*
X2570063Y-14213984D01*
X2760539Y-14213984D02*
X2779586Y-14213984D01*
X2779586Y-14213984D02*
X2798634Y-14223508D01*
X2798634Y-14223508D02*
X2808158Y-14233031D01*
X2808158Y-14233031D02*
X2817682Y-14252079D01*
X2817682Y-14252079D02*
X2827205Y-14290174D01*
X2827205Y-14290174D02*
X2827205Y-14337793D01*
X2827205Y-14337793D02*
X2817682Y-14375888D01*
X2817682Y-14375888D02*
X2808158Y-14394936D01*
X2808158Y-14394936D02*
X2798634Y-14404460D01*
X2798634Y-14404460D02*
X2779586Y-14413984D01*
X2779586Y-14413984D02*
X2760539Y-14413984D01*
X2760539Y-14413984D02*
X2741491Y-14404460D01*
X2741491Y-14404460D02*
X2731967Y-14394936D01*
X2731967Y-14394936D02*
X2722444Y-14375888D01*
X2722444Y-14375888D02*
X2712920Y-14337793D01*
X2712920Y-14337793D02*
X2712920Y-14290174D01*
X2712920Y-14290174D02*
X2722444Y-14252079D01*
X2722444Y-14252079D02*
X2731967Y-14233031D01*
X2731967Y-14233031D02*
X2741491Y-14223508D01*
X2741491Y-14223508D02*
X2760539Y-14213984D01*
X2912920Y-14413984D02*
X2912920Y-14280650D01*
X2912920Y-14299698D02*
X2922443Y-14290174D01*
X2922443Y-14290174D02*
X2941491Y-14280650D01*
X2941491Y-14280650D02*
X2970063Y-14280650D01*
X2970063Y-14280650D02*
X2989110Y-14290174D01*
X2989110Y-14290174D02*
X2998634Y-14309222D01*
X2998634Y-14309222D02*
X2998634Y-14413984D01*
X2998634Y-14309222D02*
X3008158Y-14290174D01*
X3008158Y-14290174D02*
X3027205Y-14280650D01*
X3027205Y-14280650D02*
X3055777Y-14280650D01*
X3055777Y-14280650D02*
X3074824Y-14290174D01*
X3074824Y-14290174D02*
X3084348Y-14309222D01*
X3084348Y-14309222D02*
X3084348Y-14413984D01*
X3179586Y-14413984D02*
X3179586Y-14280650D01*
X3179586Y-14299698D02*
X3189110Y-14290174D01*
X3189110Y-14290174D02*
X3208158Y-14280650D01*
X3208158Y-14280650D02*
X3236729Y-14280650D01*
X3236729Y-14280650D02*
X3255777Y-14290174D01*
X3255777Y-14290174D02*
X3265301Y-14309222D01*
X3265301Y-14309222D02*
X3265301Y-14413984D01*
X3265301Y-14309222D02*
X3274824Y-14290174D01*
X3274824Y-14290174D02*
X3293872Y-14280650D01*
X3293872Y-14280650D02*
X3322443Y-14280650D01*
X3322443Y-14280650D02*
X3341491Y-14290174D01*
X3341491Y-14290174D02*
X3351015Y-14309222D01*
X3351015Y-14309222D02*
X3351015Y-14413984D01*
X3741491Y-14204460D02*
X3570063Y-14461603D01*
X3998634Y-14213984D02*
X4017682Y-14213984D01*
X4017682Y-14213984D02*
X4036729Y-14223508D01*
X4036729Y-14223508D02*
X4046253Y-14233031D01*
X4046253Y-14233031D02*
X4055777Y-14252079D01*
X4055777Y-14252079D02*
X4065301Y-14290174D01*
X4065301Y-14290174D02*
X4065301Y-14337793D01*
X4065301Y-14337793D02*
X4055777Y-14375888D01*
X4055777Y-14375888D02*
X4046253Y-14394936D01*
X4046253Y-14394936D02*
X4036729Y-14404460D01*
X4036729Y-14404460D02*
X4017682Y-14413984D01*
X4017682Y-14413984D02*
X3998634Y-14413984D01*
X3998634Y-14413984D02*
X3979586Y-14404460D01*
X3979586Y-14404460D02*
X3970063Y-14394936D01*
X3970063Y-14394936D02*
X3960539Y-14375888D01*
X3960539Y-14375888D02*
X3951015Y-14337793D01*
X3951015Y-14337793D02*
X3951015Y-14290174D01*
X3951015Y-14290174D02*
X3960539Y-14252079D01*
X3960539Y-14252079D02*
X3970063Y-14233031D01*
X3970063Y-14233031D02*
X3979586Y-14223508D01*
X3979586Y-14223508D02*
X3998634Y-14213984D01*
X4151015Y-14394936D02*
X4160539Y-14404460D01*
X4160539Y-14404460D02*
X4151015Y-14413984D01*
X4151015Y-14413984D02*
X4141491Y-14404460D01*
X4141491Y-14404460D02*
X4151015Y-14394936D01*
X4151015Y-14394936D02*
X4151015Y-14413984D01*
X4284348Y-14213984D02*
X4303396Y-14213984D01*
X4303396Y-14213984D02*
X4322444Y-14223508D01*
X4322444Y-14223508D02*
X4331968Y-14233031D01*
X4331968Y-14233031D02*
X4341491Y-14252079D01*
X4341491Y-14252079D02*
X4351015Y-14290174D01*
X4351015Y-14290174D02*
X4351015Y-14337793D01*
X4351015Y-14337793D02*
X4341491Y-14375888D01*
X4341491Y-14375888D02*
X4331968Y-14394936D01*
X4331968Y-14394936D02*
X4322444Y-14404460D01*
X4322444Y-14404460D02*
X4303396Y-14413984D01*
X4303396Y-14413984D02*
X4284348Y-14413984D01*
X4284348Y-14413984D02*
X4265301Y-14404460D01*
X4265301Y-14404460D02*
X4255777Y-14394936D01*
X4255777Y-14394936D02*
X4246253Y-14375888D01*
X4246253Y-14375888D02*
X4236729Y-14337793D01*
X4236729Y-14337793D02*
X4236729Y-14290174D01*
X4236729Y-14290174D02*
X4246253Y-14252079D01*
X4246253Y-14252079D02*
X4255777Y-14233031D01*
X4255777Y-14233031D02*
X4265301Y-14223508D01*
X4265301Y-14223508D02*
X4284348Y-14213984D01*
X4417682Y-14213984D02*
X4541491Y-14213984D01*
X4541491Y-14213984D02*
X4474825Y-14290174D01*
X4474825Y-14290174D02*
X4503396Y-14290174D01*
X4503396Y-14290174D02*
X4522444Y-14299698D01*
X4522444Y-14299698D02*
X4531968Y-14309222D01*
X4531968Y-14309222D02*
X4541491Y-14328269D01*
X4541491Y-14328269D02*
X4541491Y-14375888D01*
X4541491Y-14375888D02*
X4531968Y-14394936D01*
X4531968Y-14394936D02*
X4522444Y-14404460D01*
X4522444Y-14404460D02*
X4503396Y-14413984D01*
X4503396Y-14413984D02*
X4446253Y-14413984D01*
X4446253Y-14413984D02*
X4427206Y-14404460D01*
X4427206Y-14404460D02*
X4417682Y-14394936D01*
X4722444Y-14213984D02*
X4627206Y-14213984D01*
X4627206Y-14213984D02*
X4617682Y-14309222D01*
X4617682Y-14309222D02*
X4627206Y-14299698D01*
X4627206Y-14299698D02*
X4646253Y-14290174D01*
X4646253Y-14290174D02*
X4693872Y-14290174D01*
X4693872Y-14290174D02*
X4712920Y-14299698D01*
X4712920Y-14299698D02*
X4722444Y-14309222D01*
X4722444Y-14309222D02*
X4731968Y-14328269D01*
X4731968Y-14328269D02*
X4731968Y-14375888D01*
X4731968Y-14375888D02*
X4722444Y-14394936D01*
X4722444Y-14394936D02*
X4712920Y-14404460D01*
X4712920Y-14404460D02*
X4693872Y-14413984D01*
X4693872Y-14413984D02*
X4646253Y-14413984D01*
X4646253Y-14413984D02*
X4627206Y-14404460D01*
X4627206Y-14404460D02*
X4617682Y-14394936D01*
X4903396Y-14280650D02*
X4903396Y-14413984D01*
X4855777Y-14204460D02*
X4808158Y-14347317D01*
X4808158Y-14347317D02*
X4931968Y-14347317D01*
X4998634Y-14213984D02*
X4998634Y-14252079D01*
X5074825Y-14213984D02*
X5074825Y-14252079D01*
X5370063Y-14490174D02*
X5360539Y-14480650D01*
X5360539Y-14480650D02*
X5341491Y-14452079D01*
X5341491Y-14452079D02*
X5331968Y-14433031D01*
X5331968Y-14433031D02*
X5322444Y-14404460D01*
X5322444Y-14404460D02*
X5312920Y-14356841D01*
X5312920Y-14356841D02*
X5312920Y-14318746D01*
X5312920Y-14318746D02*
X5322444Y-14271127D01*
X5322444Y-14271127D02*
X5331968Y-14242555D01*
X5331968Y-14242555D02*
X5341491Y-14223508D01*
X5341491Y-14223508D02*
X5360539Y-14194936D01*
X5360539Y-14194936D02*
X5370063Y-14185412D01*
X5436730Y-14233031D02*
X5446253Y-14223508D01*
X5446253Y-14223508D02*
X5465301Y-14213984D01*
X5465301Y-14213984D02*
X5512920Y-14213984D01*
X5512920Y-14213984D02*
X5531968Y-14223508D01*
X5531968Y-14223508D02*
X5541491Y-14233031D01*
X5541491Y-14233031D02*
X5551015Y-14252079D01*
X5551015Y-14252079D02*
X5551015Y-14271127D01*
X5551015Y-14271127D02*
X5541491Y-14299698D01*
X5541491Y-14299698D02*
X5427206Y-14413984D01*
X5427206Y-14413984D02*
X5551015Y-14413984D01*
X5789110Y-14413984D02*
X5789110Y-14213984D01*
X5874825Y-14413984D02*
X5874825Y-14309222D01*
X5874825Y-14309222D02*
X5865301Y-14290174D01*
X5865301Y-14290174D02*
X5846253Y-14280650D01*
X5846253Y-14280650D02*
X5817682Y-14280650D01*
X5817682Y-14280650D02*
X5798634Y-14290174D01*
X5798634Y-14290174D02*
X5789110Y-14299698D01*
X5998634Y-14413984D02*
X5979587Y-14404460D01*
X5979587Y-14404460D02*
X5970063Y-14394936D01*
X5970063Y-14394936D02*
X5960539Y-14375888D01*
X5960539Y-14375888D02*
X5960539Y-14318746D01*
X5960539Y-14318746D02*
X5970063Y-14299698D01*
X5970063Y-14299698D02*
X5979587Y-14290174D01*
X5979587Y-14290174D02*
X5998634Y-14280650D01*
X5998634Y-14280650D02*
X6027206Y-14280650D01*
X6027206Y-14280650D02*
X6046253Y-14290174D01*
X6046253Y-14290174D02*
X6055777Y-14299698D01*
X6055777Y-14299698D02*
X6065301Y-14318746D01*
X6065301Y-14318746D02*
X6065301Y-14375888D01*
X6065301Y-14375888D02*
X6055777Y-14394936D01*
X6055777Y-14394936D02*
X6046253Y-14404460D01*
X6046253Y-14404460D02*
X6027206Y-14413984D01*
X6027206Y-14413984D02*
X5998634Y-14413984D01*
X6179587Y-14413984D02*
X6160539Y-14404460D01*
X6160539Y-14404460D02*
X6151015Y-14385412D01*
X6151015Y-14385412D02*
X6151015Y-14213984D01*
X6331968Y-14404460D02*
X6312920Y-14413984D01*
X6312920Y-14413984D02*
X6274825Y-14413984D01*
X6274825Y-14413984D02*
X6255777Y-14404460D01*
X6255777Y-14404460D02*
X6246253Y-14385412D01*
X6246253Y-14385412D02*
X6246253Y-14309222D01*
X6246253Y-14309222D02*
X6255777Y-14290174D01*
X6255777Y-14290174D02*
X6274825Y-14280650D01*
X6274825Y-14280650D02*
X6312920Y-14280650D01*
X6312920Y-14280650D02*
X6331968Y-14290174D01*
X6331968Y-14290174D02*
X6341491Y-14309222D01*
X6341491Y-14309222D02*
X6341491Y-14328269D01*
X6341491Y-14328269D02*
X6246253Y-14347317D01*
X6417682Y-14404460D02*
X6436730Y-14413984D01*
X6436730Y-14413984D02*
X6474825Y-14413984D01*
X6474825Y-14413984D02*
X6493872Y-14404460D01*
X6493872Y-14404460D02*
X6503396Y-14385412D01*
X6503396Y-14385412D02*
X6503396Y-14375888D01*
X6503396Y-14375888D02*
X6493872Y-14356841D01*
X6493872Y-14356841D02*
X6474825Y-14347317D01*
X6474825Y-14347317D02*
X6446253Y-14347317D01*
X6446253Y-14347317D02*
X6427206Y-14337793D01*
X6427206Y-14337793D02*
X6417682Y-14318746D01*
X6417682Y-14318746D02*
X6417682Y-14309222D01*
X6417682Y-14309222D02*
X6427206Y-14290174D01*
X6427206Y-14290174D02*
X6446253Y-14280650D01*
X6446253Y-14280650D02*
X6474825Y-14280650D01*
X6474825Y-14280650D02*
X6493872Y-14290174D01*
X6570063Y-14490174D02*
X6579587Y-14480650D01*
X6579587Y-14480650D02*
X6598634Y-14452079D01*
X6598634Y-14452079D02*
X6608158Y-14433031D01*
X6608158Y-14433031D02*
X6617682Y-14404460D01*
X6617682Y-14404460D02*
X6627206Y-14356841D01*
X6627206Y-14356841D02*
X6627206Y-14318746D01*
X6627206Y-14318746D02*
X6617682Y-14271127D01*
X6617682Y-14271127D02*
X6608158Y-14242555D01*
X6608158Y-14242555D02*
X6598634Y-14223508D01*
X6598634Y-14223508D02*
X6579587Y-14194936D01*
X6579587Y-14194936D02*
X6570063Y-14185412D01*
X6931968Y-14490174D02*
X6922444Y-14480650D01*
X6922444Y-14480650D02*
X6903396Y-14452079D01*
X6903396Y-14452079D02*
X6893872Y-14433031D01*
X6893872Y-14433031D02*
X6884349Y-14404460D01*
X6884349Y-14404460D02*
X6874825Y-14356841D01*
X6874825Y-14356841D02*
X6874825Y-14318746D01*
X6874825Y-14318746D02*
X6884349Y-14271127D01*
X6884349Y-14271127D02*
X6893872Y-14242555D01*
X6893872Y-14242555D02*
X6903396Y-14223508D01*
X6903396Y-14223508D02*
X6922444Y-14194936D01*
X6922444Y-14194936D02*
X6931968Y-14185412D01*
X7008158Y-14280650D02*
X7008158Y-14413984D01*
X7008158Y-14299698D02*
X7017682Y-14290174D01*
X7017682Y-14290174D02*
X7036730Y-14280650D01*
X7036730Y-14280650D02*
X7065301Y-14280650D01*
X7065301Y-14280650D02*
X7084349Y-14290174D01*
X7084349Y-14290174D02*
X7093872Y-14309222D01*
X7093872Y-14309222D02*
X7093872Y-14413984D01*
X7217682Y-14413984D02*
X7198634Y-14404460D01*
X7198634Y-14404460D02*
X7189111Y-14394936D01*
X7189111Y-14394936D02*
X7179587Y-14375888D01*
X7179587Y-14375888D02*
X7179587Y-14318746D01*
X7179587Y-14318746D02*
X7189111Y-14299698D01*
X7189111Y-14299698D02*
X7198634Y-14290174D01*
X7198634Y-14290174D02*
X7217682Y-14280650D01*
X7217682Y-14280650D02*
X7246253Y-14280650D01*
X7246253Y-14280650D02*
X7265301Y-14290174D01*
X7265301Y-14290174D02*
X7274825Y-14299698D01*
X7274825Y-14299698D02*
X7284349Y-14318746D01*
X7284349Y-14318746D02*
X7284349Y-14375888D01*
X7284349Y-14375888D02*
X7274825Y-14394936D01*
X7274825Y-14394936D02*
X7265301Y-14404460D01*
X7265301Y-14404460D02*
X7246253Y-14413984D01*
X7246253Y-14413984D02*
X7217682Y-14413984D01*
X7341492Y-14280650D02*
X7417682Y-14280650D01*
X7370063Y-14213984D02*
X7370063Y-14385412D01*
X7370063Y-14385412D02*
X7379587Y-14404460D01*
X7379587Y-14404460D02*
X7398634Y-14413984D01*
X7398634Y-14413984D02*
X7417682Y-14413984D01*
X7636730Y-14280650D02*
X7636730Y-14480650D01*
X7636730Y-14290174D02*
X7655777Y-14280650D01*
X7655777Y-14280650D02*
X7693873Y-14280650D01*
X7693873Y-14280650D02*
X7712920Y-14290174D01*
X7712920Y-14290174D02*
X7722444Y-14299698D01*
X7722444Y-14299698D02*
X7731968Y-14318746D01*
X7731968Y-14318746D02*
X7731968Y-14375888D01*
X7731968Y-14375888D02*
X7722444Y-14394936D01*
X7722444Y-14394936D02*
X7712920Y-14404460D01*
X7712920Y-14404460D02*
X7693873Y-14413984D01*
X7693873Y-14413984D02*
X7655777Y-14413984D01*
X7655777Y-14413984D02*
X7636730Y-14404460D01*
X7846253Y-14413984D02*
X7827206Y-14404460D01*
X7827206Y-14404460D02*
X7817682Y-14385412D01*
X7817682Y-14385412D02*
X7817682Y-14213984D01*
X8008158Y-14413984D02*
X8008158Y-14309222D01*
X8008158Y-14309222D02*
X7998634Y-14290174D01*
X7998634Y-14290174D02*
X7979587Y-14280650D01*
X7979587Y-14280650D02*
X7941492Y-14280650D01*
X7941492Y-14280650D02*
X7922444Y-14290174D01*
X8008158Y-14404460D02*
X7989111Y-14413984D01*
X7989111Y-14413984D02*
X7941492Y-14413984D01*
X7941492Y-14413984D02*
X7922444Y-14404460D01*
X7922444Y-14404460D02*
X7912920Y-14385412D01*
X7912920Y-14385412D02*
X7912920Y-14366365D01*
X7912920Y-14366365D02*
X7922444Y-14347317D01*
X7922444Y-14347317D02*
X7941492Y-14337793D01*
X7941492Y-14337793D02*
X7989111Y-14337793D01*
X7989111Y-14337793D02*
X8008158Y-14328269D01*
X8074825Y-14280650D02*
X8151015Y-14280650D01*
X8103396Y-14213984D02*
X8103396Y-14385412D01*
X8103396Y-14385412D02*
X8112920Y-14404460D01*
X8112920Y-14404460D02*
X8131968Y-14413984D01*
X8131968Y-14413984D02*
X8151015Y-14413984D01*
X8293873Y-14404460D02*
X8274825Y-14413984D01*
X8274825Y-14413984D02*
X8236730Y-14413984D01*
X8236730Y-14413984D02*
X8217682Y-14404460D01*
X8217682Y-14404460D02*
X8208158Y-14385412D01*
X8208158Y-14385412D02*
X8208158Y-14309222D01*
X8208158Y-14309222D02*
X8217682Y-14290174D01*
X8217682Y-14290174D02*
X8236730Y-14280650D01*
X8236730Y-14280650D02*
X8274825Y-14280650D01*
X8274825Y-14280650D02*
X8293873Y-14290174D01*
X8293873Y-14290174D02*
X8303396Y-14309222D01*
X8303396Y-14309222D02*
X8303396Y-14328269D01*
X8303396Y-14328269D02*
X8208158Y-14347317D01*
X8474825Y-14413984D02*
X8474825Y-14213984D01*
X8474825Y-14404460D02*
X8455777Y-14413984D01*
X8455777Y-14413984D02*
X8417682Y-14413984D01*
X8417682Y-14413984D02*
X8398635Y-14404460D01*
X8398635Y-14404460D02*
X8389111Y-14394936D01*
X8389111Y-14394936D02*
X8379587Y-14375888D01*
X8379587Y-14375888D02*
X8379587Y-14318746D01*
X8379587Y-14318746D02*
X8389111Y-14299698D01*
X8389111Y-14299698D02*
X8398635Y-14290174D01*
X8398635Y-14290174D02*
X8417682Y-14280650D01*
X8417682Y-14280650D02*
X8455777Y-14280650D01*
X8455777Y-14280650D02*
X8474825Y-14290174D01*
X8551016Y-14490174D02*
X8560539Y-14480650D01*
X8560539Y-14480650D02*
X8579587Y-14452079D01*
X8579587Y-14452079D02*
X8589111Y-14433031D01*
X8589111Y-14433031D02*
X8598635Y-14404460D01*
X8598635Y-14404460D02*
X8608158Y-14356841D01*
X8608158Y-14356841D02*
X8608158Y-14318746D01*
X8608158Y-14318746D02*
X8598635Y-14271127D01*
X8598635Y-14271127D02*
X8589111Y-14242555D01*
X8589111Y-14242555D02*
X8579587Y-14223508D01*
X8579587Y-14223508D02*
X8560539Y-14194936D01*
X8560539Y-14194936D02*
X8551016Y-14185412D01*
D13*
X1795000Y-14586500D02*
G75*
G03*
X1795000Y-14586500I-87500J0D01*
G01*
D11*
X2160539Y-14677984D02*
X2046253Y-14677984D01*
X2103396Y-14677984D02*
X2103396Y-14477984D01*
X2103396Y-14477984D02*
X2084348Y-14506555D01*
X2084348Y-14506555D02*
X2065301Y-14525603D01*
X2065301Y-14525603D02*
X2046253Y-14535127D01*
X2246253Y-14658936D02*
X2255777Y-14668460D01*
X2255777Y-14668460D02*
X2246253Y-14677984D01*
X2246253Y-14677984D02*
X2236729Y-14668460D01*
X2236729Y-14668460D02*
X2246253Y-14658936D01*
X2246253Y-14658936D02*
X2246253Y-14677984D01*
X2322444Y-14477984D02*
X2455777Y-14477984D01*
X2455777Y-14477984D02*
X2370063Y-14677984D01*
X2627205Y-14477984D02*
X2531967Y-14477984D01*
X2531967Y-14477984D02*
X2522444Y-14573222D01*
X2522444Y-14573222D02*
X2531967Y-14563698D01*
X2531967Y-14563698D02*
X2551015Y-14554174D01*
X2551015Y-14554174D02*
X2598634Y-14554174D01*
X2598634Y-14554174D02*
X2617682Y-14563698D01*
X2617682Y-14563698D02*
X2627205Y-14573222D01*
X2627205Y-14573222D02*
X2636729Y-14592269D01*
X2636729Y-14592269D02*
X2636729Y-14639888D01*
X2636729Y-14639888D02*
X2627205Y-14658936D01*
X2627205Y-14658936D02*
X2617682Y-14668460D01*
X2617682Y-14668460D02*
X2598634Y-14677984D01*
X2598634Y-14677984D02*
X2551015Y-14677984D01*
X2551015Y-14677984D02*
X2531967Y-14668460D01*
X2531967Y-14668460D02*
X2522444Y-14658936D01*
X2760539Y-14477984D02*
X2779586Y-14477984D01*
X2779586Y-14477984D02*
X2798634Y-14487508D01*
X2798634Y-14487508D02*
X2808158Y-14497031D01*
X2808158Y-14497031D02*
X2817682Y-14516079D01*
X2817682Y-14516079D02*
X2827205Y-14554174D01*
X2827205Y-14554174D02*
X2827205Y-14601793D01*
X2827205Y-14601793D02*
X2817682Y-14639888D01*
X2817682Y-14639888D02*
X2808158Y-14658936D01*
X2808158Y-14658936D02*
X2798634Y-14668460D01*
X2798634Y-14668460D02*
X2779586Y-14677984D01*
X2779586Y-14677984D02*
X2760539Y-14677984D01*
X2760539Y-14677984D02*
X2741491Y-14668460D01*
X2741491Y-14668460D02*
X2731967Y-14658936D01*
X2731967Y-14658936D02*
X2722444Y-14639888D01*
X2722444Y-14639888D02*
X2712920Y-14601793D01*
X2712920Y-14601793D02*
X2712920Y-14554174D01*
X2712920Y-14554174D02*
X2722444Y-14516079D01*
X2722444Y-14516079D02*
X2731967Y-14497031D01*
X2731967Y-14497031D02*
X2741491Y-14487508D01*
X2741491Y-14487508D02*
X2760539Y-14477984D01*
X2912920Y-14677984D02*
X2912920Y-14544650D01*
X2912920Y-14563698D02*
X2922443Y-14554174D01*
X2922443Y-14554174D02*
X2941491Y-14544650D01*
X2941491Y-14544650D02*
X2970063Y-14544650D01*
X2970063Y-14544650D02*
X2989110Y-14554174D01*
X2989110Y-14554174D02*
X2998634Y-14573222D01*
X2998634Y-14573222D02*
X2998634Y-14677984D01*
X2998634Y-14573222D02*
X3008158Y-14554174D01*
X3008158Y-14554174D02*
X3027205Y-14544650D01*
X3027205Y-14544650D02*
X3055777Y-14544650D01*
X3055777Y-14544650D02*
X3074824Y-14554174D01*
X3074824Y-14554174D02*
X3084348Y-14573222D01*
X3084348Y-14573222D02*
X3084348Y-14677984D01*
X3179586Y-14677984D02*
X3179586Y-14544650D01*
X3179586Y-14563698D02*
X3189110Y-14554174D01*
X3189110Y-14554174D02*
X3208158Y-14544650D01*
X3208158Y-14544650D02*
X3236729Y-14544650D01*
X3236729Y-14544650D02*
X3255777Y-14554174D01*
X3255777Y-14554174D02*
X3265301Y-14573222D01*
X3265301Y-14573222D02*
X3265301Y-14677984D01*
X3265301Y-14573222D02*
X3274824Y-14554174D01*
X3274824Y-14554174D02*
X3293872Y-14544650D01*
X3293872Y-14544650D02*
X3322443Y-14544650D01*
X3322443Y-14544650D02*
X3341491Y-14554174D01*
X3341491Y-14554174D02*
X3351015Y-14573222D01*
X3351015Y-14573222D02*
X3351015Y-14677984D01*
X3741491Y-14468460D02*
X3570063Y-14725603D01*
X3998634Y-14477984D02*
X4017682Y-14477984D01*
X4017682Y-14477984D02*
X4036729Y-14487508D01*
X4036729Y-14487508D02*
X4046253Y-14497031D01*
X4046253Y-14497031D02*
X4055777Y-14516079D01*
X4055777Y-14516079D02*
X4065301Y-14554174D01*
X4065301Y-14554174D02*
X4065301Y-14601793D01*
X4065301Y-14601793D02*
X4055777Y-14639888D01*
X4055777Y-14639888D02*
X4046253Y-14658936D01*
X4046253Y-14658936D02*
X4036729Y-14668460D01*
X4036729Y-14668460D02*
X4017682Y-14677984D01*
X4017682Y-14677984D02*
X3998634Y-14677984D01*
X3998634Y-14677984D02*
X3979586Y-14668460D01*
X3979586Y-14668460D02*
X3970063Y-14658936D01*
X3970063Y-14658936D02*
X3960539Y-14639888D01*
X3960539Y-14639888D02*
X3951015Y-14601793D01*
X3951015Y-14601793D02*
X3951015Y-14554174D01*
X3951015Y-14554174D02*
X3960539Y-14516079D01*
X3960539Y-14516079D02*
X3970063Y-14497031D01*
X3970063Y-14497031D02*
X3979586Y-14487508D01*
X3979586Y-14487508D02*
X3998634Y-14477984D01*
X4151015Y-14658936D02*
X4160539Y-14668460D01*
X4160539Y-14668460D02*
X4151015Y-14677984D01*
X4151015Y-14677984D02*
X4141491Y-14668460D01*
X4141491Y-14668460D02*
X4151015Y-14658936D01*
X4151015Y-14658936D02*
X4151015Y-14677984D01*
X4284348Y-14477984D02*
X4303396Y-14477984D01*
X4303396Y-14477984D02*
X4322444Y-14487508D01*
X4322444Y-14487508D02*
X4331968Y-14497031D01*
X4331968Y-14497031D02*
X4341491Y-14516079D01*
X4341491Y-14516079D02*
X4351015Y-14554174D01*
X4351015Y-14554174D02*
X4351015Y-14601793D01*
X4351015Y-14601793D02*
X4341491Y-14639888D01*
X4341491Y-14639888D02*
X4331968Y-14658936D01*
X4331968Y-14658936D02*
X4322444Y-14668460D01*
X4322444Y-14668460D02*
X4303396Y-14677984D01*
X4303396Y-14677984D02*
X4284348Y-14677984D01*
X4284348Y-14677984D02*
X4265301Y-14668460D01*
X4265301Y-14668460D02*
X4255777Y-14658936D01*
X4255777Y-14658936D02*
X4246253Y-14639888D01*
X4246253Y-14639888D02*
X4236729Y-14601793D01*
X4236729Y-14601793D02*
X4236729Y-14554174D01*
X4236729Y-14554174D02*
X4246253Y-14516079D01*
X4246253Y-14516079D02*
X4255777Y-14497031D01*
X4255777Y-14497031D02*
X4265301Y-14487508D01*
X4265301Y-14487508D02*
X4284348Y-14477984D01*
X4522444Y-14477984D02*
X4484348Y-14477984D01*
X4484348Y-14477984D02*
X4465301Y-14487508D01*
X4465301Y-14487508D02*
X4455777Y-14497031D01*
X4455777Y-14497031D02*
X4436729Y-14525603D01*
X4436729Y-14525603D02*
X4427206Y-14563698D01*
X4427206Y-14563698D02*
X4427206Y-14639888D01*
X4427206Y-14639888D02*
X4436729Y-14658936D01*
X4436729Y-14658936D02*
X4446253Y-14668460D01*
X4446253Y-14668460D02*
X4465301Y-14677984D01*
X4465301Y-14677984D02*
X4503396Y-14677984D01*
X4503396Y-14677984D02*
X4522444Y-14668460D01*
X4522444Y-14668460D02*
X4531968Y-14658936D01*
X4531968Y-14658936D02*
X4541491Y-14639888D01*
X4541491Y-14639888D02*
X4541491Y-14592269D01*
X4541491Y-14592269D02*
X4531968Y-14573222D01*
X4531968Y-14573222D02*
X4522444Y-14563698D01*
X4522444Y-14563698D02*
X4503396Y-14554174D01*
X4503396Y-14554174D02*
X4465301Y-14554174D01*
X4465301Y-14554174D02*
X4446253Y-14563698D01*
X4446253Y-14563698D02*
X4436729Y-14573222D01*
X4436729Y-14573222D02*
X4427206Y-14592269D01*
X4655777Y-14563698D02*
X4636729Y-14554174D01*
X4636729Y-14554174D02*
X4627206Y-14544650D01*
X4627206Y-14544650D02*
X4617682Y-14525603D01*
X4617682Y-14525603D02*
X4617682Y-14516079D01*
X4617682Y-14516079D02*
X4627206Y-14497031D01*
X4627206Y-14497031D02*
X4636729Y-14487508D01*
X4636729Y-14487508D02*
X4655777Y-14477984D01*
X4655777Y-14477984D02*
X4693872Y-14477984D01*
X4693872Y-14477984D02*
X4712920Y-14487508D01*
X4712920Y-14487508D02*
X4722444Y-14497031D01*
X4722444Y-14497031D02*
X4731968Y-14516079D01*
X4731968Y-14516079D02*
X4731968Y-14525603D01*
X4731968Y-14525603D02*
X4722444Y-14544650D01*
X4722444Y-14544650D02*
X4712920Y-14554174D01*
X4712920Y-14554174D02*
X4693872Y-14563698D01*
X4693872Y-14563698D02*
X4655777Y-14563698D01*
X4655777Y-14563698D02*
X4636729Y-14573222D01*
X4636729Y-14573222D02*
X4627206Y-14582746D01*
X4627206Y-14582746D02*
X4617682Y-14601793D01*
X4617682Y-14601793D02*
X4617682Y-14639888D01*
X4617682Y-14639888D02*
X4627206Y-14658936D01*
X4627206Y-14658936D02*
X4636729Y-14668460D01*
X4636729Y-14668460D02*
X4655777Y-14677984D01*
X4655777Y-14677984D02*
X4693872Y-14677984D01*
X4693872Y-14677984D02*
X4712920Y-14668460D01*
X4712920Y-14668460D02*
X4722444Y-14658936D01*
X4722444Y-14658936D02*
X4731968Y-14639888D01*
X4731968Y-14639888D02*
X4731968Y-14601793D01*
X4731968Y-14601793D02*
X4722444Y-14582746D01*
X4722444Y-14582746D02*
X4712920Y-14573222D01*
X4712920Y-14573222D02*
X4693872Y-14563698D01*
X4827206Y-14677984D02*
X4865301Y-14677984D01*
X4865301Y-14677984D02*
X4884349Y-14668460D01*
X4884349Y-14668460D02*
X4893872Y-14658936D01*
X4893872Y-14658936D02*
X4912920Y-14630365D01*
X4912920Y-14630365D02*
X4922444Y-14592269D01*
X4922444Y-14592269D02*
X4922444Y-14516079D01*
X4922444Y-14516079D02*
X4912920Y-14497031D01*
X4912920Y-14497031D02*
X4903396Y-14487508D01*
X4903396Y-14487508D02*
X4884349Y-14477984D01*
X4884349Y-14477984D02*
X4846253Y-14477984D01*
X4846253Y-14477984D02*
X4827206Y-14487508D01*
X4827206Y-14487508D02*
X4817682Y-14497031D01*
X4817682Y-14497031D02*
X4808158Y-14516079D01*
X4808158Y-14516079D02*
X4808158Y-14563698D01*
X4808158Y-14563698D02*
X4817682Y-14582746D01*
X4817682Y-14582746D02*
X4827206Y-14592269D01*
X4827206Y-14592269D02*
X4846253Y-14601793D01*
X4846253Y-14601793D02*
X4884349Y-14601793D01*
X4884349Y-14601793D02*
X4903396Y-14592269D01*
X4903396Y-14592269D02*
X4912920Y-14582746D01*
X4912920Y-14582746D02*
X4922444Y-14563698D01*
X4998634Y-14477984D02*
X4998634Y-14516079D01*
X5074825Y-14477984D02*
X5074825Y-14516079D01*
X5370063Y-14754174D02*
X5360539Y-14744650D01*
X5360539Y-14744650D02*
X5341491Y-14716079D01*
X5341491Y-14716079D02*
X5331968Y-14697031D01*
X5331968Y-14697031D02*
X5322444Y-14668460D01*
X5322444Y-14668460D02*
X5312920Y-14620841D01*
X5312920Y-14620841D02*
X5312920Y-14582746D01*
X5312920Y-14582746D02*
X5322444Y-14535127D01*
X5322444Y-14535127D02*
X5331968Y-14506555D01*
X5331968Y-14506555D02*
X5341491Y-14487508D01*
X5341491Y-14487508D02*
X5360539Y-14458936D01*
X5360539Y-14458936D02*
X5370063Y-14449412D01*
X5551015Y-14677984D02*
X5436730Y-14677984D01*
X5493872Y-14677984D02*
X5493872Y-14477984D01*
X5493872Y-14477984D02*
X5474825Y-14506555D01*
X5474825Y-14506555D02*
X5455777Y-14525603D01*
X5455777Y-14525603D02*
X5436730Y-14535127D01*
X5741491Y-14677984D02*
X5627206Y-14677984D01*
X5684348Y-14677984D02*
X5684348Y-14477984D01*
X5684348Y-14477984D02*
X5665301Y-14506555D01*
X5665301Y-14506555D02*
X5646253Y-14525603D01*
X5646253Y-14525603D02*
X5627206Y-14535127D01*
X5912920Y-14477984D02*
X5874825Y-14477984D01*
X5874825Y-14477984D02*
X5855777Y-14487508D01*
X5855777Y-14487508D02*
X5846253Y-14497031D01*
X5846253Y-14497031D02*
X5827206Y-14525603D01*
X5827206Y-14525603D02*
X5817682Y-14563698D01*
X5817682Y-14563698D02*
X5817682Y-14639888D01*
X5817682Y-14639888D02*
X5827206Y-14658936D01*
X5827206Y-14658936D02*
X5836729Y-14668460D01*
X5836729Y-14668460D02*
X5855777Y-14677984D01*
X5855777Y-14677984D02*
X5893872Y-14677984D01*
X5893872Y-14677984D02*
X5912920Y-14668460D01*
X5912920Y-14668460D02*
X5922444Y-14658936D01*
X5922444Y-14658936D02*
X5931968Y-14639888D01*
X5931968Y-14639888D02*
X5931968Y-14592269D01*
X5931968Y-14592269D02*
X5922444Y-14573222D01*
X5922444Y-14573222D02*
X5912920Y-14563698D01*
X5912920Y-14563698D02*
X5893872Y-14554174D01*
X5893872Y-14554174D02*
X5855777Y-14554174D01*
X5855777Y-14554174D02*
X5836729Y-14563698D01*
X5836729Y-14563698D02*
X5827206Y-14573222D01*
X5827206Y-14573222D02*
X5817682Y-14592269D01*
X6170063Y-14677984D02*
X6170063Y-14477984D01*
X6255777Y-14677984D02*
X6255777Y-14573222D01*
X6255777Y-14573222D02*
X6246253Y-14554174D01*
X6246253Y-14554174D02*
X6227206Y-14544650D01*
X6227206Y-14544650D02*
X6198634Y-14544650D01*
X6198634Y-14544650D02*
X6179587Y-14554174D01*
X6179587Y-14554174D02*
X6170063Y-14563698D01*
X6379587Y-14677984D02*
X6360539Y-14668460D01*
X6360539Y-14668460D02*
X6351015Y-14658936D01*
X6351015Y-14658936D02*
X6341491Y-14639888D01*
X6341491Y-14639888D02*
X6341491Y-14582746D01*
X6341491Y-14582746D02*
X6351015Y-14563698D01*
X6351015Y-14563698D02*
X6360539Y-14554174D01*
X6360539Y-14554174D02*
X6379587Y-14544650D01*
X6379587Y-14544650D02*
X6408158Y-14544650D01*
X6408158Y-14544650D02*
X6427206Y-14554174D01*
X6427206Y-14554174D02*
X6436730Y-14563698D01*
X6436730Y-14563698D02*
X6446253Y-14582746D01*
X6446253Y-14582746D02*
X6446253Y-14639888D01*
X6446253Y-14639888D02*
X6436730Y-14658936D01*
X6436730Y-14658936D02*
X6427206Y-14668460D01*
X6427206Y-14668460D02*
X6408158Y-14677984D01*
X6408158Y-14677984D02*
X6379587Y-14677984D01*
X6560539Y-14677984D02*
X6541491Y-14668460D01*
X6541491Y-14668460D02*
X6531968Y-14649412D01*
X6531968Y-14649412D02*
X6531968Y-14477984D01*
X6712920Y-14668460D02*
X6693872Y-14677984D01*
X6693872Y-14677984D02*
X6655777Y-14677984D01*
X6655777Y-14677984D02*
X6636730Y-14668460D01*
X6636730Y-14668460D02*
X6627206Y-14649412D01*
X6627206Y-14649412D02*
X6627206Y-14573222D01*
X6627206Y-14573222D02*
X6636730Y-14554174D01*
X6636730Y-14554174D02*
X6655777Y-14544650D01*
X6655777Y-14544650D02*
X6693872Y-14544650D01*
X6693872Y-14544650D02*
X6712920Y-14554174D01*
X6712920Y-14554174D02*
X6722444Y-14573222D01*
X6722444Y-14573222D02*
X6722444Y-14592269D01*
X6722444Y-14592269D02*
X6627206Y-14611317D01*
X6798634Y-14668460D02*
X6817682Y-14677984D01*
X6817682Y-14677984D02*
X6855777Y-14677984D01*
X6855777Y-14677984D02*
X6874825Y-14668460D01*
X6874825Y-14668460D02*
X6884349Y-14649412D01*
X6884349Y-14649412D02*
X6884349Y-14639888D01*
X6884349Y-14639888D02*
X6874825Y-14620841D01*
X6874825Y-14620841D02*
X6855777Y-14611317D01*
X6855777Y-14611317D02*
X6827206Y-14611317D01*
X6827206Y-14611317D02*
X6808158Y-14601793D01*
X6808158Y-14601793D02*
X6798634Y-14582746D01*
X6798634Y-14582746D02*
X6798634Y-14573222D01*
X6798634Y-14573222D02*
X6808158Y-14554174D01*
X6808158Y-14554174D02*
X6827206Y-14544650D01*
X6827206Y-14544650D02*
X6855777Y-14544650D01*
X6855777Y-14544650D02*
X6874825Y-14554174D01*
X6951015Y-14754174D02*
X6960539Y-14744650D01*
X6960539Y-14744650D02*
X6979587Y-14716079D01*
X6979587Y-14716079D02*
X6989111Y-14697031D01*
X6989111Y-14697031D02*
X6998634Y-14668460D01*
X6998634Y-14668460D02*
X7008158Y-14620841D01*
X7008158Y-14620841D02*
X7008158Y-14582746D01*
X7008158Y-14582746D02*
X6998634Y-14535127D01*
X6998634Y-14535127D02*
X6989111Y-14506555D01*
X6989111Y-14506555D02*
X6979587Y-14487508D01*
X6979587Y-14487508D02*
X6960539Y-14458936D01*
X6960539Y-14458936D02*
X6951015Y-14449412D01*
X7312920Y-14754174D02*
X7303396Y-14744650D01*
X7303396Y-14744650D02*
X7284349Y-14716079D01*
X7284349Y-14716079D02*
X7274825Y-14697031D01*
X7274825Y-14697031D02*
X7265301Y-14668460D01*
X7265301Y-14668460D02*
X7255777Y-14620841D01*
X7255777Y-14620841D02*
X7255777Y-14582746D01*
X7255777Y-14582746D02*
X7265301Y-14535127D01*
X7265301Y-14535127D02*
X7274825Y-14506555D01*
X7274825Y-14506555D02*
X7284349Y-14487508D01*
X7284349Y-14487508D02*
X7303396Y-14458936D01*
X7303396Y-14458936D02*
X7312920Y-14449412D01*
X7389111Y-14544650D02*
X7389111Y-14677984D01*
X7389111Y-14563698D02*
X7398634Y-14554174D01*
X7398634Y-14554174D02*
X7417682Y-14544650D01*
X7417682Y-14544650D02*
X7446253Y-14544650D01*
X7446253Y-14544650D02*
X7465301Y-14554174D01*
X7465301Y-14554174D02*
X7474825Y-14573222D01*
X7474825Y-14573222D02*
X7474825Y-14677984D01*
X7598634Y-14677984D02*
X7579587Y-14668460D01*
X7579587Y-14668460D02*
X7570063Y-14658936D01*
X7570063Y-14658936D02*
X7560539Y-14639888D01*
X7560539Y-14639888D02*
X7560539Y-14582746D01*
X7560539Y-14582746D02*
X7570063Y-14563698D01*
X7570063Y-14563698D02*
X7579587Y-14554174D01*
X7579587Y-14554174D02*
X7598634Y-14544650D01*
X7598634Y-14544650D02*
X7627206Y-14544650D01*
X7627206Y-14544650D02*
X7646253Y-14554174D01*
X7646253Y-14554174D02*
X7655777Y-14563698D01*
X7655777Y-14563698D02*
X7665301Y-14582746D01*
X7665301Y-14582746D02*
X7665301Y-14639888D01*
X7665301Y-14639888D02*
X7655777Y-14658936D01*
X7655777Y-14658936D02*
X7646253Y-14668460D01*
X7646253Y-14668460D02*
X7627206Y-14677984D01*
X7627206Y-14677984D02*
X7598634Y-14677984D01*
X7722444Y-14544650D02*
X7798634Y-14544650D01*
X7751015Y-14477984D02*
X7751015Y-14649412D01*
X7751015Y-14649412D02*
X7760539Y-14668460D01*
X7760539Y-14668460D02*
X7779587Y-14677984D01*
X7779587Y-14677984D02*
X7798634Y-14677984D01*
X8017682Y-14544650D02*
X8017682Y-14744650D01*
X8017682Y-14554174D02*
X8036730Y-14544650D01*
X8036730Y-14544650D02*
X8074825Y-14544650D01*
X8074825Y-14544650D02*
X8093873Y-14554174D01*
X8093873Y-14554174D02*
X8103396Y-14563698D01*
X8103396Y-14563698D02*
X8112920Y-14582746D01*
X8112920Y-14582746D02*
X8112920Y-14639888D01*
X8112920Y-14639888D02*
X8103396Y-14658936D01*
X8103396Y-14658936D02*
X8093873Y-14668460D01*
X8093873Y-14668460D02*
X8074825Y-14677984D01*
X8074825Y-14677984D02*
X8036730Y-14677984D01*
X8036730Y-14677984D02*
X8017682Y-14668460D01*
X8227206Y-14677984D02*
X8208158Y-14668460D01*
X8208158Y-14668460D02*
X8198634Y-14649412D01*
X8198634Y-14649412D02*
X8198634Y-14477984D01*
X8389111Y-14677984D02*
X8389111Y-14573222D01*
X8389111Y-14573222D02*
X8379587Y-14554174D01*
X8379587Y-14554174D02*
X8360539Y-14544650D01*
X8360539Y-14544650D02*
X8322444Y-14544650D01*
X8322444Y-14544650D02*
X8303396Y-14554174D01*
X8389111Y-14668460D02*
X8370063Y-14677984D01*
X8370063Y-14677984D02*
X8322444Y-14677984D01*
X8322444Y-14677984D02*
X8303396Y-14668460D01*
X8303396Y-14668460D02*
X8293873Y-14649412D01*
X8293873Y-14649412D02*
X8293873Y-14630365D01*
X8293873Y-14630365D02*
X8303396Y-14611317D01*
X8303396Y-14611317D02*
X8322444Y-14601793D01*
X8322444Y-14601793D02*
X8370063Y-14601793D01*
X8370063Y-14601793D02*
X8389111Y-14592269D01*
X8455777Y-14544650D02*
X8531968Y-14544650D01*
X8484349Y-14477984D02*
X8484349Y-14649412D01*
X8484349Y-14649412D02*
X8493873Y-14668460D01*
X8493873Y-14668460D02*
X8512920Y-14677984D01*
X8512920Y-14677984D02*
X8531968Y-14677984D01*
X8674825Y-14668460D02*
X8655777Y-14677984D01*
X8655777Y-14677984D02*
X8617682Y-14677984D01*
X8617682Y-14677984D02*
X8598635Y-14668460D01*
X8598635Y-14668460D02*
X8589111Y-14649412D01*
X8589111Y-14649412D02*
X8589111Y-14573222D01*
X8589111Y-14573222D02*
X8598635Y-14554174D01*
X8598635Y-14554174D02*
X8617682Y-14544650D01*
X8617682Y-14544650D02*
X8655777Y-14544650D01*
X8655777Y-14544650D02*
X8674825Y-14554174D01*
X8674825Y-14554174D02*
X8684349Y-14573222D01*
X8684349Y-14573222D02*
X8684349Y-14592269D01*
X8684349Y-14592269D02*
X8589111Y-14611317D01*
X8855777Y-14677984D02*
X8855777Y-14477984D01*
X8855777Y-14668460D02*
X8836730Y-14677984D01*
X8836730Y-14677984D02*
X8798635Y-14677984D01*
X8798635Y-14677984D02*
X8779587Y-14668460D01*
X8779587Y-14668460D02*
X8770063Y-14658936D01*
X8770063Y-14658936D02*
X8760539Y-14639888D01*
X8760539Y-14639888D02*
X8760539Y-14582746D01*
X8760539Y-14582746D02*
X8770063Y-14563698D01*
X8770063Y-14563698D02*
X8779587Y-14554174D01*
X8779587Y-14554174D02*
X8798635Y-14544650D01*
X8798635Y-14544650D02*
X8836730Y-14544650D01*
X8836730Y-14544650D02*
X8855777Y-14554174D01*
X8931968Y-14754174D02*
X8941492Y-14744650D01*
X8941492Y-14744650D02*
X8960539Y-14716079D01*
X8960539Y-14716079D02*
X8970063Y-14697031D01*
X8970063Y-14697031D02*
X8979587Y-14668460D01*
X8979587Y-14668460D02*
X8989111Y-14620841D01*
X8989111Y-14620841D02*
X8989111Y-14582746D01*
X8989111Y-14582746D02*
X8979587Y-14535127D01*
X8979587Y-14535127D02*
X8970063Y-14506555D01*
X8970063Y-14506555D02*
X8960539Y-14487508D01*
X8960539Y-14487508D02*
X8941492Y-14458936D01*
X8941492Y-14458936D02*
X8931968Y-14449412D01*
X1695000Y-14781500D02*
X1695000Y-14981500D01*
X1595000Y-14881500D02*
X1795000Y-14881500D01*
X2036729Y-14772984D02*
X2160539Y-14772984D01*
X2160539Y-14772984D02*
X2093872Y-14849174D01*
X2093872Y-14849174D02*
X2122444Y-14849174D01*
X2122444Y-14849174D02*
X2141491Y-14858698D01*
X2141491Y-14858698D02*
X2151015Y-14868222D01*
X2151015Y-14868222D02*
X2160539Y-14887269D01*
X2160539Y-14887269D02*
X2160539Y-14934888D01*
X2160539Y-14934888D02*
X2151015Y-14953936D01*
X2151015Y-14953936D02*
X2141491Y-14963460D01*
X2141491Y-14963460D02*
X2122444Y-14972984D01*
X2122444Y-14972984D02*
X2065301Y-14972984D01*
X2065301Y-14972984D02*
X2046253Y-14963460D01*
X2046253Y-14963460D02*
X2036729Y-14953936D01*
X2246253Y-14953936D02*
X2255777Y-14963460D01*
X2255777Y-14963460D02*
X2246253Y-14972984D01*
X2246253Y-14972984D02*
X2236729Y-14963460D01*
X2236729Y-14963460D02*
X2246253Y-14953936D01*
X2246253Y-14953936D02*
X2246253Y-14972984D01*
X2379586Y-14772984D02*
X2398634Y-14772984D01*
X2398634Y-14772984D02*
X2417682Y-14782508D01*
X2417682Y-14782508D02*
X2427205Y-14792031D01*
X2427205Y-14792031D02*
X2436729Y-14811079D01*
X2436729Y-14811079D02*
X2446253Y-14849174D01*
X2446253Y-14849174D02*
X2446253Y-14896793D01*
X2446253Y-14896793D02*
X2436729Y-14934888D01*
X2436729Y-14934888D02*
X2427205Y-14953936D01*
X2427205Y-14953936D02*
X2417682Y-14963460D01*
X2417682Y-14963460D02*
X2398634Y-14972984D01*
X2398634Y-14972984D02*
X2379586Y-14972984D01*
X2379586Y-14972984D02*
X2360539Y-14963460D01*
X2360539Y-14963460D02*
X2351015Y-14953936D01*
X2351015Y-14953936D02*
X2341491Y-14934888D01*
X2341491Y-14934888D02*
X2331967Y-14896793D01*
X2331967Y-14896793D02*
X2331967Y-14849174D01*
X2331967Y-14849174D02*
X2341491Y-14811079D01*
X2341491Y-14811079D02*
X2351015Y-14792031D01*
X2351015Y-14792031D02*
X2360539Y-14782508D01*
X2360539Y-14782508D02*
X2379586Y-14772984D01*
X2617682Y-14839650D02*
X2617682Y-14972984D01*
X2570063Y-14763460D02*
X2522444Y-14906317D01*
X2522444Y-14906317D02*
X2646253Y-14906317D01*
X2751015Y-14858698D02*
X2731967Y-14849174D01*
X2731967Y-14849174D02*
X2722444Y-14839650D01*
X2722444Y-14839650D02*
X2712920Y-14820603D01*
X2712920Y-14820603D02*
X2712920Y-14811079D01*
X2712920Y-14811079D02*
X2722444Y-14792031D01*
X2722444Y-14792031D02*
X2731967Y-14782508D01*
X2731967Y-14782508D02*
X2751015Y-14772984D01*
X2751015Y-14772984D02*
X2789110Y-14772984D01*
X2789110Y-14772984D02*
X2808158Y-14782508D01*
X2808158Y-14782508D02*
X2817682Y-14792031D01*
X2817682Y-14792031D02*
X2827205Y-14811079D01*
X2827205Y-14811079D02*
X2827205Y-14820603D01*
X2827205Y-14820603D02*
X2817682Y-14839650D01*
X2817682Y-14839650D02*
X2808158Y-14849174D01*
X2808158Y-14849174D02*
X2789110Y-14858698D01*
X2789110Y-14858698D02*
X2751015Y-14858698D01*
X2751015Y-14858698D02*
X2731967Y-14868222D01*
X2731967Y-14868222D02*
X2722444Y-14877746D01*
X2722444Y-14877746D02*
X2712920Y-14896793D01*
X2712920Y-14896793D02*
X2712920Y-14934888D01*
X2712920Y-14934888D02*
X2722444Y-14953936D01*
X2722444Y-14953936D02*
X2731967Y-14963460D01*
X2731967Y-14963460D02*
X2751015Y-14972984D01*
X2751015Y-14972984D02*
X2789110Y-14972984D01*
X2789110Y-14972984D02*
X2808158Y-14963460D01*
X2808158Y-14963460D02*
X2817682Y-14953936D01*
X2817682Y-14953936D02*
X2827205Y-14934888D01*
X2827205Y-14934888D02*
X2827205Y-14896793D01*
X2827205Y-14896793D02*
X2817682Y-14877746D01*
X2817682Y-14877746D02*
X2808158Y-14868222D01*
X2808158Y-14868222D02*
X2789110Y-14858698D01*
X2912920Y-14972984D02*
X2912920Y-14839650D01*
X2912920Y-14858698D02*
X2922443Y-14849174D01*
X2922443Y-14849174D02*
X2941491Y-14839650D01*
X2941491Y-14839650D02*
X2970063Y-14839650D01*
X2970063Y-14839650D02*
X2989110Y-14849174D01*
X2989110Y-14849174D02*
X2998634Y-14868222D01*
X2998634Y-14868222D02*
X2998634Y-14972984D01*
X2998634Y-14868222D02*
X3008158Y-14849174D01*
X3008158Y-14849174D02*
X3027205Y-14839650D01*
X3027205Y-14839650D02*
X3055777Y-14839650D01*
X3055777Y-14839650D02*
X3074824Y-14849174D01*
X3074824Y-14849174D02*
X3084348Y-14868222D01*
X3084348Y-14868222D02*
X3084348Y-14972984D01*
X3179586Y-14972984D02*
X3179586Y-14839650D01*
X3179586Y-14858698D02*
X3189110Y-14849174D01*
X3189110Y-14849174D02*
X3208158Y-14839650D01*
X3208158Y-14839650D02*
X3236729Y-14839650D01*
X3236729Y-14839650D02*
X3255777Y-14849174D01*
X3255777Y-14849174D02*
X3265301Y-14868222D01*
X3265301Y-14868222D02*
X3265301Y-14972984D01*
X3265301Y-14868222D02*
X3274824Y-14849174D01*
X3274824Y-14849174D02*
X3293872Y-14839650D01*
X3293872Y-14839650D02*
X3322443Y-14839650D01*
X3322443Y-14839650D02*
X3341491Y-14849174D01*
X3341491Y-14849174D02*
X3351015Y-14868222D01*
X3351015Y-14868222D02*
X3351015Y-14972984D01*
X3741491Y-14763460D02*
X3570063Y-15020603D01*
X3998634Y-14772984D02*
X4017682Y-14772984D01*
X4017682Y-14772984D02*
X4036729Y-14782508D01*
X4036729Y-14782508D02*
X4046253Y-14792031D01*
X4046253Y-14792031D02*
X4055777Y-14811079D01*
X4055777Y-14811079D02*
X4065301Y-14849174D01*
X4065301Y-14849174D02*
X4065301Y-14896793D01*
X4065301Y-14896793D02*
X4055777Y-14934888D01*
X4055777Y-14934888D02*
X4046253Y-14953936D01*
X4046253Y-14953936D02*
X4036729Y-14963460D01*
X4036729Y-14963460D02*
X4017682Y-14972984D01*
X4017682Y-14972984D02*
X3998634Y-14972984D01*
X3998634Y-14972984D02*
X3979586Y-14963460D01*
X3979586Y-14963460D02*
X3970063Y-14953936D01*
X3970063Y-14953936D02*
X3960539Y-14934888D01*
X3960539Y-14934888D02*
X3951015Y-14896793D01*
X3951015Y-14896793D02*
X3951015Y-14849174D01*
X3951015Y-14849174D02*
X3960539Y-14811079D01*
X3960539Y-14811079D02*
X3970063Y-14792031D01*
X3970063Y-14792031D02*
X3979586Y-14782508D01*
X3979586Y-14782508D02*
X3998634Y-14772984D01*
X4151015Y-14953936D02*
X4160539Y-14963460D01*
X4160539Y-14963460D02*
X4151015Y-14972984D01*
X4151015Y-14972984D02*
X4141491Y-14963460D01*
X4141491Y-14963460D02*
X4151015Y-14953936D01*
X4151015Y-14953936D02*
X4151015Y-14972984D01*
X4351015Y-14972984D02*
X4236729Y-14972984D01*
X4293872Y-14972984D02*
X4293872Y-14772984D01*
X4293872Y-14772984D02*
X4274825Y-14801555D01*
X4274825Y-14801555D02*
X4255777Y-14820603D01*
X4255777Y-14820603D02*
X4236729Y-14830127D01*
X4427206Y-14792031D02*
X4436729Y-14782508D01*
X4436729Y-14782508D02*
X4455777Y-14772984D01*
X4455777Y-14772984D02*
X4503396Y-14772984D01*
X4503396Y-14772984D02*
X4522444Y-14782508D01*
X4522444Y-14782508D02*
X4531968Y-14792031D01*
X4531968Y-14792031D02*
X4541491Y-14811079D01*
X4541491Y-14811079D02*
X4541491Y-14830127D01*
X4541491Y-14830127D02*
X4531968Y-14858698D01*
X4531968Y-14858698D02*
X4417682Y-14972984D01*
X4417682Y-14972984D02*
X4541491Y-14972984D01*
X4665301Y-14772984D02*
X4684349Y-14772984D01*
X4684349Y-14772984D02*
X4703396Y-14782508D01*
X4703396Y-14782508D02*
X4712920Y-14792031D01*
X4712920Y-14792031D02*
X4722444Y-14811079D01*
X4722444Y-14811079D02*
X4731968Y-14849174D01*
X4731968Y-14849174D02*
X4731968Y-14896793D01*
X4731968Y-14896793D02*
X4722444Y-14934888D01*
X4722444Y-14934888D02*
X4712920Y-14953936D01*
X4712920Y-14953936D02*
X4703396Y-14963460D01*
X4703396Y-14963460D02*
X4684349Y-14972984D01*
X4684349Y-14972984D02*
X4665301Y-14972984D01*
X4665301Y-14972984D02*
X4646253Y-14963460D01*
X4646253Y-14963460D02*
X4636729Y-14953936D01*
X4636729Y-14953936D02*
X4627206Y-14934888D01*
X4627206Y-14934888D02*
X4617682Y-14896793D01*
X4617682Y-14896793D02*
X4617682Y-14849174D01*
X4617682Y-14849174D02*
X4627206Y-14811079D01*
X4627206Y-14811079D02*
X4636729Y-14792031D01*
X4636729Y-14792031D02*
X4646253Y-14782508D01*
X4646253Y-14782508D02*
X4665301Y-14772984D01*
X4855777Y-14772984D02*
X4874825Y-14772984D01*
X4874825Y-14772984D02*
X4893872Y-14782508D01*
X4893872Y-14782508D02*
X4903396Y-14792031D01*
X4903396Y-14792031D02*
X4912920Y-14811079D01*
X4912920Y-14811079D02*
X4922444Y-14849174D01*
X4922444Y-14849174D02*
X4922444Y-14896793D01*
X4922444Y-14896793D02*
X4912920Y-14934888D01*
X4912920Y-14934888D02*
X4903396Y-14953936D01*
X4903396Y-14953936D02*
X4893872Y-14963460D01*
X4893872Y-14963460D02*
X4874825Y-14972984D01*
X4874825Y-14972984D02*
X4855777Y-14972984D01*
X4855777Y-14972984D02*
X4836729Y-14963460D01*
X4836729Y-14963460D02*
X4827206Y-14953936D01*
X4827206Y-14953936D02*
X4817682Y-14934888D01*
X4817682Y-14934888D02*
X4808158Y-14896793D01*
X4808158Y-14896793D02*
X4808158Y-14849174D01*
X4808158Y-14849174D02*
X4817682Y-14811079D01*
X4817682Y-14811079D02*
X4827206Y-14792031D01*
X4827206Y-14792031D02*
X4836729Y-14782508D01*
X4836729Y-14782508D02*
X4855777Y-14772984D01*
X4998634Y-14772984D02*
X4998634Y-14811079D01*
X5074825Y-14772984D02*
X5074825Y-14811079D01*
X5370063Y-15049174D02*
X5360539Y-15039650D01*
X5360539Y-15039650D02*
X5341491Y-15011079D01*
X5341491Y-15011079D02*
X5331968Y-14992031D01*
X5331968Y-14992031D02*
X5322444Y-14963460D01*
X5322444Y-14963460D02*
X5312920Y-14915841D01*
X5312920Y-14915841D02*
X5312920Y-14877746D01*
X5312920Y-14877746D02*
X5322444Y-14830127D01*
X5322444Y-14830127D02*
X5331968Y-14801555D01*
X5331968Y-14801555D02*
X5341491Y-14782508D01*
X5341491Y-14782508D02*
X5360539Y-14753936D01*
X5360539Y-14753936D02*
X5370063Y-14744412D01*
X5531968Y-14772984D02*
X5493872Y-14772984D01*
X5493872Y-14772984D02*
X5474825Y-14782508D01*
X5474825Y-14782508D02*
X5465301Y-14792031D01*
X5465301Y-14792031D02*
X5446253Y-14820603D01*
X5446253Y-14820603D02*
X5436730Y-14858698D01*
X5436730Y-14858698D02*
X5436730Y-14934888D01*
X5436730Y-14934888D02*
X5446253Y-14953936D01*
X5446253Y-14953936D02*
X5455777Y-14963460D01*
X5455777Y-14963460D02*
X5474825Y-14972984D01*
X5474825Y-14972984D02*
X5512920Y-14972984D01*
X5512920Y-14972984D02*
X5531968Y-14963460D01*
X5531968Y-14963460D02*
X5541491Y-14953936D01*
X5541491Y-14953936D02*
X5551015Y-14934888D01*
X5551015Y-14934888D02*
X5551015Y-14887269D01*
X5551015Y-14887269D02*
X5541491Y-14868222D01*
X5541491Y-14868222D02*
X5531968Y-14858698D01*
X5531968Y-14858698D02*
X5512920Y-14849174D01*
X5512920Y-14849174D02*
X5474825Y-14849174D01*
X5474825Y-14849174D02*
X5455777Y-14858698D01*
X5455777Y-14858698D02*
X5446253Y-14868222D01*
X5446253Y-14868222D02*
X5436730Y-14887269D01*
X5789110Y-14972984D02*
X5789110Y-14772984D01*
X5874825Y-14972984D02*
X5874825Y-14868222D01*
X5874825Y-14868222D02*
X5865301Y-14849174D01*
X5865301Y-14849174D02*
X5846253Y-14839650D01*
X5846253Y-14839650D02*
X5817682Y-14839650D01*
X5817682Y-14839650D02*
X5798634Y-14849174D01*
X5798634Y-14849174D02*
X5789110Y-14858698D01*
X5998634Y-14972984D02*
X5979587Y-14963460D01*
X5979587Y-14963460D02*
X5970063Y-14953936D01*
X5970063Y-14953936D02*
X5960539Y-14934888D01*
X5960539Y-14934888D02*
X5960539Y-14877746D01*
X5960539Y-14877746D02*
X5970063Y-14858698D01*
X5970063Y-14858698D02*
X5979587Y-14849174D01*
X5979587Y-14849174D02*
X5998634Y-14839650D01*
X5998634Y-14839650D02*
X6027206Y-14839650D01*
X6027206Y-14839650D02*
X6046253Y-14849174D01*
X6046253Y-14849174D02*
X6055777Y-14858698D01*
X6055777Y-14858698D02*
X6065301Y-14877746D01*
X6065301Y-14877746D02*
X6065301Y-14934888D01*
X6065301Y-14934888D02*
X6055777Y-14953936D01*
X6055777Y-14953936D02*
X6046253Y-14963460D01*
X6046253Y-14963460D02*
X6027206Y-14972984D01*
X6027206Y-14972984D02*
X5998634Y-14972984D01*
X6179587Y-14972984D02*
X6160539Y-14963460D01*
X6160539Y-14963460D02*
X6151015Y-14944412D01*
X6151015Y-14944412D02*
X6151015Y-14772984D01*
X6331968Y-14963460D02*
X6312920Y-14972984D01*
X6312920Y-14972984D02*
X6274825Y-14972984D01*
X6274825Y-14972984D02*
X6255777Y-14963460D01*
X6255777Y-14963460D02*
X6246253Y-14944412D01*
X6246253Y-14944412D02*
X6246253Y-14868222D01*
X6246253Y-14868222D02*
X6255777Y-14849174D01*
X6255777Y-14849174D02*
X6274825Y-14839650D01*
X6274825Y-14839650D02*
X6312920Y-14839650D01*
X6312920Y-14839650D02*
X6331968Y-14849174D01*
X6331968Y-14849174D02*
X6341491Y-14868222D01*
X6341491Y-14868222D02*
X6341491Y-14887269D01*
X6341491Y-14887269D02*
X6246253Y-14906317D01*
X6417682Y-14963460D02*
X6436730Y-14972984D01*
X6436730Y-14972984D02*
X6474825Y-14972984D01*
X6474825Y-14972984D02*
X6493872Y-14963460D01*
X6493872Y-14963460D02*
X6503396Y-14944412D01*
X6503396Y-14944412D02*
X6503396Y-14934888D01*
X6503396Y-14934888D02*
X6493872Y-14915841D01*
X6493872Y-14915841D02*
X6474825Y-14906317D01*
X6474825Y-14906317D02*
X6446253Y-14906317D01*
X6446253Y-14906317D02*
X6427206Y-14896793D01*
X6427206Y-14896793D02*
X6417682Y-14877746D01*
X6417682Y-14877746D02*
X6417682Y-14868222D01*
X6417682Y-14868222D02*
X6427206Y-14849174D01*
X6427206Y-14849174D02*
X6446253Y-14839650D01*
X6446253Y-14839650D02*
X6474825Y-14839650D01*
X6474825Y-14839650D02*
X6493872Y-14849174D01*
X6570063Y-15049174D02*
X6579587Y-15039650D01*
X6579587Y-15039650D02*
X6598634Y-15011079D01*
X6598634Y-15011079D02*
X6608158Y-14992031D01*
X6608158Y-14992031D02*
X6617682Y-14963460D01*
X6617682Y-14963460D02*
X6627206Y-14915841D01*
X6627206Y-14915841D02*
X6627206Y-14877746D01*
X6627206Y-14877746D02*
X6617682Y-14830127D01*
X6617682Y-14830127D02*
X6608158Y-14801555D01*
X6608158Y-14801555D02*
X6598634Y-14782508D01*
X6598634Y-14782508D02*
X6579587Y-14753936D01*
X6579587Y-14753936D02*
X6570063Y-14744412D01*
X6931968Y-15049174D02*
X6922444Y-15039650D01*
X6922444Y-15039650D02*
X6903396Y-15011079D01*
X6903396Y-15011079D02*
X6893872Y-14992031D01*
X6893872Y-14992031D02*
X6884349Y-14963460D01*
X6884349Y-14963460D02*
X6874825Y-14915841D01*
X6874825Y-14915841D02*
X6874825Y-14877746D01*
X6874825Y-14877746D02*
X6884349Y-14830127D01*
X6884349Y-14830127D02*
X6893872Y-14801555D01*
X6893872Y-14801555D02*
X6903396Y-14782508D01*
X6903396Y-14782508D02*
X6922444Y-14753936D01*
X6922444Y-14753936D02*
X6931968Y-14744412D01*
X7008158Y-14839650D02*
X7008158Y-14972984D01*
X7008158Y-14858698D02*
X7017682Y-14849174D01*
X7017682Y-14849174D02*
X7036730Y-14839650D01*
X7036730Y-14839650D02*
X7065301Y-14839650D01*
X7065301Y-14839650D02*
X7084349Y-14849174D01*
X7084349Y-14849174D02*
X7093872Y-14868222D01*
X7093872Y-14868222D02*
X7093872Y-14972984D01*
X7217682Y-14972984D02*
X7198634Y-14963460D01*
X7198634Y-14963460D02*
X7189111Y-14953936D01*
X7189111Y-14953936D02*
X7179587Y-14934888D01*
X7179587Y-14934888D02*
X7179587Y-14877746D01*
X7179587Y-14877746D02*
X7189111Y-14858698D01*
X7189111Y-14858698D02*
X7198634Y-14849174D01*
X7198634Y-14849174D02*
X7217682Y-14839650D01*
X7217682Y-14839650D02*
X7246253Y-14839650D01*
X7246253Y-14839650D02*
X7265301Y-14849174D01*
X7265301Y-14849174D02*
X7274825Y-14858698D01*
X7274825Y-14858698D02*
X7284349Y-14877746D01*
X7284349Y-14877746D02*
X7284349Y-14934888D01*
X7284349Y-14934888D02*
X7274825Y-14953936D01*
X7274825Y-14953936D02*
X7265301Y-14963460D01*
X7265301Y-14963460D02*
X7246253Y-14972984D01*
X7246253Y-14972984D02*
X7217682Y-14972984D01*
X7341492Y-14839650D02*
X7417682Y-14839650D01*
X7370063Y-14772984D02*
X7370063Y-14944412D01*
X7370063Y-14944412D02*
X7379587Y-14963460D01*
X7379587Y-14963460D02*
X7398634Y-14972984D01*
X7398634Y-14972984D02*
X7417682Y-14972984D01*
X7636730Y-14839650D02*
X7636730Y-15039650D01*
X7636730Y-14849174D02*
X7655777Y-14839650D01*
X7655777Y-14839650D02*
X7693873Y-14839650D01*
X7693873Y-14839650D02*
X7712920Y-14849174D01*
X7712920Y-14849174D02*
X7722444Y-14858698D01*
X7722444Y-14858698D02*
X7731968Y-14877746D01*
X7731968Y-14877746D02*
X7731968Y-14934888D01*
X7731968Y-14934888D02*
X7722444Y-14953936D01*
X7722444Y-14953936D02*
X7712920Y-14963460D01*
X7712920Y-14963460D02*
X7693873Y-14972984D01*
X7693873Y-14972984D02*
X7655777Y-14972984D01*
X7655777Y-14972984D02*
X7636730Y-14963460D01*
X7846253Y-14972984D02*
X7827206Y-14963460D01*
X7827206Y-14963460D02*
X7817682Y-14944412D01*
X7817682Y-14944412D02*
X7817682Y-14772984D01*
X8008158Y-14972984D02*
X8008158Y-14868222D01*
X8008158Y-14868222D02*
X7998634Y-14849174D01*
X7998634Y-14849174D02*
X7979587Y-14839650D01*
X7979587Y-14839650D02*
X7941492Y-14839650D01*
X7941492Y-14839650D02*
X7922444Y-14849174D01*
X8008158Y-14963460D02*
X7989111Y-14972984D01*
X7989111Y-14972984D02*
X7941492Y-14972984D01*
X7941492Y-14972984D02*
X7922444Y-14963460D01*
X7922444Y-14963460D02*
X7912920Y-14944412D01*
X7912920Y-14944412D02*
X7912920Y-14925365D01*
X7912920Y-14925365D02*
X7922444Y-14906317D01*
X7922444Y-14906317D02*
X7941492Y-14896793D01*
X7941492Y-14896793D02*
X7989111Y-14896793D01*
X7989111Y-14896793D02*
X8008158Y-14887269D01*
X8074825Y-14839650D02*
X8151015Y-14839650D01*
X8103396Y-14772984D02*
X8103396Y-14944412D01*
X8103396Y-14944412D02*
X8112920Y-14963460D01*
X8112920Y-14963460D02*
X8131968Y-14972984D01*
X8131968Y-14972984D02*
X8151015Y-14972984D01*
X8293873Y-14963460D02*
X8274825Y-14972984D01*
X8274825Y-14972984D02*
X8236730Y-14972984D01*
X8236730Y-14972984D02*
X8217682Y-14963460D01*
X8217682Y-14963460D02*
X8208158Y-14944412D01*
X8208158Y-14944412D02*
X8208158Y-14868222D01*
X8208158Y-14868222D02*
X8217682Y-14849174D01*
X8217682Y-14849174D02*
X8236730Y-14839650D01*
X8236730Y-14839650D02*
X8274825Y-14839650D01*
X8274825Y-14839650D02*
X8293873Y-14849174D01*
X8293873Y-14849174D02*
X8303396Y-14868222D01*
X8303396Y-14868222D02*
X8303396Y-14887269D01*
X8303396Y-14887269D02*
X8208158Y-14906317D01*
X8474825Y-14972984D02*
X8474825Y-14772984D01*
X8474825Y-14963460D02*
X8455777Y-14972984D01*
X8455777Y-14972984D02*
X8417682Y-14972984D01*
X8417682Y-14972984D02*
X8398635Y-14963460D01*
X8398635Y-14963460D02*
X8389111Y-14953936D01*
X8389111Y-14953936D02*
X8379587Y-14934888D01*
X8379587Y-14934888D02*
X8379587Y-14877746D01*
X8379587Y-14877746D02*
X8389111Y-14858698D01*
X8389111Y-14858698D02*
X8398635Y-14849174D01*
X8398635Y-14849174D02*
X8417682Y-14839650D01*
X8417682Y-14839650D02*
X8455777Y-14839650D01*
X8455777Y-14839650D02*
X8474825Y-14849174D01*
X8551016Y-15049174D02*
X8560539Y-15039650D01*
X8560539Y-15039650D02*
X8579587Y-15011079D01*
X8579587Y-15011079D02*
X8589111Y-14992031D01*
X8589111Y-14992031D02*
X8598635Y-14963460D01*
X8598635Y-14963460D02*
X8608158Y-14915841D01*
X8608158Y-14915841D02*
X8608158Y-14877746D01*
X8608158Y-14877746D02*
X8598635Y-14830127D01*
X8598635Y-14830127D02*
X8589111Y-14801555D01*
X8589111Y-14801555D02*
X8579587Y-14782508D01*
X8579587Y-14782508D02*
X8560539Y-14753936D01*
X8560539Y-14753936D02*
X8551016Y-14744412D01*
X1765711Y-15272211D02*
X1765711Y-15130789D01*
X1624289Y-15130789D01*
X1624289Y-15272211D01*
X1765711Y-15272211D01*
X2036729Y-15092984D02*
X2160539Y-15092984D01*
X2160539Y-15092984D02*
X2093872Y-15169174D01*
X2093872Y-15169174D02*
X2122444Y-15169174D01*
X2122444Y-15169174D02*
X2141491Y-15178698D01*
X2141491Y-15178698D02*
X2151015Y-15188222D01*
X2151015Y-15188222D02*
X2160539Y-15207269D01*
X2160539Y-15207269D02*
X2160539Y-15254888D01*
X2160539Y-15254888D02*
X2151015Y-15273936D01*
X2151015Y-15273936D02*
X2141491Y-15283460D01*
X2141491Y-15283460D02*
X2122444Y-15292984D01*
X2122444Y-15292984D02*
X2065301Y-15292984D01*
X2065301Y-15292984D02*
X2046253Y-15283460D01*
X2046253Y-15283460D02*
X2036729Y-15273936D01*
X2246253Y-15273936D02*
X2255777Y-15283460D01*
X2255777Y-15283460D02*
X2246253Y-15292984D01*
X2246253Y-15292984D02*
X2236729Y-15283460D01*
X2236729Y-15283460D02*
X2246253Y-15273936D01*
X2246253Y-15273936D02*
X2246253Y-15292984D01*
X2351015Y-15292984D02*
X2389110Y-15292984D01*
X2389110Y-15292984D02*
X2408158Y-15283460D01*
X2408158Y-15283460D02*
X2417682Y-15273936D01*
X2417682Y-15273936D02*
X2436729Y-15245365D01*
X2436729Y-15245365D02*
X2446253Y-15207269D01*
X2446253Y-15207269D02*
X2446253Y-15131079D01*
X2446253Y-15131079D02*
X2436729Y-15112031D01*
X2436729Y-15112031D02*
X2427205Y-15102508D01*
X2427205Y-15102508D02*
X2408158Y-15092984D01*
X2408158Y-15092984D02*
X2370063Y-15092984D01*
X2370063Y-15092984D02*
X2351015Y-15102508D01*
X2351015Y-15102508D02*
X2341491Y-15112031D01*
X2341491Y-15112031D02*
X2331967Y-15131079D01*
X2331967Y-15131079D02*
X2331967Y-15178698D01*
X2331967Y-15178698D02*
X2341491Y-15197746D01*
X2341491Y-15197746D02*
X2351015Y-15207269D01*
X2351015Y-15207269D02*
X2370063Y-15216793D01*
X2370063Y-15216793D02*
X2408158Y-15216793D01*
X2408158Y-15216793D02*
X2427205Y-15207269D01*
X2427205Y-15207269D02*
X2436729Y-15197746D01*
X2436729Y-15197746D02*
X2446253Y-15178698D01*
X2560539Y-15178698D02*
X2541491Y-15169174D01*
X2541491Y-15169174D02*
X2531967Y-15159650D01*
X2531967Y-15159650D02*
X2522444Y-15140603D01*
X2522444Y-15140603D02*
X2522444Y-15131079D01*
X2522444Y-15131079D02*
X2531967Y-15112031D01*
X2531967Y-15112031D02*
X2541491Y-15102508D01*
X2541491Y-15102508D02*
X2560539Y-15092984D01*
X2560539Y-15092984D02*
X2598634Y-15092984D01*
X2598634Y-15092984D02*
X2617682Y-15102508D01*
X2617682Y-15102508D02*
X2627205Y-15112031D01*
X2627205Y-15112031D02*
X2636729Y-15131079D01*
X2636729Y-15131079D02*
X2636729Y-15140603D01*
X2636729Y-15140603D02*
X2627205Y-15159650D01*
X2627205Y-15159650D02*
X2617682Y-15169174D01*
X2617682Y-15169174D02*
X2598634Y-15178698D01*
X2598634Y-15178698D02*
X2560539Y-15178698D01*
X2560539Y-15178698D02*
X2541491Y-15188222D01*
X2541491Y-15188222D02*
X2531967Y-15197746D01*
X2531967Y-15197746D02*
X2522444Y-15216793D01*
X2522444Y-15216793D02*
X2522444Y-15254888D01*
X2522444Y-15254888D02*
X2531967Y-15273936D01*
X2531967Y-15273936D02*
X2541491Y-15283460D01*
X2541491Y-15283460D02*
X2560539Y-15292984D01*
X2560539Y-15292984D02*
X2598634Y-15292984D01*
X2598634Y-15292984D02*
X2617682Y-15283460D01*
X2617682Y-15283460D02*
X2627205Y-15273936D01*
X2627205Y-15273936D02*
X2636729Y-15254888D01*
X2636729Y-15254888D02*
X2636729Y-15216793D01*
X2636729Y-15216793D02*
X2627205Y-15197746D01*
X2627205Y-15197746D02*
X2617682Y-15188222D01*
X2617682Y-15188222D02*
X2598634Y-15178698D01*
X2751015Y-15178698D02*
X2731967Y-15169174D01*
X2731967Y-15169174D02*
X2722444Y-15159650D01*
X2722444Y-15159650D02*
X2712920Y-15140603D01*
X2712920Y-15140603D02*
X2712920Y-15131079D01*
X2712920Y-15131079D02*
X2722444Y-15112031D01*
X2722444Y-15112031D02*
X2731967Y-15102508D01*
X2731967Y-15102508D02*
X2751015Y-15092984D01*
X2751015Y-15092984D02*
X2789110Y-15092984D01*
X2789110Y-15092984D02*
X2808158Y-15102508D01*
X2808158Y-15102508D02*
X2817682Y-15112031D01*
X2817682Y-15112031D02*
X2827205Y-15131079D01*
X2827205Y-15131079D02*
X2827205Y-15140603D01*
X2827205Y-15140603D02*
X2817682Y-15159650D01*
X2817682Y-15159650D02*
X2808158Y-15169174D01*
X2808158Y-15169174D02*
X2789110Y-15178698D01*
X2789110Y-15178698D02*
X2751015Y-15178698D01*
X2751015Y-15178698D02*
X2731967Y-15188222D01*
X2731967Y-15188222D02*
X2722444Y-15197746D01*
X2722444Y-15197746D02*
X2712920Y-15216793D01*
X2712920Y-15216793D02*
X2712920Y-15254888D01*
X2712920Y-15254888D02*
X2722444Y-15273936D01*
X2722444Y-15273936D02*
X2731967Y-15283460D01*
X2731967Y-15283460D02*
X2751015Y-15292984D01*
X2751015Y-15292984D02*
X2789110Y-15292984D01*
X2789110Y-15292984D02*
X2808158Y-15283460D01*
X2808158Y-15283460D02*
X2817682Y-15273936D01*
X2817682Y-15273936D02*
X2827205Y-15254888D01*
X2827205Y-15254888D02*
X2827205Y-15216793D01*
X2827205Y-15216793D02*
X2817682Y-15197746D01*
X2817682Y-15197746D02*
X2808158Y-15188222D01*
X2808158Y-15188222D02*
X2789110Y-15178698D01*
X2912920Y-15292984D02*
X2912920Y-15159650D01*
X2912920Y-15178698D02*
X2922443Y-15169174D01*
X2922443Y-15169174D02*
X2941491Y-15159650D01*
X2941491Y-15159650D02*
X2970063Y-15159650D01*
X2970063Y-15159650D02*
X2989110Y-15169174D01*
X2989110Y-15169174D02*
X2998634Y-15188222D01*
X2998634Y-15188222D02*
X2998634Y-15292984D01*
X2998634Y-15188222D02*
X3008158Y-15169174D01*
X3008158Y-15169174D02*
X3027205Y-15159650D01*
X3027205Y-15159650D02*
X3055777Y-15159650D01*
X3055777Y-15159650D02*
X3074824Y-15169174D01*
X3074824Y-15169174D02*
X3084348Y-15188222D01*
X3084348Y-15188222D02*
X3084348Y-15292984D01*
X3179586Y-15292984D02*
X3179586Y-15159650D01*
X3179586Y-15178698D02*
X3189110Y-15169174D01*
X3189110Y-15169174D02*
X3208158Y-15159650D01*
X3208158Y-15159650D02*
X3236729Y-15159650D01*
X3236729Y-15159650D02*
X3255777Y-15169174D01*
X3255777Y-15169174D02*
X3265301Y-15188222D01*
X3265301Y-15188222D02*
X3265301Y-15292984D01*
X3265301Y-15188222D02*
X3274824Y-15169174D01*
X3274824Y-15169174D02*
X3293872Y-15159650D01*
X3293872Y-15159650D02*
X3322443Y-15159650D01*
X3322443Y-15159650D02*
X3341491Y-15169174D01*
X3341491Y-15169174D02*
X3351015Y-15188222D01*
X3351015Y-15188222D02*
X3351015Y-15292984D01*
X3741491Y-15083460D02*
X3570063Y-15340603D01*
X3998634Y-15092984D02*
X4017682Y-15092984D01*
X4017682Y-15092984D02*
X4036729Y-15102508D01*
X4036729Y-15102508D02*
X4046253Y-15112031D01*
X4046253Y-15112031D02*
X4055777Y-15131079D01*
X4055777Y-15131079D02*
X4065301Y-15169174D01*
X4065301Y-15169174D02*
X4065301Y-15216793D01*
X4065301Y-15216793D02*
X4055777Y-15254888D01*
X4055777Y-15254888D02*
X4046253Y-15273936D01*
X4046253Y-15273936D02*
X4036729Y-15283460D01*
X4036729Y-15283460D02*
X4017682Y-15292984D01*
X4017682Y-15292984D02*
X3998634Y-15292984D01*
X3998634Y-15292984D02*
X3979586Y-15283460D01*
X3979586Y-15283460D02*
X3970063Y-15273936D01*
X3970063Y-15273936D02*
X3960539Y-15254888D01*
X3960539Y-15254888D02*
X3951015Y-15216793D01*
X3951015Y-15216793D02*
X3951015Y-15169174D01*
X3951015Y-15169174D02*
X3960539Y-15131079D01*
X3960539Y-15131079D02*
X3970063Y-15112031D01*
X3970063Y-15112031D02*
X3979586Y-15102508D01*
X3979586Y-15102508D02*
X3998634Y-15092984D01*
X4151015Y-15273936D02*
X4160539Y-15283460D01*
X4160539Y-15283460D02*
X4151015Y-15292984D01*
X4151015Y-15292984D02*
X4141491Y-15283460D01*
X4141491Y-15283460D02*
X4151015Y-15273936D01*
X4151015Y-15273936D02*
X4151015Y-15292984D01*
X4351015Y-15292984D02*
X4236729Y-15292984D01*
X4293872Y-15292984D02*
X4293872Y-15092984D01*
X4293872Y-15092984D02*
X4274825Y-15121555D01*
X4274825Y-15121555D02*
X4255777Y-15140603D01*
X4255777Y-15140603D02*
X4236729Y-15150127D01*
X4531968Y-15092984D02*
X4436729Y-15092984D01*
X4436729Y-15092984D02*
X4427206Y-15188222D01*
X4427206Y-15188222D02*
X4436729Y-15178698D01*
X4436729Y-15178698D02*
X4455777Y-15169174D01*
X4455777Y-15169174D02*
X4503396Y-15169174D01*
X4503396Y-15169174D02*
X4522444Y-15178698D01*
X4522444Y-15178698D02*
X4531968Y-15188222D01*
X4531968Y-15188222D02*
X4541491Y-15207269D01*
X4541491Y-15207269D02*
X4541491Y-15254888D01*
X4541491Y-15254888D02*
X4531968Y-15273936D01*
X4531968Y-15273936D02*
X4522444Y-15283460D01*
X4522444Y-15283460D02*
X4503396Y-15292984D01*
X4503396Y-15292984D02*
X4455777Y-15292984D01*
X4455777Y-15292984D02*
X4436729Y-15283460D01*
X4436729Y-15283460D02*
X4427206Y-15273936D01*
X4608158Y-15092984D02*
X4741491Y-15092984D01*
X4741491Y-15092984D02*
X4655777Y-15292984D01*
X4855777Y-15092984D02*
X4874825Y-15092984D01*
X4874825Y-15092984D02*
X4893872Y-15102508D01*
X4893872Y-15102508D02*
X4903396Y-15112031D01*
X4903396Y-15112031D02*
X4912920Y-15131079D01*
X4912920Y-15131079D02*
X4922444Y-15169174D01*
X4922444Y-15169174D02*
X4922444Y-15216793D01*
X4922444Y-15216793D02*
X4912920Y-15254888D01*
X4912920Y-15254888D02*
X4903396Y-15273936D01*
X4903396Y-15273936D02*
X4893872Y-15283460D01*
X4893872Y-15283460D02*
X4874825Y-15292984D01*
X4874825Y-15292984D02*
X4855777Y-15292984D01*
X4855777Y-15292984D02*
X4836729Y-15283460D01*
X4836729Y-15283460D02*
X4827206Y-15273936D01*
X4827206Y-15273936D02*
X4817682Y-15254888D01*
X4817682Y-15254888D02*
X4808158Y-15216793D01*
X4808158Y-15216793D02*
X4808158Y-15169174D01*
X4808158Y-15169174D02*
X4817682Y-15131079D01*
X4817682Y-15131079D02*
X4827206Y-15112031D01*
X4827206Y-15112031D02*
X4836729Y-15102508D01*
X4836729Y-15102508D02*
X4855777Y-15092984D01*
X4998634Y-15092984D02*
X4998634Y-15131079D01*
X5074825Y-15092984D02*
X5074825Y-15131079D01*
X5370063Y-15369174D02*
X5360539Y-15359650D01*
X5360539Y-15359650D02*
X5341491Y-15331079D01*
X5341491Y-15331079D02*
X5331968Y-15312031D01*
X5331968Y-15312031D02*
X5322444Y-15283460D01*
X5322444Y-15283460D02*
X5312920Y-15235841D01*
X5312920Y-15235841D02*
X5312920Y-15197746D01*
X5312920Y-15197746D02*
X5322444Y-15150127D01*
X5322444Y-15150127D02*
X5331968Y-15121555D01*
X5331968Y-15121555D02*
X5341491Y-15102508D01*
X5341491Y-15102508D02*
X5360539Y-15073936D01*
X5360539Y-15073936D02*
X5370063Y-15064412D01*
X5531968Y-15092984D02*
X5493872Y-15092984D01*
X5493872Y-15092984D02*
X5474825Y-15102508D01*
X5474825Y-15102508D02*
X5465301Y-15112031D01*
X5465301Y-15112031D02*
X5446253Y-15140603D01*
X5446253Y-15140603D02*
X5436730Y-15178698D01*
X5436730Y-15178698D02*
X5436730Y-15254888D01*
X5436730Y-15254888D02*
X5446253Y-15273936D01*
X5446253Y-15273936D02*
X5455777Y-15283460D01*
X5455777Y-15283460D02*
X5474825Y-15292984D01*
X5474825Y-15292984D02*
X5512920Y-15292984D01*
X5512920Y-15292984D02*
X5531968Y-15283460D01*
X5531968Y-15283460D02*
X5541491Y-15273936D01*
X5541491Y-15273936D02*
X5551015Y-15254888D01*
X5551015Y-15254888D02*
X5551015Y-15207269D01*
X5551015Y-15207269D02*
X5541491Y-15188222D01*
X5541491Y-15188222D02*
X5531968Y-15178698D01*
X5531968Y-15178698D02*
X5512920Y-15169174D01*
X5512920Y-15169174D02*
X5474825Y-15169174D01*
X5474825Y-15169174D02*
X5455777Y-15178698D01*
X5455777Y-15178698D02*
X5446253Y-15188222D01*
X5446253Y-15188222D02*
X5436730Y-15207269D01*
X5789110Y-15292984D02*
X5789110Y-15092984D01*
X5874825Y-15292984D02*
X5874825Y-15188222D01*
X5874825Y-15188222D02*
X5865301Y-15169174D01*
X5865301Y-15169174D02*
X5846253Y-15159650D01*
X5846253Y-15159650D02*
X5817682Y-15159650D01*
X5817682Y-15159650D02*
X5798634Y-15169174D01*
X5798634Y-15169174D02*
X5789110Y-15178698D01*
X5998634Y-15292984D02*
X5979587Y-15283460D01*
X5979587Y-15283460D02*
X5970063Y-15273936D01*
X5970063Y-15273936D02*
X5960539Y-15254888D01*
X5960539Y-15254888D02*
X5960539Y-15197746D01*
X5960539Y-15197746D02*
X5970063Y-15178698D01*
X5970063Y-15178698D02*
X5979587Y-15169174D01*
X5979587Y-15169174D02*
X5998634Y-15159650D01*
X5998634Y-15159650D02*
X6027206Y-15159650D01*
X6027206Y-15159650D02*
X6046253Y-15169174D01*
X6046253Y-15169174D02*
X6055777Y-15178698D01*
X6055777Y-15178698D02*
X6065301Y-15197746D01*
X6065301Y-15197746D02*
X6065301Y-15254888D01*
X6065301Y-15254888D02*
X6055777Y-15273936D01*
X6055777Y-15273936D02*
X6046253Y-15283460D01*
X6046253Y-15283460D02*
X6027206Y-15292984D01*
X6027206Y-15292984D02*
X5998634Y-15292984D01*
X6179587Y-15292984D02*
X6160539Y-15283460D01*
X6160539Y-15283460D02*
X6151015Y-15264412D01*
X6151015Y-15264412D02*
X6151015Y-15092984D01*
X6331968Y-15283460D02*
X6312920Y-15292984D01*
X6312920Y-15292984D02*
X6274825Y-15292984D01*
X6274825Y-15292984D02*
X6255777Y-15283460D01*
X6255777Y-15283460D02*
X6246253Y-15264412D01*
X6246253Y-15264412D02*
X6246253Y-15188222D01*
X6246253Y-15188222D02*
X6255777Y-15169174D01*
X6255777Y-15169174D02*
X6274825Y-15159650D01*
X6274825Y-15159650D02*
X6312920Y-15159650D01*
X6312920Y-15159650D02*
X6331968Y-15169174D01*
X6331968Y-15169174D02*
X6341491Y-15188222D01*
X6341491Y-15188222D02*
X6341491Y-15207269D01*
X6341491Y-15207269D02*
X6246253Y-15226317D01*
X6417682Y-15283460D02*
X6436730Y-15292984D01*
X6436730Y-15292984D02*
X6474825Y-15292984D01*
X6474825Y-15292984D02*
X6493872Y-15283460D01*
X6493872Y-15283460D02*
X6503396Y-15264412D01*
X6503396Y-15264412D02*
X6503396Y-15254888D01*
X6503396Y-15254888D02*
X6493872Y-15235841D01*
X6493872Y-15235841D02*
X6474825Y-15226317D01*
X6474825Y-15226317D02*
X6446253Y-15226317D01*
X6446253Y-15226317D02*
X6427206Y-15216793D01*
X6427206Y-15216793D02*
X6417682Y-15197746D01*
X6417682Y-15197746D02*
X6417682Y-15188222D01*
X6417682Y-15188222D02*
X6427206Y-15169174D01*
X6427206Y-15169174D02*
X6446253Y-15159650D01*
X6446253Y-15159650D02*
X6474825Y-15159650D01*
X6474825Y-15159650D02*
X6493872Y-15169174D01*
X6570063Y-15369174D02*
X6579587Y-15359650D01*
X6579587Y-15359650D02*
X6598634Y-15331079D01*
X6598634Y-15331079D02*
X6608158Y-15312031D01*
X6608158Y-15312031D02*
X6617682Y-15283460D01*
X6617682Y-15283460D02*
X6627206Y-15235841D01*
X6627206Y-15235841D02*
X6627206Y-15197746D01*
X6627206Y-15197746D02*
X6617682Y-15150127D01*
X6617682Y-15150127D02*
X6608158Y-15121555D01*
X6608158Y-15121555D02*
X6598634Y-15102508D01*
X6598634Y-15102508D02*
X6579587Y-15073936D01*
X6579587Y-15073936D02*
X6570063Y-15064412D01*
X6931968Y-15369174D02*
X6922444Y-15359650D01*
X6922444Y-15359650D02*
X6903396Y-15331079D01*
X6903396Y-15331079D02*
X6893872Y-15312031D01*
X6893872Y-15312031D02*
X6884349Y-15283460D01*
X6884349Y-15283460D02*
X6874825Y-15235841D01*
X6874825Y-15235841D02*
X6874825Y-15197746D01*
X6874825Y-15197746D02*
X6884349Y-15150127D01*
X6884349Y-15150127D02*
X6893872Y-15121555D01*
X6893872Y-15121555D02*
X6903396Y-15102508D01*
X6903396Y-15102508D02*
X6922444Y-15073936D01*
X6922444Y-15073936D02*
X6931968Y-15064412D01*
X7008158Y-15159650D02*
X7008158Y-15292984D01*
X7008158Y-15178698D02*
X7017682Y-15169174D01*
X7017682Y-15169174D02*
X7036730Y-15159650D01*
X7036730Y-15159650D02*
X7065301Y-15159650D01*
X7065301Y-15159650D02*
X7084349Y-15169174D01*
X7084349Y-15169174D02*
X7093872Y-15188222D01*
X7093872Y-15188222D02*
X7093872Y-15292984D01*
X7217682Y-15292984D02*
X7198634Y-15283460D01*
X7198634Y-15283460D02*
X7189111Y-15273936D01*
X7189111Y-15273936D02*
X7179587Y-15254888D01*
X7179587Y-15254888D02*
X7179587Y-15197746D01*
X7179587Y-15197746D02*
X7189111Y-15178698D01*
X7189111Y-15178698D02*
X7198634Y-15169174D01*
X7198634Y-15169174D02*
X7217682Y-15159650D01*
X7217682Y-15159650D02*
X7246253Y-15159650D01*
X7246253Y-15159650D02*
X7265301Y-15169174D01*
X7265301Y-15169174D02*
X7274825Y-15178698D01*
X7274825Y-15178698D02*
X7284349Y-15197746D01*
X7284349Y-15197746D02*
X7284349Y-15254888D01*
X7284349Y-15254888D02*
X7274825Y-15273936D01*
X7274825Y-15273936D02*
X7265301Y-15283460D01*
X7265301Y-15283460D02*
X7246253Y-15292984D01*
X7246253Y-15292984D02*
X7217682Y-15292984D01*
X7341492Y-15159650D02*
X7417682Y-15159650D01*
X7370063Y-15092984D02*
X7370063Y-15264412D01*
X7370063Y-15264412D02*
X7379587Y-15283460D01*
X7379587Y-15283460D02*
X7398634Y-15292984D01*
X7398634Y-15292984D02*
X7417682Y-15292984D01*
X7636730Y-15159650D02*
X7636730Y-15359650D01*
X7636730Y-15169174D02*
X7655777Y-15159650D01*
X7655777Y-15159650D02*
X7693873Y-15159650D01*
X7693873Y-15159650D02*
X7712920Y-15169174D01*
X7712920Y-15169174D02*
X7722444Y-15178698D01*
X7722444Y-15178698D02*
X7731968Y-15197746D01*
X7731968Y-15197746D02*
X7731968Y-15254888D01*
X7731968Y-15254888D02*
X7722444Y-15273936D01*
X7722444Y-15273936D02*
X7712920Y-15283460D01*
X7712920Y-15283460D02*
X7693873Y-15292984D01*
X7693873Y-15292984D02*
X7655777Y-15292984D01*
X7655777Y-15292984D02*
X7636730Y-15283460D01*
X7846253Y-15292984D02*
X7827206Y-15283460D01*
X7827206Y-15283460D02*
X7817682Y-15264412D01*
X7817682Y-15264412D02*
X7817682Y-15092984D01*
X8008158Y-15292984D02*
X8008158Y-15188222D01*
X8008158Y-15188222D02*
X7998634Y-15169174D01*
X7998634Y-15169174D02*
X7979587Y-15159650D01*
X7979587Y-15159650D02*
X7941492Y-15159650D01*
X7941492Y-15159650D02*
X7922444Y-15169174D01*
X8008158Y-15283460D02*
X7989111Y-15292984D01*
X7989111Y-15292984D02*
X7941492Y-15292984D01*
X7941492Y-15292984D02*
X7922444Y-15283460D01*
X7922444Y-15283460D02*
X7912920Y-15264412D01*
X7912920Y-15264412D02*
X7912920Y-15245365D01*
X7912920Y-15245365D02*
X7922444Y-15226317D01*
X7922444Y-15226317D02*
X7941492Y-15216793D01*
X7941492Y-15216793D02*
X7989111Y-15216793D01*
X7989111Y-15216793D02*
X8008158Y-15207269D01*
X8074825Y-15159650D02*
X8151015Y-15159650D01*
X8103396Y-15092984D02*
X8103396Y-15264412D01*
X8103396Y-15264412D02*
X8112920Y-15283460D01*
X8112920Y-15283460D02*
X8131968Y-15292984D01*
X8131968Y-15292984D02*
X8151015Y-15292984D01*
X8293873Y-15283460D02*
X8274825Y-15292984D01*
X8274825Y-15292984D02*
X8236730Y-15292984D01*
X8236730Y-15292984D02*
X8217682Y-15283460D01*
X8217682Y-15283460D02*
X8208158Y-15264412D01*
X8208158Y-15264412D02*
X8208158Y-15188222D01*
X8208158Y-15188222D02*
X8217682Y-15169174D01*
X8217682Y-15169174D02*
X8236730Y-15159650D01*
X8236730Y-15159650D02*
X8274825Y-15159650D01*
X8274825Y-15159650D02*
X8293873Y-15169174D01*
X8293873Y-15169174D02*
X8303396Y-15188222D01*
X8303396Y-15188222D02*
X8303396Y-15207269D01*
X8303396Y-15207269D02*
X8208158Y-15226317D01*
X8474825Y-15292984D02*
X8474825Y-15092984D01*
X8474825Y-15283460D02*
X8455777Y-15292984D01*
X8455777Y-15292984D02*
X8417682Y-15292984D01*
X8417682Y-15292984D02*
X8398635Y-15283460D01*
X8398635Y-15283460D02*
X8389111Y-15273936D01*
X8389111Y-15273936D02*
X8379587Y-15254888D01*
X8379587Y-15254888D02*
X8379587Y-15197746D01*
X8379587Y-15197746D02*
X8389111Y-15178698D01*
X8389111Y-15178698D02*
X8398635Y-15169174D01*
X8398635Y-15169174D02*
X8417682Y-15159650D01*
X8417682Y-15159650D02*
X8455777Y-15159650D01*
X8455777Y-15159650D02*
X8474825Y-15169174D01*
X8551016Y-15369174D02*
X8560539Y-15359650D01*
X8560539Y-15359650D02*
X8579587Y-15331079D01*
X8579587Y-15331079D02*
X8589111Y-15312031D01*
X8589111Y-15312031D02*
X8598635Y-15283460D01*
X8598635Y-15283460D02*
X8608158Y-15235841D01*
X8608158Y-15235841D02*
X8608158Y-15197746D01*
X8608158Y-15197746D02*
X8598635Y-15150127D01*
X8598635Y-15150127D02*
X8589111Y-15121555D01*
X8589111Y-15121555D02*
X8579587Y-15102508D01*
X8579587Y-15102508D02*
X8560539Y-15073936D01*
X8560539Y-15073936D02*
X8551016Y-15064412D01*
X1695000Y-15621500D02*
X1795000Y-15521500D01*
X1695000Y-15421500D01*
X1595000Y-15521500D01*
X1695000Y-15621500D01*
X2151015Y-15412984D02*
X2055777Y-15412984D01*
X2055777Y-15412984D02*
X2046253Y-15508222D01*
X2046253Y-15508222D02*
X2055777Y-15498698D01*
X2055777Y-15498698D02*
X2074824Y-15489174D01*
X2074824Y-15489174D02*
X2122444Y-15489174D01*
X2122444Y-15489174D02*
X2141491Y-15498698D01*
X2141491Y-15498698D02*
X2151015Y-15508222D01*
X2151015Y-15508222D02*
X2160539Y-15527269D01*
X2160539Y-15527269D02*
X2160539Y-15574888D01*
X2160539Y-15574888D02*
X2151015Y-15593936D01*
X2151015Y-15593936D02*
X2141491Y-15603460D01*
X2141491Y-15603460D02*
X2122444Y-15612984D01*
X2122444Y-15612984D02*
X2074824Y-15612984D01*
X2074824Y-15612984D02*
X2055777Y-15603460D01*
X2055777Y-15603460D02*
X2046253Y-15593936D01*
X2246253Y-15593936D02*
X2255777Y-15603460D01*
X2255777Y-15603460D02*
X2246253Y-15612984D01*
X2246253Y-15612984D02*
X2236729Y-15603460D01*
X2236729Y-15603460D02*
X2246253Y-15593936D01*
X2246253Y-15593936D02*
X2246253Y-15612984D01*
X2379586Y-15412984D02*
X2398634Y-15412984D01*
X2398634Y-15412984D02*
X2417682Y-15422508D01*
X2417682Y-15422508D02*
X2427205Y-15432031D01*
X2427205Y-15432031D02*
X2436729Y-15451079D01*
X2436729Y-15451079D02*
X2446253Y-15489174D01*
X2446253Y-15489174D02*
X2446253Y-15536793D01*
X2446253Y-15536793D02*
X2436729Y-15574888D01*
X2436729Y-15574888D02*
X2427205Y-15593936D01*
X2427205Y-15593936D02*
X2417682Y-15603460D01*
X2417682Y-15603460D02*
X2398634Y-15612984D01*
X2398634Y-15612984D02*
X2379586Y-15612984D01*
X2379586Y-15612984D02*
X2360539Y-15603460D01*
X2360539Y-15603460D02*
X2351015Y-15593936D01*
X2351015Y-15593936D02*
X2341491Y-15574888D01*
X2341491Y-15574888D02*
X2331967Y-15536793D01*
X2331967Y-15536793D02*
X2331967Y-15489174D01*
X2331967Y-15489174D02*
X2341491Y-15451079D01*
X2341491Y-15451079D02*
X2351015Y-15432031D01*
X2351015Y-15432031D02*
X2360539Y-15422508D01*
X2360539Y-15422508D02*
X2379586Y-15412984D01*
X2570063Y-15412984D02*
X2589110Y-15412984D01*
X2589110Y-15412984D02*
X2608158Y-15422508D01*
X2608158Y-15422508D02*
X2617682Y-15432031D01*
X2617682Y-15432031D02*
X2627205Y-15451079D01*
X2627205Y-15451079D02*
X2636729Y-15489174D01*
X2636729Y-15489174D02*
X2636729Y-15536793D01*
X2636729Y-15536793D02*
X2627205Y-15574888D01*
X2627205Y-15574888D02*
X2617682Y-15593936D01*
X2617682Y-15593936D02*
X2608158Y-15603460D01*
X2608158Y-15603460D02*
X2589110Y-15612984D01*
X2589110Y-15612984D02*
X2570063Y-15612984D01*
X2570063Y-15612984D02*
X2551015Y-15603460D01*
X2551015Y-15603460D02*
X2541491Y-15593936D01*
X2541491Y-15593936D02*
X2531967Y-15574888D01*
X2531967Y-15574888D02*
X2522444Y-15536793D01*
X2522444Y-15536793D02*
X2522444Y-15489174D01*
X2522444Y-15489174D02*
X2531967Y-15451079D01*
X2531967Y-15451079D02*
X2541491Y-15432031D01*
X2541491Y-15432031D02*
X2551015Y-15422508D01*
X2551015Y-15422508D02*
X2570063Y-15412984D01*
X2760539Y-15412984D02*
X2779586Y-15412984D01*
X2779586Y-15412984D02*
X2798634Y-15422508D01*
X2798634Y-15422508D02*
X2808158Y-15432031D01*
X2808158Y-15432031D02*
X2817682Y-15451079D01*
X2817682Y-15451079D02*
X2827205Y-15489174D01*
X2827205Y-15489174D02*
X2827205Y-15536793D01*
X2827205Y-15536793D02*
X2817682Y-15574888D01*
X2817682Y-15574888D02*
X2808158Y-15593936D01*
X2808158Y-15593936D02*
X2798634Y-15603460D01*
X2798634Y-15603460D02*
X2779586Y-15612984D01*
X2779586Y-15612984D02*
X2760539Y-15612984D01*
X2760539Y-15612984D02*
X2741491Y-15603460D01*
X2741491Y-15603460D02*
X2731967Y-15593936D01*
X2731967Y-15593936D02*
X2722444Y-15574888D01*
X2722444Y-15574888D02*
X2712920Y-15536793D01*
X2712920Y-15536793D02*
X2712920Y-15489174D01*
X2712920Y-15489174D02*
X2722444Y-15451079D01*
X2722444Y-15451079D02*
X2731967Y-15432031D01*
X2731967Y-15432031D02*
X2741491Y-15422508D01*
X2741491Y-15422508D02*
X2760539Y-15412984D01*
X2912920Y-15612984D02*
X2912920Y-15479650D01*
X2912920Y-15498698D02*
X2922443Y-15489174D01*
X2922443Y-15489174D02*
X2941491Y-15479650D01*
X2941491Y-15479650D02*
X2970063Y-15479650D01*
X2970063Y-15479650D02*
X2989110Y-15489174D01*
X2989110Y-15489174D02*
X2998634Y-15508222D01*
X2998634Y-15508222D02*
X2998634Y-15612984D01*
X2998634Y-15508222D02*
X3008158Y-15489174D01*
X3008158Y-15489174D02*
X3027205Y-15479650D01*
X3027205Y-15479650D02*
X3055777Y-15479650D01*
X3055777Y-15479650D02*
X3074824Y-15489174D01*
X3074824Y-15489174D02*
X3084348Y-15508222D01*
X3084348Y-15508222D02*
X3084348Y-15612984D01*
X3179586Y-15612984D02*
X3179586Y-15479650D01*
X3179586Y-15498698D02*
X3189110Y-15489174D01*
X3189110Y-15489174D02*
X3208158Y-15479650D01*
X3208158Y-15479650D02*
X3236729Y-15479650D01*
X3236729Y-15479650D02*
X3255777Y-15489174D01*
X3255777Y-15489174D02*
X3265301Y-15508222D01*
X3265301Y-15508222D02*
X3265301Y-15612984D01*
X3265301Y-15508222D02*
X3274824Y-15489174D01*
X3274824Y-15489174D02*
X3293872Y-15479650D01*
X3293872Y-15479650D02*
X3322443Y-15479650D01*
X3322443Y-15479650D02*
X3341491Y-15489174D01*
X3341491Y-15489174D02*
X3351015Y-15508222D01*
X3351015Y-15508222D02*
X3351015Y-15612984D01*
X3741491Y-15403460D02*
X3570063Y-15660603D01*
X3998634Y-15412984D02*
X4017682Y-15412984D01*
X4017682Y-15412984D02*
X4036729Y-15422508D01*
X4036729Y-15422508D02*
X4046253Y-15432031D01*
X4046253Y-15432031D02*
X4055777Y-15451079D01*
X4055777Y-15451079D02*
X4065301Y-15489174D01*
X4065301Y-15489174D02*
X4065301Y-15536793D01*
X4065301Y-15536793D02*
X4055777Y-15574888D01*
X4055777Y-15574888D02*
X4046253Y-15593936D01*
X4046253Y-15593936D02*
X4036729Y-15603460D01*
X4036729Y-15603460D02*
X4017682Y-15612984D01*
X4017682Y-15612984D02*
X3998634Y-15612984D01*
X3998634Y-15612984D02*
X3979586Y-15603460D01*
X3979586Y-15603460D02*
X3970063Y-15593936D01*
X3970063Y-15593936D02*
X3960539Y-15574888D01*
X3960539Y-15574888D02*
X3951015Y-15536793D01*
X3951015Y-15536793D02*
X3951015Y-15489174D01*
X3951015Y-15489174D02*
X3960539Y-15451079D01*
X3960539Y-15451079D02*
X3970063Y-15432031D01*
X3970063Y-15432031D02*
X3979586Y-15422508D01*
X3979586Y-15422508D02*
X3998634Y-15412984D01*
X4151015Y-15593936D02*
X4160539Y-15603460D01*
X4160539Y-15603460D02*
X4151015Y-15612984D01*
X4151015Y-15612984D02*
X4141491Y-15603460D01*
X4141491Y-15603460D02*
X4151015Y-15593936D01*
X4151015Y-15593936D02*
X4151015Y-15612984D01*
X4351015Y-15612984D02*
X4236729Y-15612984D01*
X4293872Y-15612984D02*
X4293872Y-15412984D01*
X4293872Y-15412984D02*
X4274825Y-15441555D01*
X4274825Y-15441555D02*
X4255777Y-15460603D01*
X4255777Y-15460603D02*
X4236729Y-15470127D01*
X4446253Y-15612984D02*
X4484348Y-15612984D01*
X4484348Y-15612984D02*
X4503396Y-15603460D01*
X4503396Y-15603460D02*
X4512920Y-15593936D01*
X4512920Y-15593936D02*
X4531968Y-15565365D01*
X4531968Y-15565365D02*
X4541491Y-15527269D01*
X4541491Y-15527269D02*
X4541491Y-15451079D01*
X4541491Y-15451079D02*
X4531968Y-15432031D01*
X4531968Y-15432031D02*
X4522444Y-15422508D01*
X4522444Y-15422508D02*
X4503396Y-15412984D01*
X4503396Y-15412984D02*
X4465301Y-15412984D01*
X4465301Y-15412984D02*
X4446253Y-15422508D01*
X4446253Y-15422508D02*
X4436729Y-15432031D01*
X4436729Y-15432031D02*
X4427206Y-15451079D01*
X4427206Y-15451079D02*
X4427206Y-15498698D01*
X4427206Y-15498698D02*
X4436729Y-15517746D01*
X4436729Y-15517746D02*
X4446253Y-15527269D01*
X4446253Y-15527269D02*
X4465301Y-15536793D01*
X4465301Y-15536793D02*
X4503396Y-15536793D01*
X4503396Y-15536793D02*
X4522444Y-15527269D01*
X4522444Y-15527269D02*
X4531968Y-15517746D01*
X4531968Y-15517746D02*
X4541491Y-15498698D01*
X4712920Y-15412984D02*
X4674825Y-15412984D01*
X4674825Y-15412984D02*
X4655777Y-15422508D01*
X4655777Y-15422508D02*
X4646253Y-15432031D01*
X4646253Y-15432031D02*
X4627206Y-15460603D01*
X4627206Y-15460603D02*
X4617682Y-15498698D01*
X4617682Y-15498698D02*
X4617682Y-15574888D01*
X4617682Y-15574888D02*
X4627206Y-15593936D01*
X4627206Y-15593936D02*
X4636729Y-15603460D01*
X4636729Y-15603460D02*
X4655777Y-15612984D01*
X4655777Y-15612984D02*
X4693872Y-15612984D01*
X4693872Y-15612984D02*
X4712920Y-15603460D01*
X4712920Y-15603460D02*
X4722444Y-15593936D01*
X4722444Y-15593936D02*
X4731968Y-15574888D01*
X4731968Y-15574888D02*
X4731968Y-15527269D01*
X4731968Y-15527269D02*
X4722444Y-15508222D01*
X4722444Y-15508222D02*
X4712920Y-15498698D01*
X4712920Y-15498698D02*
X4693872Y-15489174D01*
X4693872Y-15489174D02*
X4655777Y-15489174D01*
X4655777Y-15489174D02*
X4636729Y-15498698D01*
X4636729Y-15498698D02*
X4627206Y-15508222D01*
X4627206Y-15508222D02*
X4617682Y-15527269D01*
X4827206Y-15612984D02*
X4865301Y-15612984D01*
X4865301Y-15612984D02*
X4884349Y-15603460D01*
X4884349Y-15603460D02*
X4893872Y-15593936D01*
X4893872Y-15593936D02*
X4912920Y-15565365D01*
X4912920Y-15565365D02*
X4922444Y-15527269D01*
X4922444Y-15527269D02*
X4922444Y-15451079D01*
X4922444Y-15451079D02*
X4912920Y-15432031D01*
X4912920Y-15432031D02*
X4903396Y-15422508D01*
X4903396Y-15422508D02*
X4884349Y-15412984D01*
X4884349Y-15412984D02*
X4846253Y-15412984D01*
X4846253Y-15412984D02*
X4827206Y-15422508D01*
X4827206Y-15422508D02*
X4817682Y-15432031D01*
X4817682Y-15432031D02*
X4808158Y-15451079D01*
X4808158Y-15451079D02*
X4808158Y-15498698D01*
X4808158Y-15498698D02*
X4817682Y-15517746D01*
X4817682Y-15517746D02*
X4827206Y-15527269D01*
X4827206Y-15527269D02*
X4846253Y-15536793D01*
X4846253Y-15536793D02*
X4884349Y-15536793D01*
X4884349Y-15536793D02*
X4903396Y-15527269D01*
X4903396Y-15527269D02*
X4912920Y-15517746D01*
X4912920Y-15517746D02*
X4922444Y-15498698D01*
X4998634Y-15412984D02*
X4998634Y-15451079D01*
X5074825Y-15412984D02*
X5074825Y-15451079D01*
X5370063Y-15689174D02*
X5360539Y-15679650D01*
X5360539Y-15679650D02*
X5341491Y-15651079D01*
X5341491Y-15651079D02*
X5331968Y-15632031D01*
X5331968Y-15632031D02*
X5322444Y-15603460D01*
X5322444Y-15603460D02*
X5312920Y-15555841D01*
X5312920Y-15555841D02*
X5312920Y-15517746D01*
X5312920Y-15517746D02*
X5322444Y-15470127D01*
X5322444Y-15470127D02*
X5331968Y-15441555D01*
X5331968Y-15441555D02*
X5341491Y-15422508D01*
X5341491Y-15422508D02*
X5360539Y-15393936D01*
X5360539Y-15393936D02*
X5370063Y-15384412D01*
X5541491Y-15412984D02*
X5446253Y-15412984D01*
X5446253Y-15412984D02*
X5436730Y-15508222D01*
X5436730Y-15508222D02*
X5446253Y-15498698D01*
X5446253Y-15498698D02*
X5465301Y-15489174D01*
X5465301Y-15489174D02*
X5512920Y-15489174D01*
X5512920Y-15489174D02*
X5531968Y-15498698D01*
X5531968Y-15498698D02*
X5541491Y-15508222D01*
X5541491Y-15508222D02*
X5551015Y-15527269D01*
X5551015Y-15527269D02*
X5551015Y-15574888D01*
X5551015Y-15574888D02*
X5541491Y-15593936D01*
X5541491Y-15593936D02*
X5531968Y-15603460D01*
X5531968Y-15603460D02*
X5512920Y-15612984D01*
X5512920Y-15612984D02*
X5465301Y-15612984D01*
X5465301Y-15612984D02*
X5446253Y-15603460D01*
X5446253Y-15603460D02*
X5436730Y-15593936D01*
X5665301Y-15498698D02*
X5646253Y-15489174D01*
X5646253Y-15489174D02*
X5636729Y-15479650D01*
X5636729Y-15479650D02*
X5627206Y-15460603D01*
X5627206Y-15460603D02*
X5627206Y-15451079D01*
X5627206Y-15451079D02*
X5636729Y-15432031D01*
X5636729Y-15432031D02*
X5646253Y-15422508D01*
X5646253Y-15422508D02*
X5665301Y-15412984D01*
X5665301Y-15412984D02*
X5703396Y-15412984D01*
X5703396Y-15412984D02*
X5722444Y-15422508D01*
X5722444Y-15422508D02*
X5731968Y-15432031D01*
X5731968Y-15432031D02*
X5741491Y-15451079D01*
X5741491Y-15451079D02*
X5741491Y-15460603D01*
X5741491Y-15460603D02*
X5731968Y-15479650D01*
X5731968Y-15479650D02*
X5722444Y-15489174D01*
X5722444Y-15489174D02*
X5703396Y-15498698D01*
X5703396Y-15498698D02*
X5665301Y-15498698D01*
X5665301Y-15498698D02*
X5646253Y-15508222D01*
X5646253Y-15508222D02*
X5636729Y-15517746D01*
X5636729Y-15517746D02*
X5627206Y-15536793D01*
X5627206Y-15536793D02*
X5627206Y-15574888D01*
X5627206Y-15574888D02*
X5636729Y-15593936D01*
X5636729Y-15593936D02*
X5646253Y-15603460D01*
X5646253Y-15603460D02*
X5665301Y-15612984D01*
X5665301Y-15612984D02*
X5703396Y-15612984D01*
X5703396Y-15612984D02*
X5722444Y-15603460D01*
X5722444Y-15603460D02*
X5731968Y-15593936D01*
X5731968Y-15593936D02*
X5741491Y-15574888D01*
X5741491Y-15574888D02*
X5741491Y-15536793D01*
X5741491Y-15536793D02*
X5731968Y-15517746D01*
X5731968Y-15517746D02*
X5722444Y-15508222D01*
X5722444Y-15508222D02*
X5703396Y-15498698D01*
X5979587Y-15612984D02*
X5979587Y-15412984D01*
X6065301Y-15612984D02*
X6065301Y-15508222D01*
X6065301Y-15508222D02*
X6055777Y-15489174D01*
X6055777Y-15489174D02*
X6036730Y-15479650D01*
X6036730Y-15479650D02*
X6008158Y-15479650D01*
X6008158Y-15479650D02*
X5989110Y-15489174D01*
X5989110Y-15489174D02*
X5979587Y-15498698D01*
X6189110Y-15612984D02*
X6170063Y-15603460D01*
X6170063Y-15603460D02*
X6160539Y-15593936D01*
X6160539Y-15593936D02*
X6151015Y-15574888D01*
X6151015Y-15574888D02*
X6151015Y-15517746D01*
X6151015Y-15517746D02*
X6160539Y-15498698D01*
X6160539Y-15498698D02*
X6170063Y-15489174D01*
X6170063Y-15489174D02*
X6189110Y-15479650D01*
X6189110Y-15479650D02*
X6217682Y-15479650D01*
X6217682Y-15479650D02*
X6236730Y-15489174D01*
X6236730Y-15489174D02*
X6246253Y-15498698D01*
X6246253Y-15498698D02*
X6255777Y-15517746D01*
X6255777Y-15517746D02*
X6255777Y-15574888D01*
X6255777Y-15574888D02*
X6246253Y-15593936D01*
X6246253Y-15593936D02*
X6236730Y-15603460D01*
X6236730Y-15603460D02*
X6217682Y-15612984D01*
X6217682Y-15612984D02*
X6189110Y-15612984D01*
X6370063Y-15612984D02*
X6351015Y-15603460D01*
X6351015Y-15603460D02*
X6341491Y-15584412D01*
X6341491Y-15584412D02*
X6341491Y-15412984D01*
X6522444Y-15603460D02*
X6503396Y-15612984D01*
X6503396Y-15612984D02*
X6465301Y-15612984D01*
X6465301Y-15612984D02*
X6446253Y-15603460D01*
X6446253Y-15603460D02*
X6436730Y-15584412D01*
X6436730Y-15584412D02*
X6436730Y-15508222D01*
X6436730Y-15508222D02*
X6446253Y-15489174D01*
X6446253Y-15489174D02*
X6465301Y-15479650D01*
X6465301Y-15479650D02*
X6503396Y-15479650D01*
X6503396Y-15479650D02*
X6522444Y-15489174D01*
X6522444Y-15489174D02*
X6531968Y-15508222D01*
X6531968Y-15508222D02*
X6531968Y-15527269D01*
X6531968Y-15527269D02*
X6436730Y-15546317D01*
X6608158Y-15603460D02*
X6627206Y-15612984D01*
X6627206Y-15612984D02*
X6665301Y-15612984D01*
X6665301Y-15612984D02*
X6684349Y-15603460D01*
X6684349Y-15603460D02*
X6693872Y-15584412D01*
X6693872Y-15584412D02*
X6693872Y-15574888D01*
X6693872Y-15574888D02*
X6684349Y-15555841D01*
X6684349Y-15555841D02*
X6665301Y-15546317D01*
X6665301Y-15546317D02*
X6636730Y-15546317D01*
X6636730Y-15546317D02*
X6617682Y-15536793D01*
X6617682Y-15536793D02*
X6608158Y-15517746D01*
X6608158Y-15517746D02*
X6608158Y-15508222D01*
X6608158Y-15508222D02*
X6617682Y-15489174D01*
X6617682Y-15489174D02*
X6636730Y-15479650D01*
X6636730Y-15479650D02*
X6665301Y-15479650D01*
X6665301Y-15479650D02*
X6684349Y-15489174D01*
X6760539Y-15689174D02*
X6770063Y-15679650D01*
X6770063Y-15679650D02*
X6789111Y-15651079D01*
X6789111Y-15651079D02*
X6798634Y-15632031D01*
X6798634Y-15632031D02*
X6808158Y-15603460D01*
X6808158Y-15603460D02*
X6817682Y-15555841D01*
X6817682Y-15555841D02*
X6817682Y-15517746D01*
X6817682Y-15517746D02*
X6808158Y-15470127D01*
X6808158Y-15470127D02*
X6798634Y-15441555D01*
X6798634Y-15441555D02*
X6789111Y-15422508D01*
X6789111Y-15422508D02*
X6770063Y-15393936D01*
X6770063Y-15393936D02*
X6760539Y-15384412D01*
X7122444Y-15689174D02*
X7112920Y-15679650D01*
X7112920Y-15679650D02*
X7093872Y-15651079D01*
X7093872Y-15651079D02*
X7084349Y-15632031D01*
X7084349Y-15632031D02*
X7074825Y-15603460D01*
X7074825Y-15603460D02*
X7065301Y-15555841D01*
X7065301Y-15555841D02*
X7065301Y-15517746D01*
X7065301Y-15517746D02*
X7074825Y-15470127D01*
X7074825Y-15470127D02*
X7084349Y-15441555D01*
X7084349Y-15441555D02*
X7093872Y-15422508D01*
X7093872Y-15422508D02*
X7112920Y-15393936D01*
X7112920Y-15393936D02*
X7122444Y-15384412D01*
X7198634Y-15479650D02*
X7198634Y-15612984D01*
X7198634Y-15498698D02*
X7208158Y-15489174D01*
X7208158Y-15489174D02*
X7227206Y-15479650D01*
X7227206Y-15479650D02*
X7255777Y-15479650D01*
X7255777Y-15479650D02*
X7274825Y-15489174D01*
X7274825Y-15489174D02*
X7284349Y-15508222D01*
X7284349Y-15508222D02*
X7284349Y-15612984D01*
X7408158Y-15612984D02*
X7389111Y-15603460D01*
X7389111Y-15603460D02*
X7379587Y-15593936D01*
X7379587Y-15593936D02*
X7370063Y-15574888D01*
X7370063Y-15574888D02*
X7370063Y-15517746D01*
X7370063Y-15517746D02*
X7379587Y-15498698D01*
X7379587Y-15498698D02*
X7389111Y-15489174D01*
X7389111Y-15489174D02*
X7408158Y-15479650D01*
X7408158Y-15479650D02*
X7436730Y-15479650D01*
X7436730Y-15479650D02*
X7455777Y-15489174D01*
X7455777Y-15489174D02*
X7465301Y-15498698D01*
X7465301Y-15498698D02*
X7474825Y-15517746D01*
X7474825Y-15517746D02*
X7474825Y-15574888D01*
X7474825Y-15574888D02*
X7465301Y-15593936D01*
X7465301Y-15593936D02*
X7455777Y-15603460D01*
X7455777Y-15603460D02*
X7436730Y-15612984D01*
X7436730Y-15612984D02*
X7408158Y-15612984D01*
X7531968Y-15479650D02*
X7608158Y-15479650D01*
X7560539Y-15412984D02*
X7560539Y-15584412D01*
X7560539Y-15584412D02*
X7570063Y-15603460D01*
X7570063Y-15603460D02*
X7589111Y-15612984D01*
X7589111Y-15612984D02*
X7608158Y-15612984D01*
X7827206Y-15479650D02*
X7827206Y-15679650D01*
X7827206Y-15489174D02*
X7846253Y-15479650D01*
X7846253Y-15479650D02*
X7884349Y-15479650D01*
X7884349Y-15479650D02*
X7903396Y-15489174D01*
X7903396Y-15489174D02*
X7912920Y-15498698D01*
X7912920Y-15498698D02*
X7922444Y-15517746D01*
X7922444Y-15517746D02*
X7922444Y-15574888D01*
X7922444Y-15574888D02*
X7912920Y-15593936D01*
X7912920Y-15593936D02*
X7903396Y-15603460D01*
X7903396Y-15603460D02*
X7884349Y-15612984D01*
X7884349Y-15612984D02*
X7846253Y-15612984D01*
X7846253Y-15612984D02*
X7827206Y-15603460D01*
X8036730Y-15612984D02*
X8017682Y-15603460D01*
X8017682Y-15603460D02*
X8008158Y-15584412D01*
X8008158Y-15584412D02*
X8008158Y-15412984D01*
X8198634Y-15612984D02*
X8198634Y-15508222D01*
X8198634Y-15508222D02*
X8189111Y-15489174D01*
X8189111Y-15489174D02*
X8170063Y-15479650D01*
X8170063Y-15479650D02*
X8131968Y-15479650D01*
X8131968Y-15479650D02*
X8112920Y-15489174D01*
X8198634Y-15603460D02*
X8179587Y-15612984D01*
X8179587Y-15612984D02*
X8131968Y-15612984D01*
X8131968Y-15612984D02*
X8112920Y-15603460D01*
X8112920Y-15603460D02*
X8103396Y-15584412D01*
X8103396Y-15584412D02*
X8103396Y-15565365D01*
X8103396Y-15565365D02*
X8112920Y-15546317D01*
X8112920Y-15546317D02*
X8131968Y-15536793D01*
X8131968Y-15536793D02*
X8179587Y-15536793D01*
X8179587Y-15536793D02*
X8198634Y-15527269D01*
X8265301Y-15479650D02*
X8341492Y-15479650D01*
X8293873Y-15412984D02*
X8293873Y-15584412D01*
X8293873Y-15584412D02*
X8303396Y-15603460D01*
X8303396Y-15603460D02*
X8322444Y-15612984D01*
X8322444Y-15612984D02*
X8341492Y-15612984D01*
X8484349Y-15603460D02*
X8465301Y-15612984D01*
X8465301Y-15612984D02*
X8427206Y-15612984D01*
X8427206Y-15612984D02*
X8408158Y-15603460D01*
X8408158Y-15603460D02*
X8398635Y-15584412D01*
X8398635Y-15584412D02*
X8398635Y-15508222D01*
X8398635Y-15508222D02*
X8408158Y-15489174D01*
X8408158Y-15489174D02*
X8427206Y-15479650D01*
X8427206Y-15479650D02*
X8465301Y-15479650D01*
X8465301Y-15479650D02*
X8484349Y-15489174D01*
X8484349Y-15489174D02*
X8493873Y-15508222D01*
X8493873Y-15508222D02*
X8493873Y-15527269D01*
X8493873Y-15527269D02*
X8398635Y-15546317D01*
X8665301Y-15612984D02*
X8665301Y-15412984D01*
X8665301Y-15603460D02*
X8646254Y-15612984D01*
X8646254Y-15612984D02*
X8608158Y-15612984D01*
X8608158Y-15612984D02*
X8589111Y-15603460D01*
X8589111Y-15603460D02*
X8579587Y-15593936D01*
X8579587Y-15593936D02*
X8570063Y-15574888D01*
X8570063Y-15574888D02*
X8570063Y-15517746D01*
X8570063Y-15517746D02*
X8579587Y-15498698D01*
X8579587Y-15498698D02*
X8589111Y-15489174D01*
X8589111Y-15489174D02*
X8608158Y-15479650D01*
X8608158Y-15479650D02*
X8646254Y-15479650D01*
X8646254Y-15479650D02*
X8665301Y-15489174D01*
X8741492Y-15689174D02*
X8751016Y-15679650D01*
X8751016Y-15679650D02*
X8770063Y-15651079D01*
X8770063Y-15651079D02*
X8779587Y-15632031D01*
X8779587Y-15632031D02*
X8789111Y-15603460D01*
X8789111Y-15603460D02*
X8798635Y-15555841D01*
X8798635Y-15555841D02*
X8798635Y-15517746D01*
X8798635Y-15517746D02*
X8789111Y-15470127D01*
X8789111Y-15470127D02*
X8779587Y-15441555D01*
X8779587Y-15441555D02*
X8770063Y-15422508D01*
X8770063Y-15422508D02*
X8751016Y-15393936D01*
X8751016Y-15393936D02*
X8741492Y-15384412D01*
M02*
