G04 #@! TF.GenerationSoftware,KiCad,Pcbnew,7.0.8-7.0.8~ubuntu22.04.1*
G04 #@! TF.CreationDate,2023-10-08T19:27:19+02:00*
G04 #@! TF.ProjectId,nrw65-pcb,6e727736-352d-4706-9362-2e6b69636164,rev?*
G04 #@! TF.SameCoordinates,Original*
G04 #@! TF.FileFunction,Paste,Bot*
G04 #@! TF.FilePolarity,Positive*
%FSLAX46Y46*%
G04 Gerber Fmt 4.6, Leading zero omitted, Abs format (unit mm)*
G04 Created by KiCad (PCBNEW 7.0.8-7.0.8~ubuntu22.04.1) date 2023-10-08 19:27:19*
%MOMM*%
%LPD*%
G01*
G04 APERTURE LIST*
G04 Aperture macros list*
%AMRoundRect*
0 Rectangle with rounded corners*
0 $1 Rounding radius*
0 $2 $3 $4 $5 $6 $7 $8 $9 X,Y pos of 4 corners*
0 Add a 4 corners polygon primitive as box body*
4,1,4,$2,$3,$4,$5,$6,$7,$8,$9,$2,$3,0*
0 Add four circle primitives for the rounded corners*
1,1,$1+$1,$2,$3*
1,1,$1+$1,$4,$5*
1,1,$1+$1,$6,$7*
1,1,$1+$1,$8,$9*
0 Add four rect primitives between the rounded corners*
20,1,$1+$1,$2,$3,$4,$5,0*
20,1,$1+$1,$4,$5,$6,$7,0*
20,1,$1+$1,$6,$7,$8,$9,0*
20,1,$1+$1,$8,$9,$2,$3,0*%
G04 Aperture macros list end*
%ADD10RoundRect,0.260000X-1.040000X-1.040000X1.040000X-1.040000X1.040000X1.040000X-1.040000X1.040000X0*%
%ADD11RoundRect,0.250000X-1.025000X-1.000000X1.025000X-1.000000X1.025000X1.000000X-1.025000X1.000000X0*%
%ADD12RoundRect,0.225000X0.375000X-0.225000X0.375000X0.225000X-0.375000X0.225000X-0.375000X-0.225000X0*%
%ADD13RoundRect,0.200000X-0.200000X0.300000X-0.200000X-0.300000X0.200000X-0.300000X0.200000X0.300000X0*%
%ADD14RoundRect,0.175000X-0.575000X0.175000X-0.575000X-0.175000X0.575000X-0.175000X0.575000X0.175000X0*%
G04 APERTURE END LIST*
D10*
X45900000Y-63037500D03*
D11*
X46215000Y-55797500D03*
D10*
X59450000Y-64087500D03*
D11*
X59665000Y-53257500D03*
D10*
X164962500Y-82087500D03*
D11*
X165277500Y-74847500D03*
D10*
X178512500Y-83137500D03*
D11*
X178727500Y-72307500D03*
D10*
X88762500Y-82087500D03*
D11*
X89077500Y-74847500D03*
D10*
X102312500Y-83137500D03*
D11*
X102527500Y-72307500D03*
D10*
X69712500Y-82087500D03*
D11*
X70027500Y-74847500D03*
D10*
X83262500Y-83137500D03*
D11*
X83477500Y-72307500D03*
D10*
X29231250Y-82087500D03*
D11*
X29546250Y-74847500D03*
D10*
X42781250Y-83137500D03*
D11*
X42996250Y-72307500D03*
D10*
X198300000Y-63037500D03*
D11*
X198615000Y-55797500D03*
D10*
X211850000Y-64087500D03*
D11*
X212065000Y-53257500D03*
D10*
X64950000Y-39225000D03*
D11*
X65265000Y-31985000D03*
D10*
X78500000Y-40275000D03*
D11*
X78715000Y-29445000D03*
D10*
X76856250Y-120187500D03*
D11*
X77171250Y-112947500D03*
D10*
X90406250Y-121237500D03*
D11*
X90621250Y-110407500D03*
D10*
X45900000Y-39225000D03*
D11*
X46215000Y-31985000D03*
D10*
X59450000Y-40275000D03*
D11*
X59665000Y-29445000D03*
D10*
X103050000Y-63037500D03*
D11*
X103365000Y-55797500D03*
D10*
X116600000Y-64087500D03*
D11*
X116815000Y-53257500D03*
D10*
X179250000Y-63037500D03*
D11*
X179565000Y-55797500D03*
D10*
X192800000Y-64087500D03*
D11*
X193015000Y-53257500D03*
D10*
X126862500Y-82087500D03*
D11*
X127177500Y-74847500D03*
D10*
X140412500Y-83137500D03*
D11*
X140627500Y-72307500D03*
D10*
X107812500Y-82087500D03*
D11*
X108127500Y-74847500D03*
D10*
X121362500Y-83137500D03*
D11*
X121577500Y-72307500D03*
D10*
X269737500Y-124950000D03*
D11*
X270052500Y-117710000D03*
D10*
X283287500Y-126000000D03*
D11*
X283502500Y-115170000D03*
D10*
X131625000Y-101137500D03*
D11*
X131940000Y-93897500D03*
D10*
X145175000Y-102187500D03*
D11*
X145390000Y-91357500D03*
D10*
X29231250Y-120187500D03*
D11*
X29546250Y-112947500D03*
D10*
X42781250Y-121237500D03*
D11*
X42996250Y-110407500D03*
D10*
X188775000Y-101137500D03*
D11*
X189090000Y-93897500D03*
D10*
X202325000Y-102187500D03*
D11*
X202540000Y-91357500D03*
D10*
X167343750Y-124950000D03*
D11*
X167658750Y-117710000D03*
D10*
X180893750Y-126000000D03*
D11*
X181108750Y-115170000D03*
D10*
X269737500Y-63037500D03*
D11*
X270052500Y-55797500D03*
D10*
X283287500Y-64087500D03*
D11*
X283502500Y-53257500D03*
D10*
X74475000Y-101137500D03*
D11*
X74790000Y-93897500D03*
D10*
X88025000Y-102187500D03*
D11*
X88240000Y-91357500D03*
D10*
X84000000Y-39225000D03*
D11*
X84315000Y-31985000D03*
D10*
X97550000Y-40275000D03*
D11*
X97765000Y-29445000D03*
D10*
X141150000Y-63037500D03*
D11*
X141465000Y-55797500D03*
D10*
X154700000Y-64087500D03*
D11*
X154915000Y-53257500D03*
D10*
X64950000Y-63037500D03*
D11*
X65265000Y-55797500D03*
D10*
X78500000Y-64087500D03*
D11*
X78715000Y-53257500D03*
D10*
X55425000Y-101137500D03*
D11*
X55740000Y-93897500D03*
D10*
X68975000Y-102187500D03*
D11*
X69190000Y-91357500D03*
D10*
X217350000Y-63037500D03*
D11*
X217665000Y-55797500D03*
D10*
X230900000Y-64087500D03*
D11*
X231115000Y-53257500D03*
D10*
X122100000Y-63037500D03*
D11*
X122415000Y-55797500D03*
D10*
X135650000Y-64087500D03*
D11*
X135865000Y-53257500D03*
D10*
X160200000Y-63037500D03*
D11*
X160515000Y-55797500D03*
D10*
X173750000Y-64087500D03*
D11*
X173965000Y-53257500D03*
D10*
X53043750Y-120187500D03*
D11*
X53358750Y-112947500D03*
D10*
X66593750Y-121237500D03*
D11*
X66808750Y-110407500D03*
D10*
X84000000Y-63037500D03*
D11*
X84315000Y-55797500D03*
D10*
X97550000Y-64087500D03*
D11*
X97765000Y-53257500D03*
D10*
X184012500Y-82087500D03*
D11*
X184327500Y-74847500D03*
D10*
X197562500Y-83137500D03*
D11*
X197777500Y-72307500D03*
D10*
X126862500Y-39225000D03*
D11*
X127177500Y-31985000D03*
D10*
X140412500Y-40275000D03*
D11*
X140627500Y-29445000D03*
D10*
X145912500Y-82087500D03*
D11*
X146227500Y-74847500D03*
D10*
X159462500Y-83137500D03*
D11*
X159677500Y-72307500D03*
D10*
X203062500Y-82087500D03*
D11*
X203377500Y-74847500D03*
D10*
X216612500Y-83137500D03*
D11*
X216827500Y-72307500D03*
D10*
X145912500Y-39225000D03*
D11*
X146227500Y-31985000D03*
D10*
X159462500Y-40275000D03*
D11*
X159677500Y-29445000D03*
D10*
X112575000Y-101137500D03*
D11*
X112890000Y-93897500D03*
D10*
X126125000Y-102187500D03*
D11*
X126340000Y-91357500D03*
D10*
X93525000Y-101137500D03*
D11*
X93840000Y-93897500D03*
D10*
X107075000Y-102187500D03*
D11*
X107290000Y-91357500D03*
D10*
X207825000Y-101137500D03*
D11*
X208140000Y-93897500D03*
D10*
X221375000Y-102187500D03*
D11*
X221590000Y-91357500D03*
D10*
X107812500Y-39225000D03*
D11*
X108127500Y-31985000D03*
D10*
X121362500Y-40275000D03*
D11*
X121577500Y-29445000D03*
D10*
X205443750Y-120187500D03*
D11*
X205758750Y-112947500D03*
D10*
X218993750Y-121237500D03*
D11*
X219208750Y-110407500D03*
D10*
X269737500Y-82087500D03*
D11*
X270052500Y-74847500D03*
D10*
X283287500Y-83137500D03*
D11*
X283502500Y-72307500D03*
D10*
X226875000Y-101137500D03*
D11*
X227190000Y-93897500D03*
D10*
X240425000Y-102187500D03*
D11*
X240640000Y-91357500D03*
D10*
X26850000Y-63037500D03*
D11*
X27165000Y-55797500D03*
D10*
X40400000Y-64087500D03*
D11*
X40615000Y-53257500D03*
D10*
X250687500Y-124950000D03*
D11*
X251002500Y-117710000D03*
D10*
X264237500Y-126000000D03*
D11*
X264452500Y-115170000D03*
D10*
X119718750Y-124950000D03*
D11*
X120033750Y-117710000D03*
D10*
X133268750Y-126000000D03*
D11*
X133483750Y-115170000D03*
D10*
X26850000Y-39225000D03*
D11*
X27165000Y-31985000D03*
D10*
X40400000Y-40275000D03*
D11*
X40615000Y-29445000D03*
D10*
X150675000Y-101137500D03*
D11*
X150990000Y-93897500D03*
D10*
X164225000Y-102187500D03*
D11*
X164440000Y-91357500D03*
D10*
X164962500Y-39225000D03*
D11*
X165277500Y-31985000D03*
D10*
X178512500Y-40275000D03*
D11*
X178727500Y-29445000D03*
D10*
X243543750Y-72562500D03*
D11*
X243858750Y-65322500D03*
D10*
X257093750Y-73612500D03*
D11*
X257308750Y-62782500D03*
D10*
X188775000Y-39225000D03*
D11*
X189090000Y-31985000D03*
D10*
X202325000Y-40275000D03*
D11*
X202540000Y-29445000D03*
D10*
X226875000Y-39225000D03*
D11*
X227190000Y-31985000D03*
D10*
X240425000Y-40275000D03*
D11*
X240640000Y-29445000D03*
D10*
X31612500Y-101137500D03*
D11*
X31927500Y-93897500D03*
D10*
X45162500Y-102187500D03*
D11*
X45377500Y-91357500D03*
D10*
X169725000Y-101137500D03*
D11*
X170040000Y-93897500D03*
D10*
X183275000Y-102187500D03*
D11*
X183490000Y-91357500D03*
D10*
X231637500Y-124950000D03*
D11*
X231952500Y-117710000D03*
D10*
X245187500Y-126000000D03*
D11*
X245402500Y-115170000D03*
D10*
X207825000Y-39225000D03*
D11*
X208140000Y-31985000D03*
D10*
X221375000Y-40275000D03*
D11*
X221590000Y-29445000D03*
D10*
X250687500Y-105900000D03*
D11*
X251002500Y-98660000D03*
D10*
X264237500Y-106950000D03*
D11*
X264452500Y-96120000D03*
D10*
X50662500Y-82087500D03*
D11*
X50977500Y-74847500D03*
D10*
X64212500Y-83137500D03*
D11*
X64427500Y-72307500D03*
D10*
X222112500Y-82087500D03*
D11*
X222427500Y-74847500D03*
D10*
X235662500Y-83137500D03*
D11*
X235877500Y-72307500D03*
D12*
X285887500Y-79512500D03*
X285887500Y-76212500D03*
X181112500Y-36650000D03*
X181112500Y-33350000D03*
X219212500Y-79512500D03*
X219212500Y-76212500D03*
X285887500Y-60462500D03*
X285887500Y-57162500D03*
X66812500Y-79512500D03*
X66812500Y-76212500D03*
X162062500Y-79512500D03*
X162062500Y-76212500D03*
X93006250Y-117612500D03*
X93006250Y-114312500D03*
X45381250Y-79512500D03*
X45381250Y-76212500D03*
X45381250Y-117612500D03*
X45381250Y-114312500D03*
X123962500Y-79512500D03*
X123962500Y-76212500D03*
X204925000Y-98562500D03*
X204925000Y-95262500D03*
X104912500Y-79512500D03*
X104912500Y-76212500D03*
X214450000Y-60462500D03*
X214450000Y-57162500D03*
X162062500Y-36650000D03*
X162062500Y-33350000D03*
X204925000Y-36650000D03*
X204925000Y-33350000D03*
X128725000Y-98562500D03*
X128725000Y-95262500D03*
X266837500Y-103325000D03*
X266837500Y-100025000D03*
X242890000Y-36650000D03*
X242890000Y-33350000D03*
X223975000Y-36650000D03*
X223975000Y-33350000D03*
X176350000Y-60462500D03*
X176350000Y-57162500D03*
X262075000Y-36650000D03*
X262075000Y-33350000D03*
X247787500Y-122375000D03*
X247787500Y-119075000D03*
X109675000Y-98562500D03*
X109675000Y-95262500D03*
X81100000Y-36650000D03*
X81100000Y-33350000D03*
X71575000Y-98562500D03*
X71575000Y-95262500D03*
D13*
X264210000Y-52150000D03*
X266420000Y-52150000D03*
D14*
X263560000Y-46250000D03*
D13*
X264210000Y-44850000D03*
X266420000Y-44850000D03*
D14*
X263560000Y-49250000D03*
X263560000Y-50750000D03*
D12*
X266837500Y-122375000D03*
X266837500Y-119075000D03*
X166825000Y-98562500D03*
X166825000Y-95262500D03*
X233500000Y-60462500D03*
X233500000Y-57162500D03*
X143012500Y-79512500D03*
X143012500Y-76212500D03*
X195400000Y-60462500D03*
X195400000Y-57162500D03*
X85862500Y-79512500D03*
X85862500Y-76212500D03*
X238262500Y-79512500D03*
X238262500Y-76212500D03*
X285887500Y-122375000D03*
X285887500Y-119075000D03*
X259693750Y-69987500D03*
X259693750Y-66687500D03*
X100150000Y-36650000D03*
X100150000Y-33350000D03*
X62050000Y-60462500D03*
X62050000Y-57162500D03*
X243025000Y-98562500D03*
X243025000Y-95262500D03*
X147775000Y-98562500D03*
X147775000Y-95262500D03*
X185875000Y-98562500D03*
X185875000Y-95262500D03*
X138250000Y-60462500D03*
X138250000Y-57162500D03*
X123962500Y-36650000D03*
X123962500Y-33350000D03*
X135868750Y-122375000D03*
X135868750Y-119075000D03*
X43000000Y-36650000D03*
X43000000Y-33350000D03*
X181112500Y-79512500D03*
X181112500Y-76212500D03*
X100150000Y-60462500D03*
X100150000Y-57162500D03*
X119200000Y-60462500D03*
X119200000Y-57162500D03*
X266700000Y-36650000D03*
X266700000Y-33350000D03*
X90625000Y-98562500D03*
X90625000Y-95262500D03*
X81100000Y-60462500D03*
X81100000Y-57162500D03*
X43000000Y-60462500D03*
X43000000Y-57162500D03*
X47762500Y-98562500D03*
X47762500Y-95262500D03*
X223975000Y-98562500D03*
X223975000Y-95262500D03*
X157300000Y-60462500D03*
X157300000Y-57162500D03*
X200162500Y-79512500D03*
X200162500Y-76212500D03*
X221593750Y-117612500D03*
X221593750Y-114312500D03*
X62050000Y-36650000D03*
X62050000Y-33350000D03*
X69193750Y-117612500D03*
X69193750Y-114312500D03*
X183493750Y-122375000D03*
X183493750Y-119075000D03*
X143012500Y-36650000D03*
X143012500Y-33350000D03*
M02*
