%TF.GenerationSoftware,KiCad,Pcbnew,7.0.8-7.0.8~ubuntu22.04.1*%
%TF.CreationDate,2023-10-08T19:29:13+02:00*%
%TF.ProjectId,nrw65-pcb,6e727736-352d-4706-9362-2e6b69636164,rev?*%
%TF.SameCoordinates,Original*%
%TF.FileFunction,Drillmap*%
%TF.FilePolarity,Positive*%
%FSLAX45Y45*%
G04 Gerber Fmt 4.5, Leading zero omitted, Abs format (unit mm)*
G04 Created by KiCad (PCBNEW 7.0.8-7.0.8~ubuntu22.04.1) date 2023-10-08 19:29:13*
%MOMM*%
%LPD*%
G01*
G04 APERTURE LIST*
%ADD10C,0.100000*%
%ADD11C,0.200000*%
%ADD12C,0.040000*%
%ADD13C,0.075000*%
%ADD14C,0.150000*%
%ADD15C,0.152400*%
%ADD16C,0.300000*%
G04 APERTURE END LIST*
D10*
X25643750Y-1900000D02*
X25643750Y-2300000D01*
X12096875Y-1900000D02*
X12096875Y-2300000D01*
X2400000Y-10477500D02*
G75*
G03*
X2300000Y-10477500I-50000J0D01*
G01*
X29253750Y-13427500D02*
G75*
G03*
X29253750Y-13427500I-110000J0D01*
G01*
X5550000Y-2300000D02*
G75*
G03*
X5650000Y-2400000I100000J0D01*
G01*
X2400000Y-5650000D02*
G75*
G03*
X2300000Y-5550000I-100000J0D01*
G01*
X25543750Y-2400000D02*
X19196875Y-2400000D01*
X18546875Y-2400000D02*
G75*
G03*
X18546875Y-2300000I5J50000D01*
G01*
X12646875Y-13077500D02*
X18546875Y-13077500D01*
X2300000Y-5000000D02*
G75*
G03*
X2400000Y-5000000I50000J0D01*
G01*
X2400000Y-12977500D02*
G75*
G03*
X2500000Y-13077500I100000J0D01*
G01*
X25743750Y-13677500D02*
X29293750Y-13677500D01*
X28693750Y-2400000D02*
X26193750Y-2400000D01*
X15706875Y-13427500D02*
G75*
G03*
X15706875Y-13427500I-110000J0D01*
G01*
X28793750Y-9827500D02*
X28793750Y-5650000D01*
X1800000Y-10027500D02*
X1800000Y-13577500D01*
X19096880Y-1900000D02*
G75*
G03*
X18996875Y-1800000I-100000J0D01*
G01*
X2400000Y-2300000D02*
G75*
G03*
X2300000Y-2400000I0J-100000D01*
G01*
X5000000Y-2400000D02*
X2500000Y-2400000D01*
X28893750Y-5550000D02*
G75*
G03*
X28793750Y-5650000I0J-100000D01*
G01*
X18996875Y-13677495D02*
G75*
G03*
X19096875Y-13577500I5J99995D01*
G01*
X12096875Y-13177500D02*
X12096875Y-13577500D01*
X5000000Y-13177500D02*
X2400000Y-13177500D01*
X29293750Y-9927500D02*
X28893750Y-9927500D01*
X28793750Y-9827500D02*
G75*
G03*
X28893750Y-9927500I99990J-10D01*
G01*
X5450000Y-13677500D02*
G75*
G03*
X5550000Y-13577500I0J100000D01*
G01*
X18996875Y-1800000D02*
X12196875Y-1800000D01*
X2300000Y-9927500D02*
G75*
G03*
X2400000Y-9827500I0J100000D01*
G01*
X28893750Y-2400000D02*
X28893750Y-5000000D01*
X11996875Y-2400000D02*
X5650000Y-2400000D01*
X2400000Y-2300000D02*
X5000000Y-2300000D01*
X29393750Y-1900000D02*
G75*
G03*
X29293750Y-1800000I-100010J-10D01*
G01*
X28793750Y-2500000D02*
G75*
G03*
X28693750Y-2400000I-100010J-10D01*
G01*
X2500000Y-13077500D02*
X5000000Y-13077500D01*
X28793750Y-12977500D02*
X28793750Y-10477500D01*
X19196875Y-13077500D02*
X25543750Y-13077500D01*
X28793750Y-5000000D02*
X28793750Y-2500000D01*
X29293750Y-5550000D02*
G75*
G03*
X29393750Y-5450000I0J100000D01*
G01*
X1900000Y-1800000D02*
G75*
G03*
X1800000Y-1900000I0J-100000D01*
G01*
X1800000Y-1900000D02*
X1800000Y-5450000D01*
X1900000Y-13677500D02*
X5450000Y-13677500D01*
X18546875Y-13177500D02*
X12646875Y-13177500D01*
X1800000Y-5450000D02*
G75*
G03*
X1900000Y-5550000I100000J0D01*
G01*
X12196875Y-1799995D02*
G75*
G03*
X12096875Y-1900000I5J-100005D01*
G01*
X12646875Y-2300000D02*
G75*
G03*
X12646875Y-2400000I5J-50000D01*
G01*
X29393750Y-5450000D02*
X29393750Y-1900000D01*
X25643750Y-13577500D02*
G75*
G03*
X25743750Y-13677500I99990J-10D01*
G01*
X5550000Y-2300000D02*
X5550000Y-1900000D01*
X26193750Y-2300000D02*
X28793750Y-2300000D01*
X19096875Y-13577500D02*
X19096875Y-13177500D01*
X29293750Y-1800000D02*
X25743750Y-1800000D01*
X5650000Y-13077500D02*
G75*
G03*
X5550000Y-13177500I0J-100000D01*
G01*
X29253750Y-2050000D02*
G75*
G03*
X29253750Y-2050000I-110000J0D01*
G01*
X12646875Y-2400000D02*
X18546875Y-2400000D01*
X2300000Y-13077500D02*
G75*
G03*
X2400000Y-13177500I100000J0D01*
G01*
X2300000Y-13077500D02*
X2300000Y-10477500D01*
X1800000Y-13577500D02*
G75*
G03*
X1900000Y-13677500I100000J0D01*
G01*
X19096875Y-2300000D02*
X19096875Y-1900000D01*
X12096870Y-13177500D02*
G75*
G03*
X11996875Y-13077500I-100000J0D01*
G01*
X25543750Y-2400000D02*
G75*
G03*
X25643750Y-2300000I0J100000D01*
G01*
X28793750Y-13177500D02*
X26193750Y-13177500D01*
X2400000Y-2500000D02*
X2400000Y-5000000D01*
X2400000Y-10477500D02*
X2400000Y-12977500D01*
X5550000Y-1900000D02*
G75*
G03*
X5450000Y-1800000I-100000J0D01*
G01*
X19096880Y-2300000D02*
G75*
G03*
X19196875Y-2400000I100000J0D01*
G01*
X2160000Y-13427500D02*
G75*
G03*
X2160000Y-13427500I-110000J0D01*
G01*
X26193750Y-13077500D02*
X28693750Y-13077500D01*
X28793750Y-13177500D02*
G75*
G03*
X28893750Y-13077500I0J100000D01*
G01*
X28893750Y-10477500D02*
X28893750Y-13077500D01*
X1900000Y-9927500D02*
G75*
G03*
X1800000Y-10027500I0J-100000D01*
G01*
X11996875Y-2399995D02*
G75*
G03*
X12096875Y-2300000I5J99995D01*
G01*
X2160000Y-2050000D02*
G75*
G03*
X2160000Y-2050000I-110000J0D01*
G01*
X5650000Y-13077500D02*
X11996875Y-13077500D01*
X18546875Y-2300000D02*
X12646875Y-2300000D01*
X2400000Y-5650000D02*
X2400000Y-9827500D01*
X28893750Y-10477500D02*
G75*
G03*
X28793750Y-10477500I-50000J0D01*
G01*
X1900000Y-5550000D02*
X2300000Y-5550000D01*
X28893750Y-2400000D02*
G75*
G03*
X28793750Y-2300000I-100010J-10D01*
G01*
X2300000Y-9927500D02*
X1900000Y-9927500D01*
X25743750Y-1800000D02*
G75*
G03*
X25643750Y-1900000I0J-100000D01*
G01*
X12196875Y-13677500D02*
X18996875Y-13677500D01*
X18546875Y-13177500D02*
G75*
G03*
X18546875Y-13077500I5J50000D01*
G01*
X29393750Y-13577500D02*
X29393750Y-10027500D01*
X5450000Y-1800000D02*
X1900000Y-1800000D01*
X28893750Y-5550000D02*
X29293750Y-5550000D01*
X5550000Y-13577500D02*
X5550000Y-13177500D01*
X2500000Y-2400000D02*
G75*
G03*
X2400000Y-2500000I0J-100000D01*
G01*
X29393750Y-10027500D02*
G75*
G03*
X29293750Y-9927500I-100010J-10D01*
G01*
X5000000Y-2400000D02*
G75*
G03*
X5000000Y-2300000I0J50000D01*
G01*
X25643750Y-13177500D02*
G75*
G03*
X25543750Y-13077500I-100010J-10D01*
G01*
X28693750Y-13077500D02*
G75*
G03*
X28793750Y-12977500I0J100000D01*
G01*
X12096870Y-13577500D02*
G75*
G03*
X12196875Y-13677500I100000J0D01*
G01*
X2300000Y-5000000D02*
X2300000Y-2400000D01*
X26193750Y-13077500D02*
G75*
G03*
X26193750Y-13177500I10J-50000D01*
G01*
X26193750Y-2300000D02*
G75*
G03*
X26193750Y-2400000I10J-50000D01*
G01*
X12646875Y-13077500D02*
G75*
G03*
X12646875Y-13177500I5J-50000D01*
G01*
X19196875Y-13077495D02*
G75*
G03*
X19096875Y-13177500I5J-100005D01*
G01*
X28793750Y-5000000D02*
G75*
G03*
X28893750Y-5000000I50000J0D01*
G01*
X5000000Y-13177500D02*
G75*
G03*
X5000000Y-13077500I0J50000D01*
G01*
X25643750Y-13177500D02*
X25643750Y-13577500D01*
X29293750Y-13677500D02*
G75*
G03*
X29393750Y-13577500I0J100000D01*
G01*
X15706875Y-2050000D02*
G75*
G03*
X15706875Y-2050000I-110000J0D01*
G01*
D11*
D12*
X23928000Y-10853000D02*
X23968000Y-10893000D01*
X23968000Y-10853000D02*
X23928000Y-10893000D01*
X24080000Y-4352450D02*
X24120000Y-4392450D01*
X24120000Y-4352450D02*
X24080000Y-4392450D01*
X24080000Y-4502450D02*
X24120000Y-4542450D01*
X24120000Y-4502450D02*
X24080000Y-4542450D01*
X24180000Y-4280000D02*
X24220000Y-4320000D01*
X24220000Y-4280000D02*
X24180000Y-4320000D01*
X24180000Y-4430000D02*
X24220000Y-4470000D01*
X24220000Y-4430000D02*
X24180000Y-4470000D01*
X24180000Y-5340000D02*
X24220000Y-5380000D01*
X24220000Y-5340000D02*
X24180000Y-5380000D01*
X24430000Y-3572550D02*
X24470000Y-3612550D01*
X24470000Y-3572550D02*
X24430000Y-3612550D01*
X24506118Y-3484000D02*
X24546118Y-3524000D01*
X24546118Y-3484000D02*
X24506118Y-3524000D01*
X24579000Y-8613000D02*
X24619000Y-8653000D01*
X24619000Y-8613000D02*
X24579000Y-8653000D01*
X24582177Y-3572550D02*
X24622177Y-3612550D01*
X24622177Y-3572550D02*
X24582177Y-3612550D01*
X24656849Y-3484000D02*
X24696849Y-3524000D01*
X24696849Y-3484000D02*
X24656849Y-3524000D01*
X25434000Y-9237000D02*
X25474000Y-9277000D01*
X25474000Y-9237000D02*
X25434000Y-9277000D01*
D13*
X25754500Y-4721000D02*
G75*
G03*
X25754500Y-4721000I-37500J0D01*
G01*
X25754500Y-4921000D02*
G75*
G03*
X25754500Y-4921000I-37500J0D01*
G01*
D10*
X25396000Y-2647000D02*
X25396000Y-2747000D01*
X25346000Y-2697000D02*
X25446000Y-2697000D01*
X25396000Y-4171000D02*
X25396000Y-4271000D01*
X25346000Y-4221000D02*
X25446000Y-4221000D01*
X25650000Y-2647000D02*
X25650000Y-2747000D01*
X25600000Y-2697000D02*
X25700000Y-2697000D01*
X25650000Y-4171000D02*
X25650000Y-4271000D01*
X25600000Y-4221000D02*
X25700000Y-4221000D01*
X25904000Y-2647000D02*
X25904000Y-2747000D01*
X25854000Y-2697000D02*
X25954000Y-2697000D01*
X25904000Y-4171000D02*
X25904000Y-4271000D01*
X25854000Y-4221000D02*
X25954000Y-4221000D01*
X26158000Y-2647000D02*
X26158000Y-2747000D01*
X26108000Y-2697000D02*
X26208000Y-2697000D01*
X26158000Y-4171000D02*
X26158000Y-4271000D01*
X26108000Y-4221000D02*
X26208000Y-4221000D01*
X26412000Y-2647000D02*
X26412000Y-2747000D01*
X26362000Y-2697000D02*
X26462000Y-2697000D01*
X26412000Y-4171000D02*
X26412000Y-4271000D01*
X26362000Y-4221000D02*
X26462000Y-4221000D01*
X26666000Y-2647000D02*
X26666000Y-2747000D01*
X26616000Y-2697000D02*
X26716000Y-2697000D01*
X26666000Y-4171000D02*
X26666000Y-4271000D01*
X26616000Y-4221000D02*
X26716000Y-4221000D01*
X26920000Y-2647000D02*
X26920000Y-2747000D01*
X26870000Y-2697000D02*
X26970000Y-2697000D01*
X26920000Y-4171000D02*
X26920000Y-4271000D01*
X26870000Y-4221000D02*
X26970000Y-4221000D01*
X27041250Y-3152500D02*
X27041250Y-3252500D01*
X26991250Y-3202500D02*
X27091250Y-3202500D01*
X27041250Y-3652500D02*
X27041250Y-3752500D01*
X26991250Y-3702500D02*
X27091250Y-3702500D01*
X27174000Y-2647000D02*
X27174000Y-2747000D01*
X27124000Y-2697000D02*
X27224000Y-2697000D01*
X27174000Y-4171000D02*
X27174000Y-4271000D01*
X27124000Y-4221000D02*
X27224000Y-4221000D01*
X27428000Y-2647000D02*
X27428000Y-2747000D01*
X27378000Y-2697000D02*
X27478000Y-2697000D01*
X27428000Y-4171000D02*
X27428000Y-4271000D01*
X27378000Y-4221000D02*
X27478000Y-4221000D01*
X27682000Y-2647000D02*
X27682000Y-2747000D01*
X27632000Y-2697000D02*
X27732000Y-2697000D01*
X27682000Y-4171000D02*
X27682000Y-4271000D01*
X27632000Y-4221000D02*
X27732000Y-4221000D01*
X27936000Y-2647000D02*
X27936000Y-2747000D01*
X27886000Y-2697000D02*
X27986000Y-2697000D01*
X27936000Y-4171000D02*
X27936000Y-4271000D01*
X27886000Y-4221000D02*
X27986000Y-4221000D01*
X28190000Y-2647000D02*
X28190000Y-2747000D01*
X28140000Y-2697000D02*
X28240000Y-2697000D01*
X28190000Y-4171000D02*
X28190000Y-4271000D01*
X28140000Y-4221000D02*
X28240000Y-4221000D01*
X28491250Y-3152500D02*
X28491250Y-3252500D01*
X28441250Y-3202500D02*
X28541250Y-3202500D01*
X28491250Y-3402500D02*
X28491250Y-3502500D01*
X28441250Y-3452500D02*
X28541250Y-3452500D01*
X28491250Y-3652500D02*
X28491250Y-3752500D01*
X28441250Y-3702500D02*
X28541250Y-3702500D01*
D14*
X25883033Y-3945533D02*
X25883033Y-3839466D01*
X25776966Y-3839466D01*
X25776966Y-3945533D01*
X25883033Y-3945533D01*
X25988033Y-3245533D02*
X25988033Y-3139466D01*
X25881966Y-3139466D01*
X25881966Y-3245533D01*
X25988033Y-3245533D01*
D15*
X24852000Y-3274700D02*
X24928200Y-3198500D01*
X24852000Y-3122300D01*
X24775800Y-3198500D01*
X24852000Y-3274700D01*
X25106000Y-3909700D02*
X25182200Y-3833500D01*
X25106000Y-3757300D01*
X25029800Y-3833500D01*
X25106000Y-3909700D01*
D16*
X2862500Y-3772500D02*
X3162500Y-4072500D01*
X3162500Y-3772500D02*
X2862500Y-4072500D01*
X3162500Y-3922500D02*
G75*
G03*
X3162500Y-3922500I-150000J0D01*
G01*
X2862500Y-6153750D02*
X3162500Y-6453750D01*
X3162500Y-6153750D02*
X2862500Y-6453750D01*
X3162500Y-6303750D02*
G75*
G03*
X3162500Y-6303750I-150000J0D01*
G01*
X2921500Y-3048500D02*
X3221500Y-3348500D01*
X3221500Y-3048500D02*
X2921500Y-3348500D01*
X3221500Y-3198500D02*
G75*
G03*
X3221500Y-3198500I-150000J0D01*
G01*
X2921500Y-5429750D02*
X3221500Y-5729750D01*
X3221500Y-5429750D02*
X2921500Y-5729750D01*
X3221500Y-5579750D02*
G75*
G03*
X3221500Y-5579750I-150000J0D01*
G01*
X3100625Y-8058750D02*
X3400625Y-8358750D01*
X3400625Y-8058750D02*
X3100625Y-8358750D01*
X3400625Y-8208750D02*
G75*
G03*
X3400625Y-8208750I-150000J0D01*
G01*
X3100625Y-11868750D02*
X3400625Y-12168750D01*
X3400625Y-11868750D02*
X3100625Y-12168750D01*
X3400625Y-12018750D02*
G75*
G03*
X3400625Y-12018750I-150000J0D01*
G01*
X3159625Y-7334750D02*
X3459625Y-7634750D01*
X3459625Y-7334750D02*
X3159625Y-7634750D01*
X3459625Y-7484750D02*
G75*
G03*
X3459625Y-7484750I-150000J0D01*
G01*
X3159625Y-11144750D02*
X3459625Y-11444750D01*
X3459625Y-11144750D02*
X3159625Y-11444750D01*
X3459625Y-11294750D02*
G75*
G03*
X3459625Y-11294750I-150000J0D01*
G01*
X3338750Y-9963750D02*
X3638750Y-10263750D01*
X3638750Y-9963750D02*
X3338750Y-10263750D01*
X3638750Y-10113750D02*
G75*
G03*
X3638750Y-10113750I-150000J0D01*
G01*
X3397750Y-9239750D02*
X3697750Y-9539750D01*
X3697750Y-9239750D02*
X3397750Y-9539750D01*
X3697750Y-9389750D02*
G75*
G03*
X3697750Y-9389750I-150000J0D01*
G01*
X3556500Y-2794500D02*
X3856500Y-3094500D01*
X3856500Y-2794500D02*
X3556500Y-3094500D01*
X3856500Y-2944500D02*
G75*
G03*
X3856500Y-2944500I-150000J0D01*
G01*
X3556500Y-5175750D02*
X3856500Y-5475750D01*
X3856500Y-5175750D02*
X3556500Y-5475750D01*
X3856500Y-5325750D02*
G75*
G03*
X3856500Y-5325750I-150000J0D01*
G01*
X3562500Y-3877500D02*
X3862500Y-4177500D01*
X3862500Y-3877500D02*
X3562500Y-4177500D01*
X3862500Y-4027500D02*
G75*
G03*
X3862500Y-4027500I-150000J0D01*
G01*
X3562500Y-6258750D02*
X3862500Y-6558750D01*
X3862500Y-6258750D02*
X3562500Y-6558750D01*
X3862500Y-6408750D02*
G75*
G03*
X3862500Y-6408750I-150000J0D01*
G01*
X3794625Y-7080750D02*
X4094625Y-7380750D01*
X4094625Y-7080750D02*
X3794625Y-7380750D01*
X4094625Y-7230750D02*
G75*
G03*
X4094625Y-7230750I-150000J0D01*
G01*
X3794625Y-10890750D02*
X4094625Y-11190750D01*
X4094625Y-10890750D02*
X3794625Y-11190750D01*
X4094625Y-11040750D02*
G75*
G03*
X4094625Y-11040750I-150000J0D01*
G01*
X3800625Y-8163750D02*
X4100625Y-8463750D01*
X4100625Y-8163750D02*
X3800625Y-8463750D01*
X4100625Y-8313750D02*
G75*
G03*
X4100625Y-8313750I-150000J0D01*
G01*
X3800625Y-11973750D02*
X4100625Y-12273750D01*
X4100625Y-11973750D02*
X3800625Y-12273750D01*
X4100625Y-12123750D02*
G75*
G03*
X4100625Y-12123750I-150000J0D01*
G01*
X4032750Y-8985750D02*
X4332750Y-9285750D01*
X4332750Y-8985750D02*
X4032750Y-9285750D01*
X4332750Y-9135750D02*
G75*
G03*
X4332750Y-9135750I-150000J0D01*
G01*
X4038750Y-10068750D02*
X4338750Y-10368750D01*
X4338750Y-10068750D02*
X4038750Y-10368750D01*
X4338750Y-10218750D02*
G75*
G03*
X4338750Y-10218750I-150000J0D01*
G01*
X4767500Y-3772500D02*
X5067500Y-4072500D01*
X5067500Y-3772500D02*
X4767500Y-4072500D01*
X5067500Y-3922500D02*
G75*
G03*
X5067500Y-3922500I-150000J0D01*
G01*
X4767500Y-6153750D02*
X5067500Y-6453750D01*
X5067500Y-6153750D02*
X4767500Y-6453750D01*
X5067500Y-6303750D02*
G75*
G03*
X5067500Y-6303750I-150000J0D01*
G01*
X4826500Y-3048500D02*
X5126500Y-3348500D01*
X5126500Y-3048500D02*
X4826500Y-3348500D01*
X5126500Y-3198500D02*
G75*
G03*
X5126500Y-3198500I-150000J0D01*
G01*
X4826500Y-5429750D02*
X5126500Y-5729750D01*
X5126500Y-5429750D02*
X4826500Y-5729750D01*
X5126500Y-5579750D02*
G75*
G03*
X5126500Y-5579750I-150000J0D01*
G01*
X5243750Y-8058750D02*
X5543750Y-8358750D01*
X5543750Y-8058750D02*
X5243750Y-8358750D01*
X5543750Y-8208750D02*
G75*
G03*
X5543750Y-8208750I-150000J0D01*
G01*
X5302750Y-7334750D02*
X5602750Y-7634750D01*
X5602750Y-7334750D02*
X5302750Y-7634750D01*
X5602750Y-7484750D02*
G75*
G03*
X5602750Y-7484750I-150000J0D01*
G01*
X5461500Y-2794500D02*
X5761500Y-3094500D01*
X5761500Y-2794500D02*
X5461500Y-3094500D01*
X5761500Y-2944500D02*
G75*
G03*
X5761500Y-2944500I-150000J0D01*
G01*
X5461500Y-5175750D02*
X5761500Y-5475750D01*
X5761500Y-5175750D02*
X5461500Y-5475750D01*
X5761500Y-5325750D02*
G75*
G03*
X5761500Y-5325750I-150000J0D01*
G01*
X5467500Y-3877500D02*
X5767500Y-4177500D01*
X5767500Y-3877500D02*
X5467500Y-4177500D01*
X5767500Y-4027500D02*
G75*
G03*
X5767500Y-4027500I-150000J0D01*
G01*
X5467500Y-6258750D02*
X5767500Y-6558750D01*
X5767500Y-6258750D02*
X5467500Y-6558750D01*
X5767500Y-6408750D02*
G75*
G03*
X5767500Y-6408750I-150000J0D01*
G01*
X5481875Y-11868750D02*
X5781875Y-12168750D01*
X5781875Y-11868750D02*
X5481875Y-12168750D01*
X5781875Y-12018750D02*
G75*
G03*
X5781875Y-12018750I-150000J0D01*
G01*
X5540875Y-11144750D02*
X5840875Y-11444750D01*
X5840875Y-11144750D02*
X5540875Y-11444750D01*
X5840875Y-11294750D02*
G75*
G03*
X5840875Y-11294750I-150000J0D01*
G01*
X5720000Y-9963750D02*
X6020000Y-10263750D01*
X6020000Y-9963750D02*
X5720000Y-10263750D01*
X6020000Y-10113750D02*
G75*
G03*
X6020000Y-10113750I-150000J0D01*
G01*
X5779000Y-9239750D02*
X6079000Y-9539750D01*
X6079000Y-9239750D02*
X5779000Y-9539750D01*
X6079000Y-9389750D02*
G75*
G03*
X6079000Y-9389750I-150000J0D01*
G01*
X5937750Y-7080750D02*
X6237750Y-7380750D01*
X6237750Y-7080750D02*
X5937750Y-7380750D01*
X6237750Y-7230750D02*
G75*
G03*
X6237750Y-7230750I-150000J0D01*
G01*
X5943750Y-8163750D02*
X6243750Y-8463750D01*
X6243750Y-8163750D02*
X5943750Y-8463750D01*
X6243750Y-8313750D02*
G75*
G03*
X6243750Y-8313750I-150000J0D01*
G01*
X6175875Y-10890750D02*
X6475875Y-11190750D01*
X6475875Y-10890750D02*
X6175875Y-11190750D01*
X6475875Y-11040750D02*
G75*
G03*
X6475875Y-11040750I-150000J0D01*
G01*
X6181875Y-11973750D02*
X6481875Y-12273750D01*
X6481875Y-11973750D02*
X6181875Y-12273750D01*
X6481875Y-12123750D02*
G75*
G03*
X6481875Y-12123750I-150000J0D01*
G01*
X6414000Y-8985750D02*
X6714000Y-9285750D01*
X6714000Y-8985750D02*
X6414000Y-9285750D01*
X6714000Y-9135750D02*
G75*
G03*
X6714000Y-9135750I-150000J0D01*
G01*
X6420000Y-10068750D02*
X6720000Y-10368750D01*
X6720000Y-10068750D02*
X6420000Y-10368750D01*
X6720000Y-10218750D02*
G75*
G03*
X6720000Y-10218750I-150000J0D01*
G01*
X6672500Y-3772500D02*
X6972500Y-4072500D01*
X6972500Y-3772500D02*
X6672500Y-4072500D01*
X6972500Y-3922500D02*
G75*
G03*
X6972500Y-3922500I-150000J0D01*
G01*
X6672500Y-6153750D02*
X6972500Y-6453750D01*
X6972500Y-6153750D02*
X6672500Y-6453750D01*
X6972500Y-6303750D02*
G75*
G03*
X6972500Y-6303750I-150000J0D01*
G01*
X6731500Y-3048500D02*
X7031500Y-3348500D01*
X7031500Y-3048500D02*
X6731500Y-3348500D01*
X7031500Y-3198500D02*
G75*
G03*
X7031500Y-3198500I-150000J0D01*
G01*
X6731500Y-5429750D02*
X7031500Y-5729750D01*
X7031500Y-5429750D02*
X6731500Y-5729750D01*
X7031500Y-5579750D02*
G75*
G03*
X7031500Y-5579750I-150000J0D01*
G01*
X7148750Y-8058750D02*
X7448750Y-8358750D01*
X7448750Y-8058750D02*
X7148750Y-8358750D01*
X7448750Y-8208750D02*
G75*
G03*
X7448750Y-8208750I-150000J0D01*
G01*
X7207750Y-7334750D02*
X7507750Y-7634750D01*
X7507750Y-7334750D02*
X7207750Y-7634750D01*
X7507750Y-7484750D02*
G75*
G03*
X7507750Y-7484750I-150000J0D01*
G01*
X7366500Y-2794500D02*
X7666500Y-3094500D01*
X7666500Y-2794500D02*
X7366500Y-3094500D01*
X7666500Y-2944500D02*
G75*
G03*
X7666500Y-2944500I-150000J0D01*
G01*
X7366500Y-5175750D02*
X7666500Y-5475750D01*
X7666500Y-5175750D02*
X7366500Y-5475750D01*
X7666500Y-5325750D02*
G75*
G03*
X7666500Y-5325750I-150000J0D01*
G01*
X7372500Y-3877500D02*
X7672500Y-4177500D01*
X7672500Y-3877500D02*
X7372500Y-4177500D01*
X7672500Y-4027500D02*
G75*
G03*
X7672500Y-4027500I-150000J0D01*
G01*
X7372500Y-6258750D02*
X7672500Y-6558750D01*
X7672500Y-6258750D02*
X7372500Y-6558750D01*
X7672500Y-6408750D02*
G75*
G03*
X7672500Y-6408750I-150000J0D01*
G01*
X7625000Y-9963750D02*
X7925000Y-10263750D01*
X7925000Y-9963750D02*
X7625000Y-10263750D01*
X7925000Y-10113750D02*
G75*
G03*
X7925000Y-10113750I-150000J0D01*
G01*
X7684000Y-9239750D02*
X7984000Y-9539750D01*
X7984000Y-9239750D02*
X7684000Y-9539750D01*
X7984000Y-9389750D02*
G75*
G03*
X7984000Y-9389750I-150000J0D01*
G01*
X7842750Y-7080750D02*
X8142750Y-7380750D01*
X8142750Y-7080750D02*
X7842750Y-7380750D01*
X8142750Y-7230750D02*
G75*
G03*
X8142750Y-7230750I-150000J0D01*
G01*
X7848750Y-8163750D02*
X8148750Y-8463750D01*
X8148750Y-8163750D02*
X7848750Y-8463750D01*
X8148750Y-8313750D02*
G75*
G03*
X8148750Y-8313750I-150000J0D01*
G01*
X7863125Y-11868750D02*
X8163125Y-12168750D01*
X8163125Y-11868750D02*
X7863125Y-12168750D01*
X8163125Y-12018750D02*
G75*
G03*
X8163125Y-12018750I-150000J0D01*
G01*
X7922125Y-11144750D02*
X8222125Y-11444750D01*
X8222125Y-11144750D02*
X7922125Y-11444750D01*
X8222125Y-11294750D02*
G75*
G03*
X8222125Y-11294750I-150000J0D01*
G01*
X8319000Y-8985750D02*
X8619000Y-9285750D01*
X8619000Y-8985750D02*
X8319000Y-9285750D01*
X8619000Y-9135750D02*
G75*
G03*
X8619000Y-9135750I-150000J0D01*
G01*
X8325000Y-10068750D02*
X8625000Y-10368750D01*
X8625000Y-10068750D02*
X8325000Y-10368750D01*
X8625000Y-10218750D02*
G75*
G03*
X8625000Y-10218750I-150000J0D01*
G01*
X8557125Y-10890750D02*
X8857125Y-11190750D01*
X8857125Y-10890750D02*
X8557125Y-11190750D01*
X8857125Y-11040750D02*
G75*
G03*
X8857125Y-11040750I-150000J0D01*
G01*
X8563125Y-11973750D02*
X8863125Y-12273750D01*
X8863125Y-11973750D02*
X8563125Y-12273750D01*
X8863125Y-12123750D02*
G75*
G03*
X8863125Y-12123750I-150000J0D01*
G01*
X8577500Y-3772500D02*
X8877500Y-4072500D01*
X8877500Y-3772500D02*
X8577500Y-4072500D01*
X8877500Y-3922500D02*
G75*
G03*
X8877500Y-3922500I-150000J0D01*
G01*
X8577500Y-6153750D02*
X8877500Y-6453750D01*
X8877500Y-6153750D02*
X8577500Y-6453750D01*
X8877500Y-6303750D02*
G75*
G03*
X8877500Y-6303750I-150000J0D01*
G01*
X8636500Y-3048500D02*
X8936500Y-3348500D01*
X8936500Y-3048500D02*
X8636500Y-3348500D01*
X8936500Y-3198500D02*
G75*
G03*
X8936500Y-3198500I-150000J0D01*
G01*
X8636500Y-5429750D02*
X8936500Y-5729750D01*
X8936500Y-5429750D02*
X8636500Y-5729750D01*
X8936500Y-5579750D02*
G75*
G03*
X8936500Y-5579750I-150000J0D01*
G01*
X9053750Y-8058750D02*
X9353750Y-8358750D01*
X9353750Y-8058750D02*
X9053750Y-8358750D01*
X9353750Y-8208750D02*
G75*
G03*
X9353750Y-8208750I-150000J0D01*
G01*
X9112750Y-7334750D02*
X9412750Y-7634750D01*
X9412750Y-7334750D02*
X9112750Y-7634750D01*
X9412750Y-7484750D02*
G75*
G03*
X9412750Y-7484750I-150000J0D01*
G01*
X9271500Y-2794500D02*
X9571500Y-3094500D01*
X9571500Y-2794500D02*
X9271500Y-3094500D01*
X9571500Y-2944500D02*
G75*
G03*
X9571500Y-2944500I-150000J0D01*
G01*
X9271500Y-5175750D02*
X9571500Y-5475750D01*
X9571500Y-5175750D02*
X9271500Y-5475750D01*
X9571500Y-5325750D02*
G75*
G03*
X9571500Y-5325750I-150000J0D01*
G01*
X9277500Y-3877500D02*
X9577500Y-4177500D01*
X9577500Y-3877500D02*
X9277500Y-4177500D01*
X9577500Y-4027500D02*
G75*
G03*
X9577500Y-4027500I-150000J0D01*
G01*
X9277500Y-6258750D02*
X9577500Y-6558750D01*
X9577500Y-6258750D02*
X9277500Y-6558750D01*
X9577500Y-6408750D02*
G75*
G03*
X9577500Y-6408750I-150000J0D01*
G01*
X9530000Y-9963750D02*
X9830000Y-10263750D01*
X9830000Y-9963750D02*
X9530000Y-10263750D01*
X9830000Y-10113750D02*
G75*
G03*
X9830000Y-10113750I-150000J0D01*
G01*
X9589000Y-9239750D02*
X9889000Y-9539750D01*
X9889000Y-9239750D02*
X9589000Y-9539750D01*
X9889000Y-9389750D02*
G75*
G03*
X9889000Y-9389750I-150000J0D01*
G01*
X9747750Y-7080750D02*
X10047750Y-7380750D01*
X10047750Y-7080750D02*
X9747750Y-7380750D01*
X10047750Y-7230750D02*
G75*
G03*
X10047750Y-7230750I-150000J0D01*
G01*
X9753750Y-8163750D02*
X10053750Y-8463750D01*
X10053750Y-8163750D02*
X9753750Y-8463750D01*
X10053750Y-8313750D02*
G75*
G03*
X10053750Y-8313750I-150000J0D01*
G01*
X10224000Y-8985750D02*
X10524000Y-9285750D01*
X10524000Y-8985750D02*
X10224000Y-9285750D01*
X10524000Y-9135750D02*
G75*
G03*
X10524000Y-9135750I-150000J0D01*
G01*
X10230000Y-10068750D02*
X10530000Y-10368750D01*
X10530000Y-10068750D02*
X10230000Y-10368750D01*
X10530000Y-10218750D02*
G75*
G03*
X10530000Y-10218750I-150000J0D01*
G01*
X10482500Y-6153750D02*
X10782500Y-6453750D01*
X10782500Y-6153750D02*
X10482500Y-6453750D01*
X10782500Y-6303750D02*
G75*
G03*
X10782500Y-6303750I-150000J0D01*
G01*
X10541500Y-5429750D02*
X10841500Y-5729750D01*
X10841500Y-5429750D02*
X10541500Y-5729750D01*
X10841500Y-5579750D02*
G75*
G03*
X10841500Y-5579750I-150000J0D01*
G01*
X10958750Y-3772500D02*
X11258750Y-4072500D01*
X11258750Y-3772500D02*
X10958750Y-4072500D01*
X11258750Y-3922500D02*
G75*
G03*
X11258750Y-3922500I-150000J0D01*
G01*
X10958750Y-8058750D02*
X11258750Y-8358750D01*
X11258750Y-8058750D02*
X10958750Y-8358750D01*
X11258750Y-8208750D02*
G75*
G03*
X11258750Y-8208750I-150000J0D01*
G01*
X11017750Y-3048500D02*
X11317750Y-3348500D01*
X11317750Y-3048500D02*
X11017750Y-3348500D01*
X11317750Y-3198500D02*
G75*
G03*
X11317750Y-3198500I-150000J0D01*
G01*
X11017750Y-7334750D02*
X11317750Y-7634750D01*
X11317750Y-7334750D02*
X11017750Y-7634750D01*
X11317750Y-7484750D02*
G75*
G03*
X11317750Y-7484750I-150000J0D01*
G01*
X11176500Y-5175750D02*
X11476500Y-5475750D01*
X11476500Y-5175750D02*
X11176500Y-5475750D01*
X11476500Y-5325750D02*
G75*
G03*
X11476500Y-5325750I-150000J0D01*
G01*
X11182500Y-6258750D02*
X11482500Y-6558750D01*
X11482500Y-6258750D02*
X11182500Y-6558750D01*
X11482500Y-6408750D02*
G75*
G03*
X11482500Y-6408750I-150000J0D01*
G01*
X11435000Y-9963750D02*
X11735000Y-10263750D01*
X11735000Y-9963750D02*
X11435000Y-10263750D01*
X11735000Y-10113750D02*
G75*
G03*
X11735000Y-10113750I-150000J0D01*
G01*
X11494000Y-9239750D02*
X11794000Y-9539750D01*
X11794000Y-9239750D02*
X11494000Y-9539750D01*
X11794000Y-9389750D02*
G75*
G03*
X11794000Y-9389750I-150000J0D01*
G01*
X11652750Y-2794500D02*
X11952750Y-3094500D01*
X11952750Y-2794500D02*
X11652750Y-3094500D01*
X11952750Y-2944500D02*
G75*
G03*
X11952750Y-2944500I-150000J0D01*
G01*
X11652750Y-7080750D02*
X11952750Y-7380750D01*
X11952750Y-7080750D02*
X11652750Y-7380750D01*
X11952750Y-7230750D02*
G75*
G03*
X11952750Y-7230750I-150000J0D01*
G01*
X11658750Y-3877500D02*
X11958750Y-4177500D01*
X11958750Y-3877500D02*
X11658750Y-4177500D01*
X11958750Y-4027500D02*
G75*
G03*
X11958750Y-4027500I-150000J0D01*
G01*
X11658750Y-8163750D02*
X11958750Y-8463750D01*
X11958750Y-8163750D02*
X11658750Y-8463750D01*
X11958750Y-8313750D02*
G75*
G03*
X11958750Y-8313750I-150000J0D01*
G01*
X12129000Y-8985750D02*
X12429000Y-9285750D01*
X12429000Y-8985750D02*
X12129000Y-9285750D01*
X12429000Y-9135750D02*
G75*
G03*
X12429000Y-9135750I-150000J0D01*
G01*
X12135000Y-10068750D02*
X12435000Y-10368750D01*
X12435000Y-10068750D02*
X12135000Y-10368750D01*
X12435000Y-10218750D02*
G75*
G03*
X12435000Y-10218750I-150000J0D01*
G01*
X12149375Y-12345000D02*
X12449375Y-12645000D01*
X12449375Y-12345000D02*
X12149375Y-12645000D01*
X12449375Y-12495000D02*
G75*
G03*
X12449375Y-12495000I-150000J0D01*
G01*
X12208375Y-11621000D02*
X12508375Y-11921000D01*
X12508375Y-11621000D02*
X12208375Y-11921000D01*
X12508375Y-11771000D02*
G75*
G03*
X12508375Y-11771000I-150000J0D01*
G01*
X12387500Y-6153750D02*
X12687500Y-6453750D01*
X12687500Y-6153750D02*
X12387500Y-6453750D01*
X12687500Y-6303750D02*
G75*
G03*
X12687500Y-6303750I-150000J0D01*
G01*
X12446500Y-5429750D02*
X12746500Y-5729750D01*
X12746500Y-5429750D02*
X12446500Y-5729750D01*
X12746500Y-5579750D02*
G75*
G03*
X12746500Y-5579750I-150000J0D01*
G01*
X12843375Y-11367000D02*
X13143375Y-11667000D01*
X13143375Y-11367000D02*
X12843375Y-11667000D01*
X13143375Y-11517000D02*
G75*
G03*
X13143375Y-11517000I-150000J0D01*
G01*
X12849375Y-12450000D02*
X13149375Y-12750000D01*
X13149375Y-12450000D02*
X12849375Y-12750000D01*
X13149375Y-12600000D02*
G75*
G03*
X13149375Y-12600000I-150000J0D01*
G01*
X12863750Y-3772500D02*
X13163750Y-4072500D01*
X13163750Y-3772500D02*
X12863750Y-4072500D01*
X13163750Y-3922500D02*
G75*
G03*
X13163750Y-3922500I-150000J0D01*
G01*
X12863750Y-8058750D02*
X13163750Y-8358750D01*
X13163750Y-8058750D02*
X12863750Y-8358750D01*
X13163750Y-8208750D02*
G75*
G03*
X13163750Y-8208750I-150000J0D01*
G01*
X12922750Y-3048500D02*
X13222750Y-3348500D01*
X13222750Y-3048500D02*
X12922750Y-3348500D01*
X13222750Y-3198500D02*
G75*
G03*
X13222750Y-3198500I-150000J0D01*
G01*
X12922750Y-7334750D02*
X13222750Y-7634750D01*
X13222750Y-7334750D02*
X12922750Y-7634750D01*
X13222750Y-7484750D02*
G75*
G03*
X13222750Y-7484750I-150000J0D01*
G01*
X13081500Y-5175750D02*
X13381500Y-5475750D01*
X13381500Y-5175750D02*
X13081500Y-5475750D01*
X13381500Y-5325750D02*
G75*
G03*
X13381500Y-5325750I-150000J0D01*
G01*
X13087500Y-6258750D02*
X13387500Y-6558750D01*
X13387500Y-6258750D02*
X13087500Y-6558750D01*
X13387500Y-6408750D02*
G75*
G03*
X13387500Y-6408750I-150000J0D01*
G01*
X13340000Y-9963750D02*
X13640000Y-10263750D01*
X13640000Y-9963750D02*
X13340000Y-10263750D01*
X13640000Y-10113750D02*
G75*
G03*
X13640000Y-10113750I-150000J0D01*
G01*
X13399000Y-9239750D02*
X13699000Y-9539750D01*
X13699000Y-9239750D02*
X13399000Y-9539750D01*
X13699000Y-9389750D02*
G75*
G03*
X13699000Y-9389750I-150000J0D01*
G01*
X13557750Y-2794500D02*
X13857750Y-3094500D01*
X13857750Y-2794500D02*
X13557750Y-3094500D01*
X13857750Y-2944500D02*
G75*
G03*
X13857750Y-2944500I-150000J0D01*
G01*
X13557750Y-7080750D02*
X13857750Y-7380750D01*
X13857750Y-7080750D02*
X13557750Y-7380750D01*
X13857750Y-7230750D02*
G75*
G03*
X13857750Y-7230750I-150000J0D01*
G01*
X13563750Y-3877500D02*
X13863750Y-4177500D01*
X13863750Y-3877500D02*
X13563750Y-4177500D01*
X13863750Y-4027500D02*
G75*
G03*
X13863750Y-4027500I-150000J0D01*
G01*
X13563750Y-8163750D02*
X13863750Y-8463750D01*
X13863750Y-8163750D02*
X13563750Y-8463750D01*
X13863750Y-8313750D02*
G75*
G03*
X13863750Y-8313750I-150000J0D01*
G01*
X14034000Y-8985750D02*
X14334000Y-9285750D01*
X14334000Y-8985750D02*
X14034000Y-9285750D01*
X14334000Y-9135750D02*
G75*
G03*
X14334000Y-9135750I-150000J0D01*
G01*
X14040000Y-10068750D02*
X14340000Y-10368750D01*
X14340000Y-10068750D02*
X14040000Y-10368750D01*
X14340000Y-10218750D02*
G75*
G03*
X14340000Y-10218750I-150000J0D01*
G01*
X14292500Y-6153750D02*
X14592500Y-6453750D01*
X14592500Y-6153750D02*
X14292500Y-6453750D01*
X14592500Y-6303750D02*
G75*
G03*
X14592500Y-6303750I-150000J0D01*
G01*
X14351500Y-5429750D02*
X14651500Y-5729750D01*
X14651500Y-5429750D02*
X14351500Y-5729750D01*
X14651500Y-5579750D02*
G75*
G03*
X14651500Y-5579750I-150000J0D01*
G01*
X14768750Y-3772500D02*
X15068750Y-4072500D01*
X15068750Y-3772500D02*
X14768750Y-4072500D01*
X15068750Y-3922500D02*
G75*
G03*
X15068750Y-3922500I-150000J0D01*
G01*
X14768750Y-8058750D02*
X15068750Y-8358750D01*
X15068750Y-8058750D02*
X14768750Y-8358750D01*
X15068750Y-8208750D02*
G75*
G03*
X15068750Y-8208750I-150000J0D01*
G01*
X14827750Y-3048500D02*
X15127750Y-3348500D01*
X15127750Y-3048500D02*
X14827750Y-3348500D01*
X15127750Y-3198500D02*
G75*
G03*
X15127750Y-3198500I-150000J0D01*
G01*
X14827750Y-7334750D02*
X15127750Y-7634750D01*
X15127750Y-7334750D02*
X14827750Y-7634750D01*
X15127750Y-7484750D02*
G75*
G03*
X15127750Y-7484750I-150000J0D01*
G01*
X14986500Y-5175750D02*
X15286500Y-5475750D01*
X15286500Y-5175750D02*
X14986500Y-5475750D01*
X15286500Y-5325750D02*
G75*
G03*
X15286500Y-5325750I-150000J0D01*
G01*
X14992500Y-6258750D02*
X15292500Y-6558750D01*
X15292500Y-6258750D02*
X14992500Y-6558750D01*
X15292500Y-6408750D02*
G75*
G03*
X15292500Y-6408750I-150000J0D01*
G01*
X15245000Y-9963750D02*
X15545000Y-10263750D01*
X15545000Y-9963750D02*
X15245000Y-10263750D01*
X15545000Y-10113750D02*
G75*
G03*
X15545000Y-10113750I-150000J0D01*
G01*
X15304000Y-9239750D02*
X15604000Y-9539750D01*
X15604000Y-9239750D02*
X15304000Y-9539750D01*
X15604000Y-9389750D02*
G75*
G03*
X15604000Y-9389750I-150000J0D01*
G01*
X15462750Y-2794500D02*
X15762750Y-3094500D01*
X15762750Y-2794500D02*
X15462750Y-3094500D01*
X15762750Y-2944500D02*
G75*
G03*
X15762750Y-2944500I-150000J0D01*
G01*
X15462750Y-7080750D02*
X15762750Y-7380750D01*
X15762750Y-7080750D02*
X15462750Y-7380750D01*
X15762750Y-7230750D02*
G75*
G03*
X15762750Y-7230750I-150000J0D01*
G01*
X15468750Y-3877500D02*
X15768750Y-4177500D01*
X15768750Y-3877500D02*
X15468750Y-4177500D01*
X15768750Y-4027500D02*
G75*
G03*
X15768750Y-4027500I-150000J0D01*
G01*
X15468750Y-8163750D02*
X15768750Y-8463750D01*
X15768750Y-8163750D02*
X15468750Y-8463750D01*
X15768750Y-8313750D02*
G75*
G03*
X15768750Y-8313750I-150000J0D01*
G01*
X15939000Y-8985750D02*
X16239000Y-9285750D01*
X16239000Y-8985750D02*
X15939000Y-9285750D01*
X16239000Y-9135750D02*
G75*
G03*
X16239000Y-9135750I-150000J0D01*
G01*
X15945000Y-10068750D02*
X16245000Y-10368750D01*
X16245000Y-10068750D02*
X15945000Y-10368750D01*
X16245000Y-10218750D02*
G75*
G03*
X16245000Y-10218750I-150000J0D01*
G01*
X16197500Y-6153750D02*
X16497500Y-6453750D01*
X16497500Y-6153750D02*
X16197500Y-6453750D01*
X16497500Y-6303750D02*
G75*
G03*
X16497500Y-6303750I-150000J0D01*
G01*
X16256500Y-5429750D02*
X16556500Y-5729750D01*
X16556500Y-5429750D02*
X16256500Y-5729750D01*
X16556500Y-5579750D02*
G75*
G03*
X16556500Y-5579750I-150000J0D01*
G01*
X16673750Y-3772500D02*
X16973750Y-4072500D01*
X16973750Y-3772500D02*
X16673750Y-4072500D01*
X16973750Y-3922500D02*
G75*
G03*
X16973750Y-3922500I-150000J0D01*
G01*
X16673750Y-8058750D02*
X16973750Y-8358750D01*
X16973750Y-8058750D02*
X16673750Y-8358750D01*
X16973750Y-8208750D02*
G75*
G03*
X16973750Y-8208750I-150000J0D01*
G01*
X16732750Y-3048500D02*
X17032750Y-3348500D01*
X17032750Y-3048500D02*
X16732750Y-3348500D01*
X17032750Y-3198500D02*
G75*
G03*
X17032750Y-3198500I-150000J0D01*
G01*
X16732750Y-7334750D02*
X17032750Y-7634750D01*
X17032750Y-7334750D02*
X16732750Y-7634750D01*
X17032750Y-7484750D02*
G75*
G03*
X17032750Y-7484750I-150000J0D01*
G01*
X16891500Y-5175750D02*
X17191500Y-5475750D01*
X17191500Y-5175750D02*
X16891500Y-5475750D01*
X17191500Y-5325750D02*
G75*
G03*
X17191500Y-5325750I-150000J0D01*
G01*
X16897500Y-6258750D02*
X17197500Y-6558750D01*
X17197500Y-6258750D02*
X16897500Y-6558750D01*
X17197500Y-6408750D02*
G75*
G03*
X17197500Y-6408750I-150000J0D01*
G01*
X16911875Y-12345000D02*
X17211875Y-12645000D01*
X17211875Y-12345000D02*
X16911875Y-12645000D01*
X17211875Y-12495000D02*
G75*
G03*
X17211875Y-12495000I-150000J0D01*
G01*
X16970875Y-11621000D02*
X17270875Y-11921000D01*
X17270875Y-11621000D02*
X16970875Y-11921000D01*
X17270875Y-11771000D02*
G75*
G03*
X17270875Y-11771000I-150000J0D01*
G01*
X17150000Y-9963750D02*
X17450000Y-10263750D01*
X17450000Y-9963750D02*
X17150000Y-10263750D01*
X17450000Y-10113750D02*
G75*
G03*
X17450000Y-10113750I-150000J0D01*
G01*
X17209000Y-9239750D02*
X17509000Y-9539750D01*
X17509000Y-9239750D02*
X17209000Y-9539750D01*
X17509000Y-9389750D02*
G75*
G03*
X17509000Y-9389750I-150000J0D01*
G01*
X17367750Y-2794500D02*
X17667750Y-3094500D01*
X17667750Y-2794500D02*
X17367750Y-3094500D01*
X17667750Y-2944500D02*
G75*
G03*
X17667750Y-2944500I-150000J0D01*
G01*
X17367750Y-7080750D02*
X17667750Y-7380750D01*
X17667750Y-7080750D02*
X17367750Y-7380750D01*
X17667750Y-7230750D02*
G75*
G03*
X17667750Y-7230750I-150000J0D01*
G01*
X17373750Y-3877500D02*
X17673750Y-4177500D01*
X17673750Y-3877500D02*
X17373750Y-4177500D01*
X17673750Y-4027500D02*
G75*
G03*
X17673750Y-4027500I-150000J0D01*
G01*
X17373750Y-8163750D02*
X17673750Y-8463750D01*
X17673750Y-8163750D02*
X17373750Y-8463750D01*
X17673750Y-8313750D02*
G75*
G03*
X17673750Y-8313750I-150000J0D01*
G01*
X17605875Y-11367000D02*
X17905875Y-11667000D01*
X17905875Y-11367000D02*
X17605875Y-11667000D01*
X17905875Y-11517000D02*
G75*
G03*
X17905875Y-11517000I-150000J0D01*
G01*
X17611875Y-12450000D02*
X17911875Y-12750000D01*
X17911875Y-12450000D02*
X17611875Y-12750000D01*
X17911875Y-12600000D02*
G75*
G03*
X17911875Y-12600000I-150000J0D01*
G01*
X17844000Y-8985750D02*
X18144000Y-9285750D01*
X18144000Y-8985750D02*
X17844000Y-9285750D01*
X18144000Y-9135750D02*
G75*
G03*
X18144000Y-9135750I-150000J0D01*
G01*
X17850000Y-10068750D02*
X18150000Y-10368750D01*
X18150000Y-10068750D02*
X17850000Y-10368750D01*
X18150000Y-10218750D02*
G75*
G03*
X18150000Y-10218750I-150000J0D01*
G01*
X18102500Y-6153750D02*
X18402500Y-6453750D01*
X18402500Y-6153750D02*
X18102500Y-6453750D01*
X18402500Y-6303750D02*
G75*
G03*
X18402500Y-6303750I-150000J0D01*
G01*
X18161500Y-5429750D02*
X18461500Y-5729750D01*
X18461500Y-5429750D02*
X18161500Y-5729750D01*
X18461500Y-5579750D02*
G75*
G03*
X18461500Y-5579750I-150000J0D01*
G01*
X18578750Y-8058750D02*
X18878750Y-8358750D01*
X18878750Y-8058750D02*
X18578750Y-8358750D01*
X18878750Y-8208750D02*
G75*
G03*
X18878750Y-8208750I-150000J0D01*
G01*
X18637750Y-7334750D02*
X18937750Y-7634750D01*
X18937750Y-7334750D02*
X18637750Y-7634750D01*
X18937750Y-7484750D02*
G75*
G03*
X18937750Y-7484750I-150000J0D01*
G01*
X18796500Y-5175750D02*
X19096500Y-5475750D01*
X19096500Y-5175750D02*
X18796500Y-5475750D01*
X19096500Y-5325750D02*
G75*
G03*
X19096500Y-5325750I-150000J0D01*
G01*
X18802500Y-6258750D02*
X19102500Y-6558750D01*
X19102500Y-6258750D02*
X18802500Y-6558750D01*
X19102500Y-6408750D02*
G75*
G03*
X19102500Y-6408750I-150000J0D01*
G01*
X19055000Y-3772500D02*
X19355000Y-4072500D01*
X19355000Y-3772500D02*
X19055000Y-4072500D01*
X19355000Y-3922500D02*
G75*
G03*
X19355000Y-3922500I-150000J0D01*
G01*
X19055000Y-9963750D02*
X19355000Y-10263750D01*
X19355000Y-9963750D02*
X19055000Y-10263750D01*
X19355000Y-10113750D02*
G75*
G03*
X19355000Y-10113750I-150000J0D01*
G01*
X19114000Y-3048500D02*
X19414000Y-3348500D01*
X19414000Y-3048500D02*
X19114000Y-3348500D01*
X19414000Y-3198500D02*
G75*
G03*
X19414000Y-3198500I-150000J0D01*
G01*
X19114000Y-9239750D02*
X19414000Y-9539750D01*
X19414000Y-9239750D02*
X19114000Y-9539750D01*
X19414000Y-9389750D02*
G75*
G03*
X19414000Y-9389750I-150000J0D01*
G01*
X19272750Y-7080750D02*
X19572750Y-7380750D01*
X19572750Y-7080750D02*
X19272750Y-7380750D01*
X19572750Y-7230750D02*
G75*
G03*
X19572750Y-7230750I-150000J0D01*
G01*
X19278750Y-8163750D02*
X19578750Y-8463750D01*
X19578750Y-8163750D02*
X19278750Y-8463750D01*
X19578750Y-8313750D02*
G75*
G03*
X19578750Y-8313750I-150000J0D01*
G01*
X19749000Y-2794500D02*
X20049000Y-3094500D01*
X20049000Y-2794500D02*
X19749000Y-3094500D01*
X20049000Y-2944500D02*
G75*
G03*
X20049000Y-2944500I-150000J0D01*
G01*
X19749000Y-8985750D02*
X20049000Y-9285750D01*
X20049000Y-8985750D02*
X19749000Y-9285750D01*
X20049000Y-9135750D02*
G75*
G03*
X20049000Y-9135750I-150000J0D01*
G01*
X19755000Y-3877500D02*
X20055000Y-4177500D01*
X20055000Y-3877500D02*
X19755000Y-4177500D01*
X20055000Y-4027500D02*
G75*
G03*
X20055000Y-4027500I-150000J0D01*
G01*
X19755000Y-10068750D02*
X20055000Y-10368750D01*
X20055000Y-10068750D02*
X19755000Y-10368750D01*
X20055000Y-10218750D02*
G75*
G03*
X20055000Y-10218750I-150000J0D01*
G01*
X20007500Y-6153750D02*
X20307500Y-6453750D01*
X20307500Y-6153750D02*
X20007500Y-6453750D01*
X20307500Y-6303750D02*
G75*
G03*
X20307500Y-6303750I-150000J0D01*
G01*
X20066500Y-5429750D02*
X20366500Y-5729750D01*
X20366500Y-5429750D02*
X20066500Y-5729750D01*
X20366500Y-5579750D02*
G75*
G03*
X20366500Y-5579750I-150000J0D01*
G01*
X20483750Y-8058750D02*
X20783750Y-8358750D01*
X20783750Y-8058750D02*
X20483750Y-8358750D01*
X20783750Y-8208750D02*
G75*
G03*
X20783750Y-8208750I-150000J0D01*
G01*
X20542750Y-7334750D02*
X20842750Y-7634750D01*
X20842750Y-7334750D02*
X20542750Y-7634750D01*
X20842750Y-7484750D02*
G75*
G03*
X20842750Y-7484750I-150000J0D01*
G01*
X20701500Y-5175750D02*
X21001500Y-5475750D01*
X21001500Y-5175750D02*
X20701500Y-5475750D01*
X21001500Y-5325750D02*
G75*
G03*
X21001500Y-5325750I-150000J0D01*
G01*
X20707500Y-6258750D02*
X21007500Y-6558750D01*
X21007500Y-6258750D02*
X20707500Y-6558750D01*
X21007500Y-6408750D02*
G75*
G03*
X21007500Y-6408750I-150000J0D01*
G01*
X20721875Y-11868750D02*
X21021875Y-12168750D01*
X21021875Y-11868750D02*
X20721875Y-12168750D01*
X21021875Y-12018750D02*
G75*
G03*
X21021875Y-12018750I-150000J0D01*
G01*
X20780875Y-11144750D02*
X21080875Y-11444750D01*
X21080875Y-11144750D02*
X20780875Y-11444750D01*
X21080875Y-11294750D02*
G75*
G03*
X21080875Y-11294750I-150000J0D01*
G01*
X20960000Y-3772500D02*
X21260000Y-4072500D01*
X21260000Y-3772500D02*
X20960000Y-4072500D01*
X21260000Y-3922500D02*
G75*
G03*
X21260000Y-3922500I-150000J0D01*
G01*
X20960000Y-9963750D02*
X21260000Y-10263750D01*
X21260000Y-9963750D02*
X20960000Y-10263750D01*
X21260000Y-10113750D02*
G75*
G03*
X21260000Y-10113750I-150000J0D01*
G01*
X21019000Y-3048500D02*
X21319000Y-3348500D01*
X21319000Y-3048500D02*
X21019000Y-3348500D01*
X21319000Y-3198500D02*
G75*
G03*
X21319000Y-3198500I-150000J0D01*
G01*
X21019000Y-9239750D02*
X21319000Y-9539750D01*
X21319000Y-9239750D02*
X21019000Y-9539750D01*
X21319000Y-9389750D02*
G75*
G03*
X21319000Y-9389750I-150000J0D01*
G01*
X21177750Y-7080750D02*
X21477750Y-7380750D01*
X21477750Y-7080750D02*
X21177750Y-7380750D01*
X21477750Y-7230750D02*
G75*
G03*
X21477750Y-7230750I-150000J0D01*
G01*
X21183750Y-8163750D02*
X21483750Y-8463750D01*
X21483750Y-8163750D02*
X21183750Y-8463750D01*
X21483750Y-8313750D02*
G75*
G03*
X21483750Y-8313750I-150000J0D01*
G01*
X21415875Y-10890750D02*
X21715875Y-11190750D01*
X21715875Y-10890750D02*
X21415875Y-11190750D01*
X21715875Y-11040750D02*
G75*
G03*
X21715875Y-11040750I-150000J0D01*
G01*
X21421875Y-11973750D02*
X21721875Y-12273750D01*
X21721875Y-11973750D02*
X21421875Y-12273750D01*
X21721875Y-12123750D02*
G75*
G03*
X21721875Y-12123750I-150000J0D01*
G01*
X21654000Y-2794500D02*
X21954000Y-3094500D01*
X21954000Y-2794500D02*
X21654000Y-3094500D01*
X21954000Y-2944500D02*
G75*
G03*
X21954000Y-2944500I-150000J0D01*
G01*
X21654000Y-8985750D02*
X21954000Y-9285750D01*
X21954000Y-8985750D02*
X21654000Y-9285750D01*
X21954000Y-9135750D02*
G75*
G03*
X21954000Y-9135750I-150000J0D01*
G01*
X21660000Y-3877500D02*
X21960000Y-4177500D01*
X21960000Y-3877500D02*
X21660000Y-4177500D01*
X21960000Y-4027500D02*
G75*
G03*
X21960000Y-4027500I-150000J0D01*
G01*
X21660000Y-10068750D02*
X21960000Y-10368750D01*
X21960000Y-10068750D02*
X21660000Y-10368750D01*
X21960000Y-10218750D02*
G75*
G03*
X21960000Y-10218750I-150000J0D01*
G01*
X21912500Y-6153750D02*
X22212500Y-6453750D01*
X22212500Y-6153750D02*
X21912500Y-6453750D01*
X22212500Y-6303750D02*
G75*
G03*
X22212500Y-6303750I-150000J0D01*
G01*
X21971500Y-5429750D02*
X22271500Y-5729750D01*
X22271500Y-5429750D02*
X21971500Y-5729750D01*
X22271500Y-5579750D02*
G75*
G03*
X22271500Y-5579750I-150000J0D01*
G01*
X22388750Y-8058750D02*
X22688750Y-8358750D01*
X22688750Y-8058750D02*
X22388750Y-8358750D01*
X22688750Y-8208750D02*
G75*
G03*
X22688750Y-8208750I-150000J0D01*
G01*
X22447750Y-7334750D02*
X22747750Y-7634750D01*
X22747750Y-7334750D02*
X22447750Y-7634750D01*
X22747750Y-7484750D02*
G75*
G03*
X22747750Y-7484750I-150000J0D01*
G01*
X22606500Y-5175750D02*
X22906500Y-5475750D01*
X22906500Y-5175750D02*
X22606500Y-5475750D01*
X22906500Y-5325750D02*
G75*
G03*
X22906500Y-5325750I-150000J0D01*
G01*
X22612500Y-6258750D02*
X22912500Y-6558750D01*
X22912500Y-6258750D02*
X22612500Y-6558750D01*
X22912500Y-6408750D02*
G75*
G03*
X22912500Y-6408750I-150000J0D01*
G01*
X22865000Y-3772500D02*
X23165000Y-4072500D01*
X23165000Y-3772500D02*
X22865000Y-4072500D01*
X23165000Y-3922500D02*
G75*
G03*
X23165000Y-3922500I-150000J0D01*
G01*
X22865000Y-9963750D02*
X23165000Y-10263750D01*
X23165000Y-9963750D02*
X22865000Y-10263750D01*
X23165000Y-10113750D02*
G75*
G03*
X23165000Y-10113750I-150000J0D01*
G01*
X22924000Y-3048500D02*
X23224000Y-3348500D01*
X23224000Y-3048500D02*
X22924000Y-3348500D01*
X23224000Y-3198500D02*
G75*
G03*
X23224000Y-3198500I-150000J0D01*
G01*
X22924000Y-9239750D02*
X23224000Y-9539750D01*
X23224000Y-9239750D02*
X22924000Y-9539750D01*
X23224000Y-9389750D02*
G75*
G03*
X23224000Y-9389750I-150000J0D01*
G01*
X23082750Y-7080750D02*
X23382750Y-7380750D01*
X23382750Y-7080750D02*
X23082750Y-7380750D01*
X23382750Y-7230750D02*
G75*
G03*
X23382750Y-7230750I-150000J0D01*
G01*
X23088750Y-8163750D02*
X23388750Y-8463750D01*
X23388750Y-8163750D02*
X23088750Y-8463750D01*
X23388750Y-8313750D02*
G75*
G03*
X23388750Y-8313750I-150000J0D01*
G01*
X23341250Y-12345000D02*
X23641250Y-12645000D01*
X23641250Y-12345000D02*
X23341250Y-12645000D01*
X23641250Y-12495000D02*
G75*
G03*
X23641250Y-12495000I-150000J0D01*
G01*
X23400250Y-11621000D02*
X23700250Y-11921000D01*
X23700250Y-11621000D02*
X23400250Y-11921000D01*
X23700250Y-11771000D02*
G75*
G03*
X23700250Y-11771000I-150000J0D01*
G01*
X23559000Y-2794500D02*
X23859000Y-3094500D01*
X23859000Y-2794500D02*
X23559000Y-3094500D01*
X23859000Y-2944500D02*
G75*
G03*
X23859000Y-2944500I-150000J0D01*
G01*
X23559000Y-8985750D02*
X23859000Y-9285750D01*
X23859000Y-8985750D02*
X23559000Y-9285750D01*
X23859000Y-9135750D02*
G75*
G03*
X23859000Y-9135750I-150000J0D01*
G01*
X23565000Y-3877500D02*
X23865000Y-4177500D01*
X23865000Y-3877500D02*
X23565000Y-4177500D01*
X23865000Y-4027500D02*
G75*
G03*
X23865000Y-4027500I-150000J0D01*
G01*
X23565000Y-10068750D02*
X23865000Y-10368750D01*
X23865000Y-10068750D02*
X23565000Y-10368750D01*
X23865000Y-10218750D02*
G75*
G03*
X23865000Y-10218750I-150000J0D01*
G01*
X24035250Y-11367000D02*
X24335250Y-11667000D01*
X24335250Y-11367000D02*
X24035250Y-11667000D01*
X24335250Y-11517000D02*
G75*
G03*
X24335250Y-11517000I-150000J0D01*
G01*
X24041250Y-12450000D02*
X24341250Y-12750000D01*
X24341250Y-12450000D02*
X24041250Y-12750000D01*
X24341250Y-12600000D02*
G75*
G03*
X24341250Y-12600000I-150000J0D01*
G01*
X24531875Y-7106250D02*
X24831875Y-7406250D01*
X24831875Y-7106250D02*
X24531875Y-7406250D01*
X24831875Y-7256250D02*
G75*
G03*
X24831875Y-7256250I-150000J0D01*
G01*
X24590875Y-6382250D02*
X24890875Y-6682250D01*
X24890875Y-6382250D02*
X24590875Y-6682250D01*
X24890875Y-6532250D02*
G75*
G03*
X24890875Y-6532250I-150000J0D01*
G01*
X25225875Y-6128250D02*
X25525875Y-6428250D01*
X25525875Y-6128250D02*
X25225875Y-6428250D01*
X25525875Y-6278250D02*
G75*
G03*
X25525875Y-6278250I-150000J0D01*
G01*
X25231875Y-7211250D02*
X25531875Y-7511250D01*
X25531875Y-7211250D02*
X25231875Y-7511250D01*
X25531875Y-7361250D02*
G75*
G03*
X25531875Y-7361250I-150000J0D01*
G01*
X25246250Y-10440000D02*
X25546250Y-10740000D01*
X25546250Y-10440000D02*
X25246250Y-10740000D01*
X25546250Y-10590000D02*
G75*
G03*
X25546250Y-10590000I-150000J0D01*
G01*
X25246250Y-12345000D02*
X25546250Y-12645000D01*
X25546250Y-12345000D02*
X25246250Y-12645000D01*
X25546250Y-12495000D02*
G75*
G03*
X25546250Y-12495000I-150000J0D01*
G01*
X25305250Y-9716000D02*
X25605250Y-10016000D01*
X25605250Y-9716000D02*
X25305250Y-10016000D01*
X25605250Y-9866000D02*
G75*
G03*
X25605250Y-9866000I-150000J0D01*
G01*
X25305250Y-11621000D02*
X25605250Y-11921000D01*
X25605250Y-11621000D02*
X25305250Y-11921000D01*
X25605250Y-11771000D02*
G75*
G03*
X25605250Y-11771000I-150000J0D01*
G01*
X25940250Y-9462000D02*
X26240250Y-9762000D01*
X26240250Y-9462000D02*
X25940250Y-9762000D01*
X26240250Y-9612000D02*
G75*
G03*
X26240250Y-9612000I-150000J0D01*
G01*
X25940250Y-11367000D02*
X26240250Y-11667000D01*
X26240250Y-11367000D02*
X25940250Y-11667000D01*
X26240250Y-11517000D02*
G75*
G03*
X26240250Y-11517000I-150000J0D01*
G01*
X25946250Y-10545000D02*
X26246250Y-10845000D01*
X26246250Y-10545000D02*
X25946250Y-10845000D01*
X26246250Y-10695000D02*
G75*
G03*
X26246250Y-10695000I-150000J0D01*
G01*
X25946250Y-12450000D02*
X26246250Y-12750000D01*
X26246250Y-12450000D02*
X25946250Y-12750000D01*
X26246250Y-12600000D02*
G75*
G03*
X26246250Y-12600000I-150000J0D01*
G01*
X27151250Y-6153750D02*
X27451250Y-6453750D01*
X27451250Y-6153750D02*
X27151250Y-6453750D01*
X27451250Y-6303750D02*
G75*
G03*
X27451250Y-6303750I-150000J0D01*
G01*
X27151250Y-8058750D02*
X27451250Y-8358750D01*
X27451250Y-8058750D02*
X27151250Y-8358750D01*
X27451250Y-8208750D02*
G75*
G03*
X27451250Y-8208750I-150000J0D01*
G01*
X27151250Y-12345000D02*
X27451250Y-12645000D01*
X27451250Y-12345000D02*
X27151250Y-12645000D01*
X27451250Y-12495000D02*
G75*
G03*
X27451250Y-12495000I-150000J0D01*
G01*
X27210250Y-5429750D02*
X27510250Y-5729750D01*
X27510250Y-5429750D02*
X27210250Y-5729750D01*
X27510250Y-5579750D02*
G75*
G03*
X27510250Y-5579750I-150000J0D01*
G01*
X27210250Y-7334750D02*
X27510250Y-7634750D01*
X27510250Y-7334750D02*
X27210250Y-7634750D01*
X27510250Y-7484750D02*
G75*
G03*
X27510250Y-7484750I-150000J0D01*
G01*
X27210250Y-11621000D02*
X27510250Y-11921000D01*
X27510250Y-11621000D02*
X27210250Y-11921000D01*
X27510250Y-11771000D02*
G75*
G03*
X27510250Y-11771000I-150000J0D01*
G01*
X27845250Y-5175750D02*
X28145250Y-5475750D01*
X28145250Y-5175750D02*
X27845250Y-5475750D01*
X28145250Y-5325750D02*
G75*
G03*
X28145250Y-5325750I-150000J0D01*
G01*
X27845250Y-7080750D02*
X28145250Y-7380750D01*
X28145250Y-7080750D02*
X27845250Y-7380750D01*
X28145250Y-7230750D02*
G75*
G03*
X28145250Y-7230750I-150000J0D01*
G01*
X27845250Y-11367000D02*
X28145250Y-11667000D01*
X28145250Y-11367000D02*
X27845250Y-11667000D01*
X28145250Y-11517000D02*
G75*
G03*
X28145250Y-11517000I-150000J0D01*
G01*
X27851250Y-6258750D02*
X28151250Y-6558750D01*
X28151250Y-6258750D02*
X27851250Y-6558750D01*
X28151250Y-6408750D02*
G75*
G03*
X28151250Y-6408750I-150000J0D01*
G01*
X27851250Y-8163750D02*
X28151250Y-8463750D01*
X28151250Y-8163750D02*
X27851250Y-8463750D01*
X28151250Y-8313750D02*
G75*
G03*
X28151250Y-8313750I-150000J0D01*
G01*
X27851250Y-12450000D02*
X28151250Y-12750000D01*
X28151250Y-12450000D02*
X27851250Y-12750000D01*
X28151250Y-12600000D02*
G75*
G03*
X28151250Y-12600000I-150000J0D01*
G01*
D11*
X2055777Y-13993984D02*
X2055777Y-13793984D01*
X2055777Y-13793984D02*
X2103396Y-13793984D01*
X2103396Y-13793984D02*
X2131967Y-13803508D01*
X2131967Y-13803508D02*
X2151015Y-13822555D01*
X2151015Y-13822555D02*
X2160539Y-13841603D01*
X2160539Y-13841603D02*
X2170063Y-13879698D01*
X2170063Y-13879698D02*
X2170063Y-13908269D01*
X2170063Y-13908269D02*
X2160539Y-13946365D01*
X2160539Y-13946365D02*
X2151015Y-13965412D01*
X2151015Y-13965412D02*
X2131967Y-13984460D01*
X2131967Y-13984460D02*
X2103396Y-13993984D01*
X2103396Y-13993984D02*
X2055777Y-13993984D01*
X2255777Y-13993984D02*
X2255777Y-13860650D01*
X2255777Y-13898746D02*
X2265301Y-13879698D01*
X2265301Y-13879698D02*
X2274824Y-13870174D01*
X2274824Y-13870174D02*
X2293872Y-13860650D01*
X2293872Y-13860650D02*
X2312920Y-13860650D01*
X2379586Y-13993984D02*
X2379586Y-13860650D01*
X2379586Y-13793984D02*
X2370063Y-13803508D01*
X2370063Y-13803508D02*
X2379586Y-13813031D01*
X2379586Y-13813031D02*
X2389110Y-13803508D01*
X2389110Y-13803508D02*
X2379586Y-13793984D01*
X2379586Y-13793984D02*
X2379586Y-13813031D01*
X2503396Y-13993984D02*
X2484348Y-13984460D01*
X2484348Y-13984460D02*
X2474824Y-13965412D01*
X2474824Y-13965412D02*
X2474824Y-13793984D01*
X2608158Y-13993984D02*
X2589110Y-13984460D01*
X2589110Y-13984460D02*
X2579586Y-13965412D01*
X2579586Y-13965412D02*
X2579586Y-13793984D01*
X2836729Y-13993984D02*
X2836729Y-13793984D01*
X2836729Y-13793984D02*
X2903396Y-13936841D01*
X2903396Y-13936841D02*
X2970062Y-13793984D01*
X2970062Y-13793984D02*
X2970062Y-13993984D01*
X3151015Y-13993984D02*
X3151015Y-13889222D01*
X3151015Y-13889222D02*
X3141491Y-13870174D01*
X3141491Y-13870174D02*
X3122443Y-13860650D01*
X3122443Y-13860650D02*
X3084348Y-13860650D01*
X3084348Y-13860650D02*
X3065301Y-13870174D01*
X3151015Y-13984460D02*
X3131967Y-13993984D01*
X3131967Y-13993984D02*
X3084348Y-13993984D01*
X3084348Y-13993984D02*
X3065301Y-13984460D01*
X3065301Y-13984460D02*
X3055777Y-13965412D01*
X3055777Y-13965412D02*
X3055777Y-13946365D01*
X3055777Y-13946365D02*
X3065301Y-13927317D01*
X3065301Y-13927317D02*
X3084348Y-13917793D01*
X3084348Y-13917793D02*
X3131967Y-13917793D01*
X3131967Y-13917793D02*
X3151015Y-13908269D01*
X3246253Y-13860650D02*
X3246253Y-14060650D01*
X3246253Y-13870174D02*
X3265301Y-13860650D01*
X3265301Y-13860650D02*
X3303396Y-13860650D01*
X3303396Y-13860650D02*
X3322443Y-13870174D01*
X3322443Y-13870174D02*
X3331967Y-13879698D01*
X3331967Y-13879698D02*
X3341491Y-13898746D01*
X3341491Y-13898746D02*
X3341491Y-13955888D01*
X3341491Y-13955888D02*
X3331967Y-13974936D01*
X3331967Y-13974936D02*
X3322443Y-13984460D01*
X3322443Y-13984460D02*
X3303396Y-13993984D01*
X3303396Y-13993984D02*
X3265301Y-13993984D01*
X3265301Y-13993984D02*
X3246253Y-13984460D01*
X3427205Y-13974936D02*
X3436729Y-13984460D01*
X3436729Y-13984460D02*
X3427205Y-13993984D01*
X3427205Y-13993984D02*
X3417682Y-13984460D01*
X3417682Y-13984460D02*
X3427205Y-13974936D01*
X3427205Y-13974936D02*
X3427205Y-13993984D01*
X3427205Y-13870174D02*
X3436729Y-13879698D01*
X3436729Y-13879698D02*
X3427205Y-13889222D01*
X3427205Y-13889222D02*
X3417682Y-13879698D01*
X3417682Y-13879698D02*
X3427205Y-13870174D01*
X3427205Y-13870174D02*
X3427205Y-13889222D01*
D12*
X1755000Y-14302500D02*
X1795000Y-14342500D01*
X1795000Y-14302500D02*
X1755000Y-14342500D01*
D11*
X2093872Y-14213984D02*
X2112920Y-14213984D01*
X2112920Y-14213984D02*
X2131967Y-14223508D01*
X2131967Y-14223508D02*
X2141491Y-14233031D01*
X2141491Y-14233031D02*
X2151015Y-14252079D01*
X2151015Y-14252079D02*
X2160539Y-14290174D01*
X2160539Y-14290174D02*
X2160539Y-14337793D01*
X2160539Y-14337793D02*
X2151015Y-14375888D01*
X2151015Y-14375888D02*
X2141491Y-14394936D01*
X2141491Y-14394936D02*
X2131967Y-14404460D01*
X2131967Y-14404460D02*
X2112920Y-14413984D01*
X2112920Y-14413984D02*
X2093872Y-14413984D01*
X2093872Y-14413984D02*
X2074824Y-14404460D01*
X2074824Y-14404460D02*
X2065301Y-14394936D01*
X2065301Y-14394936D02*
X2055777Y-14375888D01*
X2055777Y-14375888D02*
X2046253Y-14337793D01*
X2046253Y-14337793D02*
X2046253Y-14290174D01*
X2046253Y-14290174D02*
X2055777Y-14252079D01*
X2055777Y-14252079D02*
X2065301Y-14233031D01*
X2065301Y-14233031D02*
X2074824Y-14223508D01*
X2074824Y-14223508D02*
X2093872Y-14213984D01*
X2246253Y-14394936D02*
X2255777Y-14404460D01*
X2255777Y-14404460D02*
X2246253Y-14413984D01*
X2246253Y-14413984D02*
X2236729Y-14404460D01*
X2236729Y-14404460D02*
X2246253Y-14394936D01*
X2246253Y-14394936D02*
X2246253Y-14413984D01*
X2427205Y-14280650D02*
X2427205Y-14413984D01*
X2379586Y-14204460D02*
X2331967Y-14347317D01*
X2331967Y-14347317D02*
X2455777Y-14347317D01*
X2570063Y-14213984D02*
X2589110Y-14213984D01*
X2589110Y-14213984D02*
X2608158Y-14223508D01*
X2608158Y-14223508D02*
X2617682Y-14233031D01*
X2617682Y-14233031D02*
X2627205Y-14252079D01*
X2627205Y-14252079D02*
X2636729Y-14290174D01*
X2636729Y-14290174D02*
X2636729Y-14337793D01*
X2636729Y-14337793D02*
X2627205Y-14375888D01*
X2627205Y-14375888D02*
X2617682Y-14394936D01*
X2617682Y-14394936D02*
X2608158Y-14404460D01*
X2608158Y-14404460D02*
X2589110Y-14413984D01*
X2589110Y-14413984D02*
X2570063Y-14413984D01*
X2570063Y-14413984D02*
X2551015Y-14404460D01*
X2551015Y-14404460D02*
X2541491Y-14394936D01*
X2541491Y-14394936D02*
X2531967Y-14375888D01*
X2531967Y-14375888D02*
X2522444Y-14337793D01*
X2522444Y-14337793D02*
X2522444Y-14290174D01*
X2522444Y-14290174D02*
X2531967Y-14252079D01*
X2531967Y-14252079D02*
X2541491Y-14233031D01*
X2541491Y-14233031D02*
X2551015Y-14223508D01*
X2551015Y-14223508D02*
X2570063Y-14213984D01*
X2760539Y-14213984D02*
X2779586Y-14213984D01*
X2779586Y-14213984D02*
X2798634Y-14223508D01*
X2798634Y-14223508D02*
X2808158Y-14233031D01*
X2808158Y-14233031D02*
X2817682Y-14252079D01*
X2817682Y-14252079D02*
X2827205Y-14290174D01*
X2827205Y-14290174D02*
X2827205Y-14337793D01*
X2827205Y-14337793D02*
X2817682Y-14375888D01*
X2817682Y-14375888D02*
X2808158Y-14394936D01*
X2808158Y-14394936D02*
X2798634Y-14404460D01*
X2798634Y-14404460D02*
X2779586Y-14413984D01*
X2779586Y-14413984D02*
X2760539Y-14413984D01*
X2760539Y-14413984D02*
X2741491Y-14404460D01*
X2741491Y-14404460D02*
X2731967Y-14394936D01*
X2731967Y-14394936D02*
X2722444Y-14375888D01*
X2722444Y-14375888D02*
X2712920Y-14337793D01*
X2712920Y-14337793D02*
X2712920Y-14290174D01*
X2712920Y-14290174D02*
X2722444Y-14252079D01*
X2722444Y-14252079D02*
X2731967Y-14233031D01*
X2731967Y-14233031D02*
X2741491Y-14223508D01*
X2741491Y-14223508D02*
X2760539Y-14213984D01*
X2912920Y-14413984D02*
X2912920Y-14280650D01*
X2912920Y-14299698D02*
X2922443Y-14290174D01*
X2922443Y-14290174D02*
X2941491Y-14280650D01*
X2941491Y-14280650D02*
X2970063Y-14280650D01*
X2970063Y-14280650D02*
X2989110Y-14290174D01*
X2989110Y-14290174D02*
X2998634Y-14309222D01*
X2998634Y-14309222D02*
X2998634Y-14413984D01*
X2998634Y-14309222D02*
X3008158Y-14290174D01*
X3008158Y-14290174D02*
X3027205Y-14280650D01*
X3027205Y-14280650D02*
X3055777Y-14280650D01*
X3055777Y-14280650D02*
X3074824Y-14290174D01*
X3074824Y-14290174D02*
X3084348Y-14309222D01*
X3084348Y-14309222D02*
X3084348Y-14413984D01*
X3179586Y-14413984D02*
X3179586Y-14280650D01*
X3179586Y-14299698D02*
X3189110Y-14290174D01*
X3189110Y-14290174D02*
X3208158Y-14280650D01*
X3208158Y-14280650D02*
X3236729Y-14280650D01*
X3236729Y-14280650D02*
X3255777Y-14290174D01*
X3255777Y-14290174D02*
X3265301Y-14309222D01*
X3265301Y-14309222D02*
X3265301Y-14413984D01*
X3265301Y-14309222D02*
X3274824Y-14290174D01*
X3274824Y-14290174D02*
X3293872Y-14280650D01*
X3293872Y-14280650D02*
X3322443Y-14280650D01*
X3322443Y-14280650D02*
X3341491Y-14290174D01*
X3341491Y-14290174D02*
X3351015Y-14309222D01*
X3351015Y-14309222D02*
X3351015Y-14413984D01*
X3741491Y-14204460D02*
X3570063Y-14461603D01*
X3998634Y-14213984D02*
X4017682Y-14213984D01*
X4017682Y-14213984D02*
X4036729Y-14223508D01*
X4036729Y-14223508D02*
X4046253Y-14233031D01*
X4046253Y-14233031D02*
X4055777Y-14252079D01*
X4055777Y-14252079D02*
X4065301Y-14290174D01*
X4065301Y-14290174D02*
X4065301Y-14337793D01*
X4065301Y-14337793D02*
X4055777Y-14375888D01*
X4055777Y-14375888D02*
X4046253Y-14394936D01*
X4046253Y-14394936D02*
X4036729Y-14404460D01*
X4036729Y-14404460D02*
X4017682Y-14413984D01*
X4017682Y-14413984D02*
X3998634Y-14413984D01*
X3998634Y-14413984D02*
X3979586Y-14404460D01*
X3979586Y-14404460D02*
X3970063Y-14394936D01*
X3970063Y-14394936D02*
X3960539Y-14375888D01*
X3960539Y-14375888D02*
X3951015Y-14337793D01*
X3951015Y-14337793D02*
X3951015Y-14290174D01*
X3951015Y-14290174D02*
X3960539Y-14252079D01*
X3960539Y-14252079D02*
X3970063Y-14233031D01*
X3970063Y-14233031D02*
X3979586Y-14223508D01*
X3979586Y-14223508D02*
X3998634Y-14213984D01*
X4151015Y-14394936D02*
X4160539Y-14404460D01*
X4160539Y-14404460D02*
X4151015Y-14413984D01*
X4151015Y-14413984D02*
X4141491Y-14404460D01*
X4141491Y-14404460D02*
X4151015Y-14394936D01*
X4151015Y-14394936D02*
X4151015Y-14413984D01*
X4284348Y-14213984D02*
X4303396Y-14213984D01*
X4303396Y-14213984D02*
X4322444Y-14223508D01*
X4322444Y-14223508D02*
X4331968Y-14233031D01*
X4331968Y-14233031D02*
X4341491Y-14252079D01*
X4341491Y-14252079D02*
X4351015Y-14290174D01*
X4351015Y-14290174D02*
X4351015Y-14337793D01*
X4351015Y-14337793D02*
X4341491Y-14375888D01*
X4341491Y-14375888D02*
X4331968Y-14394936D01*
X4331968Y-14394936D02*
X4322444Y-14404460D01*
X4322444Y-14404460D02*
X4303396Y-14413984D01*
X4303396Y-14413984D02*
X4284348Y-14413984D01*
X4284348Y-14413984D02*
X4265301Y-14404460D01*
X4265301Y-14404460D02*
X4255777Y-14394936D01*
X4255777Y-14394936D02*
X4246253Y-14375888D01*
X4246253Y-14375888D02*
X4236729Y-14337793D01*
X4236729Y-14337793D02*
X4236729Y-14290174D01*
X4236729Y-14290174D02*
X4246253Y-14252079D01*
X4246253Y-14252079D02*
X4255777Y-14233031D01*
X4255777Y-14233031D02*
X4265301Y-14223508D01*
X4265301Y-14223508D02*
X4284348Y-14213984D01*
X4541491Y-14413984D02*
X4427206Y-14413984D01*
X4484348Y-14413984D02*
X4484348Y-14213984D01*
X4484348Y-14213984D02*
X4465301Y-14242555D01*
X4465301Y-14242555D02*
X4446253Y-14261603D01*
X4446253Y-14261603D02*
X4427206Y-14271127D01*
X4722444Y-14213984D02*
X4627206Y-14213984D01*
X4627206Y-14213984D02*
X4617682Y-14309222D01*
X4617682Y-14309222D02*
X4627206Y-14299698D01*
X4627206Y-14299698D02*
X4646253Y-14290174D01*
X4646253Y-14290174D02*
X4693872Y-14290174D01*
X4693872Y-14290174D02*
X4712920Y-14299698D01*
X4712920Y-14299698D02*
X4722444Y-14309222D01*
X4722444Y-14309222D02*
X4731968Y-14328269D01*
X4731968Y-14328269D02*
X4731968Y-14375888D01*
X4731968Y-14375888D02*
X4722444Y-14394936D01*
X4722444Y-14394936D02*
X4712920Y-14404460D01*
X4712920Y-14404460D02*
X4693872Y-14413984D01*
X4693872Y-14413984D02*
X4646253Y-14413984D01*
X4646253Y-14413984D02*
X4627206Y-14404460D01*
X4627206Y-14404460D02*
X4617682Y-14394936D01*
X4798634Y-14213984D02*
X4931968Y-14213984D01*
X4931968Y-14213984D02*
X4846253Y-14413984D01*
X4998634Y-14213984D02*
X4998634Y-14252079D01*
X5074825Y-14213984D02*
X5074825Y-14252079D01*
X5370063Y-14490174D02*
X5360539Y-14480650D01*
X5360539Y-14480650D02*
X5341491Y-14452079D01*
X5341491Y-14452079D02*
X5331968Y-14433031D01*
X5331968Y-14433031D02*
X5322444Y-14404460D01*
X5322444Y-14404460D02*
X5312920Y-14356841D01*
X5312920Y-14356841D02*
X5312920Y-14318746D01*
X5312920Y-14318746D02*
X5322444Y-14271127D01*
X5322444Y-14271127D02*
X5331968Y-14242555D01*
X5331968Y-14242555D02*
X5341491Y-14223508D01*
X5341491Y-14223508D02*
X5360539Y-14194936D01*
X5360539Y-14194936D02*
X5370063Y-14185412D01*
X5551015Y-14413984D02*
X5436730Y-14413984D01*
X5493872Y-14413984D02*
X5493872Y-14213984D01*
X5493872Y-14213984D02*
X5474825Y-14242555D01*
X5474825Y-14242555D02*
X5455777Y-14261603D01*
X5455777Y-14261603D02*
X5436730Y-14271127D01*
X5627206Y-14233031D02*
X5636729Y-14223508D01*
X5636729Y-14223508D02*
X5655777Y-14213984D01*
X5655777Y-14213984D02*
X5703396Y-14213984D01*
X5703396Y-14213984D02*
X5722444Y-14223508D01*
X5722444Y-14223508D02*
X5731968Y-14233031D01*
X5731968Y-14233031D02*
X5741491Y-14252079D01*
X5741491Y-14252079D02*
X5741491Y-14271127D01*
X5741491Y-14271127D02*
X5731968Y-14299698D01*
X5731968Y-14299698D02*
X5617682Y-14413984D01*
X5617682Y-14413984D02*
X5741491Y-14413984D01*
X5979587Y-14413984D02*
X5979587Y-14213984D01*
X6065301Y-14413984D02*
X6065301Y-14309222D01*
X6065301Y-14309222D02*
X6055777Y-14290174D01*
X6055777Y-14290174D02*
X6036730Y-14280650D01*
X6036730Y-14280650D02*
X6008158Y-14280650D01*
X6008158Y-14280650D02*
X5989110Y-14290174D01*
X5989110Y-14290174D02*
X5979587Y-14299698D01*
X6189110Y-14413984D02*
X6170063Y-14404460D01*
X6170063Y-14404460D02*
X6160539Y-14394936D01*
X6160539Y-14394936D02*
X6151015Y-14375888D01*
X6151015Y-14375888D02*
X6151015Y-14318746D01*
X6151015Y-14318746D02*
X6160539Y-14299698D01*
X6160539Y-14299698D02*
X6170063Y-14290174D01*
X6170063Y-14290174D02*
X6189110Y-14280650D01*
X6189110Y-14280650D02*
X6217682Y-14280650D01*
X6217682Y-14280650D02*
X6236730Y-14290174D01*
X6236730Y-14290174D02*
X6246253Y-14299698D01*
X6246253Y-14299698D02*
X6255777Y-14318746D01*
X6255777Y-14318746D02*
X6255777Y-14375888D01*
X6255777Y-14375888D02*
X6246253Y-14394936D01*
X6246253Y-14394936D02*
X6236730Y-14404460D01*
X6236730Y-14404460D02*
X6217682Y-14413984D01*
X6217682Y-14413984D02*
X6189110Y-14413984D01*
X6370063Y-14413984D02*
X6351015Y-14404460D01*
X6351015Y-14404460D02*
X6341491Y-14385412D01*
X6341491Y-14385412D02*
X6341491Y-14213984D01*
X6522444Y-14404460D02*
X6503396Y-14413984D01*
X6503396Y-14413984D02*
X6465301Y-14413984D01*
X6465301Y-14413984D02*
X6446253Y-14404460D01*
X6446253Y-14404460D02*
X6436730Y-14385412D01*
X6436730Y-14385412D02*
X6436730Y-14309222D01*
X6436730Y-14309222D02*
X6446253Y-14290174D01*
X6446253Y-14290174D02*
X6465301Y-14280650D01*
X6465301Y-14280650D02*
X6503396Y-14280650D01*
X6503396Y-14280650D02*
X6522444Y-14290174D01*
X6522444Y-14290174D02*
X6531968Y-14309222D01*
X6531968Y-14309222D02*
X6531968Y-14328269D01*
X6531968Y-14328269D02*
X6436730Y-14347317D01*
X6608158Y-14404460D02*
X6627206Y-14413984D01*
X6627206Y-14413984D02*
X6665301Y-14413984D01*
X6665301Y-14413984D02*
X6684349Y-14404460D01*
X6684349Y-14404460D02*
X6693872Y-14385412D01*
X6693872Y-14385412D02*
X6693872Y-14375888D01*
X6693872Y-14375888D02*
X6684349Y-14356841D01*
X6684349Y-14356841D02*
X6665301Y-14347317D01*
X6665301Y-14347317D02*
X6636730Y-14347317D01*
X6636730Y-14347317D02*
X6617682Y-14337793D01*
X6617682Y-14337793D02*
X6608158Y-14318746D01*
X6608158Y-14318746D02*
X6608158Y-14309222D01*
X6608158Y-14309222D02*
X6617682Y-14290174D01*
X6617682Y-14290174D02*
X6636730Y-14280650D01*
X6636730Y-14280650D02*
X6665301Y-14280650D01*
X6665301Y-14280650D02*
X6684349Y-14290174D01*
X6760539Y-14490174D02*
X6770063Y-14480650D01*
X6770063Y-14480650D02*
X6789111Y-14452079D01*
X6789111Y-14452079D02*
X6798634Y-14433031D01*
X6798634Y-14433031D02*
X6808158Y-14404460D01*
X6808158Y-14404460D02*
X6817682Y-14356841D01*
X6817682Y-14356841D02*
X6817682Y-14318746D01*
X6817682Y-14318746D02*
X6808158Y-14271127D01*
X6808158Y-14271127D02*
X6798634Y-14242555D01*
X6798634Y-14242555D02*
X6789111Y-14223508D01*
X6789111Y-14223508D02*
X6770063Y-14194936D01*
X6770063Y-14194936D02*
X6760539Y-14185412D01*
D13*
X1795000Y-14586500D02*
G75*
G03*
X1795000Y-14586500I-37500J0D01*
G01*
D11*
X2093872Y-14477984D02*
X2112920Y-14477984D01*
X2112920Y-14477984D02*
X2131967Y-14487508D01*
X2131967Y-14487508D02*
X2141491Y-14497031D01*
X2141491Y-14497031D02*
X2151015Y-14516079D01*
X2151015Y-14516079D02*
X2160539Y-14554174D01*
X2160539Y-14554174D02*
X2160539Y-14601793D01*
X2160539Y-14601793D02*
X2151015Y-14639888D01*
X2151015Y-14639888D02*
X2141491Y-14658936D01*
X2141491Y-14658936D02*
X2131967Y-14668460D01*
X2131967Y-14668460D02*
X2112920Y-14677984D01*
X2112920Y-14677984D02*
X2093872Y-14677984D01*
X2093872Y-14677984D02*
X2074824Y-14668460D01*
X2074824Y-14668460D02*
X2065301Y-14658936D01*
X2065301Y-14658936D02*
X2055777Y-14639888D01*
X2055777Y-14639888D02*
X2046253Y-14601793D01*
X2046253Y-14601793D02*
X2046253Y-14554174D01*
X2046253Y-14554174D02*
X2055777Y-14516079D01*
X2055777Y-14516079D02*
X2065301Y-14497031D01*
X2065301Y-14497031D02*
X2074824Y-14487508D01*
X2074824Y-14487508D02*
X2093872Y-14477984D01*
X2246253Y-14658936D02*
X2255777Y-14668460D01*
X2255777Y-14668460D02*
X2246253Y-14677984D01*
X2246253Y-14677984D02*
X2236729Y-14668460D01*
X2236729Y-14668460D02*
X2246253Y-14658936D01*
X2246253Y-14658936D02*
X2246253Y-14677984D01*
X2322444Y-14477984D02*
X2455777Y-14477984D01*
X2455777Y-14477984D02*
X2370063Y-14677984D01*
X2627205Y-14477984D02*
X2531967Y-14477984D01*
X2531967Y-14477984D02*
X2522444Y-14573222D01*
X2522444Y-14573222D02*
X2531967Y-14563698D01*
X2531967Y-14563698D02*
X2551015Y-14554174D01*
X2551015Y-14554174D02*
X2598634Y-14554174D01*
X2598634Y-14554174D02*
X2617682Y-14563698D01*
X2617682Y-14563698D02*
X2627205Y-14573222D01*
X2627205Y-14573222D02*
X2636729Y-14592269D01*
X2636729Y-14592269D02*
X2636729Y-14639888D01*
X2636729Y-14639888D02*
X2627205Y-14658936D01*
X2627205Y-14658936D02*
X2617682Y-14668460D01*
X2617682Y-14668460D02*
X2598634Y-14677984D01*
X2598634Y-14677984D02*
X2551015Y-14677984D01*
X2551015Y-14677984D02*
X2531967Y-14668460D01*
X2531967Y-14668460D02*
X2522444Y-14658936D01*
X2760539Y-14477984D02*
X2779586Y-14477984D01*
X2779586Y-14477984D02*
X2798634Y-14487508D01*
X2798634Y-14487508D02*
X2808158Y-14497031D01*
X2808158Y-14497031D02*
X2817682Y-14516079D01*
X2817682Y-14516079D02*
X2827205Y-14554174D01*
X2827205Y-14554174D02*
X2827205Y-14601793D01*
X2827205Y-14601793D02*
X2817682Y-14639888D01*
X2817682Y-14639888D02*
X2808158Y-14658936D01*
X2808158Y-14658936D02*
X2798634Y-14668460D01*
X2798634Y-14668460D02*
X2779586Y-14677984D01*
X2779586Y-14677984D02*
X2760539Y-14677984D01*
X2760539Y-14677984D02*
X2741491Y-14668460D01*
X2741491Y-14668460D02*
X2731967Y-14658936D01*
X2731967Y-14658936D02*
X2722444Y-14639888D01*
X2722444Y-14639888D02*
X2712920Y-14601793D01*
X2712920Y-14601793D02*
X2712920Y-14554174D01*
X2712920Y-14554174D02*
X2722444Y-14516079D01*
X2722444Y-14516079D02*
X2731967Y-14497031D01*
X2731967Y-14497031D02*
X2741491Y-14487508D01*
X2741491Y-14487508D02*
X2760539Y-14477984D01*
X2912920Y-14677984D02*
X2912920Y-14544650D01*
X2912920Y-14563698D02*
X2922443Y-14554174D01*
X2922443Y-14554174D02*
X2941491Y-14544650D01*
X2941491Y-14544650D02*
X2970063Y-14544650D01*
X2970063Y-14544650D02*
X2989110Y-14554174D01*
X2989110Y-14554174D02*
X2998634Y-14573222D01*
X2998634Y-14573222D02*
X2998634Y-14677984D01*
X2998634Y-14573222D02*
X3008158Y-14554174D01*
X3008158Y-14554174D02*
X3027205Y-14544650D01*
X3027205Y-14544650D02*
X3055777Y-14544650D01*
X3055777Y-14544650D02*
X3074824Y-14554174D01*
X3074824Y-14554174D02*
X3084348Y-14573222D01*
X3084348Y-14573222D02*
X3084348Y-14677984D01*
X3179586Y-14677984D02*
X3179586Y-14544650D01*
X3179586Y-14563698D02*
X3189110Y-14554174D01*
X3189110Y-14554174D02*
X3208158Y-14544650D01*
X3208158Y-14544650D02*
X3236729Y-14544650D01*
X3236729Y-14544650D02*
X3255777Y-14554174D01*
X3255777Y-14554174D02*
X3265301Y-14573222D01*
X3265301Y-14573222D02*
X3265301Y-14677984D01*
X3265301Y-14573222D02*
X3274824Y-14554174D01*
X3274824Y-14554174D02*
X3293872Y-14544650D01*
X3293872Y-14544650D02*
X3322443Y-14544650D01*
X3322443Y-14544650D02*
X3341491Y-14554174D01*
X3341491Y-14554174D02*
X3351015Y-14573222D01*
X3351015Y-14573222D02*
X3351015Y-14677984D01*
X3741491Y-14468460D02*
X3570063Y-14725603D01*
X3998634Y-14477984D02*
X4017682Y-14477984D01*
X4017682Y-14477984D02*
X4036729Y-14487508D01*
X4036729Y-14487508D02*
X4046253Y-14497031D01*
X4046253Y-14497031D02*
X4055777Y-14516079D01*
X4055777Y-14516079D02*
X4065301Y-14554174D01*
X4065301Y-14554174D02*
X4065301Y-14601793D01*
X4065301Y-14601793D02*
X4055777Y-14639888D01*
X4055777Y-14639888D02*
X4046253Y-14658936D01*
X4046253Y-14658936D02*
X4036729Y-14668460D01*
X4036729Y-14668460D02*
X4017682Y-14677984D01*
X4017682Y-14677984D02*
X3998634Y-14677984D01*
X3998634Y-14677984D02*
X3979586Y-14668460D01*
X3979586Y-14668460D02*
X3970063Y-14658936D01*
X3970063Y-14658936D02*
X3960539Y-14639888D01*
X3960539Y-14639888D02*
X3951015Y-14601793D01*
X3951015Y-14601793D02*
X3951015Y-14554174D01*
X3951015Y-14554174D02*
X3960539Y-14516079D01*
X3960539Y-14516079D02*
X3970063Y-14497031D01*
X3970063Y-14497031D02*
X3979586Y-14487508D01*
X3979586Y-14487508D02*
X3998634Y-14477984D01*
X4151015Y-14658936D02*
X4160539Y-14668460D01*
X4160539Y-14668460D02*
X4151015Y-14677984D01*
X4151015Y-14677984D02*
X4141491Y-14668460D01*
X4141491Y-14668460D02*
X4151015Y-14658936D01*
X4151015Y-14658936D02*
X4151015Y-14677984D01*
X4284348Y-14477984D02*
X4303396Y-14477984D01*
X4303396Y-14477984D02*
X4322444Y-14487508D01*
X4322444Y-14487508D02*
X4331968Y-14497031D01*
X4331968Y-14497031D02*
X4341491Y-14516079D01*
X4341491Y-14516079D02*
X4351015Y-14554174D01*
X4351015Y-14554174D02*
X4351015Y-14601793D01*
X4351015Y-14601793D02*
X4341491Y-14639888D01*
X4341491Y-14639888D02*
X4331968Y-14658936D01*
X4331968Y-14658936D02*
X4322444Y-14668460D01*
X4322444Y-14668460D02*
X4303396Y-14677984D01*
X4303396Y-14677984D02*
X4284348Y-14677984D01*
X4284348Y-14677984D02*
X4265301Y-14668460D01*
X4265301Y-14668460D02*
X4255777Y-14658936D01*
X4255777Y-14658936D02*
X4246253Y-14639888D01*
X4246253Y-14639888D02*
X4236729Y-14601793D01*
X4236729Y-14601793D02*
X4236729Y-14554174D01*
X4236729Y-14554174D02*
X4246253Y-14516079D01*
X4246253Y-14516079D02*
X4255777Y-14497031D01*
X4255777Y-14497031D02*
X4265301Y-14487508D01*
X4265301Y-14487508D02*
X4284348Y-14477984D01*
X4427206Y-14497031D02*
X4436729Y-14487508D01*
X4436729Y-14487508D02*
X4455777Y-14477984D01*
X4455777Y-14477984D02*
X4503396Y-14477984D01*
X4503396Y-14477984D02*
X4522444Y-14487508D01*
X4522444Y-14487508D02*
X4531968Y-14497031D01*
X4531968Y-14497031D02*
X4541491Y-14516079D01*
X4541491Y-14516079D02*
X4541491Y-14535127D01*
X4541491Y-14535127D02*
X4531968Y-14563698D01*
X4531968Y-14563698D02*
X4417682Y-14677984D01*
X4417682Y-14677984D02*
X4541491Y-14677984D01*
X4636729Y-14677984D02*
X4674825Y-14677984D01*
X4674825Y-14677984D02*
X4693872Y-14668460D01*
X4693872Y-14668460D02*
X4703396Y-14658936D01*
X4703396Y-14658936D02*
X4722444Y-14630365D01*
X4722444Y-14630365D02*
X4731968Y-14592269D01*
X4731968Y-14592269D02*
X4731968Y-14516079D01*
X4731968Y-14516079D02*
X4722444Y-14497031D01*
X4722444Y-14497031D02*
X4712920Y-14487508D01*
X4712920Y-14487508D02*
X4693872Y-14477984D01*
X4693872Y-14477984D02*
X4655777Y-14477984D01*
X4655777Y-14477984D02*
X4636729Y-14487508D01*
X4636729Y-14487508D02*
X4627206Y-14497031D01*
X4627206Y-14497031D02*
X4617682Y-14516079D01*
X4617682Y-14516079D02*
X4617682Y-14563698D01*
X4617682Y-14563698D02*
X4627206Y-14582746D01*
X4627206Y-14582746D02*
X4636729Y-14592269D01*
X4636729Y-14592269D02*
X4655777Y-14601793D01*
X4655777Y-14601793D02*
X4693872Y-14601793D01*
X4693872Y-14601793D02*
X4712920Y-14592269D01*
X4712920Y-14592269D02*
X4722444Y-14582746D01*
X4722444Y-14582746D02*
X4731968Y-14563698D01*
X4912920Y-14477984D02*
X4817682Y-14477984D01*
X4817682Y-14477984D02*
X4808158Y-14573222D01*
X4808158Y-14573222D02*
X4817682Y-14563698D01*
X4817682Y-14563698D02*
X4836729Y-14554174D01*
X4836729Y-14554174D02*
X4884349Y-14554174D01*
X4884349Y-14554174D02*
X4903396Y-14563698D01*
X4903396Y-14563698D02*
X4912920Y-14573222D01*
X4912920Y-14573222D02*
X4922444Y-14592269D01*
X4922444Y-14592269D02*
X4922444Y-14639888D01*
X4922444Y-14639888D02*
X4912920Y-14658936D01*
X4912920Y-14658936D02*
X4903396Y-14668460D01*
X4903396Y-14668460D02*
X4884349Y-14677984D01*
X4884349Y-14677984D02*
X4836729Y-14677984D01*
X4836729Y-14677984D02*
X4817682Y-14668460D01*
X4817682Y-14668460D02*
X4808158Y-14658936D01*
X4998634Y-14477984D02*
X4998634Y-14516079D01*
X5074825Y-14477984D02*
X5074825Y-14516079D01*
X5370063Y-14754174D02*
X5360539Y-14744650D01*
X5360539Y-14744650D02*
X5341491Y-14716079D01*
X5341491Y-14716079D02*
X5331968Y-14697031D01*
X5331968Y-14697031D02*
X5322444Y-14668460D01*
X5322444Y-14668460D02*
X5312920Y-14620841D01*
X5312920Y-14620841D02*
X5312920Y-14582746D01*
X5312920Y-14582746D02*
X5322444Y-14535127D01*
X5322444Y-14535127D02*
X5331968Y-14506555D01*
X5331968Y-14506555D02*
X5341491Y-14487508D01*
X5341491Y-14487508D02*
X5360539Y-14458936D01*
X5360539Y-14458936D02*
X5370063Y-14449412D01*
X5436730Y-14497031D02*
X5446253Y-14487508D01*
X5446253Y-14487508D02*
X5465301Y-14477984D01*
X5465301Y-14477984D02*
X5512920Y-14477984D01*
X5512920Y-14477984D02*
X5531968Y-14487508D01*
X5531968Y-14487508D02*
X5541491Y-14497031D01*
X5541491Y-14497031D02*
X5551015Y-14516079D01*
X5551015Y-14516079D02*
X5551015Y-14535127D01*
X5551015Y-14535127D02*
X5541491Y-14563698D01*
X5541491Y-14563698D02*
X5427206Y-14677984D01*
X5427206Y-14677984D02*
X5551015Y-14677984D01*
X5789110Y-14677984D02*
X5789110Y-14477984D01*
X5874825Y-14677984D02*
X5874825Y-14573222D01*
X5874825Y-14573222D02*
X5865301Y-14554174D01*
X5865301Y-14554174D02*
X5846253Y-14544650D01*
X5846253Y-14544650D02*
X5817682Y-14544650D01*
X5817682Y-14544650D02*
X5798634Y-14554174D01*
X5798634Y-14554174D02*
X5789110Y-14563698D01*
X5998634Y-14677984D02*
X5979587Y-14668460D01*
X5979587Y-14668460D02*
X5970063Y-14658936D01*
X5970063Y-14658936D02*
X5960539Y-14639888D01*
X5960539Y-14639888D02*
X5960539Y-14582746D01*
X5960539Y-14582746D02*
X5970063Y-14563698D01*
X5970063Y-14563698D02*
X5979587Y-14554174D01*
X5979587Y-14554174D02*
X5998634Y-14544650D01*
X5998634Y-14544650D02*
X6027206Y-14544650D01*
X6027206Y-14544650D02*
X6046253Y-14554174D01*
X6046253Y-14554174D02*
X6055777Y-14563698D01*
X6055777Y-14563698D02*
X6065301Y-14582746D01*
X6065301Y-14582746D02*
X6065301Y-14639888D01*
X6065301Y-14639888D02*
X6055777Y-14658936D01*
X6055777Y-14658936D02*
X6046253Y-14668460D01*
X6046253Y-14668460D02*
X6027206Y-14677984D01*
X6027206Y-14677984D02*
X5998634Y-14677984D01*
X6179587Y-14677984D02*
X6160539Y-14668460D01*
X6160539Y-14668460D02*
X6151015Y-14649412D01*
X6151015Y-14649412D02*
X6151015Y-14477984D01*
X6331968Y-14668460D02*
X6312920Y-14677984D01*
X6312920Y-14677984D02*
X6274825Y-14677984D01*
X6274825Y-14677984D02*
X6255777Y-14668460D01*
X6255777Y-14668460D02*
X6246253Y-14649412D01*
X6246253Y-14649412D02*
X6246253Y-14573222D01*
X6246253Y-14573222D02*
X6255777Y-14554174D01*
X6255777Y-14554174D02*
X6274825Y-14544650D01*
X6274825Y-14544650D02*
X6312920Y-14544650D01*
X6312920Y-14544650D02*
X6331968Y-14554174D01*
X6331968Y-14554174D02*
X6341491Y-14573222D01*
X6341491Y-14573222D02*
X6341491Y-14592269D01*
X6341491Y-14592269D02*
X6246253Y-14611317D01*
X6417682Y-14668460D02*
X6436730Y-14677984D01*
X6436730Y-14677984D02*
X6474825Y-14677984D01*
X6474825Y-14677984D02*
X6493872Y-14668460D01*
X6493872Y-14668460D02*
X6503396Y-14649412D01*
X6503396Y-14649412D02*
X6503396Y-14639888D01*
X6503396Y-14639888D02*
X6493872Y-14620841D01*
X6493872Y-14620841D02*
X6474825Y-14611317D01*
X6474825Y-14611317D02*
X6446253Y-14611317D01*
X6446253Y-14611317D02*
X6427206Y-14601793D01*
X6427206Y-14601793D02*
X6417682Y-14582746D01*
X6417682Y-14582746D02*
X6417682Y-14573222D01*
X6417682Y-14573222D02*
X6427206Y-14554174D01*
X6427206Y-14554174D02*
X6446253Y-14544650D01*
X6446253Y-14544650D02*
X6474825Y-14544650D01*
X6474825Y-14544650D02*
X6493872Y-14554174D01*
X6570063Y-14754174D02*
X6579587Y-14744650D01*
X6579587Y-14744650D02*
X6598634Y-14716079D01*
X6598634Y-14716079D02*
X6608158Y-14697031D01*
X6608158Y-14697031D02*
X6617682Y-14668460D01*
X6617682Y-14668460D02*
X6627206Y-14620841D01*
X6627206Y-14620841D02*
X6627206Y-14582746D01*
X6627206Y-14582746D02*
X6617682Y-14535127D01*
X6617682Y-14535127D02*
X6608158Y-14506555D01*
X6608158Y-14506555D02*
X6598634Y-14487508D01*
X6598634Y-14487508D02*
X6579587Y-14458936D01*
X6579587Y-14458936D02*
X6570063Y-14449412D01*
D10*
X1745000Y-14800500D02*
X1745000Y-14900500D01*
X1695000Y-14850500D02*
X1795000Y-14850500D01*
D11*
X2160539Y-14941984D02*
X2046253Y-14941984D01*
X2103396Y-14941984D02*
X2103396Y-14741984D01*
X2103396Y-14741984D02*
X2084348Y-14770555D01*
X2084348Y-14770555D02*
X2065301Y-14789603D01*
X2065301Y-14789603D02*
X2046253Y-14799127D01*
X2246253Y-14922936D02*
X2255777Y-14932460D01*
X2255777Y-14932460D02*
X2246253Y-14941984D01*
X2246253Y-14941984D02*
X2236729Y-14932460D01*
X2236729Y-14932460D02*
X2246253Y-14922936D01*
X2246253Y-14922936D02*
X2246253Y-14941984D01*
X2379586Y-14741984D02*
X2398634Y-14741984D01*
X2398634Y-14741984D02*
X2417682Y-14751508D01*
X2417682Y-14751508D02*
X2427205Y-14761031D01*
X2427205Y-14761031D02*
X2436729Y-14780079D01*
X2436729Y-14780079D02*
X2446253Y-14818174D01*
X2446253Y-14818174D02*
X2446253Y-14865793D01*
X2446253Y-14865793D02*
X2436729Y-14903888D01*
X2436729Y-14903888D02*
X2427205Y-14922936D01*
X2427205Y-14922936D02*
X2417682Y-14932460D01*
X2417682Y-14932460D02*
X2398634Y-14941984D01*
X2398634Y-14941984D02*
X2379586Y-14941984D01*
X2379586Y-14941984D02*
X2360539Y-14932460D01*
X2360539Y-14932460D02*
X2351015Y-14922936D01*
X2351015Y-14922936D02*
X2341491Y-14903888D01*
X2341491Y-14903888D02*
X2331967Y-14865793D01*
X2331967Y-14865793D02*
X2331967Y-14818174D01*
X2331967Y-14818174D02*
X2341491Y-14780079D01*
X2341491Y-14780079D02*
X2351015Y-14761031D01*
X2351015Y-14761031D02*
X2360539Y-14751508D01*
X2360539Y-14751508D02*
X2379586Y-14741984D01*
X2570063Y-14741984D02*
X2589110Y-14741984D01*
X2589110Y-14741984D02*
X2608158Y-14751508D01*
X2608158Y-14751508D02*
X2617682Y-14761031D01*
X2617682Y-14761031D02*
X2627205Y-14780079D01*
X2627205Y-14780079D02*
X2636729Y-14818174D01*
X2636729Y-14818174D02*
X2636729Y-14865793D01*
X2636729Y-14865793D02*
X2627205Y-14903888D01*
X2627205Y-14903888D02*
X2617682Y-14922936D01*
X2617682Y-14922936D02*
X2608158Y-14932460D01*
X2608158Y-14932460D02*
X2589110Y-14941984D01*
X2589110Y-14941984D02*
X2570063Y-14941984D01*
X2570063Y-14941984D02*
X2551015Y-14932460D01*
X2551015Y-14932460D02*
X2541491Y-14922936D01*
X2541491Y-14922936D02*
X2531967Y-14903888D01*
X2531967Y-14903888D02*
X2522444Y-14865793D01*
X2522444Y-14865793D02*
X2522444Y-14818174D01*
X2522444Y-14818174D02*
X2531967Y-14780079D01*
X2531967Y-14780079D02*
X2541491Y-14761031D01*
X2541491Y-14761031D02*
X2551015Y-14751508D01*
X2551015Y-14751508D02*
X2570063Y-14741984D01*
X2760539Y-14741984D02*
X2779586Y-14741984D01*
X2779586Y-14741984D02*
X2798634Y-14751508D01*
X2798634Y-14751508D02*
X2808158Y-14761031D01*
X2808158Y-14761031D02*
X2817682Y-14780079D01*
X2817682Y-14780079D02*
X2827205Y-14818174D01*
X2827205Y-14818174D02*
X2827205Y-14865793D01*
X2827205Y-14865793D02*
X2817682Y-14903888D01*
X2817682Y-14903888D02*
X2808158Y-14922936D01*
X2808158Y-14922936D02*
X2798634Y-14932460D01*
X2798634Y-14932460D02*
X2779586Y-14941984D01*
X2779586Y-14941984D02*
X2760539Y-14941984D01*
X2760539Y-14941984D02*
X2741491Y-14932460D01*
X2741491Y-14932460D02*
X2731967Y-14922936D01*
X2731967Y-14922936D02*
X2722444Y-14903888D01*
X2722444Y-14903888D02*
X2712920Y-14865793D01*
X2712920Y-14865793D02*
X2712920Y-14818174D01*
X2712920Y-14818174D02*
X2722444Y-14780079D01*
X2722444Y-14780079D02*
X2731967Y-14761031D01*
X2731967Y-14761031D02*
X2741491Y-14751508D01*
X2741491Y-14751508D02*
X2760539Y-14741984D01*
X2912920Y-14941984D02*
X2912920Y-14808650D01*
X2912920Y-14827698D02*
X2922443Y-14818174D01*
X2922443Y-14818174D02*
X2941491Y-14808650D01*
X2941491Y-14808650D02*
X2970063Y-14808650D01*
X2970063Y-14808650D02*
X2989110Y-14818174D01*
X2989110Y-14818174D02*
X2998634Y-14837222D01*
X2998634Y-14837222D02*
X2998634Y-14941984D01*
X2998634Y-14837222D02*
X3008158Y-14818174D01*
X3008158Y-14818174D02*
X3027205Y-14808650D01*
X3027205Y-14808650D02*
X3055777Y-14808650D01*
X3055777Y-14808650D02*
X3074824Y-14818174D01*
X3074824Y-14818174D02*
X3084348Y-14837222D01*
X3084348Y-14837222D02*
X3084348Y-14941984D01*
X3179586Y-14941984D02*
X3179586Y-14808650D01*
X3179586Y-14827698D02*
X3189110Y-14818174D01*
X3189110Y-14818174D02*
X3208158Y-14808650D01*
X3208158Y-14808650D02*
X3236729Y-14808650D01*
X3236729Y-14808650D02*
X3255777Y-14818174D01*
X3255777Y-14818174D02*
X3265301Y-14837222D01*
X3265301Y-14837222D02*
X3265301Y-14941984D01*
X3265301Y-14837222D02*
X3274824Y-14818174D01*
X3274824Y-14818174D02*
X3293872Y-14808650D01*
X3293872Y-14808650D02*
X3322443Y-14808650D01*
X3322443Y-14808650D02*
X3341491Y-14818174D01*
X3341491Y-14818174D02*
X3351015Y-14837222D01*
X3351015Y-14837222D02*
X3351015Y-14941984D01*
X3741491Y-14732460D02*
X3570063Y-14989603D01*
X3998634Y-14741984D02*
X4017682Y-14741984D01*
X4017682Y-14741984D02*
X4036729Y-14751508D01*
X4036729Y-14751508D02*
X4046253Y-14761031D01*
X4046253Y-14761031D02*
X4055777Y-14780079D01*
X4055777Y-14780079D02*
X4065301Y-14818174D01*
X4065301Y-14818174D02*
X4065301Y-14865793D01*
X4065301Y-14865793D02*
X4055777Y-14903888D01*
X4055777Y-14903888D02*
X4046253Y-14922936D01*
X4046253Y-14922936D02*
X4036729Y-14932460D01*
X4036729Y-14932460D02*
X4017682Y-14941984D01*
X4017682Y-14941984D02*
X3998634Y-14941984D01*
X3998634Y-14941984D02*
X3979586Y-14932460D01*
X3979586Y-14932460D02*
X3970063Y-14922936D01*
X3970063Y-14922936D02*
X3960539Y-14903888D01*
X3960539Y-14903888D02*
X3951015Y-14865793D01*
X3951015Y-14865793D02*
X3951015Y-14818174D01*
X3951015Y-14818174D02*
X3960539Y-14780079D01*
X3960539Y-14780079D02*
X3970063Y-14761031D01*
X3970063Y-14761031D02*
X3979586Y-14751508D01*
X3979586Y-14751508D02*
X3998634Y-14741984D01*
X4151015Y-14922936D02*
X4160539Y-14932460D01*
X4160539Y-14932460D02*
X4151015Y-14941984D01*
X4151015Y-14941984D02*
X4141491Y-14932460D01*
X4141491Y-14932460D02*
X4151015Y-14922936D01*
X4151015Y-14922936D02*
X4151015Y-14941984D01*
X4284348Y-14741984D02*
X4303396Y-14741984D01*
X4303396Y-14741984D02*
X4322444Y-14751508D01*
X4322444Y-14751508D02*
X4331968Y-14761031D01*
X4331968Y-14761031D02*
X4341491Y-14780079D01*
X4341491Y-14780079D02*
X4351015Y-14818174D01*
X4351015Y-14818174D02*
X4351015Y-14865793D01*
X4351015Y-14865793D02*
X4341491Y-14903888D01*
X4341491Y-14903888D02*
X4331968Y-14922936D01*
X4331968Y-14922936D02*
X4322444Y-14932460D01*
X4322444Y-14932460D02*
X4303396Y-14941984D01*
X4303396Y-14941984D02*
X4284348Y-14941984D01*
X4284348Y-14941984D02*
X4265301Y-14932460D01*
X4265301Y-14932460D02*
X4255777Y-14922936D01*
X4255777Y-14922936D02*
X4246253Y-14903888D01*
X4246253Y-14903888D02*
X4236729Y-14865793D01*
X4236729Y-14865793D02*
X4236729Y-14818174D01*
X4236729Y-14818174D02*
X4246253Y-14780079D01*
X4246253Y-14780079D02*
X4255777Y-14761031D01*
X4255777Y-14761031D02*
X4265301Y-14751508D01*
X4265301Y-14751508D02*
X4284348Y-14741984D01*
X4417682Y-14741984D02*
X4541491Y-14741984D01*
X4541491Y-14741984D02*
X4474825Y-14818174D01*
X4474825Y-14818174D02*
X4503396Y-14818174D01*
X4503396Y-14818174D02*
X4522444Y-14827698D01*
X4522444Y-14827698D02*
X4531968Y-14837222D01*
X4531968Y-14837222D02*
X4541491Y-14856269D01*
X4541491Y-14856269D02*
X4541491Y-14903888D01*
X4541491Y-14903888D02*
X4531968Y-14922936D01*
X4531968Y-14922936D02*
X4522444Y-14932460D01*
X4522444Y-14932460D02*
X4503396Y-14941984D01*
X4503396Y-14941984D02*
X4446253Y-14941984D01*
X4446253Y-14941984D02*
X4427206Y-14932460D01*
X4427206Y-14932460D02*
X4417682Y-14922936D01*
X4636729Y-14941984D02*
X4674825Y-14941984D01*
X4674825Y-14941984D02*
X4693872Y-14932460D01*
X4693872Y-14932460D02*
X4703396Y-14922936D01*
X4703396Y-14922936D02*
X4722444Y-14894365D01*
X4722444Y-14894365D02*
X4731968Y-14856269D01*
X4731968Y-14856269D02*
X4731968Y-14780079D01*
X4731968Y-14780079D02*
X4722444Y-14761031D01*
X4722444Y-14761031D02*
X4712920Y-14751508D01*
X4712920Y-14751508D02*
X4693872Y-14741984D01*
X4693872Y-14741984D02*
X4655777Y-14741984D01*
X4655777Y-14741984D02*
X4636729Y-14751508D01*
X4636729Y-14751508D02*
X4627206Y-14761031D01*
X4627206Y-14761031D02*
X4617682Y-14780079D01*
X4617682Y-14780079D02*
X4617682Y-14827698D01*
X4617682Y-14827698D02*
X4627206Y-14846746D01*
X4627206Y-14846746D02*
X4636729Y-14856269D01*
X4636729Y-14856269D02*
X4655777Y-14865793D01*
X4655777Y-14865793D02*
X4693872Y-14865793D01*
X4693872Y-14865793D02*
X4712920Y-14856269D01*
X4712920Y-14856269D02*
X4722444Y-14846746D01*
X4722444Y-14846746D02*
X4731968Y-14827698D01*
X4903396Y-14808650D02*
X4903396Y-14941984D01*
X4855777Y-14732460D02*
X4808158Y-14875317D01*
X4808158Y-14875317D02*
X4931968Y-14875317D01*
X4998634Y-14741984D02*
X4998634Y-14780079D01*
X5074825Y-14741984D02*
X5074825Y-14780079D01*
X5370063Y-15018174D02*
X5360539Y-15008650D01*
X5360539Y-15008650D02*
X5341491Y-14980079D01*
X5341491Y-14980079D02*
X5331968Y-14961031D01*
X5331968Y-14961031D02*
X5322444Y-14932460D01*
X5322444Y-14932460D02*
X5312920Y-14884841D01*
X5312920Y-14884841D02*
X5312920Y-14846746D01*
X5312920Y-14846746D02*
X5322444Y-14799127D01*
X5322444Y-14799127D02*
X5331968Y-14770555D01*
X5331968Y-14770555D02*
X5341491Y-14751508D01*
X5341491Y-14751508D02*
X5360539Y-14722936D01*
X5360539Y-14722936D02*
X5370063Y-14713412D01*
X5436730Y-14761031D02*
X5446253Y-14751508D01*
X5446253Y-14751508D02*
X5465301Y-14741984D01*
X5465301Y-14741984D02*
X5512920Y-14741984D01*
X5512920Y-14741984D02*
X5531968Y-14751508D01*
X5531968Y-14751508D02*
X5541491Y-14761031D01*
X5541491Y-14761031D02*
X5551015Y-14780079D01*
X5551015Y-14780079D02*
X5551015Y-14799127D01*
X5551015Y-14799127D02*
X5541491Y-14827698D01*
X5541491Y-14827698D02*
X5427206Y-14941984D01*
X5427206Y-14941984D02*
X5551015Y-14941984D01*
X5646253Y-14941984D02*
X5684348Y-14941984D01*
X5684348Y-14941984D02*
X5703396Y-14932460D01*
X5703396Y-14932460D02*
X5712920Y-14922936D01*
X5712920Y-14922936D02*
X5731968Y-14894365D01*
X5731968Y-14894365D02*
X5741491Y-14856269D01*
X5741491Y-14856269D02*
X5741491Y-14780079D01*
X5741491Y-14780079D02*
X5731968Y-14761031D01*
X5731968Y-14761031D02*
X5722444Y-14751508D01*
X5722444Y-14751508D02*
X5703396Y-14741984D01*
X5703396Y-14741984D02*
X5665301Y-14741984D01*
X5665301Y-14741984D02*
X5646253Y-14751508D01*
X5646253Y-14751508D02*
X5636729Y-14761031D01*
X5636729Y-14761031D02*
X5627206Y-14780079D01*
X5627206Y-14780079D02*
X5627206Y-14827698D01*
X5627206Y-14827698D02*
X5636729Y-14846746D01*
X5636729Y-14846746D02*
X5646253Y-14856269D01*
X5646253Y-14856269D02*
X5665301Y-14865793D01*
X5665301Y-14865793D02*
X5703396Y-14865793D01*
X5703396Y-14865793D02*
X5722444Y-14856269D01*
X5722444Y-14856269D02*
X5731968Y-14846746D01*
X5731968Y-14846746D02*
X5741491Y-14827698D01*
X5979587Y-14941984D02*
X5979587Y-14741984D01*
X6065301Y-14941984D02*
X6065301Y-14837222D01*
X6065301Y-14837222D02*
X6055777Y-14818174D01*
X6055777Y-14818174D02*
X6036730Y-14808650D01*
X6036730Y-14808650D02*
X6008158Y-14808650D01*
X6008158Y-14808650D02*
X5989110Y-14818174D01*
X5989110Y-14818174D02*
X5979587Y-14827698D01*
X6189110Y-14941984D02*
X6170063Y-14932460D01*
X6170063Y-14932460D02*
X6160539Y-14922936D01*
X6160539Y-14922936D02*
X6151015Y-14903888D01*
X6151015Y-14903888D02*
X6151015Y-14846746D01*
X6151015Y-14846746D02*
X6160539Y-14827698D01*
X6160539Y-14827698D02*
X6170063Y-14818174D01*
X6170063Y-14818174D02*
X6189110Y-14808650D01*
X6189110Y-14808650D02*
X6217682Y-14808650D01*
X6217682Y-14808650D02*
X6236730Y-14818174D01*
X6236730Y-14818174D02*
X6246253Y-14827698D01*
X6246253Y-14827698D02*
X6255777Y-14846746D01*
X6255777Y-14846746D02*
X6255777Y-14903888D01*
X6255777Y-14903888D02*
X6246253Y-14922936D01*
X6246253Y-14922936D02*
X6236730Y-14932460D01*
X6236730Y-14932460D02*
X6217682Y-14941984D01*
X6217682Y-14941984D02*
X6189110Y-14941984D01*
X6370063Y-14941984D02*
X6351015Y-14932460D01*
X6351015Y-14932460D02*
X6341491Y-14913412D01*
X6341491Y-14913412D02*
X6341491Y-14741984D01*
X6522444Y-14932460D02*
X6503396Y-14941984D01*
X6503396Y-14941984D02*
X6465301Y-14941984D01*
X6465301Y-14941984D02*
X6446253Y-14932460D01*
X6446253Y-14932460D02*
X6436730Y-14913412D01*
X6436730Y-14913412D02*
X6436730Y-14837222D01*
X6436730Y-14837222D02*
X6446253Y-14818174D01*
X6446253Y-14818174D02*
X6465301Y-14808650D01*
X6465301Y-14808650D02*
X6503396Y-14808650D01*
X6503396Y-14808650D02*
X6522444Y-14818174D01*
X6522444Y-14818174D02*
X6531968Y-14837222D01*
X6531968Y-14837222D02*
X6531968Y-14856269D01*
X6531968Y-14856269D02*
X6436730Y-14875317D01*
X6608158Y-14932460D02*
X6627206Y-14941984D01*
X6627206Y-14941984D02*
X6665301Y-14941984D01*
X6665301Y-14941984D02*
X6684349Y-14932460D01*
X6684349Y-14932460D02*
X6693872Y-14913412D01*
X6693872Y-14913412D02*
X6693872Y-14903888D01*
X6693872Y-14903888D02*
X6684349Y-14884841D01*
X6684349Y-14884841D02*
X6665301Y-14875317D01*
X6665301Y-14875317D02*
X6636730Y-14875317D01*
X6636730Y-14875317D02*
X6617682Y-14865793D01*
X6617682Y-14865793D02*
X6608158Y-14846746D01*
X6608158Y-14846746D02*
X6608158Y-14837222D01*
X6608158Y-14837222D02*
X6617682Y-14818174D01*
X6617682Y-14818174D02*
X6636730Y-14808650D01*
X6636730Y-14808650D02*
X6665301Y-14808650D01*
X6665301Y-14808650D02*
X6684349Y-14818174D01*
X6760539Y-15018174D02*
X6770063Y-15008650D01*
X6770063Y-15008650D02*
X6789111Y-14980079D01*
X6789111Y-14980079D02*
X6798634Y-14961031D01*
X6798634Y-14961031D02*
X6808158Y-14932460D01*
X6808158Y-14932460D02*
X6817682Y-14884841D01*
X6817682Y-14884841D02*
X6817682Y-14846746D01*
X6817682Y-14846746D02*
X6808158Y-14799127D01*
X6808158Y-14799127D02*
X6798634Y-14770555D01*
X6798634Y-14770555D02*
X6789111Y-14751508D01*
X6789111Y-14751508D02*
X6770063Y-14722936D01*
X6770063Y-14722936D02*
X6760539Y-14713412D01*
D14*
X1773033Y-15167533D02*
X1773033Y-15061466D01*
X1666966Y-15061466D01*
X1666966Y-15167533D01*
X1773033Y-15167533D01*
D11*
X2160539Y-15205984D02*
X2046253Y-15205984D01*
X2103396Y-15205984D02*
X2103396Y-15005984D01*
X2103396Y-15005984D02*
X2084348Y-15034555D01*
X2084348Y-15034555D02*
X2065301Y-15053603D01*
X2065301Y-15053603D02*
X2046253Y-15063127D01*
X2246253Y-15186936D02*
X2255777Y-15196460D01*
X2255777Y-15196460D02*
X2246253Y-15205984D01*
X2246253Y-15205984D02*
X2236729Y-15196460D01*
X2236729Y-15196460D02*
X2246253Y-15186936D01*
X2246253Y-15186936D02*
X2246253Y-15205984D01*
X2436729Y-15005984D02*
X2341491Y-15005984D01*
X2341491Y-15005984D02*
X2331967Y-15101222D01*
X2331967Y-15101222D02*
X2341491Y-15091698D01*
X2341491Y-15091698D02*
X2360539Y-15082174D01*
X2360539Y-15082174D02*
X2408158Y-15082174D01*
X2408158Y-15082174D02*
X2427205Y-15091698D01*
X2427205Y-15091698D02*
X2436729Y-15101222D01*
X2436729Y-15101222D02*
X2446253Y-15120269D01*
X2446253Y-15120269D02*
X2446253Y-15167888D01*
X2446253Y-15167888D02*
X2436729Y-15186936D01*
X2436729Y-15186936D02*
X2427205Y-15196460D01*
X2427205Y-15196460D02*
X2408158Y-15205984D01*
X2408158Y-15205984D02*
X2360539Y-15205984D01*
X2360539Y-15205984D02*
X2341491Y-15196460D01*
X2341491Y-15196460D02*
X2331967Y-15186936D01*
X2570063Y-15005984D02*
X2589110Y-15005984D01*
X2589110Y-15005984D02*
X2608158Y-15015508D01*
X2608158Y-15015508D02*
X2617682Y-15025031D01*
X2617682Y-15025031D02*
X2627205Y-15044079D01*
X2627205Y-15044079D02*
X2636729Y-15082174D01*
X2636729Y-15082174D02*
X2636729Y-15129793D01*
X2636729Y-15129793D02*
X2627205Y-15167888D01*
X2627205Y-15167888D02*
X2617682Y-15186936D01*
X2617682Y-15186936D02*
X2608158Y-15196460D01*
X2608158Y-15196460D02*
X2589110Y-15205984D01*
X2589110Y-15205984D02*
X2570063Y-15205984D01*
X2570063Y-15205984D02*
X2551015Y-15196460D01*
X2551015Y-15196460D02*
X2541491Y-15186936D01*
X2541491Y-15186936D02*
X2531967Y-15167888D01*
X2531967Y-15167888D02*
X2522444Y-15129793D01*
X2522444Y-15129793D02*
X2522444Y-15082174D01*
X2522444Y-15082174D02*
X2531967Y-15044079D01*
X2531967Y-15044079D02*
X2541491Y-15025031D01*
X2541491Y-15025031D02*
X2551015Y-15015508D01*
X2551015Y-15015508D02*
X2570063Y-15005984D01*
X2760539Y-15005984D02*
X2779586Y-15005984D01*
X2779586Y-15005984D02*
X2798634Y-15015508D01*
X2798634Y-15015508D02*
X2808158Y-15025031D01*
X2808158Y-15025031D02*
X2817682Y-15044079D01*
X2817682Y-15044079D02*
X2827205Y-15082174D01*
X2827205Y-15082174D02*
X2827205Y-15129793D01*
X2827205Y-15129793D02*
X2817682Y-15167888D01*
X2817682Y-15167888D02*
X2808158Y-15186936D01*
X2808158Y-15186936D02*
X2798634Y-15196460D01*
X2798634Y-15196460D02*
X2779586Y-15205984D01*
X2779586Y-15205984D02*
X2760539Y-15205984D01*
X2760539Y-15205984D02*
X2741491Y-15196460D01*
X2741491Y-15196460D02*
X2731967Y-15186936D01*
X2731967Y-15186936D02*
X2722444Y-15167888D01*
X2722444Y-15167888D02*
X2712920Y-15129793D01*
X2712920Y-15129793D02*
X2712920Y-15082174D01*
X2712920Y-15082174D02*
X2722444Y-15044079D01*
X2722444Y-15044079D02*
X2731967Y-15025031D01*
X2731967Y-15025031D02*
X2741491Y-15015508D01*
X2741491Y-15015508D02*
X2760539Y-15005984D01*
X2912920Y-15205984D02*
X2912920Y-15072650D01*
X2912920Y-15091698D02*
X2922443Y-15082174D01*
X2922443Y-15082174D02*
X2941491Y-15072650D01*
X2941491Y-15072650D02*
X2970063Y-15072650D01*
X2970063Y-15072650D02*
X2989110Y-15082174D01*
X2989110Y-15082174D02*
X2998634Y-15101222D01*
X2998634Y-15101222D02*
X2998634Y-15205984D01*
X2998634Y-15101222D02*
X3008158Y-15082174D01*
X3008158Y-15082174D02*
X3027205Y-15072650D01*
X3027205Y-15072650D02*
X3055777Y-15072650D01*
X3055777Y-15072650D02*
X3074824Y-15082174D01*
X3074824Y-15082174D02*
X3084348Y-15101222D01*
X3084348Y-15101222D02*
X3084348Y-15205984D01*
X3179586Y-15205984D02*
X3179586Y-15072650D01*
X3179586Y-15091698D02*
X3189110Y-15082174D01*
X3189110Y-15082174D02*
X3208158Y-15072650D01*
X3208158Y-15072650D02*
X3236729Y-15072650D01*
X3236729Y-15072650D02*
X3255777Y-15082174D01*
X3255777Y-15082174D02*
X3265301Y-15101222D01*
X3265301Y-15101222D02*
X3265301Y-15205984D01*
X3265301Y-15101222D02*
X3274824Y-15082174D01*
X3274824Y-15082174D02*
X3293872Y-15072650D01*
X3293872Y-15072650D02*
X3322443Y-15072650D01*
X3322443Y-15072650D02*
X3341491Y-15082174D01*
X3341491Y-15082174D02*
X3351015Y-15101222D01*
X3351015Y-15101222D02*
X3351015Y-15205984D01*
X3741491Y-14996460D02*
X3570063Y-15253603D01*
X3998634Y-15005984D02*
X4017682Y-15005984D01*
X4017682Y-15005984D02*
X4036729Y-15015508D01*
X4036729Y-15015508D02*
X4046253Y-15025031D01*
X4046253Y-15025031D02*
X4055777Y-15044079D01*
X4055777Y-15044079D02*
X4065301Y-15082174D01*
X4065301Y-15082174D02*
X4065301Y-15129793D01*
X4065301Y-15129793D02*
X4055777Y-15167888D01*
X4055777Y-15167888D02*
X4046253Y-15186936D01*
X4046253Y-15186936D02*
X4036729Y-15196460D01*
X4036729Y-15196460D02*
X4017682Y-15205984D01*
X4017682Y-15205984D02*
X3998634Y-15205984D01*
X3998634Y-15205984D02*
X3979586Y-15196460D01*
X3979586Y-15196460D02*
X3970063Y-15186936D01*
X3970063Y-15186936D02*
X3960539Y-15167888D01*
X3960539Y-15167888D02*
X3951015Y-15129793D01*
X3951015Y-15129793D02*
X3951015Y-15082174D01*
X3951015Y-15082174D02*
X3960539Y-15044079D01*
X3960539Y-15044079D02*
X3970063Y-15025031D01*
X3970063Y-15025031D02*
X3979586Y-15015508D01*
X3979586Y-15015508D02*
X3998634Y-15005984D01*
X4151015Y-15186936D02*
X4160539Y-15196460D01*
X4160539Y-15196460D02*
X4151015Y-15205984D01*
X4151015Y-15205984D02*
X4141491Y-15196460D01*
X4141491Y-15196460D02*
X4151015Y-15186936D01*
X4151015Y-15186936D02*
X4151015Y-15205984D01*
X4284348Y-15005984D02*
X4303396Y-15005984D01*
X4303396Y-15005984D02*
X4322444Y-15015508D01*
X4322444Y-15015508D02*
X4331968Y-15025031D01*
X4331968Y-15025031D02*
X4341491Y-15044079D01*
X4341491Y-15044079D02*
X4351015Y-15082174D01*
X4351015Y-15082174D02*
X4351015Y-15129793D01*
X4351015Y-15129793D02*
X4341491Y-15167888D01*
X4341491Y-15167888D02*
X4331968Y-15186936D01*
X4331968Y-15186936D02*
X4322444Y-15196460D01*
X4322444Y-15196460D02*
X4303396Y-15205984D01*
X4303396Y-15205984D02*
X4284348Y-15205984D01*
X4284348Y-15205984D02*
X4265301Y-15196460D01*
X4265301Y-15196460D02*
X4255777Y-15186936D01*
X4255777Y-15186936D02*
X4246253Y-15167888D01*
X4246253Y-15167888D02*
X4236729Y-15129793D01*
X4236729Y-15129793D02*
X4236729Y-15082174D01*
X4236729Y-15082174D02*
X4246253Y-15044079D01*
X4246253Y-15044079D02*
X4255777Y-15025031D01*
X4255777Y-15025031D02*
X4265301Y-15015508D01*
X4265301Y-15015508D02*
X4284348Y-15005984D01*
X4531968Y-15005984D02*
X4436729Y-15005984D01*
X4436729Y-15005984D02*
X4427206Y-15101222D01*
X4427206Y-15101222D02*
X4436729Y-15091698D01*
X4436729Y-15091698D02*
X4455777Y-15082174D01*
X4455777Y-15082174D02*
X4503396Y-15082174D01*
X4503396Y-15082174D02*
X4522444Y-15091698D01*
X4522444Y-15091698D02*
X4531968Y-15101222D01*
X4531968Y-15101222D02*
X4541491Y-15120269D01*
X4541491Y-15120269D02*
X4541491Y-15167888D01*
X4541491Y-15167888D02*
X4531968Y-15186936D01*
X4531968Y-15186936D02*
X4522444Y-15196460D01*
X4522444Y-15196460D02*
X4503396Y-15205984D01*
X4503396Y-15205984D02*
X4455777Y-15205984D01*
X4455777Y-15205984D02*
X4436729Y-15196460D01*
X4436729Y-15196460D02*
X4427206Y-15186936D01*
X4636729Y-15205984D02*
X4674825Y-15205984D01*
X4674825Y-15205984D02*
X4693872Y-15196460D01*
X4693872Y-15196460D02*
X4703396Y-15186936D01*
X4703396Y-15186936D02*
X4722444Y-15158365D01*
X4722444Y-15158365D02*
X4731968Y-15120269D01*
X4731968Y-15120269D02*
X4731968Y-15044079D01*
X4731968Y-15044079D02*
X4722444Y-15025031D01*
X4722444Y-15025031D02*
X4712920Y-15015508D01*
X4712920Y-15015508D02*
X4693872Y-15005984D01*
X4693872Y-15005984D02*
X4655777Y-15005984D01*
X4655777Y-15005984D02*
X4636729Y-15015508D01*
X4636729Y-15015508D02*
X4627206Y-15025031D01*
X4627206Y-15025031D02*
X4617682Y-15044079D01*
X4617682Y-15044079D02*
X4617682Y-15091698D01*
X4617682Y-15091698D02*
X4627206Y-15110746D01*
X4627206Y-15110746D02*
X4636729Y-15120269D01*
X4636729Y-15120269D02*
X4655777Y-15129793D01*
X4655777Y-15129793D02*
X4693872Y-15129793D01*
X4693872Y-15129793D02*
X4712920Y-15120269D01*
X4712920Y-15120269D02*
X4722444Y-15110746D01*
X4722444Y-15110746D02*
X4731968Y-15091698D01*
X4922444Y-15205984D02*
X4808158Y-15205984D01*
X4865301Y-15205984D02*
X4865301Y-15005984D01*
X4865301Y-15005984D02*
X4846253Y-15034555D01*
X4846253Y-15034555D02*
X4827206Y-15053603D01*
X4827206Y-15053603D02*
X4808158Y-15063127D01*
X4998634Y-15005984D02*
X4998634Y-15044079D01*
X5074825Y-15005984D02*
X5074825Y-15044079D01*
X5370063Y-15282174D02*
X5360539Y-15272650D01*
X5360539Y-15272650D02*
X5341491Y-15244079D01*
X5341491Y-15244079D02*
X5331968Y-15225031D01*
X5331968Y-15225031D02*
X5322444Y-15196460D01*
X5322444Y-15196460D02*
X5312920Y-15148841D01*
X5312920Y-15148841D02*
X5312920Y-15110746D01*
X5312920Y-15110746D02*
X5322444Y-15063127D01*
X5322444Y-15063127D02*
X5331968Y-15034555D01*
X5331968Y-15034555D02*
X5341491Y-15015508D01*
X5341491Y-15015508D02*
X5360539Y-14986936D01*
X5360539Y-14986936D02*
X5370063Y-14977412D01*
X5436730Y-15025031D02*
X5446253Y-15015508D01*
X5446253Y-15015508D02*
X5465301Y-15005984D01*
X5465301Y-15005984D02*
X5512920Y-15005984D01*
X5512920Y-15005984D02*
X5531968Y-15015508D01*
X5531968Y-15015508D02*
X5541491Y-15025031D01*
X5541491Y-15025031D02*
X5551015Y-15044079D01*
X5551015Y-15044079D02*
X5551015Y-15063127D01*
X5551015Y-15063127D02*
X5541491Y-15091698D01*
X5541491Y-15091698D02*
X5427206Y-15205984D01*
X5427206Y-15205984D02*
X5551015Y-15205984D01*
X5789110Y-15205984D02*
X5789110Y-15005984D01*
X5874825Y-15205984D02*
X5874825Y-15101222D01*
X5874825Y-15101222D02*
X5865301Y-15082174D01*
X5865301Y-15082174D02*
X5846253Y-15072650D01*
X5846253Y-15072650D02*
X5817682Y-15072650D01*
X5817682Y-15072650D02*
X5798634Y-15082174D01*
X5798634Y-15082174D02*
X5789110Y-15091698D01*
X5998634Y-15205984D02*
X5979587Y-15196460D01*
X5979587Y-15196460D02*
X5970063Y-15186936D01*
X5970063Y-15186936D02*
X5960539Y-15167888D01*
X5960539Y-15167888D02*
X5960539Y-15110746D01*
X5960539Y-15110746D02*
X5970063Y-15091698D01*
X5970063Y-15091698D02*
X5979587Y-15082174D01*
X5979587Y-15082174D02*
X5998634Y-15072650D01*
X5998634Y-15072650D02*
X6027206Y-15072650D01*
X6027206Y-15072650D02*
X6046253Y-15082174D01*
X6046253Y-15082174D02*
X6055777Y-15091698D01*
X6055777Y-15091698D02*
X6065301Y-15110746D01*
X6065301Y-15110746D02*
X6065301Y-15167888D01*
X6065301Y-15167888D02*
X6055777Y-15186936D01*
X6055777Y-15186936D02*
X6046253Y-15196460D01*
X6046253Y-15196460D02*
X6027206Y-15205984D01*
X6027206Y-15205984D02*
X5998634Y-15205984D01*
X6179587Y-15205984D02*
X6160539Y-15196460D01*
X6160539Y-15196460D02*
X6151015Y-15177412D01*
X6151015Y-15177412D02*
X6151015Y-15005984D01*
X6331968Y-15196460D02*
X6312920Y-15205984D01*
X6312920Y-15205984D02*
X6274825Y-15205984D01*
X6274825Y-15205984D02*
X6255777Y-15196460D01*
X6255777Y-15196460D02*
X6246253Y-15177412D01*
X6246253Y-15177412D02*
X6246253Y-15101222D01*
X6246253Y-15101222D02*
X6255777Y-15082174D01*
X6255777Y-15082174D02*
X6274825Y-15072650D01*
X6274825Y-15072650D02*
X6312920Y-15072650D01*
X6312920Y-15072650D02*
X6331968Y-15082174D01*
X6331968Y-15082174D02*
X6341491Y-15101222D01*
X6341491Y-15101222D02*
X6341491Y-15120269D01*
X6341491Y-15120269D02*
X6246253Y-15139317D01*
X6417682Y-15196460D02*
X6436730Y-15205984D01*
X6436730Y-15205984D02*
X6474825Y-15205984D01*
X6474825Y-15205984D02*
X6493872Y-15196460D01*
X6493872Y-15196460D02*
X6503396Y-15177412D01*
X6503396Y-15177412D02*
X6503396Y-15167888D01*
X6503396Y-15167888D02*
X6493872Y-15148841D01*
X6493872Y-15148841D02*
X6474825Y-15139317D01*
X6474825Y-15139317D02*
X6446253Y-15139317D01*
X6446253Y-15139317D02*
X6427206Y-15129793D01*
X6427206Y-15129793D02*
X6417682Y-15110746D01*
X6417682Y-15110746D02*
X6417682Y-15101222D01*
X6417682Y-15101222D02*
X6427206Y-15082174D01*
X6427206Y-15082174D02*
X6446253Y-15072650D01*
X6446253Y-15072650D02*
X6474825Y-15072650D01*
X6474825Y-15072650D02*
X6493872Y-15082174D01*
X6570063Y-15282174D02*
X6579587Y-15272650D01*
X6579587Y-15272650D02*
X6598634Y-15244079D01*
X6598634Y-15244079D02*
X6608158Y-15225031D01*
X6608158Y-15225031D02*
X6617682Y-15196460D01*
X6617682Y-15196460D02*
X6627206Y-15148841D01*
X6627206Y-15148841D02*
X6627206Y-15110746D01*
X6627206Y-15110746D02*
X6617682Y-15063127D01*
X6617682Y-15063127D02*
X6608158Y-15034555D01*
X6608158Y-15034555D02*
X6598634Y-15015508D01*
X6598634Y-15015508D02*
X6579587Y-14986936D01*
X6579587Y-14986936D02*
X6570063Y-14977412D01*
D15*
X1718800Y-15460700D02*
X1795000Y-15384500D01*
X1718800Y-15308300D01*
X1642600Y-15384500D01*
X1718800Y-15460700D01*
D11*
X2160539Y-15475984D02*
X2046253Y-15475984D01*
X2103396Y-15475984D02*
X2103396Y-15275984D01*
X2103396Y-15275984D02*
X2084348Y-15304555D01*
X2084348Y-15304555D02*
X2065301Y-15323603D01*
X2065301Y-15323603D02*
X2046253Y-15333127D01*
X2246253Y-15456936D02*
X2255777Y-15466460D01*
X2255777Y-15466460D02*
X2246253Y-15475984D01*
X2246253Y-15475984D02*
X2236729Y-15466460D01*
X2236729Y-15466460D02*
X2246253Y-15456936D01*
X2246253Y-15456936D02*
X2246253Y-15475984D01*
X2436729Y-15275984D02*
X2341491Y-15275984D01*
X2341491Y-15275984D02*
X2331967Y-15371222D01*
X2331967Y-15371222D02*
X2341491Y-15361698D01*
X2341491Y-15361698D02*
X2360539Y-15352174D01*
X2360539Y-15352174D02*
X2408158Y-15352174D01*
X2408158Y-15352174D02*
X2427205Y-15361698D01*
X2427205Y-15361698D02*
X2436729Y-15371222D01*
X2436729Y-15371222D02*
X2446253Y-15390269D01*
X2446253Y-15390269D02*
X2446253Y-15437888D01*
X2446253Y-15437888D02*
X2436729Y-15456936D01*
X2436729Y-15456936D02*
X2427205Y-15466460D01*
X2427205Y-15466460D02*
X2408158Y-15475984D01*
X2408158Y-15475984D02*
X2360539Y-15475984D01*
X2360539Y-15475984D02*
X2341491Y-15466460D01*
X2341491Y-15466460D02*
X2331967Y-15456936D01*
X2522444Y-15295031D02*
X2531967Y-15285508D01*
X2531967Y-15285508D02*
X2551015Y-15275984D01*
X2551015Y-15275984D02*
X2598634Y-15275984D01*
X2598634Y-15275984D02*
X2617682Y-15285508D01*
X2617682Y-15285508D02*
X2627205Y-15295031D01*
X2627205Y-15295031D02*
X2636729Y-15314079D01*
X2636729Y-15314079D02*
X2636729Y-15333127D01*
X2636729Y-15333127D02*
X2627205Y-15361698D01*
X2627205Y-15361698D02*
X2512920Y-15475984D01*
X2512920Y-15475984D02*
X2636729Y-15475984D01*
X2808158Y-15342650D02*
X2808158Y-15475984D01*
X2760539Y-15266460D02*
X2712920Y-15409317D01*
X2712920Y-15409317D02*
X2836729Y-15409317D01*
X2912920Y-15475984D02*
X2912920Y-15342650D01*
X2912920Y-15361698D02*
X2922443Y-15352174D01*
X2922443Y-15352174D02*
X2941491Y-15342650D01*
X2941491Y-15342650D02*
X2970063Y-15342650D01*
X2970063Y-15342650D02*
X2989110Y-15352174D01*
X2989110Y-15352174D02*
X2998634Y-15371222D01*
X2998634Y-15371222D02*
X2998634Y-15475984D01*
X2998634Y-15371222D02*
X3008158Y-15352174D01*
X3008158Y-15352174D02*
X3027205Y-15342650D01*
X3027205Y-15342650D02*
X3055777Y-15342650D01*
X3055777Y-15342650D02*
X3074824Y-15352174D01*
X3074824Y-15352174D02*
X3084348Y-15371222D01*
X3084348Y-15371222D02*
X3084348Y-15475984D01*
X3179586Y-15475984D02*
X3179586Y-15342650D01*
X3179586Y-15361698D02*
X3189110Y-15352174D01*
X3189110Y-15352174D02*
X3208158Y-15342650D01*
X3208158Y-15342650D02*
X3236729Y-15342650D01*
X3236729Y-15342650D02*
X3255777Y-15352174D01*
X3255777Y-15352174D02*
X3265301Y-15371222D01*
X3265301Y-15371222D02*
X3265301Y-15475984D01*
X3265301Y-15371222D02*
X3274824Y-15352174D01*
X3274824Y-15352174D02*
X3293872Y-15342650D01*
X3293872Y-15342650D02*
X3322443Y-15342650D01*
X3322443Y-15342650D02*
X3341491Y-15352174D01*
X3341491Y-15352174D02*
X3351015Y-15371222D01*
X3351015Y-15371222D02*
X3351015Y-15475984D01*
X3741491Y-15266460D02*
X3570063Y-15523603D01*
X3998634Y-15275984D02*
X4017682Y-15275984D01*
X4017682Y-15275984D02*
X4036729Y-15285508D01*
X4036729Y-15285508D02*
X4046253Y-15295031D01*
X4046253Y-15295031D02*
X4055777Y-15314079D01*
X4055777Y-15314079D02*
X4065301Y-15352174D01*
X4065301Y-15352174D02*
X4065301Y-15399793D01*
X4065301Y-15399793D02*
X4055777Y-15437888D01*
X4055777Y-15437888D02*
X4046253Y-15456936D01*
X4046253Y-15456936D02*
X4036729Y-15466460D01*
X4036729Y-15466460D02*
X4017682Y-15475984D01*
X4017682Y-15475984D02*
X3998634Y-15475984D01*
X3998634Y-15475984D02*
X3979586Y-15466460D01*
X3979586Y-15466460D02*
X3970063Y-15456936D01*
X3970063Y-15456936D02*
X3960539Y-15437888D01*
X3960539Y-15437888D02*
X3951015Y-15399793D01*
X3951015Y-15399793D02*
X3951015Y-15352174D01*
X3951015Y-15352174D02*
X3960539Y-15314079D01*
X3960539Y-15314079D02*
X3970063Y-15295031D01*
X3970063Y-15295031D02*
X3979586Y-15285508D01*
X3979586Y-15285508D02*
X3998634Y-15275984D01*
X4151015Y-15456936D02*
X4160539Y-15466460D01*
X4160539Y-15466460D02*
X4151015Y-15475984D01*
X4151015Y-15475984D02*
X4141491Y-15466460D01*
X4141491Y-15466460D02*
X4151015Y-15456936D01*
X4151015Y-15456936D02*
X4151015Y-15475984D01*
X4284348Y-15275984D02*
X4303396Y-15275984D01*
X4303396Y-15275984D02*
X4322444Y-15285508D01*
X4322444Y-15285508D02*
X4331968Y-15295031D01*
X4331968Y-15295031D02*
X4341491Y-15314079D01*
X4341491Y-15314079D02*
X4351015Y-15352174D01*
X4351015Y-15352174D02*
X4351015Y-15399793D01*
X4351015Y-15399793D02*
X4341491Y-15437888D01*
X4341491Y-15437888D02*
X4331968Y-15456936D01*
X4331968Y-15456936D02*
X4322444Y-15466460D01*
X4322444Y-15466460D02*
X4303396Y-15475984D01*
X4303396Y-15475984D02*
X4284348Y-15475984D01*
X4284348Y-15475984D02*
X4265301Y-15466460D01*
X4265301Y-15466460D02*
X4255777Y-15456936D01*
X4255777Y-15456936D02*
X4246253Y-15437888D01*
X4246253Y-15437888D02*
X4236729Y-15399793D01*
X4236729Y-15399793D02*
X4236729Y-15352174D01*
X4236729Y-15352174D02*
X4246253Y-15314079D01*
X4246253Y-15314079D02*
X4255777Y-15295031D01*
X4255777Y-15295031D02*
X4265301Y-15285508D01*
X4265301Y-15285508D02*
X4284348Y-15275984D01*
X4522444Y-15275984D02*
X4484348Y-15275984D01*
X4484348Y-15275984D02*
X4465301Y-15285508D01*
X4465301Y-15285508D02*
X4455777Y-15295031D01*
X4455777Y-15295031D02*
X4436729Y-15323603D01*
X4436729Y-15323603D02*
X4427206Y-15361698D01*
X4427206Y-15361698D02*
X4427206Y-15437888D01*
X4427206Y-15437888D02*
X4436729Y-15456936D01*
X4436729Y-15456936D02*
X4446253Y-15466460D01*
X4446253Y-15466460D02*
X4465301Y-15475984D01*
X4465301Y-15475984D02*
X4503396Y-15475984D01*
X4503396Y-15475984D02*
X4522444Y-15466460D01*
X4522444Y-15466460D02*
X4531968Y-15456936D01*
X4531968Y-15456936D02*
X4541491Y-15437888D01*
X4541491Y-15437888D02*
X4541491Y-15390269D01*
X4541491Y-15390269D02*
X4531968Y-15371222D01*
X4531968Y-15371222D02*
X4522444Y-15361698D01*
X4522444Y-15361698D02*
X4503396Y-15352174D01*
X4503396Y-15352174D02*
X4465301Y-15352174D01*
X4465301Y-15352174D02*
X4446253Y-15361698D01*
X4446253Y-15361698D02*
X4436729Y-15371222D01*
X4436729Y-15371222D02*
X4427206Y-15390269D01*
X4665301Y-15275984D02*
X4684349Y-15275984D01*
X4684349Y-15275984D02*
X4703396Y-15285508D01*
X4703396Y-15285508D02*
X4712920Y-15295031D01*
X4712920Y-15295031D02*
X4722444Y-15314079D01*
X4722444Y-15314079D02*
X4731968Y-15352174D01*
X4731968Y-15352174D02*
X4731968Y-15399793D01*
X4731968Y-15399793D02*
X4722444Y-15437888D01*
X4722444Y-15437888D02*
X4712920Y-15456936D01*
X4712920Y-15456936D02*
X4703396Y-15466460D01*
X4703396Y-15466460D02*
X4684349Y-15475984D01*
X4684349Y-15475984D02*
X4665301Y-15475984D01*
X4665301Y-15475984D02*
X4646253Y-15466460D01*
X4646253Y-15466460D02*
X4636729Y-15456936D01*
X4636729Y-15456936D02*
X4627206Y-15437888D01*
X4627206Y-15437888D02*
X4617682Y-15399793D01*
X4617682Y-15399793D02*
X4617682Y-15352174D01*
X4617682Y-15352174D02*
X4627206Y-15314079D01*
X4627206Y-15314079D02*
X4636729Y-15295031D01*
X4636729Y-15295031D02*
X4646253Y-15285508D01*
X4646253Y-15285508D02*
X4665301Y-15275984D01*
X4855777Y-15275984D02*
X4874825Y-15275984D01*
X4874825Y-15275984D02*
X4893872Y-15285508D01*
X4893872Y-15285508D02*
X4903396Y-15295031D01*
X4903396Y-15295031D02*
X4912920Y-15314079D01*
X4912920Y-15314079D02*
X4922444Y-15352174D01*
X4922444Y-15352174D02*
X4922444Y-15399793D01*
X4922444Y-15399793D02*
X4912920Y-15437888D01*
X4912920Y-15437888D02*
X4903396Y-15456936D01*
X4903396Y-15456936D02*
X4893872Y-15466460D01*
X4893872Y-15466460D02*
X4874825Y-15475984D01*
X4874825Y-15475984D02*
X4855777Y-15475984D01*
X4855777Y-15475984D02*
X4836729Y-15466460D01*
X4836729Y-15466460D02*
X4827206Y-15456936D01*
X4827206Y-15456936D02*
X4817682Y-15437888D01*
X4817682Y-15437888D02*
X4808158Y-15399793D01*
X4808158Y-15399793D02*
X4808158Y-15352174D01*
X4808158Y-15352174D02*
X4817682Y-15314079D01*
X4817682Y-15314079D02*
X4827206Y-15295031D01*
X4827206Y-15295031D02*
X4836729Y-15285508D01*
X4836729Y-15285508D02*
X4855777Y-15275984D01*
X4998634Y-15275984D02*
X4998634Y-15314079D01*
X5074825Y-15275984D02*
X5074825Y-15314079D01*
X5370063Y-15552174D02*
X5360539Y-15542650D01*
X5360539Y-15542650D02*
X5341491Y-15514079D01*
X5341491Y-15514079D02*
X5331968Y-15495031D01*
X5331968Y-15495031D02*
X5322444Y-15466460D01*
X5322444Y-15466460D02*
X5312920Y-15418841D01*
X5312920Y-15418841D02*
X5312920Y-15380746D01*
X5312920Y-15380746D02*
X5322444Y-15333127D01*
X5322444Y-15333127D02*
X5331968Y-15304555D01*
X5331968Y-15304555D02*
X5341491Y-15285508D01*
X5341491Y-15285508D02*
X5360539Y-15256936D01*
X5360539Y-15256936D02*
X5370063Y-15247412D01*
X5436730Y-15295031D02*
X5446253Y-15285508D01*
X5446253Y-15285508D02*
X5465301Y-15275984D01*
X5465301Y-15275984D02*
X5512920Y-15275984D01*
X5512920Y-15275984D02*
X5531968Y-15285508D01*
X5531968Y-15285508D02*
X5541491Y-15295031D01*
X5541491Y-15295031D02*
X5551015Y-15314079D01*
X5551015Y-15314079D02*
X5551015Y-15333127D01*
X5551015Y-15333127D02*
X5541491Y-15361698D01*
X5541491Y-15361698D02*
X5427206Y-15475984D01*
X5427206Y-15475984D02*
X5551015Y-15475984D01*
X5789110Y-15475984D02*
X5789110Y-15275984D01*
X5874825Y-15475984D02*
X5874825Y-15371222D01*
X5874825Y-15371222D02*
X5865301Y-15352174D01*
X5865301Y-15352174D02*
X5846253Y-15342650D01*
X5846253Y-15342650D02*
X5817682Y-15342650D01*
X5817682Y-15342650D02*
X5798634Y-15352174D01*
X5798634Y-15352174D02*
X5789110Y-15361698D01*
X5998634Y-15475984D02*
X5979587Y-15466460D01*
X5979587Y-15466460D02*
X5970063Y-15456936D01*
X5970063Y-15456936D02*
X5960539Y-15437888D01*
X5960539Y-15437888D02*
X5960539Y-15380746D01*
X5960539Y-15380746D02*
X5970063Y-15361698D01*
X5970063Y-15361698D02*
X5979587Y-15352174D01*
X5979587Y-15352174D02*
X5998634Y-15342650D01*
X5998634Y-15342650D02*
X6027206Y-15342650D01*
X6027206Y-15342650D02*
X6046253Y-15352174D01*
X6046253Y-15352174D02*
X6055777Y-15361698D01*
X6055777Y-15361698D02*
X6065301Y-15380746D01*
X6065301Y-15380746D02*
X6065301Y-15437888D01*
X6065301Y-15437888D02*
X6055777Y-15456936D01*
X6055777Y-15456936D02*
X6046253Y-15466460D01*
X6046253Y-15466460D02*
X6027206Y-15475984D01*
X6027206Y-15475984D02*
X5998634Y-15475984D01*
X6179587Y-15475984D02*
X6160539Y-15466460D01*
X6160539Y-15466460D02*
X6151015Y-15447412D01*
X6151015Y-15447412D02*
X6151015Y-15275984D01*
X6331968Y-15466460D02*
X6312920Y-15475984D01*
X6312920Y-15475984D02*
X6274825Y-15475984D01*
X6274825Y-15475984D02*
X6255777Y-15466460D01*
X6255777Y-15466460D02*
X6246253Y-15447412D01*
X6246253Y-15447412D02*
X6246253Y-15371222D01*
X6246253Y-15371222D02*
X6255777Y-15352174D01*
X6255777Y-15352174D02*
X6274825Y-15342650D01*
X6274825Y-15342650D02*
X6312920Y-15342650D01*
X6312920Y-15342650D02*
X6331968Y-15352174D01*
X6331968Y-15352174D02*
X6341491Y-15371222D01*
X6341491Y-15371222D02*
X6341491Y-15390269D01*
X6341491Y-15390269D02*
X6246253Y-15409317D01*
X6417682Y-15466460D02*
X6436730Y-15475984D01*
X6436730Y-15475984D02*
X6474825Y-15475984D01*
X6474825Y-15475984D02*
X6493872Y-15466460D01*
X6493872Y-15466460D02*
X6503396Y-15447412D01*
X6503396Y-15447412D02*
X6503396Y-15437888D01*
X6503396Y-15437888D02*
X6493872Y-15418841D01*
X6493872Y-15418841D02*
X6474825Y-15409317D01*
X6474825Y-15409317D02*
X6446253Y-15409317D01*
X6446253Y-15409317D02*
X6427206Y-15399793D01*
X6427206Y-15399793D02*
X6417682Y-15380746D01*
X6417682Y-15380746D02*
X6417682Y-15371222D01*
X6417682Y-15371222D02*
X6427206Y-15352174D01*
X6427206Y-15352174D02*
X6446253Y-15342650D01*
X6446253Y-15342650D02*
X6474825Y-15342650D01*
X6474825Y-15342650D02*
X6493872Y-15352174D01*
X6570063Y-15552174D02*
X6579587Y-15542650D01*
X6579587Y-15542650D02*
X6598634Y-15514079D01*
X6598634Y-15514079D02*
X6608158Y-15495031D01*
X6608158Y-15495031D02*
X6617682Y-15466460D01*
X6617682Y-15466460D02*
X6627206Y-15418841D01*
X6627206Y-15418841D02*
X6627206Y-15380746D01*
X6627206Y-15380746D02*
X6617682Y-15333127D01*
X6617682Y-15333127D02*
X6608158Y-15304555D01*
X6608158Y-15304555D02*
X6598634Y-15285508D01*
X6598634Y-15285508D02*
X6579587Y-15256936D01*
X6579587Y-15256936D02*
X6570063Y-15247412D01*
X1595000Y-15556900D02*
X1795000Y-15756900D01*
X1795000Y-15556900D02*
X1595000Y-15756900D01*
X1795000Y-15656900D02*
G75*
G03*
X1795000Y-15656900I-100000J0D01*
G01*
X2036729Y-15548384D02*
X2160539Y-15548384D01*
X2160539Y-15548384D02*
X2093872Y-15624574D01*
X2093872Y-15624574D02*
X2122444Y-15624574D01*
X2122444Y-15624574D02*
X2141491Y-15634098D01*
X2141491Y-15634098D02*
X2151015Y-15643622D01*
X2151015Y-15643622D02*
X2160539Y-15662669D01*
X2160539Y-15662669D02*
X2160539Y-15710288D01*
X2160539Y-15710288D02*
X2151015Y-15729336D01*
X2151015Y-15729336D02*
X2141491Y-15738860D01*
X2141491Y-15738860D02*
X2122444Y-15748384D01*
X2122444Y-15748384D02*
X2065301Y-15748384D01*
X2065301Y-15748384D02*
X2046253Y-15738860D01*
X2046253Y-15738860D02*
X2036729Y-15729336D01*
X2246253Y-15729336D02*
X2255777Y-15738860D01*
X2255777Y-15738860D02*
X2246253Y-15748384D01*
X2246253Y-15748384D02*
X2236729Y-15738860D01*
X2236729Y-15738860D02*
X2246253Y-15729336D01*
X2246253Y-15729336D02*
X2246253Y-15748384D01*
X2379586Y-15548384D02*
X2398634Y-15548384D01*
X2398634Y-15548384D02*
X2417682Y-15557908D01*
X2417682Y-15557908D02*
X2427205Y-15567431D01*
X2427205Y-15567431D02*
X2436729Y-15586479D01*
X2436729Y-15586479D02*
X2446253Y-15624574D01*
X2446253Y-15624574D02*
X2446253Y-15672193D01*
X2446253Y-15672193D02*
X2436729Y-15710288D01*
X2436729Y-15710288D02*
X2427205Y-15729336D01*
X2427205Y-15729336D02*
X2417682Y-15738860D01*
X2417682Y-15738860D02*
X2398634Y-15748384D01*
X2398634Y-15748384D02*
X2379586Y-15748384D01*
X2379586Y-15748384D02*
X2360539Y-15738860D01*
X2360539Y-15738860D02*
X2351015Y-15729336D01*
X2351015Y-15729336D02*
X2341491Y-15710288D01*
X2341491Y-15710288D02*
X2331967Y-15672193D01*
X2331967Y-15672193D02*
X2331967Y-15624574D01*
X2331967Y-15624574D02*
X2341491Y-15586479D01*
X2341491Y-15586479D02*
X2351015Y-15567431D01*
X2351015Y-15567431D02*
X2360539Y-15557908D01*
X2360539Y-15557908D02*
X2379586Y-15548384D01*
X2570063Y-15548384D02*
X2589110Y-15548384D01*
X2589110Y-15548384D02*
X2608158Y-15557908D01*
X2608158Y-15557908D02*
X2617682Y-15567431D01*
X2617682Y-15567431D02*
X2627205Y-15586479D01*
X2627205Y-15586479D02*
X2636729Y-15624574D01*
X2636729Y-15624574D02*
X2636729Y-15672193D01*
X2636729Y-15672193D02*
X2627205Y-15710288D01*
X2627205Y-15710288D02*
X2617682Y-15729336D01*
X2617682Y-15729336D02*
X2608158Y-15738860D01*
X2608158Y-15738860D02*
X2589110Y-15748384D01*
X2589110Y-15748384D02*
X2570063Y-15748384D01*
X2570063Y-15748384D02*
X2551015Y-15738860D01*
X2551015Y-15738860D02*
X2541491Y-15729336D01*
X2541491Y-15729336D02*
X2531967Y-15710288D01*
X2531967Y-15710288D02*
X2522444Y-15672193D01*
X2522444Y-15672193D02*
X2522444Y-15624574D01*
X2522444Y-15624574D02*
X2531967Y-15586479D01*
X2531967Y-15586479D02*
X2541491Y-15567431D01*
X2541491Y-15567431D02*
X2551015Y-15557908D01*
X2551015Y-15557908D02*
X2570063Y-15548384D01*
X2760539Y-15548384D02*
X2779586Y-15548384D01*
X2779586Y-15548384D02*
X2798634Y-15557908D01*
X2798634Y-15557908D02*
X2808158Y-15567431D01*
X2808158Y-15567431D02*
X2817682Y-15586479D01*
X2817682Y-15586479D02*
X2827205Y-15624574D01*
X2827205Y-15624574D02*
X2827205Y-15672193D01*
X2827205Y-15672193D02*
X2817682Y-15710288D01*
X2817682Y-15710288D02*
X2808158Y-15729336D01*
X2808158Y-15729336D02*
X2798634Y-15738860D01*
X2798634Y-15738860D02*
X2779586Y-15748384D01*
X2779586Y-15748384D02*
X2760539Y-15748384D01*
X2760539Y-15748384D02*
X2741491Y-15738860D01*
X2741491Y-15738860D02*
X2731967Y-15729336D01*
X2731967Y-15729336D02*
X2722444Y-15710288D01*
X2722444Y-15710288D02*
X2712920Y-15672193D01*
X2712920Y-15672193D02*
X2712920Y-15624574D01*
X2712920Y-15624574D02*
X2722444Y-15586479D01*
X2722444Y-15586479D02*
X2731967Y-15567431D01*
X2731967Y-15567431D02*
X2741491Y-15557908D01*
X2741491Y-15557908D02*
X2760539Y-15548384D01*
X2912920Y-15748384D02*
X2912920Y-15615050D01*
X2912920Y-15634098D02*
X2922443Y-15624574D01*
X2922443Y-15624574D02*
X2941491Y-15615050D01*
X2941491Y-15615050D02*
X2970063Y-15615050D01*
X2970063Y-15615050D02*
X2989110Y-15624574D01*
X2989110Y-15624574D02*
X2998634Y-15643622D01*
X2998634Y-15643622D02*
X2998634Y-15748384D01*
X2998634Y-15643622D02*
X3008158Y-15624574D01*
X3008158Y-15624574D02*
X3027205Y-15615050D01*
X3027205Y-15615050D02*
X3055777Y-15615050D01*
X3055777Y-15615050D02*
X3074824Y-15624574D01*
X3074824Y-15624574D02*
X3084348Y-15643622D01*
X3084348Y-15643622D02*
X3084348Y-15748384D01*
X3179586Y-15748384D02*
X3179586Y-15615050D01*
X3179586Y-15634098D02*
X3189110Y-15624574D01*
X3189110Y-15624574D02*
X3208158Y-15615050D01*
X3208158Y-15615050D02*
X3236729Y-15615050D01*
X3236729Y-15615050D02*
X3255777Y-15624574D01*
X3255777Y-15624574D02*
X3265301Y-15643622D01*
X3265301Y-15643622D02*
X3265301Y-15748384D01*
X3265301Y-15643622D02*
X3274824Y-15624574D01*
X3274824Y-15624574D02*
X3293872Y-15615050D01*
X3293872Y-15615050D02*
X3322443Y-15615050D01*
X3322443Y-15615050D02*
X3341491Y-15624574D01*
X3341491Y-15624574D02*
X3351015Y-15643622D01*
X3351015Y-15643622D02*
X3351015Y-15748384D01*
X3741491Y-15538860D02*
X3570063Y-15796003D01*
X3998634Y-15548384D02*
X4017682Y-15548384D01*
X4017682Y-15548384D02*
X4036729Y-15557908D01*
X4036729Y-15557908D02*
X4046253Y-15567431D01*
X4046253Y-15567431D02*
X4055777Y-15586479D01*
X4055777Y-15586479D02*
X4065301Y-15624574D01*
X4065301Y-15624574D02*
X4065301Y-15672193D01*
X4065301Y-15672193D02*
X4055777Y-15710288D01*
X4055777Y-15710288D02*
X4046253Y-15729336D01*
X4046253Y-15729336D02*
X4036729Y-15738860D01*
X4036729Y-15738860D02*
X4017682Y-15748384D01*
X4017682Y-15748384D02*
X3998634Y-15748384D01*
X3998634Y-15748384D02*
X3979586Y-15738860D01*
X3979586Y-15738860D02*
X3970063Y-15729336D01*
X3970063Y-15729336D02*
X3960539Y-15710288D01*
X3960539Y-15710288D02*
X3951015Y-15672193D01*
X3951015Y-15672193D02*
X3951015Y-15624574D01*
X3951015Y-15624574D02*
X3960539Y-15586479D01*
X3960539Y-15586479D02*
X3970063Y-15567431D01*
X3970063Y-15567431D02*
X3979586Y-15557908D01*
X3979586Y-15557908D02*
X3998634Y-15548384D01*
X4151015Y-15729336D02*
X4160539Y-15738860D01*
X4160539Y-15738860D02*
X4151015Y-15748384D01*
X4151015Y-15748384D02*
X4141491Y-15738860D01*
X4141491Y-15738860D02*
X4151015Y-15729336D01*
X4151015Y-15729336D02*
X4151015Y-15748384D01*
X4351015Y-15748384D02*
X4236729Y-15748384D01*
X4293872Y-15748384D02*
X4293872Y-15548384D01*
X4293872Y-15548384D02*
X4274825Y-15576955D01*
X4274825Y-15576955D02*
X4255777Y-15596003D01*
X4255777Y-15596003D02*
X4236729Y-15605527D01*
X4541491Y-15748384D02*
X4427206Y-15748384D01*
X4484348Y-15748384D02*
X4484348Y-15548384D01*
X4484348Y-15548384D02*
X4465301Y-15576955D01*
X4465301Y-15576955D02*
X4446253Y-15596003D01*
X4446253Y-15596003D02*
X4427206Y-15605527D01*
X4655777Y-15634098D02*
X4636729Y-15624574D01*
X4636729Y-15624574D02*
X4627206Y-15615050D01*
X4627206Y-15615050D02*
X4617682Y-15596003D01*
X4617682Y-15596003D02*
X4617682Y-15586479D01*
X4617682Y-15586479D02*
X4627206Y-15567431D01*
X4627206Y-15567431D02*
X4636729Y-15557908D01*
X4636729Y-15557908D02*
X4655777Y-15548384D01*
X4655777Y-15548384D02*
X4693872Y-15548384D01*
X4693872Y-15548384D02*
X4712920Y-15557908D01*
X4712920Y-15557908D02*
X4722444Y-15567431D01*
X4722444Y-15567431D02*
X4731968Y-15586479D01*
X4731968Y-15586479D02*
X4731968Y-15596003D01*
X4731968Y-15596003D02*
X4722444Y-15615050D01*
X4722444Y-15615050D02*
X4712920Y-15624574D01*
X4712920Y-15624574D02*
X4693872Y-15634098D01*
X4693872Y-15634098D02*
X4655777Y-15634098D01*
X4655777Y-15634098D02*
X4636729Y-15643622D01*
X4636729Y-15643622D02*
X4627206Y-15653146D01*
X4627206Y-15653146D02*
X4617682Y-15672193D01*
X4617682Y-15672193D02*
X4617682Y-15710288D01*
X4617682Y-15710288D02*
X4627206Y-15729336D01*
X4627206Y-15729336D02*
X4636729Y-15738860D01*
X4636729Y-15738860D02*
X4655777Y-15748384D01*
X4655777Y-15748384D02*
X4693872Y-15748384D01*
X4693872Y-15748384D02*
X4712920Y-15738860D01*
X4712920Y-15738860D02*
X4722444Y-15729336D01*
X4722444Y-15729336D02*
X4731968Y-15710288D01*
X4731968Y-15710288D02*
X4731968Y-15672193D01*
X4731968Y-15672193D02*
X4722444Y-15653146D01*
X4722444Y-15653146D02*
X4712920Y-15643622D01*
X4712920Y-15643622D02*
X4693872Y-15634098D01*
X4922444Y-15748384D02*
X4808158Y-15748384D01*
X4865301Y-15748384D02*
X4865301Y-15548384D01*
X4865301Y-15548384D02*
X4846253Y-15576955D01*
X4846253Y-15576955D02*
X4827206Y-15596003D01*
X4827206Y-15596003D02*
X4808158Y-15605527D01*
X4998634Y-15548384D02*
X4998634Y-15586479D01*
X5074825Y-15548384D02*
X5074825Y-15586479D01*
X5370063Y-15824574D02*
X5360539Y-15815050D01*
X5360539Y-15815050D02*
X5341491Y-15786479D01*
X5341491Y-15786479D02*
X5331968Y-15767431D01*
X5331968Y-15767431D02*
X5322444Y-15738860D01*
X5322444Y-15738860D02*
X5312920Y-15691241D01*
X5312920Y-15691241D02*
X5312920Y-15653146D01*
X5312920Y-15653146D02*
X5322444Y-15605527D01*
X5322444Y-15605527D02*
X5331968Y-15576955D01*
X5331968Y-15576955D02*
X5341491Y-15557908D01*
X5341491Y-15557908D02*
X5360539Y-15529336D01*
X5360539Y-15529336D02*
X5370063Y-15519812D01*
X5436730Y-15567431D02*
X5446253Y-15557908D01*
X5446253Y-15557908D02*
X5465301Y-15548384D01*
X5465301Y-15548384D02*
X5512920Y-15548384D01*
X5512920Y-15548384D02*
X5531968Y-15557908D01*
X5531968Y-15557908D02*
X5541491Y-15567431D01*
X5541491Y-15567431D02*
X5551015Y-15586479D01*
X5551015Y-15586479D02*
X5551015Y-15605527D01*
X5551015Y-15605527D02*
X5541491Y-15634098D01*
X5541491Y-15634098D02*
X5427206Y-15748384D01*
X5427206Y-15748384D02*
X5551015Y-15748384D01*
X5627206Y-15567431D02*
X5636729Y-15557908D01*
X5636729Y-15557908D02*
X5655777Y-15548384D01*
X5655777Y-15548384D02*
X5703396Y-15548384D01*
X5703396Y-15548384D02*
X5722444Y-15557908D01*
X5722444Y-15557908D02*
X5731968Y-15567431D01*
X5731968Y-15567431D02*
X5741491Y-15586479D01*
X5741491Y-15586479D02*
X5741491Y-15605527D01*
X5741491Y-15605527D02*
X5731968Y-15634098D01*
X5731968Y-15634098D02*
X5617682Y-15748384D01*
X5617682Y-15748384D02*
X5741491Y-15748384D01*
X5855777Y-15634098D02*
X5836729Y-15624574D01*
X5836729Y-15624574D02*
X5827206Y-15615050D01*
X5827206Y-15615050D02*
X5817682Y-15596003D01*
X5817682Y-15596003D02*
X5817682Y-15586479D01*
X5817682Y-15586479D02*
X5827206Y-15567431D01*
X5827206Y-15567431D02*
X5836729Y-15557908D01*
X5836729Y-15557908D02*
X5855777Y-15548384D01*
X5855777Y-15548384D02*
X5893872Y-15548384D01*
X5893872Y-15548384D02*
X5912920Y-15557908D01*
X5912920Y-15557908D02*
X5922444Y-15567431D01*
X5922444Y-15567431D02*
X5931968Y-15586479D01*
X5931968Y-15586479D02*
X5931968Y-15596003D01*
X5931968Y-15596003D02*
X5922444Y-15615050D01*
X5922444Y-15615050D02*
X5912920Y-15624574D01*
X5912920Y-15624574D02*
X5893872Y-15634098D01*
X5893872Y-15634098D02*
X5855777Y-15634098D01*
X5855777Y-15634098D02*
X5836729Y-15643622D01*
X5836729Y-15643622D02*
X5827206Y-15653146D01*
X5827206Y-15653146D02*
X5817682Y-15672193D01*
X5817682Y-15672193D02*
X5817682Y-15710288D01*
X5817682Y-15710288D02*
X5827206Y-15729336D01*
X5827206Y-15729336D02*
X5836729Y-15738860D01*
X5836729Y-15738860D02*
X5855777Y-15748384D01*
X5855777Y-15748384D02*
X5893872Y-15748384D01*
X5893872Y-15748384D02*
X5912920Y-15738860D01*
X5912920Y-15738860D02*
X5922444Y-15729336D01*
X5922444Y-15729336D02*
X5931968Y-15710288D01*
X5931968Y-15710288D02*
X5931968Y-15672193D01*
X5931968Y-15672193D02*
X5922444Y-15653146D01*
X5922444Y-15653146D02*
X5912920Y-15643622D01*
X5912920Y-15643622D02*
X5893872Y-15634098D01*
X6170063Y-15748384D02*
X6170063Y-15548384D01*
X6255777Y-15748384D02*
X6255777Y-15643622D01*
X6255777Y-15643622D02*
X6246253Y-15624574D01*
X6246253Y-15624574D02*
X6227206Y-15615050D01*
X6227206Y-15615050D02*
X6198634Y-15615050D01*
X6198634Y-15615050D02*
X6179587Y-15624574D01*
X6179587Y-15624574D02*
X6170063Y-15634098D01*
X6379587Y-15748384D02*
X6360539Y-15738860D01*
X6360539Y-15738860D02*
X6351015Y-15729336D01*
X6351015Y-15729336D02*
X6341491Y-15710288D01*
X6341491Y-15710288D02*
X6341491Y-15653146D01*
X6341491Y-15653146D02*
X6351015Y-15634098D01*
X6351015Y-15634098D02*
X6360539Y-15624574D01*
X6360539Y-15624574D02*
X6379587Y-15615050D01*
X6379587Y-15615050D02*
X6408158Y-15615050D01*
X6408158Y-15615050D02*
X6427206Y-15624574D01*
X6427206Y-15624574D02*
X6436730Y-15634098D01*
X6436730Y-15634098D02*
X6446253Y-15653146D01*
X6446253Y-15653146D02*
X6446253Y-15710288D01*
X6446253Y-15710288D02*
X6436730Y-15729336D01*
X6436730Y-15729336D02*
X6427206Y-15738860D01*
X6427206Y-15738860D02*
X6408158Y-15748384D01*
X6408158Y-15748384D02*
X6379587Y-15748384D01*
X6560539Y-15748384D02*
X6541491Y-15738860D01*
X6541491Y-15738860D02*
X6531968Y-15719812D01*
X6531968Y-15719812D02*
X6531968Y-15548384D01*
X6712920Y-15738860D02*
X6693872Y-15748384D01*
X6693872Y-15748384D02*
X6655777Y-15748384D01*
X6655777Y-15748384D02*
X6636730Y-15738860D01*
X6636730Y-15738860D02*
X6627206Y-15719812D01*
X6627206Y-15719812D02*
X6627206Y-15643622D01*
X6627206Y-15643622D02*
X6636730Y-15624574D01*
X6636730Y-15624574D02*
X6655777Y-15615050D01*
X6655777Y-15615050D02*
X6693872Y-15615050D01*
X6693872Y-15615050D02*
X6712920Y-15624574D01*
X6712920Y-15624574D02*
X6722444Y-15643622D01*
X6722444Y-15643622D02*
X6722444Y-15662669D01*
X6722444Y-15662669D02*
X6627206Y-15681717D01*
X6798634Y-15738860D02*
X6817682Y-15748384D01*
X6817682Y-15748384D02*
X6855777Y-15748384D01*
X6855777Y-15748384D02*
X6874825Y-15738860D01*
X6874825Y-15738860D02*
X6884349Y-15719812D01*
X6884349Y-15719812D02*
X6884349Y-15710288D01*
X6884349Y-15710288D02*
X6874825Y-15691241D01*
X6874825Y-15691241D02*
X6855777Y-15681717D01*
X6855777Y-15681717D02*
X6827206Y-15681717D01*
X6827206Y-15681717D02*
X6808158Y-15672193D01*
X6808158Y-15672193D02*
X6798634Y-15653146D01*
X6798634Y-15653146D02*
X6798634Y-15643622D01*
X6798634Y-15643622D02*
X6808158Y-15624574D01*
X6808158Y-15624574D02*
X6827206Y-15615050D01*
X6827206Y-15615050D02*
X6855777Y-15615050D01*
X6855777Y-15615050D02*
X6874825Y-15624574D01*
X6951015Y-15824574D02*
X6960539Y-15815050D01*
X6960539Y-15815050D02*
X6979587Y-15786479D01*
X6979587Y-15786479D02*
X6989111Y-15767431D01*
X6989111Y-15767431D02*
X6998634Y-15738860D01*
X6998634Y-15738860D02*
X7008158Y-15691241D01*
X7008158Y-15691241D02*
X7008158Y-15653146D01*
X7008158Y-15653146D02*
X6998634Y-15605527D01*
X6998634Y-15605527D02*
X6989111Y-15576955D01*
X6989111Y-15576955D02*
X6979587Y-15557908D01*
X6979587Y-15557908D02*
X6960539Y-15529336D01*
X6960539Y-15529336D02*
X6951015Y-15519812D01*
M02*
