G04 #@! TF.GenerationSoftware,KiCad,Pcbnew,7.0.8-7.0.8~ubuntu22.04.1*
G04 #@! TF.CreationDate,2023-10-08T19:27:19+02:00*
G04 #@! TF.ProjectId,nrw65-pcb,6e727736-352d-4706-9362-2e6b69636164,rev?*
G04 #@! TF.SameCoordinates,Original*
G04 #@! TF.FileFunction,Soldermask,Bot*
G04 #@! TF.FilePolarity,Negative*
%FSLAX46Y46*%
G04 Gerber Fmt 4.6, Leading zero omitted, Abs format (unit mm)*
G04 Created by KiCad (PCBNEW 7.0.8-7.0.8~ubuntu22.04.1) date 2023-10-08 19:27:19*
%MOMM*%
%LPD*%
G01*
G04 APERTURE LIST*
G04 Aperture macros list*
%AMRoundRect*
0 Rectangle with rounded corners*
0 $1 Rounding radius*
0 $2 $3 $4 $5 $6 $7 $8 $9 X,Y pos of 4 corners*
0 Add a 4 corners polygon primitive as box body*
4,1,4,$2,$3,$4,$5,$6,$7,$8,$9,$2,$3,0*
0 Add four circle primitives for the rounded corners*
1,1,$1+$1,$2,$3*
1,1,$1+$1,$4,$5*
1,1,$1+$1,$6,$7*
1,1,$1+$1,$8,$9*
0 Add four rect primitives between the rounded corners*
20,1,$1+$1,$2,$3,$4,$5,0*
20,1,$1+$1,$4,$5,$6,$7,0*
20,1,$1+$1,$6,$7,$8,$9,0*
20,1,$1+$1,$8,$9,$2,$3,0*%
G04 Aperture macros list end*
%ADD10C,1.750000*%
%ADD11C,5.000000*%
%ADD12RoundRect,0.260000X-1.040000X-1.040000X1.040000X-1.040000X1.040000X1.040000X-1.040000X1.040000X0*%
%ADD13RoundRect,0.250000X-1.025000X-1.000000X1.025000X-1.000000X1.025000X1.000000X-1.025000X1.000000X0*%
%ADD14C,3.300000*%
%ADD15C,3.048000*%
%ADD16C,3.987800*%
%ADD17C,2.000000*%
%ADD18RoundRect,0.500000X0.500000X0.500000X-0.500000X0.500000X-0.500000X-0.500000X0.500000X-0.500000X0*%
%ADD19C,2.500000*%
%ADD20C,2.300000*%
%ADD21RoundRect,0.225000X0.375000X-0.225000X0.375000X0.225000X-0.375000X0.225000X-0.375000X-0.225000X0*%
%ADD22RoundRect,0.200000X-0.200000X0.300000X-0.200000X-0.300000X0.200000X-0.300000X0.200000X0.300000X0*%
%ADD23C,0.900000*%
%ADD24RoundRect,0.175000X-0.575000X0.175000X-0.575000X-0.175000X0.575000X-0.175000X0.575000X0.175000X0*%
%ADD25O,1.750000X1.200000*%
%ADD26RoundRect,0.250000X0.625000X-0.350000X0.625000X0.350000X-0.625000X0.350000X-0.625000X-0.350000X0*%
G04 APERTURE END LIST*
D10*
X48495000Y-58337500D03*
D11*
X53575000Y-58337500D03*
D10*
X58655000Y-58337500D03*
D12*
X45900000Y-63037500D03*
D13*
X46215000Y-55797500D03*
D14*
X49175000Y-63037500D03*
X49765000Y-55797500D03*
X56115000Y-53257500D03*
X56175000Y-64087500D03*
D12*
X59450000Y-64087500D03*
D13*
X59665000Y-53257500D03*
D10*
X167557500Y-77387500D03*
D11*
X172637500Y-77387500D03*
D10*
X177717500Y-77387500D03*
D12*
X164962500Y-82087500D03*
D13*
X165277500Y-74847500D03*
D14*
X168237500Y-82087500D03*
X168827500Y-74847500D03*
X175177500Y-72307500D03*
X175237500Y-83137500D03*
D12*
X178512500Y-83137500D03*
D13*
X178727500Y-72307500D03*
D10*
X91357500Y-77387500D03*
D11*
X96437500Y-77387500D03*
D10*
X101517500Y-77387500D03*
D12*
X88762500Y-82087500D03*
D13*
X89077500Y-74847500D03*
D14*
X92037500Y-82087500D03*
X92627500Y-74847500D03*
X98977500Y-72307500D03*
X99037500Y-83137500D03*
D12*
X102312500Y-83137500D03*
D13*
X102527500Y-72307500D03*
D10*
X72307500Y-77387500D03*
D11*
X77387500Y-77387500D03*
D10*
X82467500Y-77387500D03*
D12*
X69712500Y-82087500D03*
D13*
X70027500Y-74847500D03*
D14*
X72987500Y-82087500D03*
X73577500Y-74847500D03*
X79927500Y-72307500D03*
X79987500Y-83137500D03*
D12*
X83262500Y-83137500D03*
D13*
X83477500Y-72307500D03*
D10*
X31826250Y-77387500D03*
D11*
X36906250Y-77387500D03*
D10*
X41986250Y-77387500D03*
D12*
X29231250Y-82087500D03*
D13*
X29546250Y-74847500D03*
D14*
X32506250Y-82087500D03*
X33096250Y-74847500D03*
X39446250Y-72307500D03*
X39506250Y-83137500D03*
D12*
X42781250Y-83137500D03*
D13*
X42996250Y-72307500D03*
D10*
X200895000Y-58337500D03*
D11*
X205975000Y-58337500D03*
D10*
X211055000Y-58337500D03*
D12*
X198300000Y-63037500D03*
D13*
X198615000Y-55797500D03*
D14*
X201575000Y-63037500D03*
X202165000Y-55797500D03*
X208515000Y-53257500D03*
X208575000Y-64087500D03*
D12*
X211850000Y-64087500D03*
D13*
X212065000Y-53257500D03*
D10*
X67545000Y-34525000D03*
D11*
X72625000Y-34525000D03*
D10*
X77705000Y-34525000D03*
D12*
X64950000Y-39225000D03*
D13*
X65265000Y-31985000D03*
D14*
X68225000Y-39225000D03*
X68815000Y-31985000D03*
X75165000Y-29445000D03*
X75225000Y-40275000D03*
D12*
X78500000Y-40275000D03*
D13*
X78715000Y-29445000D03*
D10*
X79451250Y-115487500D03*
D11*
X84531250Y-115487500D03*
D10*
X89611250Y-115487500D03*
D12*
X76856250Y-120187500D03*
D13*
X77171250Y-112947500D03*
D14*
X80131250Y-120187500D03*
X80721250Y-112947500D03*
X87071250Y-110407500D03*
X87131250Y-121237500D03*
D12*
X90406250Y-121237500D03*
D13*
X90621250Y-110407500D03*
D10*
X48495000Y-34525000D03*
D11*
X53575000Y-34525000D03*
D10*
X58655000Y-34525000D03*
D12*
X45900000Y-39225000D03*
D13*
X46215000Y-31985000D03*
D14*
X49175000Y-39225000D03*
X49765000Y-31985000D03*
X56115000Y-29445000D03*
X56175000Y-40275000D03*
D12*
X59450000Y-40275000D03*
D13*
X59665000Y-29445000D03*
D10*
X105645000Y-58337500D03*
D11*
X110725000Y-58337500D03*
D10*
X115805000Y-58337500D03*
D12*
X103050000Y-63037500D03*
D13*
X103365000Y-55797500D03*
D14*
X106325000Y-63037500D03*
X106915000Y-55797500D03*
X113265000Y-53257500D03*
X113325000Y-64087500D03*
D12*
X116600000Y-64087500D03*
D13*
X116815000Y-53257500D03*
D10*
X181845000Y-58337500D03*
D11*
X186925000Y-58337500D03*
D10*
X192005000Y-58337500D03*
D12*
X179250000Y-63037500D03*
D13*
X179565000Y-55797500D03*
D14*
X182525000Y-63037500D03*
X183115000Y-55797500D03*
X189465000Y-53257500D03*
X189525000Y-64087500D03*
D12*
X192800000Y-64087500D03*
D13*
X193015000Y-53257500D03*
D10*
X129457500Y-77387500D03*
D11*
X134537500Y-77387500D03*
D10*
X139617500Y-77387500D03*
D12*
X126862500Y-82087500D03*
D13*
X127177500Y-74847500D03*
D14*
X130137500Y-82087500D03*
X130727500Y-74847500D03*
X137077500Y-72307500D03*
X137137500Y-83137500D03*
D12*
X140412500Y-83137500D03*
D13*
X140627500Y-72307500D03*
D10*
X110407500Y-77387500D03*
D11*
X115487500Y-77387500D03*
D10*
X120567500Y-77387500D03*
D12*
X107812500Y-82087500D03*
D13*
X108127500Y-74847500D03*
D14*
X111087500Y-82087500D03*
X111677500Y-74847500D03*
X118027500Y-72307500D03*
X118087500Y-83137500D03*
D12*
X121362500Y-83137500D03*
D13*
X121577500Y-72307500D03*
D10*
X272332500Y-120250000D03*
D11*
X277412500Y-120250000D03*
D10*
X282492500Y-120250000D03*
D12*
X269737500Y-124950000D03*
D13*
X270052500Y-117710000D03*
D14*
X273012500Y-124950000D03*
X273602500Y-117710000D03*
X279952500Y-115170000D03*
X280012500Y-126000000D03*
D12*
X283287500Y-126000000D03*
D13*
X283502500Y-115170000D03*
D10*
X134220000Y-96437500D03*
D11*
X139300000Y-96437500D03*
D10*
X144380000Y-96437500D03*
D12*
X131625000Y-101137500D03*
D13*
X131940000Y-93897500D03*
D14*
X134900000Y-101137500D03*
X135490000Y-93897500D03*
X141840000Y-91357500D03*
X141900000Y-102187500D03*
D12*
X145175000Y-102187500D03*
D13*
X145390000Y-91357500D03*
D10*
X31826250Y-115487500D03*
D11*
X36906250Y-115487500D03*
D10*
X41986250Y-115487500D03*
D12*
X29231250Y-120187500D03*
D13*
X29546250Y-112947500D03*
D14*
X32506250Y-120187500D03*
X33096250Y-112947500D03*
X39446250Y-110407500D03*
X39506250Y-121237500D03*
D12*
X42781250Y-121237500D03*
D13*
X42996250Y-110407500D03*
D10*
X191370000Y-96437500D03*
D11*
X196450000Y-96437500D03*
D10*
X201530000Y-96437500D03*
D12*
X188775000Y-101137500D03*
D13*
X189090000Y-93897500D03*
D14*
X192050000Y-101137500D03*
X192640000Y-93897500D03*
X198990000Y-91357500D03*
X199050000Y-102187500D03*
D12*
X202325000Y-102187500D03*
D13*
X202540000Y-91357500D03*
D10*
X169938750Y-120250000D03*
D11*
X175018750Y-120250000D03*
D10*
X180098750Y-120250000D03*
D12*
X167343750Y-124950000D03*
D13*
X167658750Y-117710000D03*
D14*
X170618750Y-124950000D03*
X171208750Y-117710000D03*
X177558750Y-115170000D03*
X177618750Y-126000000D03*
D12*
X180893750Y-126000000D03*
D13*
X181108750Y-115170000D03*
D10*
X272332500Y-58337500D03*
D11*
X277412500Y-58337500D03*
D10*
X282492500Y-58337500D03*
D12*
X269737500Y-63037500D03*
D13*
X270052500Y-55797500D03*
D14*
X273012500Y-63037500D03*
X273602500Y-55797500D03*
X279952500Y-53257500D03*
X280012500Y-64087500D03*
D12*
X283287500Y-64087500D03*
D13*
X283502500Y-53257500D03*
D10*
X77070000Y-96437500D03*
D11*
X82150000Y-96437500D03*
D10*
X87230000Y-96437500D03*
D12*
X74475000Y-101137500D03*
D13*
X74790000Y-93897500D03*
D14*
X77750000Y-101137500D03*
X78340000Y-93897500D03*
X84690000Y-91357500D03*
X84750000Y-102187500D03*
D12*
X88025000Y-102187500D03*
D13*
X88240000Y-91357500D03*
D10*
X86595000Y-34525000D03*
D11*
X91675000Y-34525000D03*
D10*
X96755000Y-34525000D03*
D12*
X84000000Y-39225000D03*
D13*
X84315000Y-31985000D03*
D14*
X87275000Y-39225000D03*
X87865000Y-31985000D03*
X94215000Y-29445000D03*
X94275000Y-40275000D03*
D12*
X97550000Y-40275000D03*
D13*
X97765000Y-29445000D03*
D10*
X143745000Y-58337500D03*
D11*
X148825000Y-58337500D03*
D10*
X153905000Y-58337500D03*
D12*
X141150000Y-63037500D03*
D13*
X141465000Y-55797500D03*
D14*
X144425000Y-63037500D03*
X145015000Y-55797500D03*
X151365000Y-53257500D03*
X151425000Y-64087500D03*
D12*
X154700000Y-64087500D03*
D13*
X154915000Y-53257500D03*
D10*
X67545000Y-58337500D03*
D11*
X72625000Y-58337500D03*
D10*
X77705000Y-58337500D03*
D12*
X64950000Y-63037500D03*
D13*
X65265000Y-55797500D03*
D14*
X68225000Y-63037500D03*
X68815000Y-55797500D03*
X75165000Y-53257500D03*
X75225000Y-64087500D03*
D12*
X78500000Y-64087500D03*
D13*
X78715000Y-53257500D03*
D15*
X139300000Y-127235000D03*
D16*
X139300000Y-111995000D03*
D15*
X115487500Y-127235000D03*
D16*
X115487500Y-111995000D03*
D10*
X58020000Y-96437500D03*
D11*
X63100000Y-96437500D03*
D10*
X68180000Y-96437500D03*
D12*
X55425000Y-101137500D03*
D13*
X55740000Y-93897500D03*
D14*
X58700000Y-101137500D03*
X59290000Y-93897500D03*
X65640000Y-91357500D03*
X65700000Y-102187500D03*
D12*
X68975000Y-102187500D03*
D13*
X69190000Y-91357500D03*
D10*
X219945000Y-58337500D03*
D11*
X225025000Y-58337500D03*
D10*
X230105000Y-58337500D03*
D12*
X217350000Y-63037500D03*
D13*
X217665000Y-55797500D03*
D14*
X220625000Y-63037500D03*
X221215000Y-55797500D03*
X227565000Y-53257500D03*
X227625000Y-64087500D03*
D12*
X230900000Y-64087500D03*
D13*
X231115000Y-53257500D03*
D10*
X124695000Y-58337500D03*
D11*
X129775000Y-58337500D03*
D10*
X134855000Y-58337500D03*
D12*
X122100000Y-63037500D03*
D13*
X122415000Y-55797500D03*
D14*
X125375000Y-63037500D03*
X125965000Y-55797500D03*
X132315000Y-53257500D03*
X132375000Y-64087500D03*
D12*
X135650000Y-64087500D03*
D13*
X135865000Y-53257500D03*
D10*
X162795000Y-58337500D03*
D11*
X167875000Y-58337500D03*
D10*
X172955000Y-58337500D03*
D12*
X160200000Y-63037500D03*
D13*
X160515000Y-55797500D03*
D14*
X163475000Y-63037500D03*
X164065000Y-55797500D03*
X170415000Y-53257500D03*
X170475000Y-64087500D03*
D12*
X173750000Y-64087500D03*
D13*
X173965000Y-53257500D03*
D10*
X55638750Y-115487500D03*
D11*
X60718750Y-115487500D03*
D10*
X65798750Y-115487500D03*
D12*
X53043750Y-120187500D03*
D13*
X53358750Y-112947500D03*
D14*
X56318750Y-120187500D03*
X56908750Y-112947500D03*
X63258750Y-110407500D03*
X63318750Y-121237500D03*
D12*
X66593750Y-121237500D03*
D13*
X66808750Y-110407500D03*
D10*
X86595000Y-58337500D03*
D11*
X91675000Y-58337500D03*
D10*
X96755000Y-58337500D03*
D12*
X84000000Y-63037500D03*
D13*
X84315000Y-55797500D03*
D14*
X87275000Y-63037500D03*
X87865000Y-55797500D03*
X94215000Y-53257500D03*
X94275000Y-64087500D03*
D12*
X97550000Y-64087500D03*
D13*
X97765000Y-53257500D03*
D10*
X186607500Y-77387500D03*
D11*
X191687500Y-77387500D03*
D10*
X196767500Y-77387500D03*
D12*
X184012500Y-82087500D03*
D13*
X184327500Y-74847500D03*
D14*
X187287500Y-82087500D03*
X187877500Y-74847500D03*
X194227500Y-72307500D03*
X194287500Y-83137500D03*
D12*
X197562500Y-83137500D03*
D13*
X197777500Y-72307500D03*
D10*
X129457500Y-34525000D03*
D11*
X134537500Y-34525000D03*
D10*
X139617500Y-34525000D03*
D12*
X126862500Y-39225000D03*
D13*
X127177500Y-31985000D03*
D14*
X130137500Y-39225000D03*
X130727500Y-31985000D03*
X137077500Y-29445000D03*
X137137500Y-40275000D03*
D12*
X140412500Y-40275000D03*
D13*
X140627500Y-29445000D03*
D10*
X148507500Y-77387500D03*
D11*
X153587500Y-77387500D03*
D10*
X158667500Y-77387500D03*
D12*
X145912500Y-82087500D03*
D13*
X146227500Y-74847500D03*
D14*
X149187500Y-82087500D03*
X149777500Y-74847500D03*
X156127500Y-72307500D03*
X156187500Y-83137500D03*
D12*
X159462500Y-83137500D03*
D13*
X159677500Y-72307500D03*
D10*
X205657500Y-77387500D03*
D11*
X210737500Y-77387500D03*
D10*
X215817500Y-77387500D03*
D12*
X203062500Y-82087500D03*
D13*
X203377500Y-74847500D03*
D14*
X206337500Y-82087500D03*
X206927500Y-74847500D03*
X213277500Y-72307500D03*
X213337500Y-83137500D03*
D12*
X216612500Y-83137500D03*
D13*
X216827500Y-72307500D03*
D10*
X148507500Y-34525000D03*
D11*
X153587500Y-34525000D03*
D10*
X158667500Y-34525000D03*
D12*
X145912500Y-39225000D03*
D13*
X146227500Y-31985000D03*
D14*
X149187500Y-39225000D03*
X149777500Y-31985000D03*
X156127500Y-29445000D03*
X156187500Y-40275000D03*
D12*
X159462500Y-40275000D03*
D13*
X159677500Y-29445000D03*
D10*
X115170000Y-96437500D03*
D11*
X120250000Y-96437500D03*
D10*
X125330000Y-96437500D03*
D12*
X112575000Y-101137500D03*
D13*
X112890000Y-93897500D03*
D14*
X115850000Y-101137500D03*
X116440000Y-93897500D03*
X122790000Y-91357500D03*
X122850000Y-102187500D03*
D12*
X126125000Y-102187500D03*
D13*
X126340000Y-91357500D03*
D10*
X96120000Y-96437500D03*
D11*
X101200000Y-96437500D03*
D10*
X106280000Y-96437500D03*
D12*
X93525000Y-101137500D03*
D13*
X93840000Y-93897500D03*
D14*
X96800000Y-101137500D03*
X97390000Y-93897500D03*
X103740000Y-91357500D03*
X103800000Y-102187500D03*
D12*
X107075000Y-102187500D03*
D13*
X107290000Y-91357500D03*
D10*
X210420000Y-96437500D03*
D11*
X215500000Y-96437500D03*
D10*
X220580000Y-96437500D03*
D12*
X207825000Y-101137500D03*
D13*
X208140000Y-93897500D03*
D14*
X211100000Y-101137500D03*
X211690000Y-93897500D03*
X218040000Y-91357500D03*
X218100000Y-102187500D03*
D12*
X221375000Y-102187500D03*
D13*
X221590000Y-91357500D03*
D10*
X110407500Y-34525000D03*
D11*
X115487500Y-34525000D03*
D10*
X120567500Y-34525000D03*
D12*
X107812500Y-39225000D03*
D13*
X108127500Y-31985000D03*
D14*
X111087500Y-39225000D03*
X111677500Y-31985000D03*
X118027500Y-29445000D03*
X118087500Y-40275000D03*
D12*
X121362500Y-40275000D03*
D13*
X121577500Y-29445000D03*
D10*
X208038750Y-115487500D03*
D11*
X213118750Y-115487500D03*
D10*
X218198750Y-115487500D03*
D12*
X205443750Y-120187500D03*
D13*
X205758750Y-112947500D03*
D14*
X208718750Y-120187500D03*
X209308750Y-112947500D03*
X215658750Y-110407500D03*
X215718750Y-121237500D03*
D12*
X218993750Y-121237500D03*
D13*
X219208750Y-110407500D03*
D10*
X272332500Y-77387500D03*
D11*
X277412500Y-77387500D03*
D10*
X282492500Y-77387500D03*
D12*
X269737500Y-82087500D03*
D13*
X270052500Y-74847500D03*
D14*
X273012500Y-82087500D03*
X273602500Y-74847500D03*
X279952500Y-72307500D03*
X280012500Y-83137500D03*
D12*
X283287500Y-83137500D03*
D13*
X283502500Y-72307500D03*
D10*
X229470000Y-96437500D03*
D11*
X234550000Y-96437500D03*
D10*
X239630000Y-96437500D03*
D12*
X226875000Y-101137500D03*
D13*
X227190000Y-93897500D03*
D14*
X230150000Y-101137500D03*
X230740000Y-93897500D03*
X237090000Y-91357500D03*
X237150000Y-102187500D03*
D12*
X240425000Y-102187500D03*
D13*
X240640000Y-91357500D03*
D10*
X29445000Y-58337500D03*
D11*
X34525000Y-58337500D03*
D10*
X39605000Y-58337500D03*
D12*
X26850000Y-63037500D03*
D13*
X27165000Y-55797500D03*
D14*
X30125000Y-63037500D03*
X30715000Y-55797500D03*
X37065000Y-53257500D03*
X37125000Y-64087500D03*
D12*
X40400000Y-64087500D03*
D13*
X40615000Y-53257500D03*
D10*
X253282500Y-120250000D03*
D11*
X258362500Y-120250000D03*
D10*
X263442500Y-120250000D03*
D12*
X250687500Y-124950000D03*
D13*
X251002500Y-117710000D03*
D14*
X253962500Y-124950000D03*
X254552500Y-117710000D03*
X260902500Y-115170000D03*
X260962500Y-126000000D03*
D12*
X264237500Y-126000000D03*
D13*
X264452500Y-115170000D03*
D10*
X122313750Y-120250000D03*
D11*
X127393750Y-120250000D03*
D10*
X132473750Y-120250000D03*
D12*
X119718750Y-124950000D03*
D13*
X120033750Y-117710000D03*
D14*
X122993750Y-124950000D03*
X123583750Y-117710000D03*
X129933750Y-115170000D03*
X129993750Y-126000000D03*
D12*
X133268750Y-126000000D03*
D13*
X133483750Y-115170000D03*
D17*
X284912500Y-37025000D03*
X284912500Y-32025000D03*
D18*
X284912500Y-34525000D03*
D17*
X270412500Y-32025000D03*
X270412500Y-37025000D03*
D10*
X29445000Y-34525000D03*
D11*
X34525000Y-34525000D03*
D10*
X39605000Y-34525000D03*
D12*
X26850000Y-39225000D03*
D13*
X27165000Y-31985000D03*
D14*
X30125000Y-39225000D03*
X30715000Y-31985000D03*
X37065000Y-29445000D03*
X37125000Y-40275000D03*
D12*
X40400000Y-40275000D03*
D13*
X40615000Y-29445000D03*
D10*
X153270000Y-96437500D03*
D11*
X158350000Y-96437500D03*
D10*
X163430000Y-96437500D03*
D12*
X150675000Y-101137500D03*
D13*
X150990000Y-93897500D03*
D14*
X153950000Y-101137500D03*
X154540000Y-93897500D03*
X160890000Y-91357500D03*
X160950000Y-102187500D03*
D12*
X164225000Y-102187500D03*
D13*
X164440000Y-91357500D03*
D10*
X167557500Y-34525000D03*
D11*
X172637500Y-34525000D03*
D10*
X177717500Y-34525000D03*
D12*
X164962500Y-39225000D03*
D13*
X165277500Y-31985000D03*
D14*
X168237500Y-39225000D03*
X168827500Y-31985000D03*
X175177500Y-29445000D03*
X175237500Y-40275000D03*
D12*
X178512500Y-40275000D03*
D13*
X178727500Y-29445000D03*
D10*
X246138750Y-67862500D03*
D11*
X251218750Y-67862500D03*
D10*
X256298750Y-67862500D03*
D12*
X243543750Y-72562500D03*
D13*
X243858750Y-65322500D03*
D14*
X246818750Y-72562500D03*
X247408750Y-65322500D03*
X253758750Y-62782500D03*
X253818750Y-73612500D03*
D12*
X257093750Y-73612500D03*
D13*
X257308750Y-62782500D03*
D15*
X186925000Y-127235000D03*
D16*
X186925000Y-111995000D03*
D15*
X163112500Y-127235000D03*
D16*
X163112500Y-111995000D03*
D10*
X191370000Y-34525000D03*
D11*
X196450000Y-34525000D03*
D10*
X201530000Y-34525000D03*
D12*
X188775000Y-39225000D03*
D13*
X189090000Y-31985000D03*
D14*
X192050000Y-39225000D03*
X192640000Y-31985000D03*
X198990000Y-29445000D03*
X199050000Y-40275000D03*
D12*
X202325000Y-40275000D03*
D13*
X202540000Y-29445000D03*
D10*
X229470000Y-34525000D03*
D11*
X234550000Y-34525000D03*
D10*
X239630000Y-34525000D03*
D12*
X226875000Y-39225000D03*
D13*
X227190000Y-31985000D03*
D14*
X230150000Y-39225000D03*
X230740000Y-31985000D03*
X237090000Y-29445000D03*
X237150000Y-40275000D03*
D12*
X240425000Y-40275000D03*
D13*
X240640000Y-29445000D03*
D10*
X253600000Y-39605000D03*
D11*
X253600000Y-34525000D03*
D10*
X253600000Y-29445000D03*
D19*
X258300000Y-38925000D03*
D20*
X251060000Y-38335000D03*
X248520000Y-31985000D03*
D19*
X259350000Y-31925000D03*
D10*
X34207500Y-96437500D03*
D11*
X39287500Y-96437500D03*
D10*
X44367500Y-96437500D03*
D12*
X31612500Y-101137500D03*
D13*
X31927500Y-93897500D03*
D14*
X34887500Y-101137500D03*
X35477500Y-93897500D03*
X41827500Y-91357500D03*
X41887500Y-102187500D03*
D12*
X45162500Y-102187500D03*
D13*
X45377500Y-91357500D03*
D10*
X172320000Y-96437500D03*
D11*
X177400000Y-96437500D03*
D10*
X182480000Y-96437500D03*
D12*
X169725000Y-101137500D03*
D13*
X170040000Y-93897500D03*
D14*
X173000000Y-101137500D03*
X173590000Y-93897500D03*
X179940000Y-91357500D03*
X180000000Y-102187500D03*
D12*
X183275000Y-102187500D03*
D13*
X183490000Y-91357500D03*
D10*
X234232500Y-120250000D03*
D11*
X239312500Y-120250000D03*
D10*
X244392500Y-120250000D03*
D12*
X231637500Y-124950000D03*
D13*
X231952500Y-117710000D03*
D14*
X234912500Y-124950000D03*
X235502500Y-117710000D03*
X241852500Y-115170000D03*
X241912500Y-126000000D03*
D12*
X245187500Y-126000000D03*
D13*
X245402500Y-115170000D03*
D15*
X244233750Y-55956250D03*
X244233750Y-79768750D03*
D16*
X259473750Y-55956250D03*
X259473750Y-79768750D03*
D10*
X210420000Y-34525000D03*
D11*
X215500000Y-34525000D03*
D10*
X220580000Y-34525000D03*
D12*
X207825000Y-39225000D03*
D13*
X208140000Y-31985000D03*
D14*
X211100000Y-39225000D03*
X211690000Y-31985000D03*
X218040000Y-29445000D03*
X218100000Y-40275000D03*
D12*
X221375000Y-40275000D03*
D13*
X221590000Y-29445000D03*
D10*
X253282500Y-101200000D03*
D11*
X258362500Y-101200000D03*
D10*
X263442500Y-101200000D03*
D12*
X250687500Y-105900000D03*
D13*
X251002500Y-98660000D03*
D14*
X253962500Y-105900000D03*
X254552500Y-98660000D03*
X260902500Y-96120000D03*
X260962500Y-106950000D03*
D12*
X264237500Y-106950000D03*
D13*
X264452500Y-96120000D03*
D10*
X53257500Y-77387500D03*
D11*
X58337500Y-77387500D03*
D10*
X63417500Y-77387500D03*
D12*
X50662500Y-82087500D03*
D13*
X50977500Y-74847500D03*
D14*
X53937500Y-82087500D03*
X54527500Y-74847500D03*
X60877500Y-72307500D03*
X60937500Y-83137500D03*
D12*
X64212500Y-83137500D03*
D13*
X64427500Y-72307500D03*
D10*
X224707500Y-77387500D03*
D11*
X229787500Y-77387500D03*
D10*
X234867500Y-77387500D03*
D12*
X222112500Y-82087500D03*
D13*
X222427500Y-74847500D03*
D14*
X225387500Y-82087500D03*
X225977500Y-74847500D03*
X232327500Y-72307500D03*
X232387500Y-83137500D03*
D12*
X235662500Y-83137500D03*
D13*
X235877500Y-72307500D03*
D21*
X285887500Y-79512500D03*
X285887500Y-76212500D03*
X181112500Y-36650000D03*
X181112500Y-33350000D03*
X219212500Y-79512500D03*
X219212500Y-76212500D03*
X285887500Y-60462500D03*
X285887500Y-57162500D03*
X66812500Y-79512500D03*
X66812500Y-76212500D03*
X162062500Y-79512500D03*
X162062500Y-76212500D03*
X93006250Y-117612500D03*
X93006250Y-114312500D03*
X45381250Y-79512500D03*
X45381250Y-76212500D03*
X45381250Y-117612500D03*
X45381250Y-114312500D03*
X123962500Y-79512500D03*
X123962500Y-76212500D03*
X204925000Y-98562500D03*
X204925000Y-95262500D03*
X104912500Y-79512500D03*
X104912500Y-76212500D03*
X214450000Y-60462500D03*
X214450000Y-57162500D03*
X162062500Y-36650000D03*
X162062500Y-33350000D03*
X204925000Y-36650000D03*
X204925000Y-33350000D03*
X128725000Y-98562500D03*
X128725000Y-95262500D03*
X266837500Y-103325000D03*
X266837500Y-100025000D03*
X242890000Y-36650000D03*
X242890000Y-33350000D03*
X223975000Y-36650000D03*
X223975000Y-33350000D03*
X176350000Y-60462500D03*
X176350000Y-57162500D03*
X262075000Y-36650000D03*
X262075000Y-33350000D03*
X247787500Y-122375000D03*
X247787500Y-119075000D03*
X109675000Y-98562500D03*
X109675000Y-95262500D03*
X81100000Y-36650000D03*
X81100000Y-33350000D03*
X71575000Y-98562500D03*
X71575000Y-95262500D03*
D22*
X264210000Y-52150000D03*
X266420000Y-52150000D03*
D23*
X265320000Y-50000000D03*
X265320000Y-47000000D03*
D24*
X263560000Y-46250000D03*
D22*
X264210000Y-44850000D03*
X266420000Y-44850000D03*
D24*
X263560000Y-49250000D03*
X263560000Y-50750000D03*
D21*
X266837500Y-122375000D03*
X266837500Y-119075000D03*
X166825000Y-98562500D03*
X166825000Y-95262500D03*
X233500000Y-60462500D03*
X233500000Y-57162500D03*
X143012500Y-79512500D03*
X143012500Y-76212500D03*
X195400000Y-60462500D03*
X195400000Y-57162500D03*
X85862500Y-79512500D03*
X85862500Y-76212500D03*
X238262500Y-79512500D03*
X238262500Y-76212500D03*
X285887500Y-122375000D03*
X285887500Y-119075000D03*
X259693750Y-69987500D03*
X259693750Y-66687500D03*
D25*
X257170000Y-47210000D03*
D26*
X257170000Y-49210000D03*
D21*
X100150000Y-36650000D03*
X100150000Y-33350000D03*
X62050000Y-60462500D03*
X62050000Y-57162500D03*
X243025000Y-98562500D03*
X243025000Y-95262500D03*
X147775000Y-98562500D03*
X147775000Y-95262500D03*
X185875000Y-98562500D03*
X185875000Y-95262500D03*
X138250000Y-60462500D03*
X138250000Y-57162500D03*
X123962500Y-36650000D03*
X123962500Y-33350000D03*
X135868750Y-122375000D03*
X135868750Y-119075000D03*
X43000000Y-36650000D03*
X43000000Y-33350000D03*
X181112500Y-79512500D03*
X181112500Y-76212500D03*
X100150000Y-60462500D03*
X100150000Y-57162500D03*
X119200000Y-60462500D03*
X119200000Y-57162500D03*
X266700000Y-36650000D03*
X266700000Y-33350000D03*
X90625000Y-98562500D03*
X90625000Y-95262500D03*
X81100000Y-60462500D03*
X81100000Y-57162500D03*
X43000000Y-60462500D03*
X43000000Y-57162500D03*
X47762500Y-98562500D03*
X47762500Y-95262500D03*
X223975000Y-98562500D03*
X223975000Y-95262500D03*
X157300000Y-60462500D03*
X157300000Y-57162500D03*
X200162500Y-79512500D03*
X200162500Y-76212500D03*
X221593750Y-117612500D03*
X221593750Y-114312500D03*
X62050000Y-36650000D03*
X62050000Y-33350000D03*
X69193750Y-117612500D03*
X69193750Y-114312500D03*
X183493750Y-122375000D03*
X183493750Y-119075000D03*
X143012500Y-36650000D03*
X143012500Y-33350000D03*
M02*
