G04 #@! TF.GenerationSoftware,KiCad,Pcbnew,7.0.8-7.0.8~ubuntu22.04.1*
G04 #@! TF.CreationDate,2023-10-08T19:27:19+02:00*
G04 #@! TF.ProjectId,nrw65-pcb,6e727736-352d-4706-9362-2e6b69636164,rev?*
G04 #@! TF.SameCoordinates,Original*
G04 #@! TF.FileFunction,Legend,Top*
G04 #@! TF.FilePolarity,Positive*
%FSLAX46Y46*%
G04 Gerber Fmt 4.6, Leading zero omitted, Abs format (unit mm)*
G04 Created by KiCad (PCBNEW 7.0.8-7.0.8~ubuntu22.04.1) date 2023-10-08 19:27:19*
%MOMM*%
%LPD*%
G01*
G04 APERTURE LIST*
G04 Aperture macros list*
%AMRoundRect*
0 Rectangle with rounded corners*
0 $1 Rounding radius*
0 $2 $3 $4 $5 $6 $7 $8 $9 X,Y pos of 4 corners*
0 Add a 4 corners polygon primitive as box body*
4,1,4,$2,$3,$4,$5,$6,$7,$8,$9,$2,$3,0*
0 Add four circle primitives for the rounded corners*
1,1,$1+$1,$2,$3*
1,1,$1+$1,$4,$5*
1,1,$1+$1,$6,$7*
1,1,$1+$1,$8,$9*
0 Add four rect primitives between the rounded corners*
20,1,$1+$1,$2,$3,$4,$5,0*
20,1,$1+$1,$4,$5,$6,$7,0*
20,1,$1+$1,$6,$7,$8,$9,0*
20,1,$1+$1,$8,$9,$2,$3,0*%
G04 Aperture macros list end*
%ADD10C,1.750000*%
%ADD11C,5.000000*%
%ADD12C,3.300000*%
%ADD13C,3.048000*%
%ADD14C,3.987800*%
%ADD15C,0.900000*%
%ADD16O,1.750000X1.200000*%
%ADD17RoundRect,0.250000X0.625000X-0.350000X0.625000X0.350000X-0.625000X0.350000X-0.625000X-0.350000X0*%
%ADD18C,1.800000*%
%ADD19RoundRect,0.450000X0.450000X-0.450000X0.450000X0.450000X-0.450000X0.450000X-0.450000X-0.450000X0*%
G04 APERTURE END LIST*
G36*
X42372051Y-66047654D02*
G01*
X42822143Y-66392512D01*
X42872152Y-66466801D01*
X42915544Y-66577109D01*
X42952787Y-66744175D01*
X42984346Y-66988738D01*
X43010688Y-67331535D01*
X43032279Y-67793306D01*
X43049586Y-68394790D01*
X43063073Y-69156724D01*
X43073208Y-70099848D01*
X43080457Y-71244901D01*
X43085286Y-72612621D01*
X43088161Y-74223746D01*
X43089548Y-76099016D01*
X43089914Y-78259169D01*
X43089914Y-78303976D01*
X43089563Y-80469853D01*
X43088200Y-82350446D01*
X43085359Y-83966493D01*
X43080572Y-85338731D01*
X43073375Y-86487902D01*
X43063300Y-87434741D01*
X43049882Y-88199990D01*
X43032654Y-88804385D01*
X43011150Y-89268666D01*
X42984905Y-89613572D01*
X42953451Y-89859840D01*
X42916323Y-90028211D01*
X42873054Y-90139422D01*
X42823178Y-90214212D01*
X42822143Y-90215439D01*
X42365502Y-90563052D01*
X41859451Y-90621389D01*
X41361906Y-90389471D01*
X40947746Y-90063692D01*
X40947746Y-78303976D01*
X40947746Y-66544259D01*
X41361906Y-66218480D01*
X41866321Y-65985407D01*
X42372051Y-66047654D01*
G37*
G36*
X118755023Y-66397542D02*
G01*
X118957218Y-66570163D01*
X119289914Y-66924302D01*
X119289914Y-78339576D01*
X119288667Y-80186038D01*
X119285059Y-81946430D01*
X119279287Y-83596343D01*
X119271553Y-85111370D01*
X119262053Y-86467101D01*
X119250988Y-87639130D01*
X119238555Y-88603048D01*
X119224955Y-89334446D01*
X119210385Y-89808918D01*
X119195046Y-90002053D01*
X119194866Y-90002542D01*
X118994157Y-90239516D01*
X118638078Y-90487865D01*
X118261877Y-90663081D01*
X118081949Y-90697952D01*
X117874764Y-90605925D01*
X117560935Y-90379406D01*
X117500555Y-90328712D01*
X117071240Y-89959473D01*
X117030156Y-78494512D01*
X117022579Y-76349788D01*
X117016621Y-74489947D01*
X117012779Y-72893851D01*
X117011549Y-71540362D01*
X117013428Y-70408342D01*
X117018913Y-69476651D01*
X117028499Y-68724152D01*
X117042684Y-68129706D01*
X117061964Y-67672175D01*
X117086836Y-67330420D01*
X117117796Y-67083303D01*
X117155341Y-66909685D01*
X117199967Y-66788429D01*
X117252171Y-66698394D01*
X117309033Y-66622788D01*
X117741258Y-66290131D01*
X118253596Y-66214081D01*
X118755023Y-66397542D01*
G37*
G36*
X212289860Y-70673060D02*
G01*
X212832602Y-70681627D01*
X215509328Y-70729879D01*
X216165576Y-71191528D01*
X216876437Y-71857314D01*
X217361605Y-72660144D01*
X217617509Y-73544071D01*
X217640578Y-74453149D01*
X217427241Y-75331428D01*
X216973926Y-76122963D01*
X216510579Y-76596559D01*
X215928592Y-76995715D01*
X215297065Y-77241967D01*
X214525640Y-77361932D01*
X213833742Y-77385050D01*
X213202363Y-77360493D01*
X212774459Y-77270703D01*
X212450515Y-77093445D01*
X212418381Y-77068774D01*
X212093442Y-76676852D01*
X212015215Y-76250922D01*
X212090983Y-75788434D01*
X212343672Y-75462898D01*
X212811362Y-75249267D01*
X213532130Y-75122493D01*
X213763683Y-75100832D01*
X214582939Y-74981949D01*
X215132857Y-74771705D01*
X215440876Y-74453394D01*
X215534493Y-74022595D01*
X215420858Y-73613283D01*
X215180354Y-73281250D01*
X215022721Y-73151608D01*
X214836161Y-73060775D01*
X214566941Y-73001904D01*
X214161325Y-72968149D01*
X213565580Y-72952663D01*
X212725970Y-72948601D01*
X212569090Y-72948554D01*
X211506021Y-72937974D01*
X210710537Y-72896116D01*
X210144623Y-72807801D01*
X209770261Y-72657849D01*
X209549438Y-72431082D01*
X209444136Y-72112321D01*
X209416354Y-71689732D01*
X209436936Y-71342642D01*
X209526367Y-71080873D01*
X209721320Y-70893603D01*
X210058471Y-70770009D01*
X210574495Y-70699269D01*
X211306066Y-70670560D01*
X212289860Y-70673060D01*
G37*
G36*
X100612691Y-66319781D02*
G01*
X100928468Y-66522048D01*
X100985569Y-66585347D01*
X101035086Y-66667031D01*
X101077561Y-66787993D01*
X101113534Y-66969126D01*
X101143544Y-67231325D01*
X101168131Y-67595483D01*
X101187835Y-68082493D01*
X101203197Y-68713249D01*
X101214756Y-69508644D01*
X101223052Y-70489572D01*
X101228626Y-71676927D01*
X101232016Y-73091601D01*
X101233764Y-74754490D01*
X101234408Y-76686485D01*
X101234493Y-78363530D01*
X101234139Y-80523499D01*
X101232766Y-82398239D01*
X101229904Y-84008545D01*
X101225082Y-85375212D01*
X101217831Y-86519035D01*
X101207680Y-87460809D01*
X101194161Y-88221328D01*
X101176803Y-88821387D01*
X101155137Y-89281781D01*
X101128693Y-89623306D01*
X101097000Y-89866755D01*
X101059590Y-90032924D01*
X101015991Y-90142608D01*
X100966721Y-90215439D01*
X100514465Y-90568903D01*
X100029906Y-90635720D01*
X99563776Y-90411734D01*
X99482554Y-90337032D01*
X99092324Y-89946801D01*
X99092324Y-78387437D01*
X99092488Y-76232529D01*
X99093338Y-74362774D01*
X99095413Y-72757302D01*
X99099252Y-71395241D01*
X99105392Y-70255721D01*
X99114371Y-69317872D01*
X99126729Y-68560822D01*
X99143003Y-67963700D01*
X99163731Y-67505636D01*
X99189453Y-67165759D01*
X99220705Y-66923198D01*
X99258027Y-66757083D01*
X99301957Y-66646542D01*
X99353033Y-66570705D01*
X99398348Y-66522048D01*
X99784334Y-66291697D01*
X100163408Y-66216024D01*
X100612691Y-66319781D01*
G37*
G36*
X64518625Y-66070934D02*
G01*
X64630358Y-66121804D01*
X64974727Y-66356160D01*
X65178407Y-66597521D01*
X65181613Y-66605409D01*
X65198535Y-66799860D01*
X65213761Y-67271142D01*
X65227294Y-67990068D01*
X65239131Y-68927450D01*
X65249273Y-70054101D01*
X65257721Y-71340832D01*
X65264474Y-72758456D01*
X65269532Y-74277786D01*
X65272895Y-75869633D01*
X65274564Y-77504810D01*
X65274538Y-79154129D01*
X65272817Y-80788402D01*
X65269401Y-82378442D01*
X65264290Y-83895061D01*
X65257485Y-85309070D01*
X65248985Y-86591284D01*
X65238790Y-87712512D01*
X65226900Y-88643569D01*
X65213315Y-89355266D01*
X65198036Y-89818415D01*
X65181613Y-90002542D01*
X64986226Y-90233344D01*
X64640434Y-90479257D01*
X64280972Y-90653802D01*
X64098416Y-90687596D01*
X63876297Y-90618525D01*
X63649238Y-90518990D01*
X63332849Y-90257912D01*
X63151948Y-89986604D01*
X63118414Y-89761159D01*
X63088321Y-89259330D01*
X63061668Y-88510739D01*
X63038450Y-87545006D01*
X63018664Y-86391752D01*
X63002309Y-85080599D01*
X62989380Y-83641167D01*
X62979875Y-82103077D01*
X62973791Y-80495950D01*
X62971124Y-78849408D01*
X62971872Y-77193072D01*
X62976031Y-75556561D01*
X62983599Y-73969498D01*
X62994572Y-72461504D01*
X63008948Y-71062199D01*
X63026724Y-69801204D01*
X63047895Y-68708141D01*
X63072460Y-67812630D01*
X63100415Y-67144292D01*
X63131758Y-66732749D01*
X63154341Y-66616095D01*
X63496392Y-66190297D01*
X63979540Y-65999070D01*
X64518625Y-66070934D01*
G37*
G36*
X210676776Y-81117959D02*
G01*
X211154690Y-81402470D01*
X211387302Y-81662004D01*
X211746193Y-82123964D01*
X212205380Y-82749730D01*
X212738881Y-83500685D01*
X213320711Y-84338209D01*
X213924887Y-85223685D01*
X214525425Y-86118493D01*
X215096342Y-86984017D01*
X215611656Y-87781636D01*
X216045381Y-88472734D01*
X216371535Y-89018691D01*
X216564134Y-89380889D01*
X216605577Y-89503950D01*
X216473470Y-89945380D01*
X216139087Y-90354655D01*
X215695339Y-90618897D01*
X215685189Y-90622180D01*
X215432731Y-90651547D01*
X215165653Y-90560388D01*
X214856865Y-90321833D01*
X214479278Y-89909011D01*
X214005799Y-89295054D01*
X213409340Y-88453091D01*
X213218432Y-88175494D01*
X212737142Y-87482880D01*
X212310723Y-86888886D01*
X211970549Y-86435669D01*
X211747993Y-86165387D01*
X211679508Y-86107590D01*
X211632596Y-86250888D01*
X211593893Y-86641987D01*
X211567186Y-87222696D01*
X211556259Y-87934825D01*
X211556179Y-88003289D01*
X211549473Y-88831424D01*
X211524724Y-89411122D01*
X211474986Y-89799769D01*
X211393311Y-90054753D01*
X211288408Y-90215439D01*
X210859714Y-90531471D01*
X210356303Y-90630572D01*
X209949553Y-90518810D01*
X209656355Y-90307475D01*
X209531113Y-90175486D01*
X209501416Y-89983985D01*
X209474489Y-89527817D01*
X209451428Y-88848335D01*
X209433328Y-87986893D01*
X209421281Y-86984844D01*
X209416384Y-85883540D01*
X209416354Y-85839819D01*
X209416678Y-84598759D01*
X209420855Y-83627326D01*
X209431356Y-82889129D01*
X209450650Y-82347774D01*
X209481205Y-81966868D01*
X209525492Y-81710018D01*
X209585980Y-81540832D01*
X209665137Y-81422916D01*
X209720035Y-81364217D01*
X210172950Y-81098738D01*
X210676776Y-81117959D01*
G37*
G36*
X114112615Y-66280573D02*
G01*
X114540580Y-66550900D01*
X114612411Y-66635873D01*
X114672279Y-66740788D01*
X114721272Y-66892374D01*
X114760480Y-67117361D01*
X114790992Y-67442478D01*
X114813896Y-67894454D01*
X114830283Y-68500020D01*
X114841240Y-69285903D01*
X114847857Y-70278834D01*
X114851222Y-71505542D01*
X114852426Y-72992756D01*
X114852565Y-74208458D01*
X114852565Y-81531139D01*
X114476990Y-81906714D01*
X114001344Y-82215074D01*
X113500568Y-82257930D01*
X113129168Y-82091024D01*
X112997637Y-81932416D01*
X112709539Y-81544711D01*
X112281330Y-80951226D01*
X111729465Y-80175282D01*
X111070397Y-79240196D01*
X110320584Y-78169289D01*
X109496478Y-76985878D01*
X108614536Y-75713284D01*
X107974020Y-74785437D01*
X106808015Y-73088402D01*
X105813756Y-71629614D01*
X104984505Y-70398730D01*
X104313530Y-69385408D01*
X103794096Y-68579306D01*
X103419467Y-67970084D01*
X103182910Y-67547398D01*
X103077690Y-67300906D01*
X103070637Y-67255555D01*
X103199768Y-66783139D01*
X103529625Y-66436705D01*
X103973903Y-66251698D01*
X104446298Y-66263565D01*
X104860505Y-66507752D01*
X104869136Y-66516890D01*
X105014302Y-66704823D01*
X105312834Y-67116989D01*
X105744988Y-67725267D01*
X106291018Y-68501537D01*
X106931177Y-69417676D01*
X107645721Y-70445564D01*
X108414904Y-71557079D01*
X108790926Y-72102193D01*
X109570437Y-73226776D01*
X110299338Y-74265616D01*
X110958989Y-75193080D01*
X111530748Y-75983535D01*
X111995976Y-76611349D01*
X112336030Y-77050887D01*
X112532271Y-77276517D01*
X112571407Y-77300731D01*
X112605561Y-77131099D01*
X112636319Y-76687617D01*
X112662846Y-76002447D01*
X112684305Y-75107753D01*
X112699860Y-74035698D01*
X112708676Y-72818443D01*
X112710396Y-71953622D01*
X112710396Y-66692413D01*
X113050466Y-66454218D01*
X113577285Y-66240661D01*
X114112615Y-66280573D01*
G37*
G36*
X46425112Y-66050999D02*
G01*
X46465393Y-66066828D01*
X46663442Y-66222644D01*
X46985993Y-66582285D01*
X47440857Y-67156028D01*
X48035848Y-67954149D01*
X48778778Y-68986923D01*
X49677460Y-70264628D01*
X49902398Y-70587593D01*
X50613885Y-71606073D01*
X51272465Y-72539863D01*
X51857408Y-73360263D01*
X52347989Y-74038572D01*
X52723478Y-74546089D01*
X52963150Y-74854115D01*
X53044017Y-74937711D01*
X53156394Y-74816981D01*
X53422692Y-74474009D01*
X53821860Y-73937620D01*
X54332845Y-73236641D01*
X54934597Y-72399898D01*
X55606062Y-71456215D01*
X56160502Y-70670361D01*
X56878265Y-69653329D01*
X57548237Y-68711616D01*
X58148238Y-67875817D01*
X58656089Y-67176525D01*
X59049611Y-66644332D01*
X59306624Y-66309833D01*
X59395956Y-66207510D01*
X59811387Y-66036057D01*
X60318424Y-66048652D01*
X60770771Y-66236850D01*
X60837337Y-66290743D01*
X60998983Y-66454110D01*
X61106944Y-66626504D01*
X61148881Y-66831938D01*
X61112459Y-67094427D01*
X60985340Y-67437985D01*
X60755189Y-67886625D01*
X60409668Y-68464363D01*
X59936440Y-69195211D01*
X59323170Y-70103185D01*
X58557519Y-71212298D01*
X57627152Y-72546564D01*
X57613551Y-72566024D01*
X56833281Y-73678028D01*
X56097398Y-74718501D01*
X55426474Y-75658966D01*
X54841077Y-76470948D01*
X54361780Y-77125972D01*
X54009151Y-77595561D01*
X53803761Y-77851240D01*
X53772535Y-77883192D01*
X53289503Y-78119431D01*
X52769577Y-78094121D01*
X52318382Y-77812800D01*
X52312702Y-77806686D01*
X52090546Y-77534738D01*
X51733165Y-77059671D01*
X51262856Y-76413799D01*
X50701914Y-75629432D01*
X50072632Y-74738882D01*
X49397307Y-73774461D01*
X48698233Y-72768481D01*
X47997705Y-71753253D01*
X47318018Y-70761088D01*
X46681466Y-69824299D01*
X46110345Y-68975196D01*
X45626950Y-68246092D01*
X45253575Y-67669298D01*
X45012516Y-67277126D01*
X44926067Y-67101887D01*
X44926059Y-67101357D01*
X45058089Y-66567089D01*
X45403060Y-66179584D01*
X45884294Y-65990377D01*
X46425112Y-66050999D01*
G37*
G36*
X104933644Y-74607443D02*
G01*
X105059673Y-74733248D01*
X105339491Y-75084494D01*
X105754071Y-75634062D01*
X106284386Y-76354833D01*
X106911410Y-77219689D01*
X107616117Y-78201514D01*
X108379479Y-79273187D01*
X109182470Y-80407592D01*
X110006063Y-81577611D01*
X110831232Y-82756124D01*
X111638950Y-83916014D01*
X112410190Y-85030164D01*
X113125926Y-86071454D01*
X113767130Y-87012767D01*
X114314777Y-87826985D01*
X114749839Y-88486990D01*
X115053290Y-88965662D01*
X115206103Y-89235886D01*
X115217725Y-89265008D01*
X115222962Y-89741637D01*
X114990359Y-90198162D01*
X114576358Y-90530511D01*
X114516947Y-90557198D01*
X114161164Y-90660240D01*
X113872682Y-90582354D01*
X113656976Y-90436832D01*
X113483183Y-90247697D01*
X113156920Y-89834268D01*
X112698712Y-89224691D01*
X112129079Y-88447109D01*
X111468545Y-87529667D01*
X110737631Y-86500509D01*
X109956860Y-85387779D01*
X109573649Y-84836923D01*
X108788775Y-83709158D01*
X108055921Y-82663117D01*
X107393713Y-81724874D01*
X106820778Y-80920502D01*
X106355741Y-80276075D01*
X106017228Y-79817664D01*
X105823865Y-79571345D01*
X105786601Y-79535703D01*
X105759493Y-79680999D01*
X105734668Y-80097195D01*
X105712905Y-80749172D01*
X105694981Y-81601809D01*
X105681675Y-82619988D01*
X105673765Y-83768587D01*
X105671842Y-84713530D01*
X105670703Y-86121623D01*
X105666249Y-87255670D01*
X105656924Y-88147644D01*
X105641172Y-88829519D01*
X105617436Y-89333267D01*
X105584161Y-89690862D01*
X105539790Y-89934277D01*
X105482768Y-90095486D01*
X105411538Y-90206461D01*
X105404071Y-90215439D01*
X104947430Y-90563052D01*
X104441379Y-90621389D01*
X103943834Y-90389471D01*
X103529673Y-90063692D01*
X103529673Y-82600922D01*
X103530233Y-80892405D01*
X103532533Y-79463863D01*
X103537506Y-78289247D01*
X103546084Y-77342510D01*
X103559197Y-76597604D01*
X103577779Y-76028480D01*
X103602761Y-75609089D01*
X103635075Y-75313385D01*
X103675653Y-75115319D01*
X103725426Y-74988842D01*
X103785328Y-74907906D01*
X103805592Y-74888450D01*
X104259803Y-74642701D01*
X104883832Y-74603109D01*
X104933644Y-74607443D01*
G37*
G36*
X83197477Y-70090779D02*
G01*
X84676770Y-70418497D01*
X85856782Y-70898282D01*
X87116195Y-71679381D01*
X88212615Y-72696172D01*
X89110070Y-73905926D01*
X89772588Y-75265917D01*
X89933608Y-75740656D01*
X90134033Y-76721352D01*
X90210780Y-77853873D01*
X90167415Y-79025952D01*
X90007505Y-80125325D01*
X89767891Y-80957231D01*
X89086347Y-82307396D01*
X88162062Y-83525600D01*
X87041289Y-84564341D01*
X85770280Y-85376117D01*
X85215018Y-85632916D01*
X84292175Y-85904793D01*
X83196919Y-86057967D01*
X82040089Y-86089574D01*
X80932526Y-85996748D01*
X79985071Y-85776622D01*
X79962284Y-85768725D01*
X78736786Y-85218080D01*
X77606541Y-84477645D01*
X76633875Y-83598387D01*
X75881120Y-82631275D01*
X75669153Y-82258124D01*
X75441488Y-81733800D01*
X75404862Y-81356116D01*
X75564789Y-81028337D01*
X75751031Y-80821719D01*
X76231897Y-80500796D01*
X76716737Y-80484076D01*
X77189129Y-80770420D01*
X77340166Y-80932036D01*
X78173963Y-81877452D01*
X78915114Y-82593124D01*
X79619290Y-83116989D01*
X80342160Y-83486984D01*
X81139394Y-83741047D01*
X81609356Y-83841340D01*
X82215200Y-83927811D01*
X82737016Y-83922197D01*
X83333806Y-83817972D01*
X83575024Y-83760646D01*
X84808340Y-83308855D01*
X85875847Y-82623427D01*
X86753942Y-81740677D01*
X87419022Y-80696918D01*
X87847482Y-79528464D01*
X88015719Y-78271629D01*
X87921353Y-77073859D01*
X87676993Y-76104090D01*
X87296658Y-75276240D01*
X86723576Y-74481503D01*
X86353926Y-74069853D01*
X85405523Y-73241407D01*
X84378422Y-72695663D01*
X83227942Y-72411194D01*
X82810827Y-72370826D01*
X81496425Y-72417577D01*
X80301955Y-72739186D01*
X79213536Y-73342188D01*
X78217287Y-74233121D01*
X77791432Y-74734700D01*
X77387654Y-75228251D01*
X77092538Y-75520596D01*
X76840204Y-75661894D01*
X76564773Y-75702308D01*
X76520009Y-75702771D01*
X75957418Y-75577096D01*
X75576776Y-75206380D01*
X75434993Y-74848067D01*
X75461930Y-74390190D01*
X75709626Y-73818978D01*
X76138064Y-73181245D01*
X76707223Y-72523799D01*
X77377087Y-71893452D01*
X78107637Y-71337013D01*
X78772815Y-70943702D01*
X80245975Y-70353378D01*
X81720704Y-70069071D01*
X83197477Y-70090779D01*
G37*
G36*
X165548953Y-70560730D02*
G01*
X166663194Y-70672392D01*
X167718458Y-70840710D01*
X168644116Y-71057647D01*
X169369537Y-71315160D01*
X169625267Y-71450439D01*
X170009476Y-71842553D01*
X170144294Y-72328802D01*
X170031636Y-72828696D01*
X169673421Y-73261746D01*
X169580533Y-73328014D01*
X169384298Y-73436207D01*
X169173458Y-73477312D01*
X168876153Y-73444582D01*
X168420522Y-73331267D01*
X167852317Y-73165728D01*
X166625399Y-72885507D01*
X165354111Y-72746516D01*
X164131648Y-72752004D01*
X163051200Y-72905221D01*
X162745336Y-72987629D01*
X161844352Y-73385270D01*
X160961309Y-73981955D01*
X160214307Y-74691673D01*
X159960314Y-75015932D01*
X159391775Y-76081231D01*
X159058396Y-77266175D01*
X158957227Y-78509065D01*
X159085319Y-79748203D01*
X159439722Y-80921891D01*
X160017488Y-81968430D01*
X160310300Y-82337426D01*
X161068828Y-83016506D01*
X161986737Y-83555009D01*
X162961476Y-83901918D01*
X163663408Y-84005476D01*
X164504974Y-84041927D01*
X164546562Y-80990050D01*
X164566001Y-79849452D01*
X164596651Y-78978592D01*
X164649647Y-78341184D01*
X164736125Y-77900942D01*
X164867218Y-77621580D01*
X165054063Y-77466811D01*
X165307794Y-77400351D01*
X165639546Y-77385912D01*
X165652565Y-77385903D01*
X165963604Y-77394031D01*
X166207734Y-77440437D01*
X166393029Y-77558158D01*
X166527562Y-77780227D01*
X166619407Y-78139681D01*
X166676638Y-78669554D01*
X166707330Y-79402882D01*
X166719555Y-80372700D01*
X166721388Y-81612043D01*
X166721306Y-81758795D01*
X166716311Y-82814127D01*
X166703500Y-83770942D01*
X166684127Y-84585754D01*
X166659446Y-85215081D01*
X166630709Y-85615436D01*
X166606547Y-85740406D01*
X166263598Y-86012780D01*
X165688072Y-86212244D01*
X164946350Y-86331261D01*
X164104817Y-86362293D01*
X163229854Y-86297802D01*
X162632513Y-86191666D01*
X161225275Y-85723321D01*
X159978456Y-85008455D01*
X158910175Y-84071472D01*
X158038547Y-82936777D01*
X157381688Y-81628772D01*
X156957715Y-80171862D01*
X156784744Y-78590451D01*
X156781607Y-78310081D01*
X156818719Y-77264439D01*
X156942044Y-76393496D01*
X157179655Y-75571500D01*
X157559625Y-74672699D01*
X157623708Y-74537893D01*
X158354638Y-73344347D01*
X159302955Y-72313823D01*
X160420392Y-71484387D01*
X161658679Y-70894105D01*
X162558678Y-70646081D01*
X163426065Y-70539535D01*
X164446367Y-70513765D01*
X165548953Y-70560730D01*
G37*
G36*
X261972167Y-70679038D02*
G01*
X262862257Y-70751081D01*
X263547487Y-70862077D01*
X263627205Y-70881616D01*
X265054315Y-71401606D01*
X266300415Y-72165318D01*
X267352879Y-73160939D01*
X268199084Y-74376660D01*
X268798844Y-75720127D01*
X269011370Y-76580345D01*
X269134005Y-77610868D01*
X269165187Y-78705249D01*
X269103355Y-79757038D01*
X268946949Y-80659789D01*
X268874874Y-80905180D01*
X268249008Y-82344589D01*
X267412321Y-83577746D01*
X266379927Y-84589263D01*
X265166937Y-85363748D01*
X264061447Y-85807055D01*
X263530485Y-85945689D01*
X262953525Y-86036549D01*
X262251068Y-86087605D01*
X261343613Y-86106824D01*
X261063174Y-86107590D01*
X260229660Y-86103625D01*
X259646607Y-86086784D01*
X259258501Y-86049647D01*
X259009828Y-85984796D01*
X258845074Y-85884811D01*
X258758609Y-85799591D01*
X258550569Y-85416683D01*
X258479874Y-85036506D01*
X258528014Y-84600492D01*
X258700813Y-84296986D01*
X259040840Y-84104252D01*
X259590664Y-84000550D01*
X260392852Y-83964143D01*
X260582003Y-83963031D01*
X261965719Y-83901349D01*
X263113171Y-83714567D01*
X264071507Y-83393036D01*
X264538176Y-83153439D01*
X265467850Y-82444865D01*
X266180722Y-81565317D01*
X266678669Y-80557906D01*
X266963567Y-79465740D01*
X267037291Y-78331929D01*
X266901716Y-77199583D01*
X266558719Y-76111810D01*
X266010175Y-75111721D01*
X265257960Y-74242424D01*
X264303949Y-73547029D01*
X264115818Y-73446136D01*
X263626623Y-73233911D01*
X263099688Y-73097254D01*
X262431360Y-73014077D01*
X261935396Y-72981492D01*
X260520035Y-72906856D01*
X260520035Y-77035315D01*
X260518684Y-78273860D01*
X260513100Y-79242353D01*
X260500986Y-79976760D01*
X260480046Y-80513047D01*
X260447981Y-80887182D01*
X260402497Y-81135129D01*
X260341295Y-81292855D01*
X260262080Y-81396327D01*
X260240215Y-81417008D01*
X259795249Y-81636112D01*
X259279482Y-81637011D01*
X258826806Y-81425874D01*
X258745858Y-81348152D01*
X258665042Y-81243065D01*
X258600676Y-81103754D01*
X258550898Y-80896923D01*
X258513848Y-80589274D01*
X258487665Y-80147511D01*
X258470489Y-79538337D01*
X258460458Y-78728455D01*
X258455712Y-77684569D01*
X258454390Y-76373381D01*
X258454372Y-76132223D01*
X258454372Y-71238383D01*
X258815600Y-70945878D01*
X259015222Y-70817097D01*
X259276768Y-70731974D01*
X259662767Y-70681997D01*
X260235749Y-70658651D01*
X260963875Y-70653373D01*
X261972167Y-70679038D01*
G37*
G36*
X238860615Y-70214079D02*
G01*
X240237088Y-70636231D01*
X241535180Y-71320947D01*
X242717545Y-72267136D01*
X242845384Y-72393649D01*
X243810796Y-73568499D01*
X244514463Y-74847255D01*
X244964520Y-76196396D01*
X245169103Y-77582403D01*
X245136348Y-78971756D01*
X244874391Y-80330934D01*
X244391368Y-81626418D01*
X243695413Y-82824686D01*
X242794664Y-83892221D01*
X241697255Y-84795500D01*
X240411323Y-85501004D01*
X239590556Y-85803824D01*
X238720747Y-85991169D01*
X237700349Y-86086202D01*
X236653353Y-86086324D01*
X235703751Y-85988936D01*
X235273047Y-85894310D01*
X234043260Y-85412898D01*
X232855456Y-84693589D01*
X231791680Y-83797001D01*
X230933974Y-82783748D01*
X230809684Y-82596609D01*
X230472914Y-81926798D01*
X230402919Y-81377731D01*
X230598525Y-80922324D01*
X230730800Y-80778841D01*
X231144898Y-80492099D01*
X231546444Y-80453385D01*
X231973989Y-80673987D01*
X232466081Y-81165195D01*
X232599166Y-81325964D01*
X233584247Y-82374210D01*
X234636646Y-83141903D01*
X235795703Y-83653228D01*
X236758006Y-83882923D01*
X237462849Y-83906977D01*
X238301409Y-83797009D01*
X239145292Y-83576950D01*
X239770382Y-83321466D01*
X240538759Y-82815728D01*
X241304420Y-82112154D01*
X241974514Y-81305355D01*
X242364423Y-80678149D01*
X242582336Y-80238878D01*
X242722162Y-79867953D01*
X242801160Y-79474692D01*
X242836590Y-78968414D01*
X242845709Y-78258440D01*
X242845860Y-78148579D01*
X242839869Y-77404263D01*
X242808578Y-76871499D01*
X242734120Y-76455904D01*
X242598625Y-76063096D01*
X242384227Y-75598691D01*
X242349864Y-75528618D01*
X241634365Y-74412136D01*
X240693798Y-73496181D01*
X239584184Y-72820086D01*
X239113439Y-72619633D01*
X238679750Y-72497368D01*
X238179143Y-72435105D01*
X237507645Y-72414659D01*
X237262203Y-72413957D01*
X236550415Y-72423316D01*
X236042634Y-72464056D01*
X235637032Y-72556826D01*
X235231781Y-72722275D01*
X234888030Y-72895394D01*
X234269438Y-73277585D01*
X233641757Y-73796072D01*
X232955781Y-74495927D01*
X232262637Y-75300269D01*
X231824163Y-75637296D01*
X231340569Y-75721545D01*
X230887999Y-75580177D01*
X230542597Y-75240348D01*
X230380508Y-74729218D01*
X230376661Y-74627597D01*
X230496383Y-74142844D01*
X230831116Y-73537843D01*
X231344213Y-72866466D01*
X231999027Y-72182585D01*
X232109710Y-72079970D01*
X233317872Y-71172934D01*
X234634391Y-70533918D01*
X236021919Y-70161831D01*
X237443110Y-70055582D01*
X238860615Y-70214079D01*
G37*
G36*
X189536162Y-70160184D02*
G01*
X190925168Y-70533602D01*
X192242235Y-71173000D01*
X193449039Y-72079028D01*
X193450071Y-72079970D01*
X194493748Y-73227139D01*
X195279198Y-74503340D01*
X195806207Y-75873046D01*
X196074558Y-77300727D01*
X196084036Y-78750855D01*
X195834428Y-80187900D01*
X195325517Y-81576334D01*
X194557089Y-82880628D01*
X193528928Y-84065253D01*
X193522664Y-84071268D01*
X193043236Y-84462635D01*
X192401848Y-84896014D01*
X191717664Y-85292511D01*
X191542435Y-85382323D01*
X190970722Y-85658864D01*
X190524980Y-85841935D01*
X190109661Y-85953263D01*
X189629220Y-86014577D01*
X188988109Y-86047603D01*
X188558700Y-86060834D01*
X187684342Y-86072080D01*
X187026592Y-86042787D01*
X186497769Y-85964980D01*
X186010196Y-85830682D01*
X186003167Y-85828337D01*
X184950802Y-85419477D01*
X184082537Y-84934770D01*
X183276445Y-84298372D01*
X182787624Y-83828115D01*
X182024793Y-82984794D01*
X181531769Y-82269341D01*
X181305527Y-81671008D01*
X181343044Y-81179050D01*
X181641294Y-80782719D01*
X181884465Y-80618615D01*
X182409025Y-80472197D01*
X182908613Y-80625910D01*
X183367034Y-81073989D01*
X183433965Y-81170328D01*
X184304302Y-82213439D01*
X185369834Y-83034209D01*
X186590772Y-83606341D01*
X187467043Y-83835834D01*
X188616323Y-83899596D01*
X189756713Y-83687365D01*
X190842233Y-83226912D01*
X191826904Y-82546012D01*
X192664746Y-81672439D01*
X193309781Y-80633966D01*
X193498237Y-80192706D01*
X193768253Y-79120042D01*
X193843866Y-77938230D01*
X193724977Y-76772013D01*
X193501620Y-75965251D01*
X193039238Y-75078085D01*
X192357969Y-74210025D01*
X191537480Y-73447370D01*
X190657441Y-72876418D01*
X190643681Y-72869498D01*
X190178424Y-72653448D01*
X189768659Y-72519975D01*
X189311795Y-72449355D01*
X188705242Y-72421863D01*
X188295662Y-72418060D01*
X187581622Y-72424584D01*
X187067306Y-72464155D01*
X186646644Y-72557936D01*
X186213566Y-72727092D01*
X185828713Y-72910291D01*
X185383914Y-73144290D01*
X185000689Y-73392577D01*
X184625438Y-73702978D01*
X184204565Y-74123321D01*
X183684470Y-74701432D01*
X183228320Y-75230681D01*
X182817159Y-75589445D01*
X182370091Y-75702594D01*
X182348501Y-75702771D01*
X181862060Y-75586047D01*
X181471495Y-75288509D01*
X181269814Y-74889109D01*
X181259794Y-74778603D01*
X181379804Y-74263699D01*
X181717279Y-73627616D01*
X182238391Y-72923818D01*
X182853451Y-72260000D01*
X184027266Y-71313286D01*
X185320770Y-70629297D01*
X186695638Y-70208683D01*
X188113544Y-70052095D01*
X189536162Y-70160184D01*
G37*
G36*
X136809794Y-70081728D02*
G01*
X138358225Y-70324695D01*
X139777015Y-70837550D01*
X141045670Y-71604283D01*
X142143695Y-72608883D01*
X143050596Y-73835341D01*
X143745879Y-75267645D01*
X143862474Y-75591292D01*
X144114541Y-76638071D01*
X144231145Y-77820770D01*
X144208938Y-79013814D01*
X144044569Y-80091629D01*
X143988181Y-80303613D01*
X143409743Y-81751736D01*
X142573946Y-83049520D01*
X141503308Y-84170402D01*
X140220346Y-85087819D01*
X139690862Y-85373096D01*
X139111526Y-85653441D01*
X138661827Y-85839046D01*
X138245819Y-85951884D01*
X137767554Y-86013925D01*
X137131088Y-86047142D01*
X136687616Y-86060834D01*
X135813258Y-86072080D01*
X135155507Y-86042787D01*
X134626685Y-85964980D01*
X134139111Y-85830682D01*
X134132083Y-85828337D01*
X132713397Y-85224999D01*
X131505662Y-84422272D01*
X130462826Y-83386903D01*
X130086738Y-82907243D01*
X129646764Y-82225027D01*
X129446605Y-81682198D01*
X129479409Y-81237017D01*
X129738325Y-80847745D01*
X129747187Y-80838817D01*
X130234624Y-80512016D01*
X130723046Y-80478650D01*
X131172467Y-80738429D01*
X131274685Y-80849924D01*
X132144199Y-81842866D01*
X132934742Y-82596588D01*
X133699676Y-83147802D01*
X134492361Y-83533219D01*
X135366158Y-83789554D01*
X135622609Y-83841340D01*
X136228453Y-83927811D01*
X136750269Y-83922197D01*
X137347059Y-83817972D01*
X137588277Y-83760646D01*
X138813975Y-83312328D01*
X139868239Y-82636396D01*
X140733268Y-81769900D01*
X141391258Y-80749893D01*
X141824405Y-79613427D01*
X142014909Y-78397553D01*
X141944965Y-77139322D01*
X141596770Y-75875788D01*
X141494484Y-75630919D01*
X141057526Y-74896074D01*
X140419938Y-74142001D01*
X139667919Y-73456147D01*
X138887668Y-72925960D01*
X138763093Y-72859962D01*
X138305146Y-72644494D01*
X137903546Y-72511638D01*
X137456606Y-72441950D01*
X136862640Y-72415984D01*
X136427264Y-72413293D01*
X135652509Y-72428532D01*
X135085083Y-72484434D01*
X134627354Y-72596177D01*
X134234677Y-72754180D01*
X133066666Y-73450467D01*
X132059134Y-74394529D01*
X131667804Y-74882980D01*
X131314247Y-75333785D01*
X131044624Y-75582429D01*
X130780240Y-75685985D01*
X130537434Y-75702771D01*
X130035644Y-75588306D01*
X129628497Y-75294788D01*
X129406174Y-74897036D01*
X129388709Y-74749751D01*
X129512347Y-74229290D01*
X129851954Y-73605338D01*
X130360572Y-72930992D01*
X130991240Y-72259348D01*
X131697001Y-71643500D01*
X132430894Y-71136546D01*
X132729683Y-70972165D01*
X134042211Y-70419876D01*
X135312370Y-70126098D01*
X136626918Y-70071897D01*
X136809794Y-70081728D01*
G37*
G36*
X46852219Y-74382399D02*
G01*
X47040034Y-74463623D01*
X47186099Y-74619728D01*
X47480830Y-74998533D01*
X47901834Y-75568986D01*
X48426720Y-76300036D01*
X49033096Y-77160630D01*
X49698568Y-78119716D01*
X50128468Y-78746459D01*
X50811368Y-79740720D01*
X51441418Y-80647174D01*
X51997642Y-81436486D01*
X52459066Y-82079325D01*
X52804715Y-82546358D01*
X53013612Y-82808253D01*
X53066134Y-82854583D01*
X53176457Y-82724193D01*
X53438165Y-82372304D01*
X53829360Y-81829655D01*
X54328147Y-81126985D01*
X54912630Y-80295033D01*
X55560910Y-79364539D01*
X55871653Y-78916024D01*
X56556618Y-77932058D01*
X57202224Y-77016735D01*
X57783753Y-76204170D01*
X58276487Y-75528477D01*
X58655707Y-75023770D01*
X58896694Y-74724163D01*
X58948243Y-74669939D01*
X59454175Y-74374216D01*
X59975241Y-74382100D01*
X60401577Y-74618140D01*
X60762806Y-74910617D01*
X60762806Y-82434970D01*
X60762806Y-89959322D01*
X60320489Y-90339820D01*
X59815528Y-90613951D01*
X59314157Y-90586594D01*
X58851557Y-90260649D01*
X58811902Y-90215439D01*
X58739747Y-90108294D01*
X58681745Y-89954189D01*
X58636374Y-89721408D01*
X58602112Y-89378236D01*
X58577437Y-88892959D01*
X58560827Y-88233861D01*
X58550758Y-87369227D01*
X58545709Y-86267344D01*
X58544157Y-84896494D01*
X58544131Y-84637024D01*
X58540665Y-83402610D01*
X58530814Y-82271131D01*
X58515402Y-81277522D01*
X58495250Y-80456713D01*
X58471183Y-79843636D01*
X58444022Y-79473225D01*
X58420208Y-79375060D01*
X58303338Y-79496007D01*
X58038906Y-79836423D01*
X57651361Y-80362667D01*
X57165150Y-81041101D01*
X56604721Y-81838085D01*
X56086943Y-82585525D01*
X55336595Y-83667072D01*
X54729460Y-84515623D01*
X54241849Y-85154682D01*
X53850075Y-85607756D01*
X53530447Y-85898353D01*
X53259278Y-86049980D01*
X53012879Y-86086142D01*
X52767560Y-86030346D01*
X52660418Y-85985723D01*
X52470965Y-85813822D01*
X52136346Y-85418323D01*
X51680496Y-84830687D01*
X51127350Y-84082376D01*
X50500843Y-83204850D01*
X50027855Y-82525325D01*
X47756782Y-79229633D01*
X47680276Y-84594670D01*
X47603770Y-89959708D01*
X47174454Y-90328830D01*
X46800552Y-90603052D01*
X46483739Y-90670791D01*
X46083088Y-90558891D01*
X46045399Y-90543872D01*
X45704330Y-90305681D01*
X45548110Y-90104593D01*
X45503924Y-89864592D01*
X45466731Y-89322366D01*
X45436515Y-88477281D01*
X45413265Y-87328699D01*
X45396967Y-85875986D01*
X45387606Y-84118505D01*
X45385095Y-82379960D01*
X45385095Y-74959922D01*
X45788260Y-74642792D01*
X46327517Y-74361246D01*
X46852219Y-74382399D01*
G37*
G36*
X259430645Y-66253692D02*
G01*
X260903426Y-66274165D01*
X262112228Y-66299531D01*
X263099091Y-66336085D01*
X263906058Y-66390120D01*
X264575169Y-66467931D01*
X265148467Y-66575813D01*
X265667991Y-66720058D01*
X266175785Y-66906963D01*
X266713888Y-67142821D01*
X267324343Y-67433927D01*
X267329071Y-67436223D01*
X268907919Y-68369763D01*
X270303418Y-69538762D01*
X271497253Y-70920966D01*
X272471112Y-72494126D01*
X273206679Y-74235989D01*
X273377165Y-74784699D01*
X273619159Y-75917746D01*
X273765705Y-77225415D01*
X273812255Y-78590116D01*
X273754261Y-79894257D01*
X273613582Y-80896219D01*
X273085270Y-82811441D01*
X272319084Y-84551877D01*
X271328696Y-86103228D01*
X270127778Y-87451192D01*
X268730004Y-88581468D01*
X267149046Y-89479758D01*
X265398577Y-90131759D01*
X264589511Y-90334492D01*
X263985759Y-90437495D01*
X263218375Y-90528798D01*
X262360816Y-90604102D01*
X261486535Y-90659107D01*
X260668988Y-90689513D01*
X259981629Y-90691021D01*
X259497914Y-90659329D01*
X259387839Y-90638982D01*
X258822731Y-90375916D01*
X258489776Y-89963899D01*
X258411054Y-89461348D01*
X258608643Y-88926678D01*
X258694996Y-88805936D01*
X258842578Y-88633822D01*
X259003910Y-88519274D01*
X259240198Y-88450530D01*
X259612648Y-88415827D01*
X260182469Y-88403403D01*
X260798911Y-88401615D01*
X262139649Y-88370680D01*
X263265904Y-88270735D01*
X264264158Y-88088207D01*
X265220889Y-87809519D01*
X265707544Y-87631102D01*
X267171449Y-86902989D01*
X268461527Y-85932090D01*
X269560599Y-84738509D01*
X270451490Y-83342351D01*
X271117022Y-81763720D01*
X271323394Y-81058192D01*
X271480052Y-80177868D01*
X271563912Y-79112395D01*
X271574899Y-77973882D01*
X271512937Y-76874438D01*
X271377950Y-75926172D01*
X271326995Y-75702771D01*
X270766267Y-74085133D01*
X269956391Y-72626471D01*
X268920245Y-71349313D01*
X267680707Y-70276182D01*
X266260653Y-69429605D01*
X264682962Y-68832106D01*
X264231125Y-68715991D01*
X263743788Y-68617780D01*
X263209931Y-68544601D01*
X262576717Y-68493222D01*
X261791307Y-68460414D01*
X260800867Y-68442946D01*
X259678468Y-68437661D01*
X256312203Y-68434699D01*
X256233130Y-79298554D01*
X256219586Y-81092497D01*
X256205789Y-82794942D01*
X256191996Y-84381477D01*
X256178463Y-85827687D01*
X256165447Y-87109159D01*
X256153207Y-88201480D01*
X256141999Y-89080236D01*
X256132079Y-89721014D01*
X256123705Y-90099401D01*
X256118371Y-90196733D01*
X255908431Y-90327779D01*
X255560782Y-90496367D01*
X255213051Y-90640406D01*
X255007429Y-90697952D01*
X254798715Y-90597689D01*
X254488739Y-90347544D01*
X254387783Y-90250686D01*
X253940517Y-89803420D01*
X253940517Y-78412887D01*
X253940517Y-67022354D01*
X254266488Y-66607948D01*
X254592460Y-66193543D01*
X259430645Y-66253692D01*
G37*
G36*
X166876661Y-66126510D02*
G01*
X168158578Y-66352511D01*
X169155222Y-66600961D01*
X169887077Y-66881494D01*
X170374626Y-67203744D01*
X170638352Y-67577348D01*
X170701962Y-67925828D01*
X170584342Y-68377167D01*
X170290219Y-68755244D01*
X169907701Y-68958492D01*
X169795971Y-68970241D01*
X169520618Y-68934496D01*
X169035231Y-68838976D01*
X168425864Y-68701251D01*
X168151092Y-68634408D01*
X166899113Y-68403424D01*
X165525459Y-68286142D01*
X164129911Y-68282545D01*
X162812252Y-68392620D01*
X161672263Y-68616351D01*
X161604641Y-68635417D01*
X159920308Y-69267114D01*
X158417591Y-70129796D01*
X157114130Y-71205840D01*
X156027563Y-72477621D01*
X155175528Y-73927517D01*
X154575664Y-75537902D01*
X154531347Y-75702771D01*
X154376602Y-76563257D01*
X154291575Y-77613083D01*
X154276130Y-78743645D01*
X154330130Y-79846339D01*
X154453436Y-80812560D01*
X154538292Y-81200151D01*
X155110511Y-82798136D01*
X155939136Y-84258116D01*
X156996347Y-85550562D01*
X158254322Y-86645946D01*
X159685240Y-87514739D01*
X160985697Y-88043047D01*
X162406127Y-88379325D01*
X163940019Y-88528675D01*
X165494650Y-88492612D01*
X166977297Y-88272648D01*
X168154438Y-87926024D01*
X169006782Y-87599850D01*
X169051059Y-82709910D01*
X169064176Y-81355100D01*
X169077773Y-80273701D01*
X169094028Y-79433106D01*
X169115122Y-78800706D01*
X169143232Y-78343894D01*
X169180539Y-78030061D01*
X169229222Y-77826600D01*
X169291459Y-77700903D01*
X169369429Y-77620362D01*
X169392352Y-77602936D01*
X169871947Y-77409628D01*
X170405478Y-77420604D01*
X170860313Y-77626915D01*
X170946019Y-77707783D01*
X171025803Y-77812515D01*
X171090126Y-77953687D01*
X171141020Y-78163931D01*
X171180522Y-78475876D01*
X171210665Y-78922155D01*
X171233485Y-79535400D01*
X171251014Y-80348240D01*
X171265289Y-81393309D01*
X171278343Y-82703236D01*
X171281808Y-83093415D01*
X171291458Y-84657437D01*
X171290120Y-85933968D01*
X171277341Y-86941359D01*
X171252673Y-87697961D01*
X171215664Y-88222125D01*
X171165863Y-88532203D01*
X171146841Y-88589962D01*
X170879191Y-88919703D01*
X170359424Y-89285788D01*
X169635327Y-89663650D01*
X168754683Y-90028722D01*
X167765277Y-90356436D01*
X167641721Y-90392024D01*
X166713832Y-90589841D01*
X165608379Y-90724546D01*
X164429698Y-90791824D01*
X163282125Y-90787360D01*
X162269994Y-90706839D01*
X161827264Y-90632508D01*
X159967680Y-90090393D01*
X158236111Y-89287642D01*
X156661723Y-88243829D01*
X155273682Y-86978532D01*
X154101152Y-85511326D01*
X154023224Y-85394468D01*
X153193845Y-83950692D01*
X152601691Y-82476616D01*
X152232099Y-80914872D01*
X152070409Y-79208093D01*
X152077457Y-77780889D01*
X152168891Y-76445714D01*
X152339110Y-75314699D01*
X152610680Y-74291188D01*
X153006169Y-73278524D01*
X153248988Y-72763163D01*
X154199619Y-71170435D01*
X155375127Y-69764725D01*
X156748578Y-68559150D01*
X158293036Y-67566827D01*
X159981569Y-66800872D01*
X161787240Y-66274405D01*
X163683116Y-66000540D01*
X165642261Y-65992396D01*
X166876661Y-66126510D01*
G37*
G36*
X137871500Y-66052937D02*
G01*
X139836961Y-66401801D01*
X140023047Y-66448814D01*
X140938482Y-66752131D01*
X141975563Y-67200926D01*
X143025006Y-67739874D01*
X143977527Y-68313647D01*
X144608071Y-68770064D01*
X145430752Y-69515473D01*
X146221771Y-70375497D01*
X146947212Y-71299175D01*
X147573162Y-72235549D01*
X148065704Y-73133660D01*
X148390924Y-73942550D01*
X148514907Y-74611260D01*
X148515215Y-74640728D01*
X148388826Y-75184613D01*
X148048449Y-75553282D01*
X147552271Y-75711421D01*
X146958480Y-75623712D01*
X146919450Y-75609260D01*
X146755065Y-75438702D01*
X146503682Y-75052015D01*
X146203668Y-74512236D01*
X145979200Y-74064431D01*
X145103103Y-72582710D01*
X143999238Y-71289091D01*
X142693408Y-70200343D01*
X141211414Y-69333239D01*
X139579058Y-68704549D01*
X137822140Y-68331046D01*
X137039312Y-68253371D01*
X135202819Y-68269610D01*
X133475410Y-68558314D01*
X131876984Y-69105198D01*
X130427441Y-69895980D01*
X129146680Y-70916374D01*
X128054603Y-72152096D01*
X127171109Y-73588862D01*
X126516098Y-75212387D01*
X126312290Y-75953295D01*
X126150874Y-76710531D01*
X126064819Y-77377907D01*
X126043295Y-78089057D01*
X126072178Y-78916024D01*
X126303188Y-80715178D01*
X126791663Y-82379646D01*
X127524396Y-83889790D01*
X128488184Y-85225977D01*
X129669819Y-86368571D01*
X131056097Y-87297937D01*
X132021687Y-87762250D01*
X133495094Y-88234158D01*
X135093560Y-88496848D01*
X136733766Y-88548129D01*
X138332392Y-88385812D01*
X139806120Y-88007705D01*
X139911830Y-87969653D01*
X141472865Y-87248842D01*
X142889293Y-86303347D01*
X144126475Y-85166906D01*
X145149769Y-83873259D01*
X145924536Y-82456144D01*
X146143938Y-81899759D01*
X146497211Y-81157295D01*
X146929115Y-80674353D01*
X147418473Y-80465417D01*
X147944108Y-80544970D01*
X148050144Y-80595926D01*
X148398642Y-80944291D01*
X148528894Y-81478920D01*
X148434952Y-82165667D01*
X148363288Y-82393053D01*
X147654981Y-84005230D01*
X146709271Y-85543287D01*
X145579637Y-86930412D01*
X144494809Y-87949794D01*
X143727436Y-88497602D01*
X142763197Y-89068145D01*
X141702375Y-89610983D01*
X140645251Y-90075677D01*
X139692108Y-90411787D01*
X139487505Y-90468351D01*
X138805347Y-90595901D01*
X137913798Y-90694659D01*
X136906658Y-90760952D01*
X135877729Y-90791110D01*
X134920811Y-90781462D01*
X134129705Y-90728334D01*
X133851140Y-90688970D01*
X131971605Y-90207009D01*
X130235755Y-89454970D01*
X128640533Y-88431250D01*
X127303557Y-87257221D01*
X126675277Y-86597974D01*
X126200987Y-86018569D01*
X125800685Y-85406741D01*
X125394367Y-84650225D01*
X125275805Y-84411787D01*
X124930164Y-83667676D01*
X124615520Y-82915931D01*
X124372951Y-82258703D01*
X124265596Y-81899759D01*
X123919631Y-79909649D01*
X123853217Y-77925232D01*
X124059911Y-75980714D01*
X124533270Y-74110300D01*
X125266850Y-72348196D01*
X126254210Y-70728609D01*
X126409196Y-70519315D01*
X127594492Y-69202721D01*
X128979604Y-68097629D01*
X130535079Y-67212846D01*
X132231460Y-66557178D01*
X134039294Y-66139433D01*
X135929126Y-65968417D01*
X137871500Y-66052937D01*
G37*
G36*
X239006490Y-66085331D02*
G01*
X240074299Y-66239331D01*
X240234420Y-66274180D01*
X242090106Y-66840267D01*
X243818494Y-67640290D01*
X245381753Y-68650763D01*
X246742049Y-69848200D01*
X247600198Y-70846737D01*
X248046652Y-71493406D01*
X248486893Y-72227974D01*
X248886782Y-72981999D01*
X249212180Y-73687038D01*
X249428949Y-74274651D01*
X249503167Y-74661846D01*
X249366480Y-75168825D01*
X249000381Y-75534897D01*
X248470810Y-75699255D01*
X248374312Y-75702771D01*
X248081122Y-75684686D01*
X247850041Y-75599365D01*
X247639431Y-75400204D01*
X247407654Y-75040603D01*
X247113072Y-74473960D01*
X246915359Y-74069876D01*
X246014349Y-72543765D01*
X244896888Y-71233959D01*
X243562939Y-70140428D01*
X242012468Y-69263144D01*
X240245437Y-68602078D01*
X240169432Y-68579896D01*
X239220921Y-68388100D01*
X238084604Y-68285586D01*
X236865061Y-68271303D01*
X235666875Y-68344199D01*
X234594626Y-68503220D01*
X234048950Y-68641482D01*
X232737361Y-69123119D01*
X231622881Y-69711950D01*
X230599777Y-70471156D01*
X229896547Y-71122692D01*
X228800982Y-72401122D01*
X227972321Y-73801862D01*
X227403639Y-75342558D01*
X227088009Y-77040861D01*
X227013053Y-78470764D01*
X227150883Y-80243200D01*
X227559939Y-81909146D01*
X228223697Y-83444956D01*
X229125631Y-84826983D01*
X230249215Y-86031581D01*
X231577926Y-87035101D01*
X233095238Y-87813898D01*
X233700323Y-88040086D01*
X234829084Y-88324953D01*
X236129643Y-88494926D01*
X237487836Y-88544079D01*
X238789496Y-88466491D01*
X239557384Y-88343985D01*
X241191232Y-87847453D01*
X242718090Y-87081649D01*
X244105423Y-86074126D01*
X245320697Y-84852440D01*
X246331378Y-83444147D01*
X247059705Y-81989832D01*
X247311036Y-81426717D01*
X247558621Y-80962543D01*
X247755902Y-80682881D01*
X247784986Y-80656801D01*
X248246167Y-80472911D01*
X248731852Y-80530934D01*
X249157391Y-80786890D01*
X249438132Y-81196798D01*
X249503167Y-81549489D01*
X249423141Y-82012936D01*
X249204122Y-82658717D01*
X248877705Y-83415094D01*
X248475481Y-84210331D01*
X248029043Y-84972691D01*
X247924395Y-85134382D01*
X246754300Y-86633776D01*
X245372186Y-87933858D01*
X243812711Y-89016431D01*
X242110529Y-89863296D01*
X240300298Y-90456254D01*
X238416674Y-90777110D01*
X237077389Y-90830126D01*
X236402259Y-90814457D01*
X235805434Y-90790272D01*
X235380455Y-90761773D01*
X235273047Y-90749112D01*
X233290771Y-90299335D01*
X231485853Y-89600627D01*
X229854944Y-88651030D01*
X228394693Y-87448584D01*
X227101751Y-85991329D01*
X227073787Y-85954578D01*
X226682855Y-85348759D01*
X226255443Y-84538809D01*
X225833238Y-83616472D01*
X225457926Y-82673489D01*
X225171195Y-81801603D01*
X225146767Y-81713663D01*
X224928102Y-80593514D01*
X224812286Y-79293359D01*
X224799228Y-77921382D01*
X224888836Y-76585768D01*
X225081018Y-75394702D01*
X225152388Y-75104841D01*
X225808261Y-73198669D01*
X226689904Y-71493585D01*
X227788584Y-69998096D01*
X229095570Y-68720706D01*
X230602129Y-67669922D01*
X232299530Y-66854247D01*
X234179039Y-66282189D01*
X234219665Y-66273013D01*
X235269406Y-66105497D01*
X236491892Y-66018392D01*
X237774971Y-66011677D01*
X239006490Y-66085331D01*
G37*
G36*
X189855946Y-66061730D02*
G01*
X191789666Y-66450964D01*
X193660980Y-67117308D01*
X194194434Y-67366214D01*
X195873323Y-68356106D01*
X197347485Y-69562484D01*
X198599838Y-70968526D01*
X199613299Y-72557411D01*
X199763312Y-72849965D01*
X200166597Y-73765617D01*
X200363438Y-74478688D01*
X200356132Y-75010382D01*
X200146971Y-75381901D01*
X200046230Y-75464576D01*
X199482678Y-75684522D01*
X198870462Y-75637034D01*
X198790535Y-75609260D01*
X198626410Y-75438795D01*
X198375076Y-75052008D01*
X198074730Y-74511726D01*
X197846382Y-74056300D01*
X197444845Y-73271889D01*
X197052894Y-72650281D01*
X196586545Y-72074117D01*
X195969716Y-71433847D01*
X194662061Y-70297309D01*
X193293880Y-69432421D01*
X191810099Y-68812626D01*
X190155645Y-68411367D01*
X189500536Y-68314397D01*
X187726480Y-68229649D01*
X185988537Y-68417160D01*
X184332796Y-68866763D01*
X182805347Y-69568288D01*
X182243104Y-69915492D01*
X180909344Y-70983378D01*
X179814763Y-72239071D01*
X178964201Y-73673560D01*
X178362500Y-75277835D01*
X178014499Y-77042888D01*
X177940004Y-77924508D01*
X177961486Y-79574482D01*
X178217166Y-81101374D01*
X178726990Y-82600556D01*
X179075340Y-83353373D01*
X179731814Y-84415492D01*
X180604054Y-85460021D01*
X181609141Y-86402744D01*
X182664158Y-87159440D01*
X183019432Y-87359338D01*
X183863782Y-87774316D01*
X184611288Y-88074308D01*
X185342517Y-88276482D01*
X186138036Y-88398004D01*
X187078410Y-88456041D01*
X188221842Y-88467855D01*
X189135716Y-88459996D01*
X189815093Y-88438935D01*
X190331468Y-88395750D01*
X190756337Y-88321521D01*
X191161198Y-88207326D01*
X191617546Y-88044245D01*
X191617915Y-88044105D01*
X193223691Y-87309706D01*
X194659990Y-86389654D01*
X195879855Y-85316649D01*
X196420452Y-84699797D01*
X196736026Y-84254725D01*
X197094397Y-83676143D01*
X197458509Y-83033768D01*
X197791307Y-82397318D01*
X198055735Y-81836509D01*
X198214738Y-81421059D01*
X198244131Y-81268657D01*
X198371663Y-81016316D01*
X198682576Y-80744675D01*
X199069349Y-80529437D01*
X199412356Y-80446144D01*
X199874228Y-80584368D01*
X200216970Y-80951342D01*
X200380390Y-81475524D01*
X200386300Y-81603763D01*
X200302702Y-82096851D01*
X200072635Y-82769909D01*
X199727187Y-83553663D01*
X199297448Y-84378835D01*
X198814506Y-85176152D01*
X198718716Y-85319634D01*
X197557368Y-86765226D01*
X196167899Y-88040462D01*
X194594630Y-89114371D01*
X192881877Y-89955981D01*
X191358589Y-90463178D01*
X190684365Y-90591798D01*
X189800589Y-90692131D01*
X188800771Y-90760336D01*
X187778422Y-90792572D01*
X186827052Y-90784998D01*
X186040170Y-90733772D01*
X185753304Y-90693443D01*
X183866727Y-90209738D01*
X182127535Y-89469895D01*
X180555130Y-88489804D01*
X179168917Y-87285359D01*
X177988300Y-85872450D01*
X177032684Y-84266970D01*
X176552825Y-83158260D01*
X175970753Y-81193715D01*
X175692155Y-79219036D01*
X175716296Y-77249843D01*
X176042441Y-75301755D01*
X176669857Y-73390391D01*
X177052085Y-72542752D01*
X177996207Y-70918629D01*
X179124026Y-69533648D01*
X180453374Y-68369774D01*
X182002079Y-67408976D01*
X182254372Y-67281273D01*
X184059032Y-66559377D01*
X185952760Y-66115667D01*
X187897687Y-65949874D01*
X189855946Y-66061730D01*
G37*
G36*
X83689981Y-66061981D02*
G01*
X84753565Y-66171304D01*
X85294271Y-66269678D01*
X87187081Y-66844109D01*
X88938232Y-67672146D01*
X90523905Y-68735025D01*
X91920284Y-70013986D01*
X93103553Y-71490268D01*
X94049895Y-73145107D01*
X94066195Y-73179797D01*
X94394509Y-73980190D01*
X94530524Y-74591459D01*
X94478507Y-75059032D01*
X94274231Y-75394772D01*
X93893115Y-75627478D01*
X93405235Y-75698996D01*
X92950133Y-75601663D01*
X92768402Y-75477472D01*
X92606122Y-75246098D01*
X92356422Y-74810918D01*
X92060486Y-74245820D01*
X91894233Y-73909099D01*
X91050574Y-72507729D01*
X89959173Y-71256717D01*
X88652103Y-70182505D01*
X87161437Y-69311540D01*
X85552692Y-68680460D01*
X84561607Y-68458218D01*
X83389322Y-68323445D01*
X82140361Y-68277994D01*
X80919248Y-68323718D01*
X79830506Y-68462470D01*
X79356384Y-68570615D01*
X77694132Y-69176342D01*
X76219799Y-70016569D01*
X74946308Y-71074748D01*
X73886581Y-72334328D01*
X73053539Y-73778762D01*
X72460104Y-75391498D01*
X72119198Y-77155988D01*
X72055314Y-77921445D01*
X72103535Y-79624271D01*
X72417645Y-81269333D01*
X72978281Y-82822065D01*
X73766080Y-84247900D01*
X74761677Y-85512271D01*
X75945710Y-86580612D01*
X77298815Y-87418355D01*
X77404010Y-87469697D01*
X78208903Y-87840972D01*
X78888328Y-88107808D01*
X79524846Y-88287262D01*
X80201015Y-88396386D01*
X80999397Y-88452237D01*
X82002549Y-88471869D01*
X82260999Y-88473027D01*
X83185415Y-88469570D01*
X83879107Y-88447807D01*
X84417205Y-88399648D01*
X84874837Y-88317003D01*
X85327134Y-88191781D01*
X85550758Y-88118774D01*
X87216540Y-87404935D01*
X88712347Y-86451025D01*
X90015109Y-85278419D01*
X91101754Y-83908489D01*
X91949211Y-82362608D01*
X92069459Y-82079863D01*
X92442715Y-81285122D01*
X92809140Y-80767513D01*
X93192523Y-80499681D01*
X93490289Y-80446144D01*
X93996466Y-80584935D01*
X94388019Y-80944931D01*
X94547518Y-81321556D01*
X94527220Y-81791569D01*
X94344065Y-82446969D01*
X94024693Y-83232846D01*
X93595746Y-84094293D01*
X93083865Y-84976401D01*
X92515691Y-85824264D01*
X92099392Y-86367192D01*
X91110316Y-87391817D01*
X89887517Y-88358160D01*
X88503030Y-89220738D01*
X87028888Y-89934069D01*
X85703770Y-90405419D01*
X84800399Y-90599589D01*
X83696990Y-90730047D01*
X82493543Y-90793299D01*
X81290062Y-90785849D01*
X80186548Y-90704203D01*
X79614358Y-90618211D01*
X77887955Y-90175818D01*
X76331642Y-89522123D01*
X74890492Y-88627606D01*
X73509574Y-87462749D01*
X73226390Y-87185329D01*
X72634231Y-86561458D01*
X72175841Y-85990048D01*
X71775658Y-85363697D01*
X71358117Y-84575006D01*
X71282859Y-84422928D01*
X70934175Y-83676573D01*
X70613061Y-82923247D01*
X70361336Y-82264603D01*
X70244817Y-81899759D01*
X70078263Y-81058218D01*
X69963763Y-80012551D01*
X69903929Y-78860636D01*
X69901374Y-77700351D01*
X69958711Y-76629574D01*
X70078552Y-75746182D01*
X70080333Y-75737351D01*
X70610176Y-73835924D01*
X71387504Y-72100953D01*
X72397299Y-70547984D01*
X73624541Y-69192563D01*
X75054209Y-68050236D01*
X76671284Y-67136549D01*
X78460746Y-66467046D01*
X79227726Y-66269678D01*
X80161184Y-66121005D01*
X81287144Y-66036831D01*
X82498959Y-66017156D01*
X83689981Y-66061981D01*
G37*
G36*
X208333022Y-66225638D02*
G01*
X209458130Y-66232008D01*
X210852257Y-66243058D01*
X211152512Y-66245590D01*
X216698941Y-66292530D01*
X217848884Y-66861106D01*
X219147472Y-67630777D01*
X220197620Y-68541576D01*
X220944933Y-69483504D01*
X221679093Y-70846246D01*
X222133780Y-72270428D01*
X222316155Y-73720509D01*
X222233378Y-75160949D01*
X221892610Y-76556208D01*
X221301009Y-77870746D01*
X220465737Y-79069022D01*
X219393953Y-80115496D01*
X218702052Y-80616195D01*
X218178153Y-80927240D01*
X217687475Y-81171958D01*
X217364951Y-81288959D01*
X217020475Y-81396535D01*
X216839698Y-81509780D01*
X216904824Y-81661256D01*
X217125586Y-82030682D01*
X217481030Y-82586077D01*
X217950199Y-83295462D01*
X218512137Y-84126853D01*
X219145890Y-85048271D01*
X219362642Y-85360083D01*
X220184262Y-86546995D01*
X220835690Y-87513795D01*
X221327273Y-88287470D01*
X221669357Y-88895003D01*
X221872291Y-89363380D01*
X221946422Y-89719585D01*
X221902096Y-89990603D01*
X221749661Y-90203420D01*
X221499465Y-90385019D01*
X221325972Y-90480316D01*
X220956365Y-90623875D01*
X220649475Y-90583602D01*
X220495585Y-90512910D01*
X220312675Y-90339157D01*
X219976580Y-89937030D01*
X219505966Y-89331372D01*
X218919495Y-88547027D01*
X218235831Y-87608839D01*
X217473638Y-86541650D01*
X216904238Y-85732404D01*
X216034520Y-84484280D01*
X215329159Y-83459918D01*
X214772981Y-82635252D01*
X214350810Y-81986216D01*
X214047471Y-81488744D01*
X213847789Y-81118770D01*
X213736588Y-80852228D01*
X213698693Y-80665052D01*
X213698348Y-80648281D01*
X213784615Y-80223902D01*
X214067945Y-79922571D01*
X214585131Y-79719215D01*
X215228468Y-79605612D01*
X216453427Y-79309794D01*
X217541703Y-78766298D01*
X218469827Y-78011758D01*
X219214332Y-77082806D01*
X219751749Y-76016076D01*
X220058611Y-74848201D01*
X220111449Y-73615815D01*
X219886796Y-72355551D01*
X219882437Y-72340804D01*
X219382320Y-71178465D01*
X218633732Y-70165594D01*
X217674456Y-69343455D01*
X216628084Y-68786892D01*
X216360279Y-68684793D01*
X216098945Y-68604934D01*
X215803496Y-68544560D01*
X215433345Y-68500918D01*
X214947906Y-68471251D01*
X214306591Y-68452808D01*
X213468814Y-68442832D01*
X212393989Y-68438570D01*
X211479673Y-68437512D01*
X207195336Y-68434699D01*
X207118830Y-79254892D01*
X207104152Y-81371378D01*
X207091035Y-83202786D01*
X207077787Y-84770045D01*
X207062715Y-86094083D01*
X207044127Y-87195828D01*
X207020333Y-88096211D01*
X206989638Y-88816158D01*
X206950352Y-89376599D01*
X206900783Y-89798463D01*
X206839238Y-90102679D01*
X206764025Y-90310174D01*
X206673452Y-90441878D01*
X206565828Y-90518719D01*
X206439459Y-90561627D01*
X206292655Y-90591528D01*
X206200758Y-90610423D01*
X205782287Y-90609664D01*
X205512203Y-90518810D01*
X205219006Y-90307475D01*
X205093763Y-90175486D01*
X205075731Y-89999330D01*
X205058532Y-89541138D01*
X205042401Y-88824901D01*
X205027572Y-87874606D01*
X205014279Y-86714244D01*
X205002757Y-85367802D01*
X204993239Y-83859269D01*
X204985960Y-82212634D01*
X204981154Y-80451886D01*
X204979055Y-78601013D01*
X204979004Y-78418735D01*
X204978695Y-76261299D01*
X204979065Y-74389031D01*
X204980661Y-72781075D01*
X204984030Y-71416573D01*
X204989720Y-70274668D01*
X204998277Y-69334506D01*
X205010250Y-68575229D01*
X205026185Y-67975980D01*
X205046630Y-67515903D01*
X205072131Y-67174142D01*
X205103237Y-66929840D01*
X205140493Y-66762141D01*
X205184448Y-66650188D01*
X205235649Y-66573124D01*
X205291372Y-66513361D01*
X205381968Y-66431230D01*
X205493219Y-66365126D01*
X205656170Y-66313631D01*
X205901866Y-66275326D01*
X206261354Y-66248792D01*
X206765679Y-66232612D01*
X207445887Y-66225367D01*
X208333022Y-66225638D01*
G37*
%LPC*%
D10*
X48495000Y-58337500D03*
D11*
X53575000Y-58337500D03*
D10*
X58655000Y-58337500D03*
D12*
X49175000Y-63037500D03*
X49765000Y-55797500D03*
X56115000Y-53257500D03*
X56175000Y-64087500D03*
D10*
X167557500Y-77387500D03*
D11*
X172637500Y-77387500D03*
D10*
X177717500Y-77387500D03*
D12*
X168237500Y-82087500D03*
X168827500Y-74847500D03*
X175177500Y-72307500D03*
X175237500Y-83137500D03*
D10*
X91357500Y-77387500D03*
D11*
X96437500Y-77387500D03*
D10*
X101517500Y-77387500D03*
D12*
X92037500Y-82087500D03*
X92627500Y-74847500D03*
X98977500Y-72307500D03*
X99037500Y-83137500D03*
D10*
X72307500Y-77387500D03*
D11*
X77387500Y-77387500D03*
D10*
X82467500Y-77387500D03*
D12*
X72987500Y-82087500D03*
X73577500Y-74847500D03*
X79927500Y-72307500D03*
X79987500Y-83137500D03*
D10*
X31826250Y-77387500D03*
D11*
X36906250Y-77387500D03*
D10*
X41986250Y-77387500D03*
D12*
X32506250Y-82087500D03*
X33096250Y-74847500D03*
X39446250Y-72307500D03*
X39506250Y-83137500D03*
D10*
X200895000Y-58337500D03*
D11*
X205975000Y-58337500D03*
D10*
X211055000Y-58337500D03*
D12*
X201575000Y-63037500D03*
X202165000Y-55797500D03*
X208515000Y-53257500D03*
X208575000Y-64087500D03*
D10*
X67545000Y-34525000D03*
D11*
X72625000Y-34525000D03*
D10*
X77705000Y-34525000D03*
D12*
X68225000Y-39225000D03*
X68815000Y-31985000D03*
X75165000Y-29445000D03*
X75225000Y-40275000D03*
D10*
X79451250Y-115487500D03*
D11*
X84531250Y-115487500D03*
D10*
X89611250Y-115487500D03*
D12*
X80131250Y-120187500D03*
X80721250Y-112947500D03*
X87071250Y-110407500D03*
X87131250Y-121237500D03*
D10*
X48495000Y-34525000D03*
D11*
X53575000Y-34525000D03*
D10*
X58655000Y-34525000D03*
D12*
X49175000Y-39225000D03*
X49765000Y-31985000D03*
X56115000Y-29445000D03*
X56175000Y-40275000D03*
D10*
X105645000Y-58337500D03*
D11*
X110725000Y-58337500D03*
D10*
X115805000Y-58337500D03*
D12*
X106325000Y-63037500D03*
X106915000Y-55797500D03*
X113265000Y-53257500D03*
X113325000Y-64087500D03*
D10*
X181845000Y-58337500D03*
D11*
X186925000Y-58337500D03*
D10*
X192005000Y-58337500D03*
D12*
X182525000Y-63037500D03*
X183115000Y-55797500D03*
X189465000Y-53257500D03*
X189525000Y-64087500D03*
D10*
X129457500Y-77387500D03*
D11*
X134537500Y-77387500D03*
D10*
X139617500Y-77387500D03*
D12*
X130137500Y-82087500D03*
X130727500Y-74847500D03*
X137077500Y-72307500D03*
X137137500Y-83137500D03*
D10*
X110407500Y-77387500D03*
D11*
X115487500Y-77387500D03*
D10*
X120567500Y-77387500D03*
D12*
X111087500Y-82087500D03*
X111677500Y-74847500D03*
X118027500Y-72307500D03*
X118087500Y-83137500D03*
D10*
X272332500Y-120250000D03*
D11*
X277412500Y-120250000D03*
D10*
X282492500Y-120250000D03*
D12*
X273012500Y-124950000D03*
X273602500Y-117710000D03*
X279952500Y-115170000D03*
X280012500Y-126000000D03*
D10*
X134220000Y-96437500D03*
D11*
X139300000Y-96437500D03*
D10*
X144380000Y-96437500D03*
D12*
X134900000Y-101137500D03*
X135490000Y-93897500D03*
X141840000Y-91357500D03*
X141900000Y-102187500D03*
D10*
X31826250Y-115487500D03*
D11*
X36906250Y-115487500D03*
D10*
X41986250Y-115487500D03*
D12*
X32506250Y-120187500D03*
X33096250Y-112947500D03*
X39446250Y-110407500D03*
X39506250Y-121237500D03*
D10*
X191370000Y-96437500D03*
D11*
X196450000Y-96437500D03*
D10*
X201530000Y-96437500D03*
D12*
X192050000Y-101137500D03*
X192640000Y-93897500D03*
X198990000Y-91357500D03*
X199050000Y-102187500D03*
D10*
X169938750Y-120250000D03*
D11*
X175018750Y-120250000D03*
D10*
X180098750Y-120250000D03*
D12*
X170618750Y-124950000D03*
X171208750Y-117710000D03*
X177558750Y-115170000D03*
X177618750Y-126000000D03*
D10*
X272332500Y-58337500D03*
D11*
X277412500Y-58337500D03*
D10*
X282492500Y-58337500D03*
D12*
X273012500Y-63037500D03*
X273602500Y-55797500D03*
X279952500Y-53257500D03*
X280012500Y-64087500D03*
D10*
X77070000Y-96437500D03*
D11*
X82150000Y-96437500D03*
D10*
X87230000Y-96437500D03*
D12*
X77750000Y-101137500D03*
X78340000Y-93897500D03*
X84690000Y-91357500D03*
X84750000Y-102187500D03*
D10*
X86595000Y-34525000D03*
D11*
X91675000Y-34525000D03*
D10*
X96755000Y-34525000D03*
D12*
X87275000Y-39225000D03*
X87865000Y-31985000D03*
X94215000Y-29445000D03*
X94275000Y-40275000D03*
D10*
X143745000Y-58337500D03*
D11*
X148825000Y-58337500D03*
D10*
X153905000Y-58337500D03*
D12*
X144425000Y-63037500D03*
X145015000Y-55797500D03*
X151365000Y-53257500D03*
X151425000Y-64087500D03*
D10*
X67545000Y-58337500D03*
D11*
X72625000Y-58337500D03*
D10*
X77705000Y-58337500D03*
D12*
X68225000Y-63037500D03*
X68815000Y-55797500D03*
X75165000Y-53257500D03*
X75225000Y-64087500D03*
D13*
X139300000Y-127235000D03*
D14*
X139300000Y-111995000D03*
D13*
X115487500Y-127235000D03*
D14*
X115487500Y-111995000D03*
D10*
X58020000Y-96437500D03*
D11*
X63100000Y-96437500D03*
D10*
X68180000Y-96437500D03*
D12*
X58700000Y-101137500D03*
X59290000Y-93897500D03*
X65640000Y-91357500D03*
X65700000Y-102187500D03*
D10*
X219945000Y-58337500D03*
D11*
X225025000Y-58337500D03*
D10*
X230105000Y-58337500D03*
D12*
X220625000Y-63037500D03*
X221215000Y-55797500D03*
X227565000Y-53257500D03*
X227625000Y-64087500D03*
D10*
X124695000Y-58337500D03*
D11*
X129775000Y-58337500D03*
D10*
X134855000Y-58337500D03*
D12*
X125375000Y-63037500D03*
X125965000Y-55797500D03*
X132315000Y-53257500D03*
X132375000Y-64087500D03*
D10*
X162795000Y-58337500D03*
D11*
X167875000Y-58337500D03*
D10*
X172955000Y-58337500D03*
D12*
X163475000Y-63037500D03*
X164065000Y-55797500D03*
X170415000Y-53257500D03*
X170475000Y-64087500D03*
D10*
X55638750Y-115487500D03*
D11*
X60718750Y-115487500D03*
D10*
X65798750Y-115487500D03*
D12*
X56318750Y-120187500D03*
X56908750Y-112947500D03*
X63258750Y-110407500D03*
X63318750Y-121237500D03*
D10*
X86595000Y-58337500D03*
D11*
X91675000Y-58337500D03*
D10*
X96755000Y-58337500D03*
D12*
X87275000Y-63037500D03*
X87865000Y-55797500D03*
X94215000Y-53257500D03*
X94275000Y-64087500D03*
D10*
X186607500Y-77387500D03*
D11*
X191687500Y-77387500D03*
D10*
X196767500Y-77387500D03*
D12*
X187287500Y-82087500D03*
X187877500Y-74847500D03*
X194227500Y-72307500D03*
X194287500Y-83137500D03*
D10*
X129457500Y-34525000D03*
D11*
X134537500Y-34525000D03*
D10*
X139617500Y-34525000D03*
D12*
X130137500Y-39225000D03*
X130727500Y-31985000D03*
X137077500Y-29445000D03*
X137137500Y-40275000D03*
D10*
X148507500Y-77387500D03*
D11*
X153587500Y-77387500D03*
D10*
X158667500Y-77387500D03*
D12*
X149187500Y-82087500D03*
X149777500Y-74847500D03*
X156127500Y-72307500D03*
X156187500Y-83137500D03*
D10*
X205657500Y-77387500D03*
D11*
X210737500Y-77387500D03*
D10*
X215817500Y-77387500D03*
D12*
X206337500Y-82087500D03*
X206927500Y-74847500D03*
X213277500Y-72307500D03*
X213337500Y-83137500D03*
D10*
X148507500Y-34525000D03*
D11*
X153587500Y-34525000D03*
D10*
X158667500Y-34525000D03*
D12*
X149187500Y-39225000D03*
X149777500Y-31985000D03*
X156127500Y-29445000D03*
X156187500Y-40275000D03*
D10*
X115170000Y-96437500D03*
D11*
X120250000Y-96437500D03*
D10*
X125330000Y-96437500D03*
D12*
X115850000Y-101137500D03*
X116440000Y-93897500D03*
X122790000Y-91357500D03*
X122850000Y-102187500D03*
D10*
X96120000Y-96437500D03*
D11*
X101200000Y-96437500D03*
D10*
X106280000Y-96437500D03*
D12*
X96800000Y-101137500D03*
X97390000Y-93897500D03*
X103740000Y-91357500D03*
X103800000Y-102187500D03*
D10*
X210420000Y-96437500D03*
D11*
X215500000Y-96437500D03*
D10*
X220580000Y-96437500D03*
D12*
X211100000Y-101137500D03*
X211690000Y-93897500D03*
X218040000Y-91357500D03*
X218100000Y-102187500D03*
D10*
X110407500Y-34525000D03*
D11*
X115487500Y-34525000D03*
D10*
X120567500Y-34525000D03*
D12*
X111087500Y-39225000D03*
X111677500Y-31985000D03*
X118027500Y-29445000D03*
X118087500Y-40275000D03*
D10*
X208038750Y-115487500D03*
D11*
X213118750Y-115487500D03*
D10*
X218198750Y-115487500D03*
D12*
X208718750Y-120187500D03*
X209308750Y-112947500D03*
X215658750Y-110407500D03*
X215718750Y-121237500D03*
D10*
X272332500Y-77387500D03*
D11*
X277412500Y-77387500D03*
D10*
X282492500Y-77387500D03*
D12*
X273012500Y-82087500D03*
X273602500Y-74847500D03*
X279952500Y-72307500D03*
X280012500Y-83137500D03*
D10*
X229470000Y-96437500D03*
D11*
X234550000Y-96437500D03*
D10*
X239630000Y-96437500D03*
D12*
X230150000Y-101137500D03*
X230740000Y-93897500D03*
X237090000Y-91357500D03*
X237150000Y-102187500D03*
D10*
X29445000Y-58337500D03*
D11*
X34525000Y-58337500D03*
D10*
X39605000Y-58337500D03*
D12*
X30125000Y-63037500D03*
X30715000Y-55797500D03*
X37065000Y-53257500D03*
X37125000Y-64087500D03*
D10*
X253282500Y-120250000D03*
D11*
X258362500Y-120250000D03*
D10*
X263442500Y-120250000D03*
D12*
X253962500Y-124950000D03*
X254552500Y-117710000D03*
X260902500Y-115170000D03*
X260962500Y-126000000D03*
D10*
X122313750Y-120250000D03*
D11*
X127393750Y-120250000D03*
D10*
X132473750Y-120250000D03*
D12*
X122993750Y-124950000D03*
X123583750Y-117710000D03*
X129933750Y-115170000D03*
X129993750Y-126000000D03*
D10*
X29445000Y-34525000D03*
D11*
X34525000Y-34525000D03*
D10*
X39605000Y-34525000D03*
D12*
X30125000Y-39225000D03*
X30715000Y-31985000D03*
X37065000Y-29445000D03*
X37125000Y-40275000D03*
D10*
X153270000Y-96437500D03*
D11*
X158350000Y-96437500D03*
D10*
X163430000Y-96437500D03*
D12*
X153950000Y-101137500D03*
X154540000Y-93897500D03*
X160890000Y-91357500D03*
X160950000Y-102187500D03*
D10*
X167557500Y-34525000D03*
D11*
X172637500Y-34525000D03*
D10*
X177717500Y-34525000D03*
D12*
X168237500Y-39225000D03*
X168827500Y-31985000D03*
X175177500Y-29445000D03*
X175237500Y-40275000D03*
D10*
X246138750Y-67862500D03*
D11*
X251218750Y-67862500D03*
D10*
X256298750Y-67862500D03*
D12*
X246818750Y-72562500D03*
X247408750Y-65322500D03*
X253758750Y-62782500D03*
X253818750Y-73612500D03*
D13*
X186925000Y-127235000D03*
D14*
X186925000Y-111995000D03*
D13*
X163112500Y-127235000D03*
D14*
X163112500Y-111995000D03*
D10*
X191370000Y-34525000D03*
D11*
X196450000Y-34525000D03*
D10*
X201530000Y-34525000D03*
D12*
X192050000Y-39225000D03*
X192640000Y-31985000D03*
X198990000Y-29445000D03*
X199050000Y-40275000D03*
D10*
X229470000Y-34525000D03*
D11*
X234550000Y-34525000D03*
D10*
X239630000Y-34525000D03*
D12*
X230150000Y-39225000D03*
X230740000Y-31985000D03*
X237090000Y-29445000D03*
X237150000Y-40275000D03*
D10*
X253600000Y-39605000D03*
D11*
X253600000Y-34525000D03*
D10*
X253600000Y-29445000D03*
X34207500Y-96437500D03*
D11*
X39287500Y-96437500D03*
D10*
X44367500Y-96437500D03*
D12*
X34887500Y-101137500D03*
X35477500Y-93897500D03*
X41827500Y-91357500D03*
X41887500Y-102187500D03*
D10*
X172320000Y-96437500D03*
D11*
X177400000Y-96437500D03*
D10*
X182480000Y-96437500D03*
D12*
X173000000Y-101137500D03*
X173590000Y-93897500D03*
X179940000Y-91357500D03*
X180000000Y-102187500D03*
D10*
X234232500Y-120250000D03*
D11*
X239312500Y-120250000D03*
D10*
X244392500Y-120250000D03*
D12*
X234912500Y-124950000D03*
X235502500Y-117710000D03*
X241852500Y-115170000D03*
X241912500Y-126000000D03*
D13*
X244233750Y-55956250D03*
X244233750Y-79768750D03*
D14*
X259473750Y-55956250D03*
X259473750Y-79768750D03*
D10*
X210420000Y-34525000D03*
D11*
X215500000Y-34525000D03*
D10*
X220580000Y-34525000D03*
D12*
X211100000Y-39225000D03*
X211690000Y-31985000D03*
X218040000Y-29445000D03*
X218100000Y-40275000D03*
D10*
X253282500Y-101200000D03*
D11*
X258362500Y-101200000D03*
D10*
X263442500Y-101200000D03*
D12*
X253962500Y-105900000D03*
X254552500Y-98660000D03*
X260902500Y-96120000D03*
X260962500Y-106950000D03*
D10*
X53257500Y-77387500D03*
D11*
X58337500Y-77387500D03*
D10*
X63417500Y-77387500D03*
D12*
X53937500Y-82087500D03*
X54527500Y-74847500D03*
X60877500Y-72307500D03*
X60937500Y-83137500D03*
D10*
X224707500Y-77387500D03*
D11*
X229787500Y-77387500D03*
D10*
X234867500Y-77387500D03*
D12*
X225387500Y-82087500D03*
X225977500Y-74847500D03*
X232327500Y-72307500D03*
X232387500Y-83137500D03*
D15*
X265320000Y-50000000D03*
X265320000Y-47000000D03*
D16*
X257170000Y-47210000D03*
D17*
X257170000Y-49210000D03*
D18*
X281900000Y-42210000D03*
X279360000Y-42210000D03*
D19*
X276820000Y-42210000D03*
X274280000Y-42210000D03*
D18*
X271740000Y-42210000D03*
X269200000Y-42210000D03*
X266660000Y-42210000D03*
X264120000Y-42210000D03*
X261580000Y-42210000D03*
X259040000Y-42210000D03*
X256500000Y-42210000D03*
X253960000Y-42210000D03*
X281900000Y-26970000D03*
D19*
X279360000Y-26970000D03*
D18*
X276820000Y-26970000D03*
X274280000Y-26970000D03*
X271740000Y-26970000D03*
X269200000Y-26970000D03*
X266660000Y-26970000D03*
X264120000Y-26970000D03*
X261580000Y-26970000D03*
X259040000Y-26970000D03*
X256500000Y-26970000D03*
X253960000Y-26970000D03*
%LPD*%
M02*
