M48
; DRILL file {KiCad 7.0.8-7.0.8~ubuntu22.04.1} date Sun Oct  8 19:28:25 2023
; FORMAT={-:-/ absolute / metric / decimal}
; #@! TF.CreationDate,2023-10-08T19:28:25+02:00
; #@! TF.GenerationSoftware,Kicad,Pcbnew,7.0.8-7.0.8~ubuntu22.04.1
; #@! TF.FileFunction,Plated,1,2,PTH
FMAT,2
METRIC
; #@! TA.AperFunction,Plated,PTH,ViaDrill
T1C0.400
; #@! TA.AperFunction,Plated,PTH,ComponentDrill
T2C0.750
; #@! TA.AperFunction,Plated,PTH,ComponentDrill
T3C1.000
; #@! TA.AperFunction,Plated,PTH,ComponentDrill
T4C1.500
; #@! TA.AperFunction,Plated,PTH,ComponentDrill
T5C1.524
; #@! TA.AperFunction,Plated,PTH,ComponentDrill
T6C3.000
%
G90
G05
T1
X239.48Y-108.73
X241.0Y-43.724
X241.0Y-45.224
X242.0Y-43.0
X242.0Y-44.5
X242.0Y-53.6
X244.5Y-35.925
X245.261Y-35.04
X245.99Y-86.33
X246.022Y-35.925
X246.768Y-35.04
X254.54Y-92.57
T2
X257.17Y-47.21
X257.17Y-49.21
T3
X253.96Y-26.97
X253.96Y-42.21
X256.5Y-26.97
X256.5Y-42.21
X259.04Y-26.97
X259.04Y-42.21
X261.58Y-26.97
X261.58Y-42.21
X264.12Y-26.97
X264.12Y-42.21
X266.66Y-26.97
X266.66Y-42.21
X269.2Y-26.97
X269.2Y-42.21
X270.412Y-32.025
X270.412Y-37.025
X271.74Y-26.97
X271.74Y-42.21
X274.28Y-26.97
X274.28Y-42.21
X276.82Y-26.97
X276.82Y-42.21
X279.36Y-26.97
X279.36Y-42.21
X281.9Y-26.97
X281.9Y-42.21
X284.912Y-32.025
X284.912Y-34.525
X284.912Y-37.025
T4
X258.3Y-38.925
X259.35Y-31.925
T5
X248.52Y-31.985
X251.06Y-38.335
T6
X30.125Y-39.225
X30.125Y-63.037
X30.715Y-31.985
X30.715Y-55.797
X32.506Y-82.087
X32.506Y-120.188
X33.096Y-74.847
X33.096Y-112.947
X34.887Y-101.137
X35.477Y-93.897
X37.065Y-29.445
X37.065Y-53.258
X37.125Y-40.275
X37.125Y-64.087
X39.446Y-72.307
X39.446Y-110.407
X39.506Y-83.138
X39.506Y-121.237
X41.828Y-91.358
X41.887Y-102.188
X49.175Y-39.225
X49.175Y-63.037
X49.765Y-31.985
X49.765Y-55.797
X53.938Y-82.087
X54.527Y-74.847
X56.115Y-29.445
X56.115Y-53.258
X56.175Y-40.275
X56.175Y-64.087
X56.319Y-120.188
X56.909Y-112.947
X58.7Y-101.137
X59.29Y-93.897
X60.877Y-72.307
X60.938Y-83.138
X63.259Y-110.407
X63.319Y-121.237
X65.64Y-91.358
X65.7Y-102.188
X68.225Y-39.225
X68.225Y-63.037
X68.815Y-31.985
X68.815Y-55.797
X72.987Y-82.087
X73.578Y-74.847
X75.165Y-29.445
X75.165Y-53.258
X75.225Y-40.275
X75.225Y-64.087
X77.75Y-101.137
X78.34Y-93.897
X79.927Y-72.307
X79.987Y-83.138
X80.131Y-120.188
X80.721Y-112.947
X84.69Y-91.358
X84.75Y-102.188
X87.071Y-110.407
X87.131Y-121.237
X87.275Y-39.225
X87.275Y-63.037
X87.865Y-31.985
X87.865Y-55.797
X92.037Y-82.087
X92.627Y-74.847
X94.215Y-29.445
X94.215Y-53.258
X94.275Y-40.275
X94.275Y-64.087
X96.8Y-101.137
X97.39Y-93.897
X98.977Y-72.307
X99.037Y-83.138
X103.74Y-91.358
X103.8Y-102.188
X106.325Y-63.037
X106.915Y-55.797
X111.087Y-39.225
X111.087Y-82.087
X111.677Y-31.985
X111.677Y-74.847
X113.265Y-53.258
X113.325Y-64.087
X115.85Y-101.137
X116.44Y-93.897
X118.027Y-29.445
X118.027Y-72.307
X118.087Y-40.275
X118.087Y-83.138
X122.79Y-91.358
X122.85Y-102.188
X122.994Y-124.95
X123.584Y-117.71
X125.375Y-63.037
X125.965Y-55.797
X129.934Y-115.17
X129.994Y-126.0
X130.137Y-39.225
X130.137Y-82.087
X130.727Y-31.985
X130.727Y-74.847
X132.315Y-53.258
X132.375Y-64.087
X134.9Y-101.137
X135.49Y-93.897
X137.077Y-29.445
X137.077Y-72.307
X137.137Y-40.275
X137.137Y-83.138
X141.84Y-91.358
X141.9Y-102.188
X144.425Y-63.037
X145.015Y-55.797
X149.188Y-39.225
X149.188Y-82.087
X149.778Y-31.985
X149.778Y-74.847
X151.365Y-53.258
X151.425Y-64.087
X153.95Y-101.137
X154.54Y-93.897
X156.127Y-29.445
X156.127Y-72.307
X156.188Y-40.275
X156.188Y-83.138
X160.89Y-91.358
X160.95Y-102.188
X163.475Y-63.037
X164.065Y-55.797
X168.237Y-39.225
X168.237Y-82.087
X168.827Y-31.985
X168.827Y-74.847
X170.415Y-53.258
X170.475Y-64.087
X170.619Y-124.95
X171.209Y-117.71
X173.0Y-101.137
X173.59Y-93.897
X175.177Y-29.445
X175.177Y-72.307
X175.237Y-40.275
X175.237Y-83.138
X177.559Y-115.17
X177.619Y-126.0
X179.94Y-91.358
X180.0Y-102.188
X182.525Y-63.037
X183.115Y-55.797
X187.287Y-82.087
X187.877Y-74.847
X189.465Y-53.258
X189.525Y-64.087
X192.05Y-39.225
X192.05Y-101.137
X192.64Y-31.985
X192.64Y-93.897
X194.227Y-72.307
X194.287Y-83.138
X198.99Y-29.445
X198.99Y-91.358
X199.05Y-40.275
X199.05Y-102.188
X201.575Y-63.037
X202.165Y-55.797
X206.337Y-82.087
X206.927Y-74.847
X208.515Y-53.258
X208.575Y-64.087
X208.719Y-120.188
X209.309Y-112.947
X211.1Y-39.225
X211.1Y-101.137
X211.69Y-31.985
X211.69Y-93.897
X213.278Y-72.307
X213.337Y-83.138
X215.659Y-110.407
X215.719Y-121.237
X218.04Y-29.445
X218.04Y-91.358
X218.1Y-40.275
X218.1Y-102.188
X220.625Y-63.037
X221.215Y-55.797
X225.387Y-82.087
X225.977Y-74.847
X227.565Y-53.258
X227.625Y-64.087
X230.15Y-39.225
X230.15Y-101.137
X230.74Y-31.985
X230.74Y-93.897
X232.327Y-72.307
X232.387Y-83.138
X234.912Y-124.95
X235.502Y-117.71
X237.09Y-29.445
X237.09Y-91.358
X237.15Y-40.275
X237.15Y-102.188
X241.852Y-115.17
X241.912Y-126.0
X246.819Y-72.562
X247.409Y-65.322
X253.759Y-62.782
X253.819Y-73.612
X253.962Y-105.9
X253.962Y-124.95
X254.552Y-98.66
X254.552Y-117.71
X260.902Y-96.12
X260.902Y-115.17
X260.962Y-106.95
X260.962Y-126.0
X273.012Y-63.037
X273.012Y-82.087
X273.012Y-124.95
X273.602Y-55.797
X273.602Y-74.847
X273.602Y-117.71
X279.952Y-53.258
X279.952Y-72.307
X279.952Y-115.17
X280.012Y-64.087
X280.012Y-83.138
X280.012Y-126.0
T0
M30
