G04 #@! TF.GenerationSoftware,KiCad,Pcbnew,7.0.8-7.0.8~ubuntu22.04.1*
G04 #@! TF.CreationDate,2023-10-08T19:27:19+02:00*
G04 #@! TF.ProjectId,nrw65-pcb,6e727736-352d-4706-9362-2e6b69636164,rev?*
G04 #@! TF.SameCoordinates,Original*
G04 #@! TF.FileFunction,Soldermask,Top*
G04 #@! TF.FilePolarity,Negative*
%FSLAX46Y46*%
G04 Gerber Fmt 4.6, Leading zero omitted, Abs format (unit mm)*
G04 Created by KiCad (PCBNEW 7.0.8-7.0.8~ubuntu22.04.1) date 2023-10-08 19:27:19*
%MOMM*%
%LPD*%
G01*
G04 APERTURE LIST*
G04 Aperture macros list*
%AMRoundRect*
0 Rectangle with rounded corners*
0 $1 Rounding radius*
0 $2 $3 $4 $5 $6 $7 $8 $9 X,Y pos of 4 corners*
0 Add a 4 corners polygon primitive as box body*
4,1,4,$2,$3,$4,$5,$6,$7,$8,$9,$2,$3,0*
0 Add four circle primitives for the rounded corners*
1,1,$1+$1,$2,$3*
1,1,$1+$1,$4,$5*
1,1,$1+$1,$6,$7*
1,1,$1+$1,$8,$9*
0 Add four rect primitives between the rounded corners*
20,1,$1+$1,$2,$3,$4,$5,0*
20,1,$1+$1,$4,$5,$6,$7,0*
20,1,$1+$1,$6,$7,$8,$9,0*
20,1,$1+$1,$8,$9,$2,$3,0*%
G04 Aperture macros list end*
%ADD10C,1.750000*%
%ADD11C,5.000000*%
%ADD12C,3.300000*%
%ADD13C,3.048000*%
%ADD14C,3.987800*%
%ADD15C,0.900000*%
%ADD16O,1.750000X1.200000*%
%ADD17RoundRect,0.250000X0.625000X-0.350000X0.625000X0.350000X-0.625000X0.350000X-0.625000X-0.350000X0*%
%ADD18C,1.800000*%
%ADD19RoundRect,0.450000X0.450000X-0.450000X0.450000X0.450000X-0.450000X0.450000X-0.450000X-0.450000X0*%
G04 APERTURE END LIST*
D10*
X48495000Y-58337500D03*
D11*
X53575000Y-58337500D03*
D10*
X58655000Y-58337500D03*
D12*
X49175000Y-63037500D03*
X49765000Y-55797500D03*
X56115000Y-53257500D03*
X56175000Y-64087500D03*
D10*
X167557500Y-77387500D03*
D11*
X172637500Y-77387500D03*
D10*
X177717500Y-77387500D03*
D12*
X168237500Y-82087500D03*
X168827500Y-74847500D03*
X175177500Y-72307500D03*
X175237500Y-83137500D03*
D10*
X91357500Y-77387500D03*
D11*
X96437500Y-77387500D03*
D10*
X101517500Y-77387500D03*
D12*
X92037500Y-82087500D03*
X92627500Y-74847500D03*
X98977500Y-72307500D03*
X99037500Y-83137500D03*
D10*
X72307500Y-77387500D03*
D11*
X77387500Y-77387500D03*
D10*
X82467500Y-77387500D03*
D12*
X72987500Y-82087500D03*
X73577500Y-74847500D03*
X79927500Y-72307500D03*
X79987500Y-83137500D03*
D10*
X31826250Y-77387500D03*
D11*
X36906250Y-77387500D03*
D10*
X41986250Y-77387500D03*
D12*
X32506250Y-82087500D03*
X33096250Y-74847500D03*
X39446250Y-72307500D03*
X39506250Y-83137500D03*
D10*
X200895000Y-58337500D03*
D11*
X205975000Y-58337500D03*
D10*
X211055000Y-58337500D03*
D12*
X201575000Y-63037500D03*
X202165000Y-55797500D03*
X208515000Y-53257500D03*
X208575000Y-64087500D03*
D10*
X67545000Y-34525000D03*
D11*
X72625000Y-34525000D03*
D10*
X77705000Y-34525000D03*
D12*
X68225000Y-39225000D03*
X68815000Y-31985000D03*
X75165000Y-29445000D03*
X75225000Y-40275000D03*
D10*
X79451250Y-115487500D03*
D11*
X84531250Y-115487500D03*
D10*
X89611250Y-115487500D03*
D12*
X80131250Y-120187500D03*
X80721250Y-112947500D03*
X87071250Y-110407500D03*
X87131250Y-121237500D03*
D10*
X48495000Y-34525000D03*
D11*
X53575000Y-34525000D03*
D10*
X58655000Y-34525000D03*
D12*
X49175000Y-39225000D03*
X49765000Y-31985000D03*
X56115000Y-29445000D03*
X56175000Y-40275000D03*
D10*
X105645000Y-58337500D03*
D11*
X110725000Y-58337500D03*
D10*
X115805000Y-58337500D03*
D12*
X106325000Y-63037500D03*
X106915000Y-55797500D03*
X113265000Y-53257500D03*
X113325000Y-64087500D03*
D10*
X181845000Y-58337500D03*
D11*
X186925000Y-58337500D03*
D10*
X192005000Y-58337500D03*
D12*
X182525000Y-63037500D03*
X183115000Y-55797500D03*
X189465000Y-53257500D03*
X189525000Y-64087500D03*
D10*
X129457500Y-77387500D03*
D11*
X134537500Y-77387500D03*
D10*
X139617500Y-77387500D03*
D12*
X130137500Y-82087500D03*
X130727500Y-74847500D03*
X137077500Y-72307500D03*
X137137500Y-83137500D03*
D10*
X110407500Y-77387500D03*
D11*
X115487500Y-77387500D03*
D10*
X120567500Y-77387500D03*
D12*
X111087500Y-82087500D03*
X111677500Y-74847500D03*
X118027500Y-72307500D03*
X118087500Y-83137500D03*
D10*
X272332500Y-120250000D03*
D11*
X277412500Y-120250000D03*
D10*
X282492500Y-120250000D03*
D12*
X273012500Y-124950000D03*
X273602500Y-117710000D03*
X279952500Y-115170000D03*
X280012500Y-126000000D03*
D10*
X134220000Y-96437500D03*
D11*
X139300000Y-96437500D03*
D10*
X144380000Y-96437500D03*
D12*
X134900000Y-101137500D03*
X135490000Y-93897500D03*
X141840000Y-91357500D03*
X141900000Y-102187500D03*
D10*
X31826250Y-115487500D03*
D11*
X36906250Y-115487500D03*
D10*
X41986250Y-115487500D03*
D12*
X32506250Y-120187500D03*
X33096250Y-112947500D03*
X39446250Y-110407500D03*
X39506250Y-121237500D03*
D10*
X191370000Y-96437500D03*
D11*
X196450000Y-96437500D03*
D10*
X201530000Y-96437500D03*
D12*
X192050000Y-101137500D03*
X192640000Y-93897500D03*
X198990000Y-91357500D03*
X199050000Y-102187500D03*
D10*
X169938750Y-120250000D03*
D11*
X175018750Y-120250000D03*
D10*
X180098750Y-120250000D03*
D12*
X170618750Y-124950000D03*
X171208750Y-117710000D03*
X177558750Y-115170000D03*
X177618750Y-126000000D03*
D10*
X272332500Y-58337500D03*
D11*
X277412500Y-58337500D03*
D10*
X282492500Y-58337500D03*
D12*
X273012500Y-63037500D03*
X273602500Y-55797500D03*
X279952500Y-53257500D03*
X280012500Y-64087500D03*
D10*
X77070000Y-96437500D03*
D11*
X82150000Y-96437500D03*
D10*
X87230000Y-96437500D03*
D12*
X77750000Y-101137500D03*
X78340000Y-93897500D03*
X84690000Y-91357500D03*
X84750000Y-102187500D03*
D10*
X86595000Y-34525000D03*
D11*
X91675000Y-34525000D03*
D10*
X96755000Y-34525000D03*
D12*
X87275000Y-39225000D03*
X87865000Y-31985000D03*
X94215000Y-29445000D03*
X94275000Y-40275000D03*
D10*
X143745000Y-58337500D03*
D11*
X148825000Y-58337500D03*
D10*
X153905000Y-58337500D03*
D12*
X144425000Y-63037500D03*
X145015000Y-55797500D03*
X151365000Y-53257500D03*
X151425000Y-64087500D03*
D10*
X67545000Y-58337500D03*
D11*
X72625000Y-58337500D03*
D10*
X77705000Y-58337500D03*
D12*
X68225000Y-63037500D03*
X68815000Y-55797500D03*
X75165000Y-53257500D03*
X75225000Y-64087500D03*
D13*
X139300000Y-127235000D03*
D14*
X139300000Y-111995000D03*
D13*
X115487500Y-127235000D03*
D14*
X115487500Y-111995000D03*
D10*
X58020000Y-96437500D03*
D11*
X63100000Y-96437500D03*
D10*
X68180000Y-96437500D03*
D12*
X58700000Y-101137500D03*
X59290000Y-93897500D03*
X65640000Y-91357500D03*
X65700000Y-102187500D03*
D10*
X219945000Y-58337500D03*
D11*
X225025000Y-58337500D03*
D10*
X230105000Y-58337500D03*
D12*
X220625000Y-63037500D03*
X221215000Y-55797500D03*
X227565000Y-53257500D03*
X227625000Y-64087500D03*
D10*
X124695000Y-58337500D03*
D11*
X129775000Y-58337500D03*
D10*
X134855000Y-58337500D03*
D12*
X125375000Y-63037500D03*
X125965000Y-55797500D03*
X132315000Y-53257500D03*
X132375000Y-64087500D03*
D10*
X162795000Y-58337500D03*
D11*
X167875000Y-58337500D03*
D10*
X172955000Y-58337500D03*
D12*
X163475000Y-63037500D03*
X164065000Y-55797500D03*
X170415000Y-53257500D03*
X170475000Y-64087500D03*
D10*
X55638750Y-115487500D03*
D11*
X60718750Y-115487500D03*
D10*
X65798750Y-115487500D03*
D12*
X56318750Y-120187500D03*
X56908750Y-112947500D03*
X63258750Y-110407500D03*
X63318750Y-121237500D03*
D10*
X86595000Y-58337500D03*
D11*
X91675000Y-58337500D03*
D10*
X96755000Y-58337500D03*
D12*
X87275000Y-63037500D03*
X87865000Y-55797500D03*
X94215000Y-53257500D03*
X94275000Y-64087500D03*
D10*
X186607500Y-77387500D03*
D11*
X191687500Y-77387500D03*
D10*
X196767500Y-77387500D03*
D12*
X187287500Y-82087500D03*
X187877500Y-74847500D03*
X194227500Y-72307500D03*
X194287500Y-83137500D03*
D10*
X129457500Y-34525000D03*
D11*
X134537500Y-34525000D03*
D10*
X139617500Y-34525000D03*
D12*
X130137500Y-39225000D03*
X130727500Y-31985000D03*
X137077500Y-29445000D03*
X137137500Y-40275000D03*
D10*
X148507500Y-77387500D03*
D11*
X153587500Y-77387500D03*
D10*
X158667500Y-77387500D03*
D12*
X149187500Y-82087500D03*
X149777500Y-74847500D03*
X156127500Y-72307500D03*
X156187500Y-83137500D03*
D10*
X205657500Y-77387500D03*
D11*
X210737500Y-77387500D03*
D10*
X215817500Y-77387500D03*
D12*
X206337500Y-82087500D03*
X206927500Y-74847500D03*
X213277500Y-72307500D03*
X213337500Y-83137500D03*
D10*
X148507500Y-34525000D03*
D11*
X153587500Y-34525000D03*
D10*
X158667500Y-34525000D03*
D12*
X149187500Y-39225000D03*
X149777500Y-31985000D03*
X156127500Y-29445000D03*
X156187500Y-40275000D03*
D10*
X115170000Y-96437500D03*
D11*
X120250000Y-96437500D03*
D10*
X125330000Y-96437500D03*
D12*
X115850000Y-101137500D03*
X116440000Y-93897500D03*
X122790000Y-91357500D03*
X122850000Y-102187500D03*
D10*
X96120000Y-96437500D03*
D11*
X101200000Y-96437500D03*
D10*
X106280000Y-96437500D03*
D12*
X96800000Y-101137500D03*
X97390000Y-93897500D03*
X103740000Y-91357500D03*
X103800000Y-102187500D03*
D10*
X210420000Y-96437500D03*
D11*
X215500000Y-96437500D03*
D10*
X220580000Y-96437500D03*
D12*
X211100000Y-101137500D03*
X211690000Y-93897500D03*
X218040000Y-91357500D03*
X218100000Y-102187500D03*
D10*
X110407500Y-34525000D03*
D11*
X115487500Y-34525000D03*
D10*
X120567500Y-34525000D03*
D12*
X111087500Y-39225000D03*
X111677500Y-31985000D03*
X118027500Y-29445000D03*
X118087500Y-40275000D03*
D10*
X208038750Y-115487500D03*
D11*
X213118750Y-115487500D03*
D10*
X218198750Y-115487500D03*
D12*
X208718750Y-120187500D03*
X209308750Y-112947500D03*
X215658750Y-110407500D03*
X215718750Y-121237500D03*
D10*
X272332500Y-77387500D03*
D11*
X277412500Y-77387500D03*
D10*
X282492500Y-77387500D03*
D12*
X273012500Y-82087500D03*
X273602500Y-74847500D03*
X279952500Y-72307500D03*
X280012500Y-83137500D03*
D10*
X229470000Y-96437500D03*
D11*
X234550000Y-96437500D03*
D10*
X239630000Y-96437500D03*
D12*
X230150000Y-101137500D03*
X230740000Y-93897500D03*
X237090000Y-91357500D03*
X237150000Y-102187500D03*
D10*
X29445000Y-58337500D03*
D11*
X34525000Y-58337500D03*
D10*
X39605000Y-58337500D03*
D12*
X30125000Y-63037500D03*
X30715000Y-55797500D03*
X37065000Y-53257500D03*
X37125000Y-64087500D03*
D10*
X253282500Y-120250000D03*
D11*
X258362500Y-120250000D03*
D10*
X263442500Y-120250000D03*
D12*
X253962500Y-124950000D03*
X254552500Y-117710000D03*
X260902500Y-115170000D03*
X260962500Y-126000000D03*
D10*
X122313750Y-120250000D03*
D11*
X127393750Y-120250000D03*
D10*
X132473750Y-120250000D03*
D12*
X122993750Y-124950000D03*
X123583750Y-117710000D03*
X129933750Y-115170000D03*
X129993750Y-126000000D03*
D10*
X29445000Y-34525000D03*
D11*
X34525000Y-34525000D03*
D10*
X39605000Y-34525000D03*
D12*
X30125000Y-39225000D03*
X30715000Y-31985000D03*
X37065000Y-29445000D03*
X37125000Y-40275000D03*
D10*
X153270000Y-96437500D03*
D11*
X158350000Y-96437500D03*
D10*
X163430000Y-96437500D03*
D12*
X153950000Y-101137500D03*
X154540000Y-93897500D03*
X160890000Y-91357500D03*
X160950000Y-102187500D03*
D10*
X167557500Y-34525000D03*
D11*
X172637500Y-34525000D03*
D10*
X177717500Y-34525000D03*
D12*
X168237500Y-39225000D03*
X168827500Y-31985000D03*
X175177500Y-29445000D03*
X175237500Y-40275000D03*
D10*
X246138750Y-67862500D03*
D11*
X251218750Y-67862500D03*
D10*
X256298750Y-67862500D03*
D12*
X246818750Y-72562500D03*
X247408750Y-65322500D03*
X253758750Y-62782500D03*
X253818750Y-73612500D03*
D13*
X186925000Y-127235000D03*
D14*
X186925000Y-111995000D03*
D13*
X163112500Y-127235000D03*
D14*
X163112500Y-111995000D03*
D10*
X191370000Y-34525000D03*
D11*
X196450000Y-34525000D03*
D10*
X201530000Y-34525000D03*
D12*
X192050000Y-39225000D03*
X192640000Y-31985000D03*
X198990000Y-29445000D03*
X199050000Y-40275000D03*
D10*
X229470000Y-34525000D03*
D11*
X234550000Y-34525000D03*
D10*
X239630000Y-34525000D03*
D12*
X230150000Y-39225000D03*
X230740000Y-31985000D03*
X237090000Y-29445000D03*
X237150000Y-40275000D03*
D10*
X253600000Y-39605000D03*
D11*
X253600000Y-34525000D03*
D10*
X253600000Y-29445000D03*
X34207500Y-96437500D03*
D11*
X39287500Y-96437500D03*
D10*
X44367500Y-96437500D03*
D12*
X34887500Y-101137500D03*
X35477500Y-93897500D03*
X41827500Y-91357500D03*
X41887500Y-102187500D03*
D10*
X172320000Y-96437500D03*
D11*
X177400000Y-96437500D03*
D10*
X182480000Y-96437500D03*
D12*
X173000000Y-101137500D03*
X173590000Y-93897500D03*
X179940000Y-91357500D03*
X180000000Y-102187500D03*
D10*
X234232500Y-120250000D03*
D11*
X239312500Y-120250000D03*
D10*
X244392500Y-120250000D03*
D12*
X234912500Y-124950000D03*
X235502500Y-117710000D03*
X241852500Y-115170000D03*
X241912500Y-126000000D03*
D13*
X244233750Y-55956250D03*
X244233750Y-79768750D03*
D14*
X259473750Y-55956250D03*
X259473750Y-79768750D03*
D10*
X210420000Y-34525000D03*
D11*
X215500000Y-34525000D03*
D10*
X220580000Y-34525000D03*
D12*
X211100000Y-39225000D03*
X211690000Y-31985000D03*
X218040000Y-29445000D03*
X218100000Y-40275000D03*
D10*
X253282500Y-101200000D03*
D11*
X258362500Y-101200000D03*
D10*
X263442500Y-101200000D03*
D12*
X253962500Y-105900000D03*
X254552500Y-98660000D03*
X260902500Y-96120000D03*
X260962500Y-106950000D03*
D10*
X53257500Y-77387500D03*
D11*
X58337500Y-77387500D03*
D10*
X63417500Y-77387500D03*
D12*
X53937500Y-82087500D03*
X54527500Y-74847500D03*
X60877500Y-72307500D03*
X60937500Y-83137500D03*
D10*
X224707500Y-77387500D03*
D11*
X229787500Y-77387500D03*
D10*
X234867500Y-77387500D03*
D12*
X225387500Y-82087500D03*
X225977500Y-74847500D03*
X232327500Y-72307500D03*
X232387500Y-83137500D03*
D15*
X265320000Y-50000000D03*
X265320000Y-47000000D03*
D16*
X257170000Y-47210000D03*
D17*
X257170000Y-49210000D03*
D18*
X281900000Y-42210000D03*
X279360000Y-42210000D03*
D19*
X276820000Y-42210000D03*
X274280000Y-42210000D03*
D18*
X271740000Y-42210000D03*
X269200000Y-42210000D03*
X266660000Y-42210000D03*
X264120000Y-42210000D03*
X261580000Y-42210000D03*
X259040000Y-42210000D03*
X256500000Y-42210000D03*
X253960000Y-42210000D03*
X281900000Y-26970000D03*
D19*
X279360000Y-26970000D03*
D18*
X276820000Y-26970000D03*
X274280000Y-26970000D03*
X271740000Y-26970000D03*
X269200000Y-26970000D03*
X266660000Y-26970000D03*
X264120000Y-26970000D03*
X261580000Y-26970000D03*
X259040000Y-26970000D03*
X256500000Y-26970000D03*
X253960000Y-26970000D03*
M02*
