0
SECTION
2
HEADER
9
$INSUNITS
70
4
9
$ACADVER
1
AC1014
9
$HANDSEED
5
FFFF
0
ENDSEC
0
SECTION
2
TABLES
0
TABLE
2
VPORT
5
8
100
AcDbSymbolTable
0
ENDTAB
0
TABLE
2
LTYPE
5
5
100
AcDbSymbolTable
0
LTYPE
5
14
100
AcDbSymbolTableRecord
100
AcDbLinetypeTableRecord
2
BYBLOCK
70
0
0
LTYPE
5
15
100
AcDbSymbolTableRecord
100
AcDbLinetypeTableRecord
2
BYLAYER
70
0
0
ENDTAB
0
TABLE
2
LAYER
5
2
100
AcDbSymbolTable
70
2
0
LAYER
5
50
100
AcDbSymbolTableRecord
100
AcDbLayerTableRecord
2
0
70
0
6
CONTINUOUS
0
ENDTAB
0
TABLE
2
STYLE
5
3
100
AcDbSymbolTable
70
1
0
STYLE
5
11
100
AcDbSymbolTableRecord
100
AcDbTextStyleTableRecord
2
STANDARD
70
0
0
ENDTAB
0
TABLE
2
VIEW
5
6
100
AcDbSymbolTable
70
0
0
ENDTAB
0
TABLE
2
UCS
5
7
100
AcDbSymbolTable
70
0
0
ENDTAB
0
TABLE
2
APPID
5
9
100
AcDbSymbolTable
70
2
0
APPID
5
12
100
AcDbSymbolTableRecord
100
AcDbRegAppTableRecord
2
ACAD
70
0
0
ENDTAB
0
TABLE
2
DIMSTYLE
5
A
100
AcDbSymbolTable
70
1
0
ENDTAB
0
TABLE
2
BLOCK_RECORD
5
1
100
AcDbSymbolTable
70
1
0
BLOCK_RECORD
5
1F
100
AcDbSymbolTableRecord
100
AcDbBlockTableRecord
2
*MODEL_SPACE
0
BLOCK_RECORD
5
1B
100
AcDbSymbolTableRecord
100
AcDbBlockTableRecord
2
*PAPER_SPACE
0
ENDTAB
0
ENDSEC
0
SECTION
2
BLOCKS
0
BLOCK
5
20
100
AcDbEntity
100
AcDbBlockBegin
2
*MODEL_SPACE
0
ENDBLK
5
21
100
AcDbEntity
100
AcDbBlockEnd
0
BLOCK
5
1C
100
AcDbEntity
100
AcDbBlockBegin
2
*PAPER_SPACE
0
ENDBLK
5
1D
100
AcDbEntity
100
AcDbBlockEnd
0
ENDSEC
0
SECTION
2
ENTITIES
0
CIRCLE
5
100
100
AcDbEntity
8
0
100
AcDbCircle
10
-135.46875000000011
20
57.148926524367582
30
0
40
1.0999999999999943
210
0
220
0
230
1
0
LWPOLYLINE
5
101
100
AcDbEntity
8
0
100
AcDbPolyline
90
4
70
1
43
0.0
10
29.499999999999993
20
-54.126073475632452
10
-29.499999999999993
20
-54.12607347563246
42
-0.99999999999999989
10
-29.499999999999993
20
-53.126073475632467
10
29.499999999999993
20
-53.126073475632438
42
-0.99999999999999989
0
LWPOLYLINE
5
102
100
AcDbEntity
8
0
100
AcDbPolyline
90
8
70
1
43
0.0
10
131.96875
20
52.64892652436756
42
0.41421356237309764
10
130.96875
20
53.648926524367567
10
105.96875
20
53.648926524367553
42
-0.99999999999999989
10
105.96875
20
54.648926524367553
10
131.96875
20
54.648926524367539
42
-0.41421356237309503
10
132.96874999999997
20
53.648926524367546
10
132.96875
20
27.64892652436755
42
-0.99999999999999989
10
131.96875
20
27.64892652436755
0
LWPOLYLINE
5
103
100
AcDbEntity
8
0
100
AcDbPolyline
90
8
70
1
43
0.0
10
130.96875
20
-53.126073475632452
42
0.41421356237309764
10
131.96875
20
-52.12607347563246
10
131.96875
20
-27.126073475632452
42
-0.99999999999999989
10
132.96875
20
-27.126073475632452
10
132.96874999999997
20
-53.126073475632438
42
-0.41421356237309503
10
131.96875
20
-54.126073475632438
10
105.96875
20
-54.12607347563246
42
-0.99999999999999989
10
105.96875
20
-53.126073475632467
0
LWPOLYLINE
5
104
100
AcDbEntity
8
0
100
AcDbPolyline
90
4
70
1
43
0.0
10
-29.499999999999993
20
54.648926524367553
42
0.99999999999999989
10
-29.499999999999993
20
53.648926524367553
10
29.499999999999993
20
53.648926524367553
42
0.99999999999999989
10
29.499999999999993
20
54.648926524367553
0
CIRCLE
5
105
100
AcDbEntity
8
0
100
AcDbCircle
10
0
20
-56.626073475632452
30
0
40
1.1000000000000001
210
0
220
0
230
1
0
CIRCLE
5
106
100
AcDbEntity
8
0
100
AcDbCircle
10
0
20
57.148926524367553
30
0
40
1.1000000000000001
210
0
220
0
230
1
0
CIRCLE
5
107
100
AcDbEntity
8
0
100
AcDbCircle
10
135.46875
20
-56.626073475632452
30
0
40
1.0999999999999943
210
0
220
0
230
1
0
CIRCLE
5
108
100
AcDbEntity
8
0
100
AcDbCircle
10
135.46875
20
57.148926524367553
30
0
40
1.0999999999999943
210
0
220
0
230
1
0
CIRCLE
5
109
100
AcDbEntity
8
0
100
AcDbCircle
10
-135.46875
20
-56.626073475632452
30
0
40
1.0999999999999943
210
0
220
0
230
1
0
LWPOLYLINE
5
110
100
AcDbEntity
8
0
100
AcDbPolyline
90
8
70
1
43
0.0
10
-131.96875
20
-52.12607347563246
42
0.41421356237309764
10
-130.96875
20
-53.126073475632467
10
-105.96875
20
-53.126073475632445
42
-0.99999999999999989
10
-105.96875
20
-54.126073475632445
10
-131.96875
20
-54.126073475632452
42
-0.41421356237309503
10
-132.96875
20
-53.126073475632452
10
-132.96875000000003
20
-27.126073475632452
42
-0.99999999999999989
10
-131.96875
20
-27.126073475632452
0
LWPOLYLINE
5
111
100
AcDbEntity
8
0
100
AcDbPolyline
90
8
70
1
43
0.0
10
-130.96875
20
53.648926524367546
42
0.41421356237309764
10
-131.96875
20
52.648926524367553
10
-131.96875
20
27.648926524367575
42
-0.99999999999999989
10
-132.96875
20
27.648926524367575
10
-132.96875
20
53.648926524367553
42
-0.41421356237309503
10
-131.96875
20
54.648926524367553
10
-105.96875000000011
20
54.648926524367553
42
-0.99999999999999989
10
-105.96875000000011
20
53.648926524367553
0
LWPOLYLINE
5
112
100
AcDbEntity
8
0
100
AcDbPolyline
90
56
70
1
43
0.0
10
100.46875000000001
20
-58.126073475632438
42
0.41421356237309764
10
101.46875000000001
20
-59.126073475632445
10
136.96875
20
-59.126073475632452
42
0.41421356237309764
10
137.96874999999997
20
-58.126073475632452
10
137.96875
20
-22.626073475632449
42
0.41421356237309631
10
136.96875
20
-21.626073475632449
10
132.96875000000003
20
-21.626073475632452
42
-0.41421356237309503
10
131.96875000000003
20
-20.626073475632456
10
131.96875000000003
20
21.148926524367546
42
-0.41421356237309631
10
132.96875000000003
20
22.148926524367553
10
136.96875
20
22.148926524367553
42
0.41421356237309631
10
137.96874999999997
20
23.148926524367546
10
137.96875
20
58.648926524367553
42
0.41421356237309764
10
136.96875
20
59.64892652436756
10
101.46875000000001
20
59.648926524367553
42
0.41421356237309764
10
100.46875000000003
20
58.648926524367546
10
100.46874999999999
20
54.648926524367539
42
-0.41421356237309243
10
99.468749999999986
20
53.648926524367553
10
36.000000000000014
20
53.648926524367567
42
-0.41421356237309503
10
35.000000000000014
20
54.64892652436756
10
35
20
58.648926524367567
42
0.41421356237309243
10
33.999999999999986
20
59.64892652436756
10
-33.999999999999986
20
59.648926524367553
42
0.41421356237309503
10
-34.999999999999986
20
58.648926524367546
10
-35
20
54.648926524367539
42
-0.41421356237309243
10
-36
20
53.648926524367553
10
-99.468750000000128
20
53.648926524367567
42
-0.41421356237309503
10
-100.46875000000013
20
54.64892652436756
10
-100.46875000000013
20
58.648926524367567
42
0.41421356237309503
10
-101.46875000000011
20
59.64892652436756
10
-136.96875
20
59.648926524367553
42
0.41421356237310025
10
-137.96875
20
58.648926524367546
10
-137.96875
20
23.148926524367575
42
0.41421356237309243
10
-136.96875
20
22.148926524367589
10
-132.96875
20
22.148926524367575
42
-0.41421356237309503
10
-131.96875
20
21.148926524367578
10
-131.96875
20
-20.62607347563246
42
-0.4142135623730937
10
-132.96875
20
-21.626073475632456
10
-136.96875
20
-21.626073475632452
42
0.4142135623730937
10
-137.96875
20
-22.626073475632449
10
-137.96875
20
-58.126073475632438
42
0.41421356237309503
10
-136.96875
20
-59.126073475632438
10
-101.46875
20
-59.126073475632452
42
0.41421356237309503
10
-100.46875
20
-58.126073475632452
10
-100.46875
20
-54.126073475632452
42
-0.41421356237309503
10
-99.46875
20
-53.126073475632452
10
-36.000000000000014
20
-53.126073475632452
42
-0.41421356237309503
10
-35.000000000000014
20
-54.126073475632452
10
-35
20
-58.126073475632438
42
0.41421356237309503
10
-34
20
-59.126073475632438
10
33.999999999999986
20
-59.126073475632452
42
0.41421356237309503
10
34.999999999999986
20
-58.126073475632452
10
35.000000000000014
20
-54.126073475632452
42
-0.41421356237309503
10
36.000000000000014
20
-53.126073475632452
10
99.468749999999986
20
-53.126073475632452
42
-0.41421356237309503
10
100.46874999999999
20
-54.126073475632452
0
LINE
5
113
100
AcDbEntity
8
0
100
AcDbLine
10
-54.768749999999997
20
33.598926524367556
30
0
11
-130.96875
21
33.598926524367556
31
0
0
LINE
5
114
100
AcDbEntity
8
0
100
AcDbLine
10
-130.96875
20
33.598926524367556
30
0
11
-130.96875
21
52.64892652436756
31
0
0
LINE
5
115
100
AcDbEntity
8
0
100
AcDbLine
10
-130.96875
20
52.64892652436756
30
0
11
-54.768749999999997
21
52.64892652436756
31
0
0
LINE
5
116
100
AcDbEntity
8
0
100
AcDbLine
10
-54.768749999999997
20
52.64892652436756
30
0
11
-54.768749999999997
21
33.598926524367556
31
0
0
LINE
5
117
100
AcDbEntity
8
0
100
AcDbLine
10
111.91875000000003
20
-33.076073475632455
30
0
11
130.96875000000006
21
-33.076073475632455
31
0
0
LINE
5
118
100
AcDbEntity
8
0
100
AcDbLine
10
130.96875000000006
20
-33.076073475632455
30
0
11
130.96875000000006
21
-52.12607347563246
31
0
0
LINE
5
119
100
AcDbEntity
8
0
100
AcDbLine
10
111.91875000000003
20
-14.026073475632455
30
0
11
111.91875000000003
21
-33.076073475632455
31
0
0
LINE
5
120
100
AcDbEntity
8
0
100
AcDbLine
10
92.86875000000002
20
-14.026073475632455
30
0
11
111.91875000000003
21
-14.026073475632455
31
0
0
LINE
5
121
100
AcDbEntity
8
0
100
AcDbLine
10
92.86875000000002
20
-33.076073475632455
30
0
11
92.86875000000002
21
-14.026073475632455
31
0
0
LINE
5
122
100
AcDbEntity
8
0
100
AcDbLine
10
73.818750000000009
20
-33.076073475632455
30
0
11
92.86875000000002
21
-33.076073475632455
31
0
0
LINE
5
123
100
AcDbEntity
8
0
100
AcDbLine
10
73.818750000000051
20
-52.126073475632481
30
0
11
73.818750000000009
21
-33.076073475632455
31
0
0
LINE
5
124
100
AcDbEntity
8
0
100
AcDbLine
10
130.96875000000006
20
-52.12607347563246
30
0
11
73.818750000000051
21
-52.126073475632481
31
0
0
ENDSEC
0
SECTION
2
OBJECTS
0
DICTIONARY
5
C
100
AcDbDictionary
3
ACAD_GROUP
350
D
3
ACAD_MLINESTYLE
350
17
0
DICTIONARY
5
D
100
AcDbDictionary
0
DICTIONARY
5
1A
330
C
100
AcDbDictionary
0
DICTIONARY
5
17
100
AcDbDictionary
0
ENDSEC
0
EOF
